<svg width="303" height="189" viewBox="0 0 303 189" fill="none" xmlns="http://www.w3.org/2000/svg">
<mask id="mask0_2210_615" style="mask-type:luminance" maskUnits="userSpaceOnUse" x="0" y="0" width="303" height="189">
<path d="M302.086 0H0V188.536H302.086V0Z" fill="white"/>
</mask>
<g mask="url(#mask0_2210_615)">
<path fill-rule="evenodd" clip-rule="evenodd" d="M230.858 85.5663C230.726 85.3027 230.331 85.3027 230.331 85.6982C230.067 88.4669 230.463 91.3674 230.726 94.1362C230.858 95.4546 230.99 96.9049 231.254 98.2233C231.254 98.3551 231.254 98.487 231.386 98.6188C231.254 98.7507 230.99 98.8825 230.99 99.0143L230.463 99.5417L229.407 100.596C227.297 102.574 225.318 104.552 223.207 106.529L220.173 109.43C219.118 110.485 217.931 111.408 217.007 112.462C216.48 113.122 216.348 113.781 216.875 114.44C217.139 114.704 217.535 114.967 217.931 115.099C217.799 115.363 217.667 115.627 217.535 115.89C217.403 116.549 217.931 117.209 218.59 116.945C219.382 116.681 219.909 116.154 220.701 115.89C221.492 115.627 222.284 115.627 223.075 115.758C223.471 115.758 223.735 115.89 224.131 116.022C220.437 117.736 216.48 118.659 212.39 118.791C211.599 118.791 210.675 118.791 209.884 118.791C208.433 118.659 207.114 118.527 205.794 118.132C204.739 117.868 203.684 117.472 202.628 117.077C202.101 116.813 201.573 116.681 201.177 116.418C201.045 116.286 199.067 115.231 199.067 115.099C199.067 114.967 199.067 114.836 199.067 114.704C199.067 114.572 199.331 114.44 199.331 114.44C199.99 114.176 200.65 113.913 201.309 113.913C202.892 113.913 204.607 115.099 205.926 115.89C207.377 116.813 208.697 117.736 210.016 118.659H210.148C210.28 118.659 210.411 118.527 210.28 118.395C209.356 116.945 208.037 115.758 206.586 114.704L206.058 114.308C204.739 113.385 203.288 112.331 201.837 112.067C199.99 111.803 198.011 112.99 196.297 113.649L193.262 114.836C192.735 115.099 192.207 115.231 191.68 115.495L192.867 111.539C193.526 109.562 194.054 107.584 194.714 105.738L194.845 105.343C195.505 103.365 196.033 101.256 197.088 99.5417C197.352 99.1462 197.616 98.7507 197.88 98.2233C198.143 97.8278 198.275 97.3004 198.671 96.9049C199.331 96.1138 200.386 95.7183 201.441 95.4546C201.705 95.3227 201.573 95.059 201.441 95.059C200.386 94.9272 199.462 95.1909 198.539 95.5864L198.143 95.7183C197.352 96.1138 196.428 96.5093 195.769 97.1685C194.318 98.8825 193.526 100.86 192.867 102.97L192.735 103.497C192.471 103.365 190.756 103.893 190.492 104.024C183.896 106.793 178.884 112.067 175.058 118.132C170.969 124.856 168.726 132.371 166.879 139.886C166.352 142.259 165.824 144.5 165.296 146.873C167.671 147.796 170.045 148.192 172.288 149.51C173.079 150.038 172.42 151.224 171.496 150.829C169.518 149.642 167.143 149.247 165.033 148.456C163.845 153.861 162.79 159.267 161.999 164.804C159.36 181.548 157.645 198.556 157.777 215.564C157.777 215.959 157.909 216.355 158.041 216.75C157.909 216.75 157.777 216.618 157.777 216.487C157.118 215.432 155.403 216.355 156.062 217.541L156.194 217.673C156.722 218.464 157.25 219.124 158.041 219.519C158.965 219.915 159.888 220.046 160.943 220.046C164.373 220.178 167.803 220.178 171.233 220.178C171.76 216.487 171.892 212.795 172.552 209.235C172.684 208.312 174.135 208.708 174.003 209.631C173.343 213.191 173.211 216.75 172.684 220.31C179.939 220.442 187.326 220.442 194.582 220.442C204.475 220.442 214.369 220.442 224.263 220.442H228.484C239.96 220.442 251.437 220.442 262.782 220.31H265.552C266.607 213.982 267.399 207.521 267.399 201.061C267.399 200.138 268.85 200.138 268.85 201.061C268.85 207.521 268.058 213.982 267.003 220.31C269.773 220.31 272.412 220.31 275.182 220.442H276.501C279.271 220.574 282.041 220.574 284.812 220.31C287.846 220.046 291.012 219.519 293.65 218.069C294.837 217.41 296.024 216.618 296.948 215.564C296.024 215.036 295.101 214.509 294.178 213.85C293.386 213.322 294.178 212.004 294.969 212.531C295.892 213.191 296.948 213.718 298.003 214.377C298.795 213.454 299.322 212.268 299.85 211.081C300.51 209.235 300.905 207.258 301.037 205.28C301.301 202.907 301.433 200.665 301.433 198.292C301.433 193.414 300.905 188.536 300.246 183.658C299.586 179.043 298.663 174.429 297.739 169.814L297.607 169.155C296.684 164.672 295.761 160.19 294.705 155.707C293.65 151.62 292.595 147.401 291.144 143.446C289.956 144.237 288.637 144.896 287.45 145.687C286.658 146.214 285.867 144.896 286.658 144.368C287.978 143.577 289.297 142.786 290.616 141.995C289.033 137.644 287.186 133.425 285.075 129.338C280.722 121.296 274.786 114.044 267.267 108.639C263.441 106.002 259.352 103.761 254.999 102.179C250.514 100.596 246.029 99.6736 241.28 99.278C241.148 99.278 241.016 99.4099 241.016 99.5417H240.884C240.752 99.0143 240.62 98.6188 240.356 98.2233C239.697 97.3004 238.641 96.6412 237.718 96.1138L237.454 95.982C236.399 95.3227 235.212 94.6635 233.892 94.3998C233.892 94.3998 233.76 94.3998 233.892 94.5317C234.684 95.4546 235.871 96.2456 236.794 97.0367L237.058 97.1685C237.85 97.8278 239.037 98.6188 239.037 99.6736C239.037 100.992 238.773 102.442 238.641 103.761C238.509 105.079 238.509 106.398 238.377 107.716C238.246 112.462 238.377 117.209 238.773 121.955L236.926 120.768C234.024 118.791 231.122 116.945 228.22 115.099C226.373 114.044 224.394 113.122 222.284 113.122C221.624 113.122 220.965 113.253 220.305 113.385C220.965 112.726 221.624 112.067 222.416 111.408C223.603 110.353 224.658 109.166 225.846 108.112L229.143 104.947L232.441 101.783C233.497 100.86 234.684 99.9372 234.552 98.3551C234.42 97.1685 233.892 95.8501 233.365 94.6635C233.365 94.5317 233.233 94.268 233.233 94.1362C232.177 91.3674 231.65 88.4669 230.858 85.5663ZM188.645 209.499C189.305 208.84 190.36 209.894 189.701 210.554L189.305 210.949C188.645 211.608 188.118 212.136 187.722 212.927V213.059C187.326 213.85 186.007 213.191 186.403 212.268C186.931 211.213 187.854 210.29 188.645 209.499ZM217.535 209.235C219.646 208.84 221.756 208.84 223.867 209.235C224.79 209.367 224.394 210.817 223.471 210.686C221.624 210.29 219.777 210.29 217.931 210.686C217.007 210.949 216.611 209.499 217.535 209.235ZM246.556 194.337C247.48 194.073 247.875 195.524 246.952 195.787L246.556 195.919C244.973 196.315 243.522 196.578 241.939 196.183C241.016 195.919 241.412 194.601 242.335 194.733C243.786 195.128 245.105 194.732 246.556 194.337ZM195.109 184.712C195.769 184.053 196.824 185.108 196.165 185.767C195.373 186.558 194.318 187.217 193.131 187.217C192.207 187.217 192.207 185.767 193.131 185.767C193.922 185.767 194.582 185.372 195.109 184.712ZM282.173 180.757C281.382 180.362 282.041 179.043 282.965 179.439L288.109 181.944C288.901 182.339 288.241 183.658 287.318 183.262L282.173 180.757ZM181.126 181.153C182.05 181.153 182.05 182.603 181.126 182.603C180.203 182.603 179.279 182.998 178.488 183.394C177.696 183.79 176.905 182.471 177.696 182.076C178.752 181.548 179.939 181.153 181.126 181.153ZM228.88 174.033C228.088 173.506 228.88 172.187 229.671 172.715C230.726 173.506 231.782 174.297 232.837 175.088L233.101 175.352C233.892 175.879 233.101 177.197 232.309 176.67C231.122 175.747 230.067 174.824 228.88 174.033ZM173.871 163.222C174.794 163.222 174.794 164.672 173.871 164.672H173.739C172.948 164.672 172.156 164.672 171.365 164.936H171.233C170.441 165.331 169.65 164.013 170.441 163.618C171.628 163.222 172.684 163.222 173.871 163.222ZM256.054 162.167C254.999 161.772 255.395 160.321 256.318 160.717C257.637 161.244 258.692 162.167 259.88 162.958C260.671 163.486 259.88 164.804 259.088 164.277C258.165 163.486 257.241 162.695 256.054 162.167ZM200.518 158.344L200.254 158.212C199.463 157.816 200.122 156.498 201.045 156.894C201.705 157.289 202.365 157.685 203.024 158.08L203.288 158.212C204.08 158.607 203.42 159.926 202.497 159.53C201.837 159.135 201.177 158.739 200.518 158.344ZM223.075 143.973L223.207 143.841C223.867 143.182 224.922 144.237 224.263 144.896C222.548 146.61 220.569 147.796 218.458 149.115L218.063 149.378C217.271 149.906 216.48 148.587 217.271 148.06L217.799 147.796C219.777 146.61 221.492 145.423 223.075 143.973ZM263.969 142.654C263.441 141.863 264.629 141.204 265.288 141.863C265.948 142.654 266.607 143.314 267.399 143.973L267.531 144.105C267.926 144.5 268.718 145.291 269.378 145.291C270.301 145.423 270.301 146.873 269.378 146.742C268.454 146.61 267.531 145.951 266.871 145.423C265.816 144.632 264.892 143.709 263.969 142.654ZM185.216 137.249C184.556 136.59 185.479 135.535 186.271 136.194C187.59 137.381 189.437 137.776 191.02 138.172C191.943 138.435 191.548 139.886 190.624 139.622L189.833 139.49C188.25 138.963 186.535 138.435 185.216 137.249ZM214.633 127.888C215.556 127.624 215.952 129.075 215.028 129.338C213.446 129.734 211.994 130.261 210.543 130.92C209.752 131.316 208.96 130.129 209.752 129.602C211.335 128.943 212.918 128.284 214.633 127.888ZM199.462 96.773C199.462 96.6412 199.462 96.6412 199.462 96.773C197.748 97.3004 198.539 99.4099 199.067 100.728L199.199 100.992C199.99 103.101 201.177 105.079 202.365 106.925C203.684 108.903 205.135 110.748 206.586 112.462C207.245 113.253 207.905 113.913 208.697 114.704L208.96 114.967C209.752 115.627 210.675 116.945 211.731 116.813C212.918 116.681 213.577 115.363 212.786 114.44C212.126 113.781 211.335 113.122 210.543 112.594C209.884 111.935 209.224 111.276 208.565 110.617C207.245 109.298 205.926 107.848 204.739 106.266C203.552 104.815 202.497 103.233 201.573 101.651L201.441 101.388C200.65 100.069 198.935 98.3551 199.462 96.773ZM258.297 112.199C259.088 111.671 259.88 112.99 259.088 113.517C257.637 114.44 256.318 115.627 254.867 116.549C254.075 116.945 253.284 115.758 254.075 115.231C255.658 114.44 256.846 113.253 258.297 112.199Z" fill="#282828"/>
</g>
<mask id="mask1_2210_615" style="mask-type:luminance" maskUnits="userSpaceOnUse" x="0" y="0" width="303" height="189">
<path d="M302.086 0H0V188.536H302.086V0Z" fill="white"/>
</mask>
<g mask="url(#mask1_2210_615)">
<path fill-rule="evenodd" clip-rule="evenodd" d="M225.177 19.1172C197.079 17.7987 184.547 37.4434 183.624 46.2769C183.096 52.3417 186.658 59.4612 186.658 64.8668C186.658 67.6355 183.228 73.7002 184.811 77.6555C188.373 86.7527 195.892 96.7728 205.39 96.7728C214.888 96.7728 227.419 99.4097 237.973 84.2477C239.028 82.7974 251.428 74.755 252.747 67.1081C255.913 48.1227 245.228 20.0401 225.177 19.1172Z" fill="white"/>
</g>
<mask id="mask2_2210_615" style="mask-type:luminance" maskUnits="userSpaceOnUse" x="0" y="0" width="303" height="189">
<path d="M302.086 0H0V188.536H302.086V0Z" fill="white"/>
</mask>
<g mask="url(#mask2_2210_615)">
<path fill-rule="evenodd" clip-rule="evenodd" d="M226.497 6.85592C225.442 5.66933 223.859 5.2738 222.276 5.2738C220.034 5.40565 218.187 6.72408 216.076 6.85592C213.834 6.98776 211.591 6.19671 209.348 6.59224C207.897 6.85592 206.578 7.51514 205.655 8.56988C202.489 7.64698 199.191 8.83357 197.212 11.4704C194.706 11.0749 192.068 12.657 191.408 15.0302C188.242 15.162 185.34 17.6671 185.076 20.6995C183.889 20.9631 182.702 21.886 182.042 23.0726C181.251 24.3911 181.119 25.8413 181.251 27.4235C179.799 28.2145 179.008 29.7966 178.876 31.5106C177.557 32.5653 177.029 34.2793 177.293 35.9933C176.238 36.5206 175.71 37.9709 175.71 39.1575C175.71 40.2122 175.974 41.267 175.578 42.3217C175.182 43.2446 175.051 44.0357 175.314 45.0904V45.2223C175.314 45.3541 175.446 45.486 175.446 45.7497C175.182 46.0133 174.919 46.277 174.787 46.6726C174.127 47.991 174.259 49.4413 174.787 50.7597C174.523 51.5508 174.655 52.4737 174.919 53.2647C174.391 54.0558 173.995 55.1105 174.127 56.2971C174.259 57.4837 174.787 58.5384 175.578 59.4613C175.314 61.1753 175.974 62.8893 177.293 64.0759C177.161 65.1306 177.293 66.0535 177.821 67.1083C178.217 67.7675 178.744 68.2948 179.272 68.6904C179.272 69.2177 179.272 69.7451 179.536 70.4043C179.799 71.1954 180.195 71.8546 180.855 72.5138C180.459 74.6233 181.778 77.1283 184.153 77.6557C184.285 77.6557 184.548 77.7876 184.68 77.7876C184.944 79.897 185.472 82.0065 186.131 83.8523C188.11 88.8624 191.672 93.2132 196.289 95.9819C198.531 97.3004 201.17 98.2233 203.808 98.6188C205.655 98.8825 207.502 98.8825 209.48 98.6188C211.855 98.3551 214.229 97.9596 216.604 97.4322L217 97.3004C217.923 97.0367 218.978 96.773 219.77 96.2456C220.693 95.7182 221.221 94.7953 221.353 93.7406C221.485 93.2132 221.089 92.554 220.429 92.554C220.297 92.554 220.166 92.554 220.034 92.554H219.902H219.77C219.11 92.4221 218.451 92.554 217.791 92.8177H217.659C216.604 93.2132 215.417 93.6087 214.229 93.8724C213.042 94.1361 211.855 94.3998 210.668 94.5316H210.536H210.14C209.876 94.5316 209.612 94.5316 209.348 94.6635C208.821 94.6635 208.293 94.7953 207.765 94.7953C198.795 95.3227 191.276 88.2032 189.034 79.7652C188.242 76.7328 188.11 73.7004 188.374 70.668C188.506 70.4043 188.506 70.1406 188.506 69.877C188.506 69.7451 188.506 69.6133 188.506 69.4814C188.77 66.5809 189.297 63.5485 189.693 60.6479C190.089 57.22 190.353 53.6603 190.221 50.2323C190.221 48.5184 189.957 46.8044 189.825 45.0904L189.693 44.4312C190.748 44.1675 191.804 43.6402 192.595 42.981C194.31 44.0357 196.553 44.0357 198.268 42.981C200.246 44.1675 202.885 44.2994 204.863 43.1128C206.051 43.9039 207.502 44.2994 208.953 44.0357C209.612 43.9039 210.272 43.6402 210.8 43.1128C211.195 43.2446 211.591 43.2446 211.987 43.2446H212.119C213.042 43.772 214.097 44.0357 215.153 44.0357C215.944 44.0357 216.736 43.9039 217.527 43.5083C218.319 44.0357 219.242 44.2994 220.166 44.4312C221.485 44.5631 222.936 44.2994 224.123 43.5083C226.234 44.6949 228.74 44.8268 230.983 44.0357C231.378 44.8268 232.038 45.486 232.829 46.0134C232.697 46.5407 232.697 46.9362 232.697 47.4636C232.829 48.2547 232.961 49.0457 233.357 49.5731C232.961 50.2323 232.961 51.1552 233.093 52.0781C233.357 53.3966 234.149 54.4513 235.072 55.2424C235.204 57.22 236.259 59.1977 238.106 60.2524C238.238 60.2524 238.238 60.3843 238.37 60.3843C238.502 60.5161 238.502 60.6479 238.634 60.6479C239.821 61.7027 241.536 61.5708 242.987 61.0435C242.987 61.0435 242.987 61.0435 243.119 61.0435C243.646 61.0435 244.042 60.9116 244.174 60.5161C244.438 60.5161 244.57 60.5161 244.834 60.6479C245.625 60.7798 246.417 61.0435 247.076 61.439C248.923 62.3619 249.715 63.944 249.978 65.9217C250.242 68.0312 249.583 70.2725 248 71.7228C247.208 72.382 246.153 72.9094 245.097 73.0412C243.91 73.3049 242.723 72.7775 241.8 73.7004C241.668 73.8323 241.536 74.2278 241.668 74.4915C241.932 75.2825 242.459 75.6781 243.119 75.8099C242.063 77.1283 240.876 78.3149 239.689 79.5015C238.37 80.6881 237.051 82.0065 235.863 83.325C234.544 84.7752 233.489 86.3574 232.697 88.0713C232.302 89.1261 231.906 90.1808 231.51 91.1037L231.378 91.2356C230.983 92.2903 230.323 93.345 230.983 94.5316C231.246 94.9272 231.906 95.4545 232.434 95.3227C234.017 95.059 234.544 94.0043 234.94 92.6858C235.336 91.6311 235.6 90.5763 235.995 89.5216C236.127 89.3898 236.127 89.1261 236.259 88.9942C237.183 89.2579 238.106 88.9942 238.897 88.4669C239.821 88.8624 240.744 88.9942 241.668 88.9942C242.855 88.9942 244.042 88.5987 244.966 88.0713C245.097 88.0713 245.097 88.0713 245.229 88.0713C246.68 88.5987 248.395 88.5987 249.715 87.6758C250.638 87.1484 251.166 86.3574 251.561 85.4345C252.617 85.4345 253.804 85.0389 254.595 84.2479C255.387 83.4568 255.783 82.5339 255.915 81.611C256.838 81.4792 257.761 80.9518 258.421 80.1607C258.949 79.5015 259.344 78.7105 259.476 77.7876C260.663 77.392 261.719 76.7328 262.246 75.6781C262.774 74.6233 262.906 73.5686 262.642 72.6457L262.774 72.5138C263.961 71.8546 264.885 70.7999 265.017 69.3496C265.017 68.9541 265.017 68.5585 264.885 68.163C264.885 67.7675 264.885 67.2401 264.753 66.8446C266.336 65.2625 266.995 62.7574 266.072 60.6479C267.655 58.934 268.051 56.2971 266.863 54.1876C267.655 53.2647 268.051 51.9463 268.051 50.6279C267.919 49.0457 267.259 47.5955 266.336 46.277C266.995 45.486 267.391 44.5631 267.391 43.5083C267.391 42.0581 266.6 40.8715 265.676 39.8167C266.468 37.3117 265.544 34.543 263.566 32.9609C263.961 32.3017 264.093 31.3788 263.961 30.5877C263.698 29.1374 262.642 28.0827 261.455 27.2916C261.719 26.5006 261.587 25.5777 261.191 24.7866C260.663 23.6 259.608 22.9408 258.553 22.2816C258.289 19.7766 255.519 17.6671 253.144 18.8537C253.672 17.0078 252.089 14.8984 250.11 14.7665C249.187 11.866 245.889 10.0202 242.987 10.8112C241.536 8.70173 238.634 7.91067 236.259 8.83357C232.829 6.06486 229.663 5.80118 226.497 6.85592ZM245.229 63.4166C243.383 63.2848 242.063 64.8669 241.008 66.1854C240.085 67.5038 242.459 68.8222 243.119 67.3719C243.383 66.8446 243.646 66.3172 244.042 65.9217C244.042 66.0535 244.174 66.0535 244.174 66.1854V66.3172C244.174 66.449 244.306 66.449 244.306 66.5809V66.7127C244.438 67.1083 244.834 67.5038 245.229 67.6356C245.757 67.8993 246.417 67.3719 246.549 66.8446C246.812 66.0535 246.153 65.2625 245.493 64.9988C246.153 64.8669 246.944 65.1306 247.34 65.658C247.472 65.7898 247.472 65.658 247.472 65.5261C247.736 64.2077 246.417 63.4166 245.229 63.4166Z" fill="#282828"/>
</g>
<mask id="mask3_2210_615" style="mask-type:luminance" maskUnits="userSpaceOnUse" x="0" y="0" width="303" height="189">
<path d="M302.086 0H0V188.536H302.086V0Z" fill="white"/>
</mask>
<g mask="url(#mask3_2210_615)">
<path fill-rule="evenodd" clip-rule="evenodd" d="M201.303 84.6433C202.886 85.0388 204.469 85.1707 206.052 84.6433C207.503 84.2478 208.954 83.3249 209.877 82.1383C210.801 81.0835 211.328 79.7651 211.328 78.4467C211.328 78.3148 211.328 78.183 211.197 78.0511C211.065 77.9193 210.933 77.9193 210.801 77.7875C210.669 77.7875 210.537 77.7875 210.405 77.7875C210.273 77.7875 210.141 77.9193 210.141 78.0511C210.009 78.3148 209.877 78.4467 209.614 78.7104C208.294 80.2925 207.107 81.4791 205.128 81.8746C204.073 82.1383 203.018 82.0064 202.094 81.6109C201.039 81.2154 200.116 80.5562 199.456 79.7651C199.192 79.3696 198.797 79.2377 198.401 79.2377C198.005 79.2377 197.609 79.3696 197.214 79.7651C196.95 80.0288 196.686 80.5562 196.686 80.9517C196.686 81.3472 196.818 81.7428 197.082 82.1383C198.269 83.3249 199.72 84.1159 201.303 84.6433ZM201.435 64.8668C199.852 65.7897 197.477 68.0311 199.192 70.4042C201.171 72.5137 203.941 70.1406 205.392 69.0858C206.711 68.2948 208.163 70.4042 206.975 71.3271C196.818 78.8422 192.728 65.1305 200.643 63.8121C201.435 63.6802 201.831 64.6031 201.435 64.8668ZM215.945 60.7797C216.473 60.516 217.001 60.3842 217.66 60.6478C218.188 60.9115 219.111 61.7026 219.639 62.6255C220.035 63.2847 220.431 64.0758 220.299 64.9987C220.299 65.1305 220.299 65.3942 220.431 65.3942C220.563 65.526 220.694 65.526 220.826 65.526C220.958 65.526 221.09 65.526 221.222 65.526C221.486 65.3942 221.618 65.2624 221.618 65.1305C222.014 63.9439 221.882 62.6255 221.354 61.5707C220.694 59.9886 219.507 58.6702 218.716 58.2747C217.397 57.4836 215.814 57.4836 214.494 58.2747C213.307 58.9339 212.648 59.8568 211.988 60.9115C211.856 61.1752 211.724 61.3071 211.592 61.5707C211.328 61.9663 211.197 62.4936 211.328 62.7573C211.46 63.1529 211.856 63.5484 212.252 63.6802C212.648 63.8121 213.043 63.8121 213.439 63.6802C213.835 63.5484 214.099 63.2847 214.231 62.7573C214.626 62.0981 215.154 61.1752 215.945 60.7797ZM190.486 62.4937C190.882 62.6255 191.145 62.7573 191.541 62.6255C191.805 62.6255 191.937 62.4936 192.069 62.23C192.201 62.0981 192.333 61.8344 192.333 61.7026C192.465 61.1752 192.728 60.6478 193.124 60.2523C193.52 59.9886 193.916 59.8568 194.443 59.8568C194.971 59.9886 195.499 60.2523 195.894 60.7797C196.026 60.9115 196.158 61.0434 196.158 61.1752C196.29 61.4389 196.554 61.7026 196.818 61.9663C196.95 62.0981 197.082 62.0981 197.214 62.0981H197.345C197.873 61.5707 198.005 61.1752 198.005 60.6478C198.005 60.2523 197.873 59.7249 197.477 59.3294C196.818 58.4065 195.631 57.6154 194.707 57.3518C193.52 57.0881 192.465 57.3518 191.541 58.011C190.618 58.6702 189.958 59.7249 189.694 60.7797C189.694 61.0434 189.694 61.3071 189.826 61.5707C190.09 62.0981 190.222 62.3618 190.486 62.4937ZM213.439 50.4959C214.099 51.1551 214.89 51.287 215.814 51.4188C216.209 51.4188 216.605 51.5507 217.001 51.5507C217.924 51.8143 218.98 52.078 219.903 52.6054C220.826 53.1328 221.882 53.6602 222.541 54.4512C222.673 54.5831 222.937 54.8467 223.069 54.9786C223.201 55.1104 223.333 55.3741 223.465 55.506C223.597 55.6378 223.86 55.9015 223.992 56.0333C224.124 56.1652 224.124 56.297 224.124 56.297C224.124 56.297 224.256 56.4289 224.256 56.5607C224.256 56.6925 224.388 56.8244 224.388 56.8244C224.52 56.9562 224.52 57.0881 224.652 57.0881C224.784 57.0881 224.784 57.0881 224.916 57.0881C225.048 57.0881 225.048 57.0881 225.18 56.9562C225.575 56.6925 225.575 56.1652 225.575 55.6378C225.575 54.8467 225.311 53.9238 225.048 53.3965C224.388 52.2099 223.597 50.8914 222.541 49.9685C221.354 48.9138 220.035 48.1227 218.584 47.5954C217.66 47.1998 216.605 46.9361 215.55 46.9361C214.89 46.9361 214.099 47.1998 213.571 47.7272C213.175 48.1227 213.043 48.5183 213.043 49.0456C212.911 49.573 213.043 50.1004 213.439 50.4959ZM189.167 56.5607C189.167 56.6925 189.299 56.6925 189.299 56.6925C189.431 56.6925 189.431 56.6925 189.562 56.6925C189.694 56.6925 189.694 56.6925 189.826 56.5607L189.958 56.4289C190.354 54.4512 191.277 53.0009 193.124 51.9462C194.048 51.4188 195.103 51.1551 196.158 50.8914C196.422 50.7596 196.818 50.7596 197.082 50.7596C198.005 50.6278 199.06 50.4959 199.72 49.7049C200.116 49.1775 200.248 48.6501 200.116 48.1227C199.984 47.5954 199.72 47.068 199.192 46.8043C197.741 46.1451 196.026 46.8043 194.707 47.3317C194.575 47.3317 194.443 47.4635 194.443 47.4635C193.124 47.9909 191.805 48.782 190.75 49.8367C189.958 50.7596 189.167 51.9462 188.903 53.2646C188.507 54.4512 188.507 55.6378 189.167 56.5607Z" fill="#282828"/>
</g>
<mask id="mask4_2210_615" style="mask-type:luminance" maskUnits="userSpaceOnUse" x="0" y="0" width="303" height="189">
<path d="M302.086 0H0V188.536H302.086V0Z" fill="white"/>
</mask>
<g mask="url(#mask4_2210_615)">
<path fill-rule="evenodd" clip-rule="evenodd" d="M192.727 87.0166C193.387 86.7529 194.046 86.621 194.706 86.3574C198.004 84.7752 201.961 84.3797 205.259 85.83C206.974 86.4892 208.557 87.6758 210.14 88.4668C210.536 88.5987 210.931 88.7305 211.327 88.8624C211.591 88.7305 211.855 88.7305 212.119 88.5987C213.965 87.9395 215.548 87.1484 217.263 86.2255C217.395 85.9618 217.659 85.6981 217.791 85.5663C216.604 85.4345 215.417 85.1708 214.361 84.7752C211.195 83.8523 208.161 82.4021 204.995 81.611C201.961 80.8199 198.795 80.2926 195.761 81.3473C194.31 81.8747 193.123 82.7976 191.672 83.325C191.012 83.5886 190.089 83.9842 189.297 83.9842C189.825 85.3026 190.485 86.4892 191.408 87.5439C191.936 87.2803 192.331 87.1484 192.727 87.0166ZM185.868 76.8646C186.131 77.1283 187.319 77.9194 187.714 78.3149C187.846 78.3149 187.846 78.1831 187.978 78.1831C188.11 77.9194 188.374 77.9194 188.638 77.9194C190.353 77.1283 191.936 75.9417 193.387 74.4915C194.442 73.4367 195.365 72.382 196.685 71.7228C198.268 71.0635 199.851 71.3272 201.434 71.4591C203.148 71.5909 204.863 71.0635 206.71 71.3272C208.029 71.4591 209.217 71.9864 210.272 72.7775C212.382 74.3596 213.834 76.4691 215.68 78.4468C217.659 80.5563 220.165 82.0065 222.936 82.6657H223.068C225.178 80.8199 226.893 78.7104 228.608 76.4691C230.191 74.3596 234.412 64.4714 235.468 63.6803C235.863 63.2848 236.391 63.153 236.787 63.153C237.578 63.153 238.37 63.6803 238.634 64.6032C239.161 66.0535 238.897 68.0311 238.897 69.6133C238.897 71.4591 238.766 73.4367 238.502 75.2825C238.238 77.1283 238.106 78.9741 237.71 80.9518C237.578 81.8747 237.314 82.7976 237.183 83.7205C237.183 83.9842 237.051 84.2479 236.919 84.5115C236.787 84.9071 236.655 85.4345 236.655 85.83C235.863 88.8624 234.808 91.7629 232.566 94.0043C230.191 96.2456 227.157 97.8277 224.255 99.1461C221.485 100.465 218.582 101.651 215.548 102.442C212.91 103.629 210.14 104.552 207.37 105.079C204.336 105.606 201.038 105.606 198.136 104.552C196.685 104.024 195.365 103.233 194.046 102.442C192.331 101.519 190.748 100.201 189.429 98.6188C187.055 95.5864 185.999 92.0266 185.472 88.2032C185.34 87.2803 184.812 83.5886 184.812 82.9294C184.68 81.0836 184.548 79.2378 184.416 77.392C184.153 76.601 185.208 76.4691 185.868 76.8646Z" fill="#282828"/>
</g>
<mask id="mask5_2210_615" style="mask-type:luminance" maskUnits="userSpaceOnUse" x="0" y="0" width="303" height="189">
<path d="M302.086 0H0V188.536H302.086V0Z" fill="white"/>
</mask>
<g mask="url(#mask5_2210_615)">
<mask id="mask6_2210_615" style="mask-type:luminance" maskUnits="userSpaceOnUse" x="-1" y="77" width="158" height="149">
<path d="M156.18 77.9193H-0.0078125V225.847H156.18V77.9193Z" fill="white"/>
</mask>
<g mask="url(#mask6_2210_615)">
<path fill-rule="evenodd" clip-rule="evenodd" d="M152.878 209.631C152.614 203.961 152.218 198.292 151.691 192.623C150.767 181.416 149.58 170.078 147.733 159.003C145.754 148.06 143.116 137.381 139.291 126.965C137.444 122.087 135.597 118 132.695 113.649C130.057 109.562 126.627 106.793 122.405 104.288C118.58 102.047 114.095 98.0912 110.533 95.5862C108.95 94.5315 105.916 94.6633 104.861 93.0812C103.542 91.1035 104.333 87.9393 103.014 85.9617C101.431 83.5885 99.1884 81.8745 96.682 80.5561C93.9118 78.7103 90.7458 77.9192 87.5798 78.0511C82.8309 77.7874 78.0819 79.2377 75.0479 83.193C73.4649 85.1706 72.6734 87.4119 72.5415 89.7851C72.5415 90.4443 72.6734 90.9717 73.0692 91.2354C72.8053 91.4991 72.6734 91.7628 72.4096 92.0265C71.75 91.1035 70.2989 90.5762 69.3755 91.3672C66.2096 93.6086 62.7798 95.4544 59.0862 96.7728C58.2947 96.3773 57.2393 96.5091 56.4478 97.1683C56.184 97.432 55.7883 97.6957 55.5244 97.8275C54.2053 98.2231 52.7542 98.4868 51.4351 98.7505C51.0393 98.8823 50.6436 99.0141 50.3798 99.4097C49.984 99.0141 49.4563 98.8823 48.7968 99.146C41.5414 101.915 34.5499 106.266 29.2733 112.198C23.4691 118.659 20.435 126.833 18.0605 135.139C15.5541 144.105 13.9712 153.334 12.5201 162.563C11.2009 171.923 9.74988 181.284 8.82647 190.645C8.29881 195.919 8.03498 201.193 8.29881 206.598C8.43073 209.235 8.69456 211.872 9.09031 214.509C9.22222 215.168 9.22222 215.827 9.48605 216.486C9.0903 216.355 8.43073 216.75 8.56264 217.409C9.22222 221.76 14.4988 222.947 18.0605 223.474C23.9967 224.265 29.9329 224.793 35.8691 224.793C41.8053 224.793 47.6095 224.397 53.5457 224.133C59.6138 223.738 65.55 223.474 71.6181 223.079C95.7586 221.628 119.767 220.31 143.908 218.86C146.15 218.728 148.657 218.596 150.503 217.277C152.878 215.3 153.01 212.531 152.878 209.631Z" fill="white"/>
<path fill-rule="evenodd" clip-rule="evenodd" d="M35.4709 161.112C35.339 160.98 35.6028 160.849 35.7347 160.98C38.6369 163.485 40.2199 167.704 40.4837 171.528C40.8794 175.615 40.3518 179.702 40.2199 183.789C39.956 188.272 39.8241 192.755 39.5603 197.237C39.2965 201.852 39.0326 206.334 38.7688 210.949L38.2411 221.233C38.2411 222.288 38.2411 223.606 37.8454 224.661C37.1858 226.243 35.2071 225.979 34.8113 224.661C34.4156 223.474 34.6794 222.024 34.8113 220.837L35.339 209.631C35.7347 201.72 36.1305 193.809 36.5262 185.899L36.6581 183.262C36.7901 179.702 37.0539 176.142 37.1858 172.583V171.396C37.3177 167.704 37.1858 164.408 35.4709 161.112ZM106.441 95.4544C108.024 95.3225 109.343 95.8499 110.794 96.3773C111.454 96.641 112.114 96.9046 112.641 97.1683C113.433 97.5639 113.96 98.2231 114.356 98.8823L114.62 99.2778C116.599 102.178 117.918 105.474 119.501 108.639C121.216 112.33 123.063 116.022 124.777 119.714L125.569 121.559C125.965 122.482 126.36 123.405 126.888 124.328L127.548 125.91C128.207 127.492 128.867 129.206 127.943 130.92C127.02 132.502 125.305 133.689 123.986 134.875C122.799 135.93 121.743 136.853 120.556 137.908C122.931 140.281 124.382 143.182 125.305 146.346C126.624 145.818 128.207 145.687 129.526 145.423C131.373 145.159 131.637 147.928 129.922 147.928C128.603 147.928 127.02 148.06 125.701 147.796C125.965 148.851 126.097 149.906 126.229 150.96C126.756 156.498 125.569 162.035 124.25 167.309L124.118 167.704C122.667 173.506 121.348 179.307 120.16 185.108C118.973 190.909 117.918 196.842 116.994 202.643C116.071 208.576 115.28 214.641 114.62 220.705C114.488 221.628 113.96 222.419 112.905 222.419C112.114 222.419 111.058 221.628 111.19 220.705C111.982 214.113 113.037 207.653 114.092 201.193C115.939 189.986 118.314 178.911 120.952 167.836L121.48 165.859C122.667 160.849 123.722 155.707 123.194 150.565C122.667 146.346 120.952 141.863 117.522 139.358L117.39 139.226C116.599 138.699 116.335 137.512 117.126 136.721C117.654 136.194 118.182 135.667 118.709 135.271L121.743 132.239L122.403 131.579C122.931 131.052 123.458 130.525 123.986 130.129C124.25 129.865 125.173 129.338 125.305 128.811C125.305 128.547 125.041 127.888 124.777 127.624L124.118 126.174C123.722 125.383 123.326 124.592 122.931 123.801C122.139 122.219 121.348 120.505 120.556 118.791L115.939 108.902C114.62 106.134 113.433 103.101 111.718 100.596L111.322 100.069C111.058 99.6733 110.794 99.2778 110.663 98.7504C110.531 98.2231 110.267 97.6957 110.003 97.3002C109.211 96.2454 107.892 95.7181 106.705 95.4544C106.177 95.7181 106.177 95.4544 106.441 95.4544ZM70.6923 92.8175C70.8242 92.8175 70.8242 92.9493 70.6923 92.9493C69.2412 93.3449 67.922 94.1359 66.7348 95.0588C66.2071 95.5862 65.6795 96.1136 65.2837 96.7728C65.1518 97.0365 65.1518 97.3002 65.0199 97.5639V97.6957C64.888 98.2231 64.7561 98.4868 64.6242 98.8823V99.0141C63.1731 101.255 62.2497 103.629 61.3263 106.134L59.3476 111.407L57.3688 116.681C56.7093 118.395 56.0497 120.109 55.522 121.823C55.1263 122.746 54.8624 123.669 54.4667 124.592C54.3348 124.987 54.2029 125.383 53.939 125.778C53.939 125.778 53.8071 126.174 53.8071 126.306C54.2029 126.965 55.2582 127.492 55.9178 128.02L58.0284 129.734C59.4795 130.92 61.0625 132.107 62.5135 133.293C63.4369 134.084 62.9093 135.535 61.8539 135.798C60.139 136.326 58.5561 136.985 56.8412 137.644C56.1816 137.908 55.522 138.172 54.8624 138.435L54.4667 138.567C54.3348 138.699 54.3348 138.699 54.3348 138.963C54.3348 139.226 54.4667 139.622 54.4667 139.886C54.9944 143.313 55.6539 146.61 56.1816 150.037C58.4241 161.903 61.0625 173.769 64.0965 185.503C65.6795 191.436 67.2625 197.369 68.8454 203.302C70.4284 209.235 72.4072 215.036 74.3859 220.837C74.9135 222.419 72.4072 223.21 71.8795 221.496C69.6369 214.641 67.5263 207.785 65.4156 201.061C61.5901 188.931 58.688 176.538 56.0497 164.013C54.7305 157.816 53.5433 151.62 52.488 145.423C52.2241 144.236 52.0922 143.05 51.8284 141.863L51.5646 140.149C51.4326 138.963 51.3007 137.644 52.2241 136.589C53.1475 135.667 54.7305 135.271 56.0497 134.875H56.1816C56.9731 134.612 57.7646 134.348 58.5561 133.953C57.3688 133.03 56.3135 132.107 55.1263 131.184C54.2029 130.393 53.2795 129.734 52.3561 128.943C51.5646 128.283 51.0369 127.492 50.905 126.569C50.7731 125.515 51.3007 124.592 51.5646 123.669V123.537C51.9603 122.614 52.2241 121.691 52.6199 120.768L54.8624 114.967C56.3135 111.276 57.6327 107.584 59.0837 103.892C59.6114 102.442 60.271 100.992 61.0625 99.6733C61.4582 99.0141 61.8539 98.3549 62.2497 97.6957C62.7774 97.0365 63.1731 96.641 63.9646 96.2454C65.1518 95.5862 66.0752 94.5315 67.2625 94.0041C68.1859 93.0812 69.3731 92.8175 70.6923 92.8175ZM74.5178 86.2253C74.5178 86.0935 74.6497 86.2253 74.6497 86.2253C74.6497 88.0711 74.254 89.917 73.9901 91.7628C73.7263 93.6086 73.5944 95.4544 73.1986 97.3002C73.1986 97.432 73.1986 97.432 73.1986 97.5639C73.0667 98.0912 72.5391 98.4868 72.1433 98.6186C72.2752 99.5415 72.4072 100.464 72.5391 101.387C72.8029 102.969 72.9348 104.552 73.1986 106.134L73.4625 107.979C73.7263 109.825 73.8582 111.539 74.1221 113.385C74.6497 113.649 75.3093 113.781 75.837 114.044C77.1561 114.44 78.6072 114.572 79.9263 114.703C82.6965 114.967 85.5987 115.099 88.5008 115.231H89.1604C92.3263 115.363 95.4923 115.495 98.7902 115.099C100.373 114.967 101.956 114.703 103.407 114.308C104.199 114.176 104.99 113.781 105.782 113.649C106.046 113.649 106.309 113.385 106.573 113.253C106.705 113.121 106.837 112.99 107.101 112.99C107.233 112.99 107.365 112.99 107.497 112.99C107.497 111.539 107.628 110.221 107.628 108.771C107.892 104.947 108.42 101.124 107.628 97.3002C107.628 97.1683 107.76 97.1683 107.76 97.3002C109.211 101.255 109.08 105.606 109.211 109.693C109.343 113.781 109.211 117.868 109.211 121.955C109.475 122.087 109.739 122.219 110.003 122.482C110.399 123.01 110.531 123.801 110.003 124.196C109.739 124.46 109.475 124.592 109.211 124.592C109.211 128.151 109.211 131.711 109.08 135.139C109.739 135.667 109.871 136.853 109.08 137.38C108.948 148.851 108.684 160.321 108.552 171.66L108.156 195.655C108.156 198.819 108.024 202.115 108.024 205.28H108.156C108.288 205.28 108.552 205.412 108.552 205.543C108.816 205.543 108.948 205.675 109.211 205.807C109.739 206.203 109.607 206.862 109.211 207.389L109.08 207.521C108.816 207.785 108.42 207.917 108.024 207.917C108.024 209.894 108.024 211.872 108.024 213.85C108.024 214.509 108.024 215.036 108.024 215.695V217.146C108.024 217.937 107.892 218.991 107.101 219.387C106.177 219.782 105.254 219.519 104.858 218.464C104.726 218.2 104.726 217.937 104.858 217.673C104.858 217.277 104.726 216.882 104.726 216.486V214.904C104.726 214.641 104.726 214.377 104.726 214.245C101.297 214.377 97.8668 214.377 94.437 214.377H92.854C91.5349 214.377 90.3476 214.377 89.0285 214.377H88.5008C87.5774 214.377 86.5221 214.377 85.5987 214.245C85.7306 215.3 85.8625 216.223 85.9944 217.277C86.1263 218.2 85.071 219.123 84.1476 219.123C83.0923 219.123 82.4327 218.332 82.3008 217.277C81.6412 212.795 81.5093 208.18 80.8497 203.698C80.3221 199.61 79.9263 195.655 79.3987 191.568L79.2667 190.25C77.6838 175.615 75.9689 160.849 74.5178 146.214L73.8582 139.358C73.1986 132.37 72.4072 125.515 71.7476 118.527C71.3518 114.572 71.088 110.616 70.8242 106.661C70.5603 103.76 70.4284 100.86 70.4284 97.9594C70.0327 97.5639 69.9008 97.0365 70.0327 96.5091C70.1646 96.2454 70.2965 95.8499 70.2965 95.5862C70.2965 95.3225 70.2965 94.927 70.2965 94.6633C70.2965 94.3996 70.5603 94.2678 70.8242 94.2678C71.2199 93.213 71.7476 92.1583 72.1433 91.1035C73.0667 89.6533 73.5944 87.8075 74.5178 86.2253ZM37.8454 104.683C44.705 100.333 52.8837 97.3002 61.0625 97.5639C61.1944 97.5639 61.3263 97.8275 61.0625 97.9594C56.7093 98.8823 52.3561 100.069 48.1348 101.783C44.0454 103.497 40.0879 105.87 36.5262 108.639C30.0624 113.781 25.0496 120.505 21.7517 128.151C19.773 132.634 18.4539 137.249 17.2666 141.995C15.9475 147.005 15.0241 152.015 14.1007 157.025C12.3858 167.045 11.4624 177.065 10.9347 187.085C10.407 197.369 10.6709 207.653 10.2751 217.937C10.1432 219.651 7.63681 219.651 7.5049 217.937C6.58149 206.203 7.10915 194.337 7.90065 182.735C8.56022 172.187 9.87937 161.771 11.8581 151.488L11.99 150.565C13.8368 141.072 16.2113 131.184 20.6964 122.614C24.7858 115.231 30.8539 109.166 37.8454 104.683ZM133.088 150.301C133.088 150.169 133.22 150.169 133.352 150.301C134.143 152.542 134.143 154.916 134.407 157.289V157.421C134.671 159.53 134.803 161.64 134.935 163.749V164.54C135.463 173.11 136.254 181.68 137.309 190.25C138.365 198.819 139.816 207.257 141.267 215.695C141.399 216.618 141.003 217.541 140.08 217.805C139.156 218.069 138.101 217.541 137.969 216.618C137.046 211.74 136.254 206.862 135.595 201.984C134.407 193.414 133.484 184.712 132.956 176.011C132.692 171.66 132.429 167.309 132.429 162.958C132.429 160.98 132.429 158.871 132.56 156.893V156.366C132.429 154.388 132.429 152.279 133.088 150.301ZM58.9518 205.016C59.0837 205.016 59.2156 205.016 59.0837 205.148C57.7646 207.257 55.9178 209.103 54.2029 210.949C52.3561 212.927 50.6412 214.904 48.7943 216.75C47.4752 218.069 45.3645 215.959 46.6837 214.641C48.6624 212.927 50.7731 211.213 52.7518 209.499L53.6752 208.708C55.3901 207.521 57.105 206.071 58.9518 205.016ZM122.007 203.961C121.875 203.829 122.139 203.566 122.271 203.698C123.326 204.621 124.25 205.543 125.305 206.466C126.36 207.389 127.416 208.18 128.471 209.103C129.526 209.894 130.714 210.685 131.901 211.476C132.824 212.136 133.88 212.663 134.803 213.058C135.331 213.058 135.726 213.322 135.99 213.718C136.518 214.377 136.65 215.695 135.858 216.223L135.726 216.355C134.803 217.014 133.748 217.146 132.956 216.355C132.033 215.432 131.109 214.509 130.186 213.586L129.922 213.322C128.867 212.399 127.943 211.345 127.02 210.29L126.229 209.367C124.777 207.917 123.063 205.939 122.007 203.961ZM117.126 102.969C116.994 102.838 116.994 102.574 117.258 102.574L117.654 102.706C119.369 103.233 121.084 103.892 122.667 104.815C124.25 105.738 125.833 106.925 127.284 108.111C130.318 110.616 132.824 113.781 135.067 117.077C139.42 123.669 142.058 131.184 144.301 138.699C146.675 146.741 148.39 154.916 149.841 163.222C151.292 171.66 152.48 180.098 153.271 188.536C153.667 192.755 153.931 196.842 154.063 201.061C154.063 203.17 154.063 205.412 154.063 207.521C154.063 208.048 154.063 208.576 154.063 209.235V210.949C154.063 212.004 154.195 213.058 153.931 214.113C153.535 215.827 150.765 215.432 150.897 213.718C150.765 213.19 150.765 212.531 150.897 212.004C150.897 211.872 150.897 211.872 150.897 211.74C150.897 211.476 150.897 211.345 151.029 211.081C151.029 210.817 151.029 210.553 151.029 210.29C151.029 209.235 151.029 208.048 151.029 206.994C151.029 204.621 150.897 202.247 150.765 200.006C150.633 195.391 150.369 190.645 149.973 186.031C148.654 169.814 145.884 153.465 141.135 137.908C139.024 130.656 135.99 123.537 131.637 117.208C129.79 114.44 127.548 111.803 125.173 109.43C122.667 107.188 120.029 104.815 117.126 102.969ZM84.8072 207.521L85.071 209.894C85.2029 211.081 85.3348 212.267 85.5987 213.454C86.654 213.322 87.7093 213.19 88.6327 213.19C90.3476 213.058 92.1944 212.927 93.9093 212.927C97.471 212.795 101.165 212.531 104.858 212.531H104.99L105.122 207.917H102.616C100.505 207.917 98.2625 207.917 96.1519 207.917C94.1732 207.917 92.3263 207.917 90.3476 207.917H89.5561C87.9731 207.653 86.2582 207.785 84.8072 207.521ZM105.254 200.797C105.122 200.797 104.99 200.797 104.99 200.797C104.463 200.797 103.935 200.797 103.407 200.797C102.352 200.797 101.297 200.797 100.241 200.797C98.1306 200.797 95.888 200.797 93.7774 200.797C91.5348 200.797 89.2923 200.929 87.1816 200.929C86.1263 200.929 85.071 200.929 84.0157 200.929C84.1476 202.511 84.4114 203.961 84.5434 205.543C86.2582 205.28 87.9731 205.412 89.688 205.412H89.9519C92.1944 205.412 94.437 205.412 96.6795 205.412C98.9221 205.412 101.297 205.412 103.539 205.412H105.386V205.28C105.254 203.829 105.254 202.379 105.254 200.797ZM83.0923 193.546C83.3561 195.392 83.488 197.105 83.7519 198.951C83.8838 198.951 84.0157 198.951 84.1476 198.951C85.2029 198.819 86.2582 198.688 87.3136 198.688C89.4242 198.556 91.6668 198.424 93.7774 198.424C96.02 198.424 98.2625 198.292 100.373 198.292C101.428 198.292 102.484 198.292 103.539 198.292C104.067 198.292 104.594 198.292 105.122 198.292H105.254V195.655C105.254 195.26 105.254 194.732 105.254 194.337C103.539 194.469 101.956 194.337 100.241 194.337H99.8455C97.7349 194.337 95.6242 194.337 93.6455 194.337C91.5349 194.337 89.2923 194.205 87.1816 194.073C86.2582 194.073 85.4668 193.941 84.5434 193.809H84.1476C83.8838 193.678 83.488 193.678 83.0923 193.546ZM105.518 185.899C101.56 186.162 97.471 186.294 93.5136 186.426H92.854C89.2923 186.426 85.7306 186.558 82.1689 186.558C82.4327 188.404 82.5646 190.25 82.8285 192.095C83.3561 192.095 83.8838 192.095 84.4114 192.095C85.4668 192.095 86.3902 192.095 87.4455 192.095C89.5561 192.095 91.6668 192.095 93.6455 192.095C95.7561 192.095 97.9987 192.095 100.109 191.964C101.824 191.964 103.671 191.832 105.386 191.832L105.518 185.899ZM105.782 178.12C105.254 178.252 104.726 178.252 104.199 178.252L102.616 178.384C101.956 178.384 101.165 178.516 100.505 178.516C98.1306 178.647 95.7561 178.647 93.3817 178.779C90.8753 178.911 88.5008 178.911 85.9944 178.779C84.8072 178.779 83.6199 178.647 82.4327 178.516C82.1689 178.516 81.7731 178.516 81.5093 178.516C81.7731 181.021 82.037 183.394 82.3008 185.899C85.8625 185.503 89.4242 185.24 92.9859 184.712L96.1519 184.317C99.3178 183.921 102.484 183.526 105.782 183.13V178.12ZM105.914 170.209C105.254 170.341 104.463 170.341 103.803 170.473H103.671C102.484 170.605 101.165 170.605 99.9774 170.605C97.603 170.605 95.0966 170.737 92.7221 170.737H91.271C89.2923 170.737 87.3136 170.737 85.4668 170.737C84.2795 170.737 82.9604 170.605 81.7731 170.605C81.3774 170.605 80.9816 170.605 80.5859 170.605C80.8497 172.978 81.1136 175.219 81.3774 177.593C81.7731 177.461 82.1689 177.461 82.5646 177.461C83.6199 177.329 84.5434 177.197 85.5987 177.065C87.8412 176.802 89.9519 176.67 92.1944 176.406C94.437 176.274 96.6795 176.142 99.054 175.879L100.637 175.747C101.165 175.747 101.692 175.615 102.22 175.615C103.143 175.615 104.199 175.615 105.122 175.483C105.386 175.351 105.65 175.351 105.914 175.351V170.209ZM106.046 160.849C105.782 161.112 105.518 161.244 104.99 161.376C102.748 161.64 100.505 161.64 98.3944 161.903H97.9987C95.7561 162.035 93.5136 162.167 91.1391 162.299C88.7646 162.431 86.5221 162.563 84.1476 162.563C83.0923 162.563 82.1689 162.563 81.1136 162.563H80.7178C80.3221 162.563 79.9263 162.563 79.3987 162.563C79.6625 164.672 79.9263 166.913 80.0582 169.023C80.454 169.023 80.9816 168.891 81.3774 168.891C82.5646 168.759 83.8838 168.627 85.071 168.495C87.4455 168.364 89.82 168.232 92.1944 168.1C94.5689 167.968 97.0753 167.836 99.4498 167.836C100.637 167.836 101.824 167.704 103.011 167.573C103.803 167.441 104.858 167.177 105.65 167.309C106.046 165.199 106.046 162.958 106.046 160.849ZM106.309 152.542L106.177 152.674C105.254 153.597 104.067 153.597 102.748 153.597H102.616C101.428 153.729 100.109 153.861 98.9221 153.861C96.4157 153.993 93.9093 154.125 91.4029 154.256C88.8966 154.388 86.2582 154.388 83.7519 154.388C82.1689 154.388 80.454 154.388 78.7391 154.256C79.0029 156.63 79.2667 159.003 79.5306 161.376C80.0582 161.244 80.454 161.244 80.9816 161.112C82.1689 160.98 83.2242 160.717 84.4114 160.585C86.654 160.321 88.8965 160.058 91.271 159.794C93.2497 159.662 95.2285 159.398 97.0753 159.266L98.2625 159.135C100.637 159.003 102.88 158.607 105.254 158.607C105.65 158.607 106.046 158.871 106.309 159.135C106.177 157.025 106.177 154.784 106.309 152.542ZM106.441 145.818C105.782 145.95 105.254 145.818 104.594 145.818C103.143 145.818 101.824 145.95 100.373 145.95L92.0625 146.214C89.2923 146.346 86.3902 146.346 83.6199 146.346C82.4327 146.346 81.1136 146.346 79.9263 146.214H79.5306C79.0029 146.214 78.3433 146.214 77.8157 146.082L78.4753 152.806C80.1901 152.542 81.905 152.411 83.488 152.279H83.8838C86.2582 152.015 88.7646 151.883 91.271 151.751C93.7774 151.62 96.2838 151.356 98.7902 151.224C99.9774 151.092 101.297 150.96 102.484 150.96H102.616C103.803 150.829 104.858 150.565 105.914 151.224C106.046 151.356 106.177 151.488 106.309 151.62C106.309 149.642 106.441 147.664 106.441 145.818ZM106.705 137.908C101.692 138.172 96.5476 138.303 91.5349 138.303C88.6327 138.303 85.8625 138.303 82.9604 138.303C81.7731 138.303 80.454 138.172 79.2667 138.172H78.7391C78.2114 138.172 77.5518 138.04 76.8923 138.04C77.1561 140.413 77.4199 142.654 77.6838 145.027C78.3433 144.896 78.871 144.896 79.3987 144.764H79.5306C80.8497 144.632 82.1689 144.5 83.488 144.368C86.1263 144.105 88.6327 143.973 91.271 143.841C93.9093 143.709 96.5476 143.577 99.1859 143.445L101.824 143.313C102.22 143.313 102.748 143.313 103.143 143.313C103.803 143.313 104.463 143.313 104.99 143.182C105.254 143.182 105.65 143.182 105.914 143.182H106.046H106.177C106.309 143.182 106.309 143.05 106.441 143.05L106.705 137.908ZM76.1008 130.525C76.3646 132.634 76.6284 134.744 76.7604 136.721C77.4199 136.589 78.2114 136.589 78.871 136.589C80.3221 136.458 81.6412 136.326 83.0923 136.326L85.8625 136.194C87.7093 136.062 89.5561 136.062 91.4029 135.93C96.5476 135.798 101.56 135.535 106.705 135.271C106.705 133.821 106.837 132.502 106.837 131.052C106.573 131.316 106.177 131.448 105.782 131.448C100.505 131.448 95.0966 131.448 89.688 131.316C87.0497 131.316 84.2795 131.184 81.6412 131.052C80.3221 130.92 79.0029 130.788 77.6838 130.656C77.288 130.656 76.6284 130.656 76.1008 130.525ZM75.1774 123.141C75.4412 125.251 75.705 127.36 75.9689 129.47C76.6284 129.338 77.288 129.338 77.9476 129.206C79.2667 129.074 80.5859 128.943 81.905 128.811C84.5434 128.679 87.1817 128.547 89.688 128.547C94.9646 128.415 100.373 128.415 105.782 128.415C106.309 128.415 106.705 128.547 106.837 128.943C106.837 127.624 106.969 126.306 106.969 124.987C106.441 124.987 105.914 124.855 105.518 124.855C104.067 124.724 102.616 124.724 101.165 124.592C98.1306 124.46 95.0966 124.328 92.0625 124.196C89.0285 124.064 85.9944 123.932 82.9604 123.801H81.6412C79.3987 123.537 77.288 123.405 75.1774 123.141ZM74.254 115.099C74.5178 117.208 74.7816 119.45 75.0455 121.559L75.1774 122.219C77.6838 121.691 80.454 121.559 82.9604 121.427C85.9944 121.296 89.0285 121.296 92.0625 121.296C95.0966 121.296 98.1306 121.427 101.165 121.559C102.748 121.559 104.199 121.691 105.782 121.823C106.177 121.823 106.705 121.823 107.233 121.823C107.233 121.427 107.233 121.164 107.233 120.768C107.233 119.45 107.365 118 107.365 116.681C106.309 117.208 104.99 117.472 103.935 117.604H103.803C102.088 118 100.373 118.263 98.6583 118.395C95.2285 118.659 91.7987 118.527 88.3689 118.263H87.7093C84.6753 118 81.6412 117.736 78.7391 116.945C77.4199 116.549 75.9689 116.154 74.6497 115.363C74.5178 115.231 74.3859 115.231 74.254 115.099ZM103.143 89.5214C103.143 89.3896 103.407 89.3896 103.407 89.5214C103.803 90.3125 103.935 91.2354 104.199 92.0264C104.463 92.9493 104.726 93.7404 105.122 94.6633C105.782 96.5091 106.573 98.2231 107.628 99.937C108.552 101.651 105.914 102.838 105.122 100.992C104.331 99.146 103.803 97.1683 103.407 95.1907C103.275 94.2678 103.011 93.213 103.011 92.2901C103.011 91.2354 102.88 90.3125 103.143 89.5214Z" fill="#282828"/>
</g>
</g>
<mask id="mask7_2210_615" style="mask-type:luminance" maskUnits="userSpaceOnUse" x="0" y="0" width="303" height="189">
<path d="M302.086 0H0V188.536H302.086V0Z" fill="white"/>
</mask>
<g mask="url(#mask7_2210_615)">
<path fill-rule="evenodd" clip-rule="evenodd" d="M83.1086 15.8212C111.998 14.3709 114.109 22.8088 118.066 28.2144C120.045 30.8513 125.19 34.8066 125.981 43.9038C126.509 50.2322 122.815 57.4836 122.815 63.1529C122.815 66.0534 126.377 72.25 124.662 76.469C120.968 85.8299 113.317 96.2455 103.424 96.2455C93.5299 96.2455 75.3256 90.8399 64.5086 75.1506C60.8149 69.8769 54.0873 17.1396 83.1086 15.8212Z" fill="white"/>
</g>
<mask id="mask8_2210_615" style="mask-type:luminance" maskUnits="userSpaceOnUse" x="0" y="0" width="303" height="189">
<path d="M302.086 0H0V188.536H302.086V0Z" fill="white"/>
</mask>
<g mask="url(#mask8_2210_615)">
<path fill-rule="evenodd" clip-rule="evenodd" d="M125.196 63.6804C124.536 63.0211 124.009 62.3619 123.877 61.439C123.745 61.0435 123.745 60.648 123.745 60.2524C126.251 56.6927 128.758 48.3865 128.758 43.772C128.758 37.3117 126.383 31.1151 122.426 25.9732C114.907 15.8213 102.111 10.6794 89.7108 11.0749C77.8384 11.4705 65.1745 15.8213 57.7873 25.1821C33.1191 56.2971 53.8298 90.3127 69.0001 97.3004C70.3192 97.9596 74.5405 97.6959 74.0128 96.3775C72.2979 92.554 70.9788 85.6982 70.715 84.116C71.2426 84.3797 71.6384 84.7753 72.166 85.0389C73.0894 85.5663 74.1448 86.2255 75.332 86.0937C75.332 86.0937 75.4639 86.0937 75.4639 85.9618C75.4639 84.9071 74.8043 83.8524 74.1448 83.1931C73.2214 82.1384 72.4299 81.0837 71.3745 80.1608C70.9788 79.7652 70.5831 79.3697 70.1873 78.9742C70.1873 76.601 70.3192 74.096 70.715 71.7228C71.5065 67.5038 72.8256 63.4167 74.2767 59.3295C75.4639 58.4066 76.7831 57.4837 77.8384 56.429C80.4767 53.924 82.5873 50.7597 84.3022 47.4636C87.732 45.8815 91.1618 44.1676 94.4597 42.5854C96.1746 41.6625 97.8895 40.8715 99.6044 39.9486C100.528 39.4212 101.451 39.0257 102.507 38.4983C102.243 39.8167 101.847 41.1352 101.451 42.4536C101.055 43.5084 102.111 44.2994 103.166 44.1676C106.332 43.6402 109.498 42.3218 112.268 40.7396C113.587 39.9486 114.907 38.8938 116.226 37.8391C117.413 39.6849 118.864 41.3989 120.447 42.8491C121.502 43.772 122.558 44.8268 123.613 45.6178C123.085 49.0458 122.69 52.4737 122.162 55.7698C121.898 57.4837 121.502 59.3295 121.37 61.0435C120.711 63.153 121.37 64.4714 122.69 65.9217C124.536 67.8993 124.536 70.7999 123.745 73.3049C123.613 73.5686 123.613 73.9641 123.481 74.2278L123.349 74.4915C123.217 74.6233 123.217 74.887 123.085 75.0189C122.69 75.8099 122.294 76.601 121.766 77.392C119.524 81.3473 116.753 84.9071 113.455 88.0714C112.004 89.5216 110.421 90.9719 108.707 92.0266C108.311 92.2903 107.915 92.554 107.519 92.6859C107.255 92.8177 107.124 92.9495 106.86 92.9495C106.596 93.0814 106.728 93.0814 106.464 93.0814C106.068 93.2132 105.804 93.3451 105.409 93.4769C105.277 93.4769 105.013 93.6088 104.881 93.6088C104.749 93.6088 104.617 93.6088 104.617 93.6088C101.847 93.6088 99.2086 93.2132 96.4384 92.554C95.1193 92.2903 93.6682 91.8948 92.3491 91.2356C91.6895 90.9719 91.0299 90.5764 90.3703 90.1808C90.1065 90.049 89.8427 89.7853 89.4469 89.6535C89.0512 89.3898 88.5235 89.3898 87.9958 89.3898C87.2044 89.3898 86.6767 90.1808 86.9405 90.84C87.2044 91.6311 87.4682 92.1585 88.2597 92.6859C88.7873 93.0814 89.4469 93.4769 90.1065 93.7406C91.4257 94.3998 92.8767 95.059 94.3278 95.4546C97.098 96.3775 99.8682 96.9048 102.77 97.0367C104.881 97.1685 106.596 96.9048 108.575 95.9819C110.553 95.059 112.4 93.7406 113.983 92.2903C117.677 89.1261 120.843 85.1708 123.613 81.2155C126.119 77.392 128.23 73.3049 127.57 68.5586C127.175 66.7127 126.515 64.9988 125.196 63.6804Z" fill="#282828"/>
</g>
<path fill-rule="evenodd" clip-rule="evenodd" d="M109.761 82.4021C108.31 82.7976 106.858 82.7976 105.407 82.4021C104.088 82.0065 102.769 81.2155 101.846 80.0289C101.054 79.106 100.395 77.7875 100.527 76.601C100.527 76.4691 100.527 76.3373 100.658 76.2054C100.79 76.0736 100.922 76.0736 101.054 75.9417C101.186 75.9417 101.318 75.9417 101.45 75.9417C101.582 75.9417 101.714 76.0736 101.714 76.2054C101.846 76.3373 101.978 76.601 102.11 76.7328C103.297 78.1831 104.484 79.2378 106.199 79.6334C107.122 79.897 108.178 79.7652 108.969 79.3697C109.893 78.9741 110.816 78.4468 111.476 77.6557C111.739 77.2602 112.135 77.1283 112.531 77.1283C112.927 77.1283 113.322 77.2602 113.586 77.6557C113.85 77.9194 114.114 78.3149 114.114 78.7105C114.114 79.106 113.982 79.5015 113.718 79.7652C112.531 81.2155 111.212 82.0065 109.761 82.4021ZM109.761 64.2077C111.212 65.1306 113.454 67.1082 111.871 69.3496C110.024 71.3272 107.386 69.0859 106.067 68.0312C104.88 67.2401 103.561 69.2177 104.616 70.1406C113.982 77.1283 117.807 64.4714 110.42 63.153C109.629 63.0211 109.365 63.8122 109.761 64.2077ZM96.3053 60.2524C95.7776 59.9887 95.25 59.8569 94.7223 60.1206C94.1946 60.3842 93.4031 61.0435 92.8755 61.9664C92.4797 62.6256 92.2159 63.4166 92.2159 64.2077C92.2159 64.3395 92.2159 64.4714 92.084 64.6032C91.9521 64.7351 91.8202 64.7351 91.6882 64.7351C91.5563 64.7351 91.4244 64.7351 91.2925 64.7351C91.0287 64.7351 91.0287 64.4714 90.8968 64.4714C90.501 63.4166 90.6329 62.2301 91.1606 61.1753C91.8202 59.725 92.8755 58.5384 93.667 58.1429C94.8542 57.4837 96.4372 57.4837 97.6244 58.1429C98.6797 58.6703 99.3393 59.725 99.9989 60.6479C100.131 60.9116 100.263 61.0435 100.395 61.3072C100.658 61.7027 100.658 62.0982 100.658 62.4937C100.527 62.8893 100.263 63.153 99.867 63.4166C99.4712 63.5485 99.0755 63.5485 98.6798 63.4166C98.4159 63.2848 98.0202 63.0211 97.8883 62.6256C97.4925 61.5708 96.9648 60.7798 96.3053 60.2524ZM119.786 61.9664C119.522 62.0982 119.259 62.2301 118.863 62.0982C118.731 62.0982 118.467 61.9664 118.335 61.8345C118.203 61.7027 118.071 61.439 118.071 61.3072C117.939 60.7798 117.676 60.3842 117.28 59.9887C116.884 59.725 116.488 59.5932 116.093 59.725C115.565 59.8569 115.037 60.1206 114.773 60.5161C114.641 60.6479 114.51 60.7798 114.51 60.9116C114.378 61.1753 114.246 61.439 113.982 61.7027C113.85 61.8345 113.718 61.8345 113.586 61.8345H113.454C112.927 61.3072 112.795 60.9116 112.927 60.5161C112.927 60.1206 113.059 59.725 113.322 59.3295C113.982 58.4066 115.037 57.7474 115.829 57.4837C116.884 57.22 117.939 57.4837 118.731 58.1429C119.654 58.8021 120.182 59.725 120.446 60.7798C120.446 61.0435 120.446 61.3072 120.314 61.5708C120.182 61.5708 120.05 61.8345 119.786 61.9664ZM98.5478 50.7597C97.8883 51.4189 97.0968 51.4189 96.4372 51.5508C96.0414 51.5508 95.6457 51.6826 95.3819 51.6826C94.4585 51.9463 93.5351 52.21 92.7436 52.6055C91.8202 53.1329 90.8968 53.6602 90.2372 54.3195C90.1053 54.4513 89.9733 54.715 89.7095 54.8468C89.5776 54.9787 89.4457 55.1105 89.3138 55.3742C89.1819 55.5061 89.0499 55.7697 88.7861 55.9016C88.6542 56.0334 88.6542 56.0334 88.6542 56.1653C88.6542 56.1653 88.6542 56.2971 88.5223 56.2971C88.5223 56.429 88.3904 56.5608 88.3904 56.5608C88.2584 56.6926 88.2585 56.8245 88.1265 56.8245C87.9946 56.8245 87.9946 56.8245 87.8627 56.8245C87.7308 56.8245 87.7308 56.8245 87.5989 56.6926C87.335 56.429 87.2031 55.9016 87.2031 55.506C87.2031 54.715 87.467 53.9239 87.7308 53.5284C88.2584 52.3418 89.0499 51.1552 90.1053 50.3642C91.1606 49.4413 92.3478 48.6502 93.7989 48.1228C94.5904 47.8591 95.6457 47.4636 96.5691 47.5955C97.2287 47.5955 97.8883 47.8591 98.4159 48.2547C98.6797 48.5184 98.9436 49.0457 98.9436 49.4413C99.0755 49.9686 98.9436 50.496 98.5478 50.7597ZM121.105 56.429C121.105 56.5608 120.973 56.5608 120.973 56.5608C120.973 56.5608 120.841 56.5608 120.71 56.5608C120.578 56.5608 120.578 56.5608 120.578 56.429L120.446 56.2971C120.05 54.4513 119.259 53.1329 117.412 52.21C116.488 51.8144 115.565 51.5508 114.641 51.2871C114.378 51.2871 114.114 51.1552 113.85 51.1552C112.927 51.0234 112.003 50.8915 111.476 50.1005C111.08 49.705 110.948 49.0457 111.08 48.5184C111.212 47.991 111.476 47.5955 112.003 47.3318C113.322 46.6726 114.905 47.3318 116.224 47.8591C116.356 47.8591 116.356 47.991 116.488 47.991C117.807 48.5184 118.863 49.1776 119.918 50.2323C120.71 51.0234 121.369 52.21 121.633 53.3966C121.633 54.5831 121.633 55.506 121.105 56.429Z" fill="#282828"/>
</svg>
