<svg width="196" height="136" viewBox="0 0 196 136" fill="none" xmlns="http://www.w3.org/2000/svg">
<g clip-path="url(#clip0_1179_2574)">
<mask id="mask0_1179_2574" style="mask-type:luminance" maskUnits="userSpaceOnUse" x="0" y="0" width="196" height="136">
<path d="M196 0H0V136H196V0Z" fill="white"/>
</mask>
<g mask="url(#mask0_1179_2574)">
<path fill-rule="evenodd" clip-rule="evenodd" d="M109.448 184.377C109.254 184.96 109.06 185.543 109.06 186.126C110.031 187.097 111.389 188.263 112.165 189.04C111.195 183.211 114.106 177.966 115.852 172.526C115.27 171.748 112.941 170.777 112.941 169.806C113.135 166.308 113.33 162.423 113.718 158.148C115.076 144.743 116.24 130.56 113.33 117.154C113.135 115.6 112.747 114.24 110.807 114.046C104.985 137.166 109.642 160.48 109.642 183.794L109.836 183.988L109.448 184.377ZM100.716 374C95.8642 374 91.5949 373.223 87.3256 371.28C86.1612 370.891 84.6087 370.308 84.4147 369.531C84.0266 367.2 84.2206 364.868 84.6087 362.343C84.9969 358.068 84.9969 354.766 86.1612 350.297C87.3256 346.023 88.4899 342.72 87.3256 338.446C87.3256 337.086 88.2959 335.726 88.878 334.56C89.8483 332.811 90.2365 330.868 91.0127 329.12C89.4602 328.926 87.9077 328.537 86.5493 328.148L86.3553 328.926C86.3553 329.12 86.1612 329.12 85.9672 329.12C85.7731 329.12 85.385 329.12 85.385 328.731C85.579 325.428 85.9672 322.126 86.3553 318.628C89.8483 285.988 95.282 258.983 104.403 232.171C106.537 225.954 108.866 219.348 108.866 212.548C107.702 212.354 106.343 212.16 104.985 212.354C96.0582 210.217 97.8048 191.371 98.1929 185.737C97.6107 185.543 96.8345 185.348 96.2523 184.96L96.0582 185.154C87.1315 163.2 90.8186 126.674 92.7592 102.194C94.1177 93.4513 92.1771 77.5199 100.133 73.0513C106.537 70.9142 112.747 69.5542 119.345 67.9999C120.51 67.2227 122.062 66.8342 123.421 66.4456L122.256 65.2799C121.286 63.9199 121.48 61.3942 122.644 60.617C123.421 60.617 124.391 61.3942 125.167 61.7827C126.137 59.6456 127.108 57.5085 127.884 54.9827H128.078C128.854 47.7942 138.169 46.6285 143.409 48.9599C149.231 52.0685 146.126 59.257 148.842 64.3085L149.813 63.1427C151.365 63.1427 154.276 65.0856 155.052 65.6685C155.634 65.8627 155.246 67.6113 155.246 68.1942C163.009 69.9427 173.488 70.3313 175.817 79.0742C179.892 95.1999 179.31 111.908 183.967 128.034C188.819 141.051 195.805 157.177 195.999 169.028C196.193 171.36 196.387 183.988 194.64 183.406L193.088 184.571C194.834 187.291 193.476 191.177 192.7 194.286C191.147 200.891 188.042 208.274 181.444 204.971C174.264 244.023 156.605 283.463 162.621 323.68C162.621 323.874 162.621 324.263 162.232 324.068L161.844 323.874C161.068 324.068 160.098 324.263 159.322 324.457C160.098 326.983 160.292 329.508 160.68 332.423C161.068 332.617 160.874 333.394 160.874 333.783C167.278 333.394 170.965 340.194 175.623 343.886C178.728 346.606 182.221 349.131 185.908 351.657C189.013 353.406 191.73 355.543 191.147 358.846L192.118 358.651C193.67 363.508 188.819 364.48 183.773 365.063C171.741 366.228 161.262 363.508 147.29 358.457C145.543 358.651 144.185 356.126 143.991 354.377C143.797 353.211 144.379 352.046 143.991 350.88C142.244 347.383 141.468 337.863 143.797 333.588C144.573 332.617 145.737 331.646 145.543 330.091C145.543 328.343 145.349 326.788 145.543 325.04C142.633 324.846 139.916 324.068 137.393 323.097C137.005 323.291 136.423 323.097 136.423 322.514C136.034 314.937 135.452 306.583 135.258 298.811C134.676 281.908 138.557 265.2 141.468 248.88C141.662 243.634 142.632 238.583 143.021 233.143C143.409 228.091 143.409 223.234 143.603 218.183L141.856 217.794C127.69 254.514 116.434 291.234 108.672 327.177C108.866 327.371 109.254 327.566 109.254 327.76C109.254 327.954 109.254 327.954 109.06 327.954C107.12 328.343 105.373 328.537 103.433 328.731C104.015 333.2 101.104 338.446 103.627 342.526C104.209 343.497 104.403 343.691 103.821 344.468C107.508 351.268 109.642 356.903 111.195 362.926L112.165 362.148C113.524 363.12 113.524 365.063 113.524 367.006C113.524 368.171 113.912 369.337 113.135 370.308C111.971 373.028 104.791 374 100.716 374Z" fill="white"/>
</g>
<mask id="mask1_1179_2574" style="mask-type:luminance" maskUnits="userSpaceOnUse" x="0" y="0" width="196" height="136">
<path d="M196 0H0V136H196V0Z" fill="white"/>
</mask>
<g mask="url(#mask1_1179_2574)">
<path fill-rule="evenodd" clip-rule="evenodd" d="M127.109 53.8171C128.079 54.5943 127.109 60.4229 126.332 61.5886C131.766 65.0857 137.2 68.3886 142.827 71.6914L143.41 72.08C143.604 72.2743 143.992 72.2743 144.186 72.2743H144.38L144.574 72.08C146.127 70.72 147.291 68.1943 148.649 66.2514C146.515 64.3086 147.679 60.8114 147.679 58.2857C148.067 58.2857 148.067 59.4514 148.261 59.84V60.2286C148.455 61.0057 148.649 61.9771 148.843 62.56C149.814 61.3943 154.471 64.1143 155.247 65.0857C156.218 65.6686 155.829 66.8343 155.829 67.6114C164.562 69.36 175.818 70.5257 176.982 81.6C178.34 87.4286 179.117 93.4514 179.893 99.4743L180.087 100.446C181.251 110.743 182.416 121.234 185.715 131.143L187.073 134.251C189.79 140.857 192.701 147.657 194.447 154.651C195.806 157.566 199.493 186.32 194.059 184.183C196 187.291 194.447 191.371 193.865 194.674C192.507 200.114 189.79 209.051 182.416 206.331C176.788 235.863 165.921 264.423 163.204 294.343C162.233 304.057 162.233 313.966 163.786 323.68C163.98 324.651 163.204 325.429 162.233 325.04C161.845 325.234 161.263 325.234 160.875 325.234C161.457 327.371 161.651 329.703 162.039 331.84V332.034C162.233 332.229 162.427 332.617 162.427 333.006C165.726 333.006 168.637 335.143 170.772 337.474C174.653 341.554 178.728 345.44 183.386 348.549C186.685 351.269 192.507 352.823 192.701 357.874C194.447 357.68 194.059 361.371 193.671 362.343C193.283 363.509 192.313 364.091 191.342 364.48C177.176 369.143 161.651 364.674 148.261 359.623C145.932 360.011 144.186 356.903 143.992 354.766C143.798 353.6 144.38 352.629 143.992 351.463L143.798 351.074C143.41 349.909 143.022 348.937 142.827 347.771V347.577C142.245 343.497 141.857 336.697 143.992 333.2C146.515 331.063 145.156 328.926 145.544 326.011C143.022 325.817 140.499 325.234 138.17 324.263C137.2 324.457 136.424 323.68 136.424 322.903V321.543C136.035 314.16 135.453 306.583 135.259 299.2C134.677 282.297 138.558 265.783 141.469 249.074C141.857 242.663 143.022 236.446 143.216 230.034C143.41 226.149 143.41 222.263 143.604 218.571C129.826 253.931 118.57 290.069 110.614 327.177C111.39 327.76 111.39 329.12 110.42 329.314C108.867 329.703 107.121 329.897 105.568 330.091C105.762 333.977 103.433 339.417 105.568 342.72V342.914C105.956 343.497 106.344 344.274 105.956 345.051C108.867 350.297 111.196 355.931 112.748 361.76C114.495 360.983 115.465 364.48 115.465 365.84C115.271 367.589 116.241 370.309 114.883 371.474C107.315 376.331 97.0295 375.554 88.6849 372.834C87.1324 372.251 85.3859 371.669 84.0275 370.697C83.4453 370.114 83.4453 369.143 83.4453 368.366V367.977C83.4453 365.646 83.4453 363.509 84.0275 361.177C83.8334 357.874 84.4156 354.766 84.9978 351.657C85.3859 349.131 86.5503 346.8 86.7443 344.08C87.5206 341.749 86.1621 339.611 86.5503 337.28C86.9384 335.92 87.9087 334.754 88.4909 333.394C89.073 332.229 89.4612 331.063 89.8493 329.703C88.879 329.509 88.1027 329.314 87.1324 329.12C86.7443 330.674 84.2216 330.286 84.4156 328.731C86.3562 304.057 90.2374 279.383 96.4473 255.291C99.3582 241.109 106.538 227.703 107.703 213.326C106.732 213.131 105.762 213.131 104.986 213.131H104.792C104.21 213.131 103.627 213.326 103.045 212.937C95.477 208.274 96.2532 193.897 96.8354 186.126C96.4473 185.931 96.2532 185.931 95.8651 185.737C95.6711 185.931 95.2829 185.931 95.0889 185.543C94.7008 184.571 94.1186 183.794 93.9245 182.823C85.1919 152.709 90.8196 121.04 92.5661 90.3428C93.3423 84.1257 93.3423 75.3828 99.5522 72.08C101.687 71.1086 104.016 70.72 106.344 70.1371C111.584 68.5828 116.824 68 121.869 65.8629C120.705 64.3086 120.899 61.9771 121.869 60.2286C122.645 59.0629 124.198 60.0343 124.974 60.4229C125.75 58.2857 126.527 56.1486 127.109 53.8171ZM112.942 363.12V363.314C113.136 364.48 113.33 365.646 113.33 366.811C116.629 369.92 101.493 370.309 99.9404 370.309C96.0592 370.309 84.9978 368.949 84.4156 364.48V364.674C84.4156 366.034 84.2215 368.754 84.9978 369.92C91.0136 373.029 97.9998 374.194 104.598 373.417H104.792C107.509 373.029 112.554 372.057 113.913 369.726C113.525 367.783 114.301 364.674 112.942 363.12ZM102.075 342.526C98.3879 338.64 92.372 341.36 88.4909 343.691C88.2968 345.44 87.1324 346.023 87.1324 347.966C86.3562 353.6 84.4156 359.817 86.7443 365.257C93.9245 369.143 102.463 368.754 110.226 367.2C110.42 367.006 110.614 366.811 111.002 366.811C111.196 365.257 110.808 363.509 110.42 361.954C109.643 358.651 108.673 355.349 107.703 352.046C106.15 351.074 105.568 348.743 104.598 347.189C104.404 346.8 104.21 346.217 103.822 345.829C102.851 345.246 102.463 343.691 102.075 342.526ZM144.962 353.6C144.574 357.68 148.455 359.234 151.754 360.206C155.247 361.566 158.934 362.537 162.622 363.509C170.19 365.451 177.952 366.229 185.715 365.063H185.909C188.043 364.674 192.119 364.286 192.701 361.566C192.701 361.177 192.895 359.623 192.701 359.234H192.507C191.925 361.371 189.596 362.537 187.267 362.926C186.103 364.091 184.162 363.509 182.804 363.703C173.489 363.703 164.368 360.789 155.441 358.069C152.336 356.709 146.709 355.931 144.962 353.6ZM145.738 332.811C144.186 332.229 143.798 336.891 143.604 337.863C143.022 342.526 143.022 349.909 146.903 353.211C150.978 354.96 155.247 355.737 159.323 357.097L160.293 357.291C168.055 359.623 176.012 361.76 184.356 361.371C184.938 360.206 188.82 361.177 190.372 359.04C192.313 355.543 187.267 353.211 184.938 351.851C180.281 348.937 176.012 345.44 172.13 341.554C170.384 339.806 168.637 337.669 166.503 336.309H166.309C164.562 335.143 162.039 334.366 159.905 335.143C157.77 335.92 156.994 338.251 155.247 339.611C151.366 342.137 147.291 338.057 146.127 334.56V334.366C146.127 334.171 146.127 334.171 146.321 334.171C146.321 334.171 146.321 334.171 146.321 333.977C145.738 333.977 145.738 333.394 145.738 332.811ZM90.0433 329.703C90.6255 332.617 89.073 335.143 88.1027 337.669C87.9087 339.417 88.879 340.971 88.6849 342.72C92.178 340 97.6116 337.474 101.881 340C101.881 337.474 102.657 335.143 103.433 332.811L103.822 331.84C104.016 331.063 104.21 330.48 104.598 329.703C99.5522 330.48 94.7008 330.48 90.0433 329.703ZM159.323 325.623C155.247 326.206 150.978 326.594 146.903 326.206L147.291 333.394C147.291 333.783 147.097 333.977 147.097 333.977C147.679 336.309 149.62 338.446 152.142 338.834C155.829 339.223 156.412 334.366 159.517 333.589C158.934 332.229 159.323 330.48 159.323 328.926C159.128 327.76 159.128 326.594 159.323 325.623ZM145.738 332.034C145.738 332.229 145.544 332.423 145.544 332.423C145.738 332.423 145.738 332.423 145.932 332.617C145.738 332.423 145.738 332.229 145.738 332.034ZM108.479 185.737C104.792 187.097 100.911 187.291 97.0295 186.32C97.8057 192.537 98.5819 206.914 103.822 210.606C104.792 210.411 105.568 210.411 106.538 210.411C107.121 210.411 107.509 210.606 108.091 210.606C108.285 210.606 108.673 210.606 108.867 210.606H109.061C110.808 210.411 112.554 207.886 114.301 209.051C114.495 208.663 114.883 208.469 115.271 208.08C116.629 205.749 115.271 202.64 116.047 200.114C115.659 199.726 115.853 198.949 116.435 198.56C117.212 197.783 118.958 198.366 119.54 197.2C115.853 194.091 112.166 190.789 109.837 186.514V186.32C109.255 186.709 108.479 186.514 108.479 185.737ZM193.089 183.6C190.566 184.96 187.849 185.931 184.938 186.514C184.356 192.149 183.774 197.783 182.804 203.223H182.998C184.356 203.417 185.521 203.806 186.685 202.834C190.372 199.337 191.536 192.149 193.089 187.486V187.291C193.477 186.32 193.671 184.766 193.089 183.6ZM156.024 67.8057C155.635 69.7486 157.77 90.3428 153.889 86.8457C151.366 82.7657 148.261 79.0743 145.738 74.9943C145.35 76.3543 146.515 78.1028 145.932 79.2686C152.725 113.074 157.576 147.269 159.323 181.657C162.233 183.794 164.95 186.32 167.473 188.846C168.249 189.429 168.831 190.594 169.802 190.983C173.877 186.514 178.534 182.434 182.61 178.16C182.61 177.771 182.61 177.577 182.416 177.189C182.222 176.023 183.774 175.246 184.356 176.023C185.715 172.72 185.715 169.029 185.521 165.531C184.938 159.703 182.61 154.069 181.057 148.434C176.594 131.143 173.489 113.074 174.847 95.0057C174.847 94.8114 175.041 94.8114 175.041 95.0057C176.206 113.851 178.146 132.891 183.968 151.154L184.162 151.543C186.297 158.926 189.208 166.697 187.267 174.469C187.461 175.44 186.879 176.606 186.103 177.189C185.715 177.966 185.327 178.743 184.938 179.52C185.132 181.269 184.938 183.017 184.938 184.766C187.849 184.183 190.566 183.017 193.283 181.463C193.477 180.491 193.671 179.714 193.671 178.743C195.612 162.229 189.596 146.297 183.386 131.337C177.564 113.851 178.728 95.0057 173.683 77.52C170.578 71.1086 162.039 70.5257 156.024 67.8057ZM122.645 66.64H122.451C121.093 67.2228 119.54 67.8057 118.182 67.8057C113.33 69.36 108.479 70.5257 103.627 71.8857L103.239 72.08C101.105 72.6628 99.1641 73.2457 97.6116 74.9943C96.2532 76.7428 95.6711 78.88 95.2829 80.8228C93.1483 98.6971 91.9839 116.766 91.0136 134.64C90.4315 149.6 90.8196 164.754 94.7008 179.326C95.2829 181.269 95.8651 183.406 96.0592 185.349C96.2532 185.349 96.6414 185.349 96.8354 185.349C96.8354 185.154 97.0295 185.154 97.0295 185.349C100.717 185.931 104.598 185.543 108.091 184.183C107.315 157.954 101.687 129.589 114.301 105.303H114.495L114.107 106.274C113.136 109.189 112.166 112.103 111.39 115.017C112.36 114.823 113.136 117.154 113.33 117.737C118.764 134.446 115.465 152.126 114.689 169.417C124.198 176.217 133.707 183.017 143.604 189.429C148.067 186.514 152.142 182.629 156.606 180.103C155.247 144.743 148.067 109.771 144.186 74.8C142.633 76.5486 141.275 78.4914 139.723 80.24C137.782 82.5714 136.035 84.9028 134.095 87.4286C133.707 88.0114 132.93 87.8171 132.542 87.2343C129.049 80.4343 126.721 73.0514 122.645 66.64ZM111.39 115.406C105.956 137.943 110.42 161.063 110.42 183.794C110.808 184.183 110.614 184.766 110.226 185.154C110.226 185.543 110.031 185.737 110.031 186.126C110.42 186.514 110.808 186.903 111.196 187.291C110.808 182.434 113.33 177.771 114.883 173.303C113.913 172.331 111.972 171.749 112.166 170.194C112.36 166.503 112.554 162.811 112.942 159.12L113.136 156.983C114.301 143.966 115.465 130.754 112.554 117.931V117.737C112.166 116.96 111.972 115.6 111.39 115.406ZM160.681 175.829C159.323 174.663 161.457 172.72 162.622 173.886C163.786 175.246 161.845 177.189 160.681 175.829ZM159.905 161.063C159.711 160.286 160.487 159.12 161.263 159.703C162.039 160.091 161.845 161.063 161.263 161.646C160.681 162.229 160.099 161.646 159.905 161.063ZM158.546 144.16C156.412 141.246 160.875 140.08 160.293 143.577C160.099 144.354 158.74 145.326 158.546 144.16ZM155.441 128.034C154.277 126.674 156.8 125.314 157.382 127.063C157.576 128.229 156.218 129.006 155.441 128.034ZM167.085 92.6743C167.861 92.8686 171.354 92.0914 170.384 93.4514C171.742 100.446 175.818 108.994 170.19 115.211C169.414 115.989 168.055 117.931 166.697 117.154C163.786 114.823 160.293 113.074 157.964 109.966C156.994 107.634 157.77 104.914 157.576 102.389C157.382 99.28 156.994 96.1714 156.8 92.8686C156.8 92.6743 156.994 92.6743 156.994 92.6743C160.487 92.6743 163.786 92.8686 167.085 92.6743ZM157.188 93.2571C158.74 98.1143 158.74 103.36 158.74 108.411C158.74 108.994 158.934 109.383 159.128 109.771C161.263 112.297 164.368 113.851 166.891 115.989C167.861 115.406 168.831 114.434 169.414 113.463C173.877 107.634 169.802 100.251 169.802 93.6457H169.22C165.338 93.84 161.263 93.84 157.188 93.2571ZM153.889 111.326C155.441 111.326 155.053 113.851 153.695 113.657C152.336 113.269 152.53 111.326 153.889 111.326ZM150.784 98.1143C149.62 96.3657 153.307 95.5886 152.919 97.7257V97.92C152.725 98.6971 150.978 99.28 150.784 98.1143ZM148.455 82.96C149.426 82.7657 150.202 84.1257 149.231 84.7086C148.067 85.68 146.903 83.3486 148.455 82.96ZM124.392 61.7828C123.033 60.4228 122.063 59.84 121.675 62.3657C121.481 63.5314 121.675 65.0857 122.839 65.6686C128.273 70.9143 130.214 78.4914 133.707 84.9029C136.812 81.2114 139.723 77.1314 142.827 73.44C138.752 70.9143 134.483 68.3886 130.408 65.8629C128.273 64.5029 126.138 63.3371 124.392 61.7828ZM151.366 64.8914C149.814 67.6114 148.261 70.3314 146.127 72.6629C145.932 72.8571 145.544 73.0514 145.35 73.2457C145.738 73.0514 146.321 73.44 146.321 73.8286C149.231 76.7428 151.754 80.24 154.083 83.7371C154.471 77.9086 153.695 72.08 154.083 66.2514C153.307 65.6686 152.336 65.28 151.366 64.8914Z" fill="#282828"/>
</g>
<mask id="mask2_1179_2574" style="mask-type:luminance" maskUnits="userSpaceOnUse" x="0" y="0" width="196" height="136">
<path d="M196 0H0V136H196V0Z" fill="white"/>
</mask>
<g mask="url(#mask2_1179_2574)">
<path fill-rule="evenodd" clip-rule="evenodd" d="M163.977 16.3199C163.977 14.7656 161.648 14.1828 161.066 15.737C161.066 15.737 161.066 15.737 160.872 15.9313C161.066 15.737 160.678 16.1256 160.678 16.1256H160.484C160.095 12.2399 158.737 8.1599 155.05 6.21705C150.004 3.69133 144.183 3.30276 138.749 3.49705C136.032 3.69133 132.733 4.0799 130.21 2.7199C129.434 2.33133 128.852 1.55419 127.882 1.3599C125.165 0.582759 123.806 3.49705 124.194 5.82847C123.03 5.82847 121.866 6.41133 121.284 7.57705C120.895 8.1599 120.895 8.93705 120.701 9.5199C119.925 11.0742 118.761 12.2399 119.343 14.1828C118.179 15.5428 118.955 17.2913 119.731 18.6513C120.119 19.2342 120.701 19.817 121.089 20.5942C121.478 21.3713 120.895 22.1485 120.701 22.7313C118.761 27.3942 118.761 32.6399 119.925 37.497C117.79 38.4685 117.208 41.3828 118.567 43.1313C118.955 43.7142 119.537 44.1028 120.313 44.4913C121.089 44.8799 120.507 46.8228 120.701 47.5999C121.089 49.737 123.03 51.097 124.971 49.737C126.135 49.5428 127.299 53.2342 128.076 54.0113C128.658 54.7885 129.24 55.3713 130.016 55.9542C131.957 61.0056 142.242 63.7256 147.287 63.337C152.527 62.7542 156.214 58.2856 159.125 54.2056C160.678 52.0685 161.648 49.737 162.036 47.017C162.424 44.4913 162.23 41.7713 162.036 39.2456C161.454 33.6113 160.678 25.6456 160.095 20.0113C162.23 20.0113 163.977 18.2628 163.977 16.3199Z" fill="white"/>
</g>
<mask id="mask3_1179_2574" style="mask-type:luminance" maskUnits="userSpaceOnUse" x="0" y="0" width="196" height="136">
<path d="M196 0H0V136H196V0Z" fill="white"/>
</mask>
<g mask="url(#mask3_1179_2574)">
<path fill-rule="evenodd" clip-rule="evenodd" d="M163.595 17.0972C164.177 16.5143 165.148 17.0972 164.954 17.8743C164.76 18.8457 163.789 19.4286 162.819 19.8172C162.043 20.2057 161.073 20.2057 160.296 20.2057C160.49 21.1772 160.684 22.3429 160.878 23.3143C161.073 24.6743 161.461 26.0343 161.655 27.2C161.849 28.56 162.237 29.7257 162.431 31.0857C162.625 32.4457 162.819 33.6114 163.013 34.9714C163.401 37.1086 163.595 39.2457 163.789 41.3829L163.983 42.3543C164.177 44.4914 164.372 46.6286 163.983 48.7657C163.595 50.7086 162.431 52.6514 161.267 54.4C160.102 55.9543 158.744 57.7029 157.385 59.0629C154.669 61.7829 151.37 64.1143 147.294 64.5029C145.548 64.6972 143.801 64.5029 142.249 63.92H142.055C140.502 63.3372 138.562 62.1714 137.979 60.4229C137.785 59.2572 138.756 58.48 139.92 59.0629C140.308 59.2572 140.696 59.6457 141.084 59.84C141.473 60.0343 141.473 60.2286 141.861 60.4229C142.637 60.8114 143.219 61.0057 143.995 61.3943C145.548 61.7829 147.1 61.7829 148.653 61.2C151.952 60.2286 154.475 57.7029 156.609 55.1772C157.774 53.8172 158.938 52.4572 159.714 50.7086C160.684 48.96 161.073 47.2114 161.073 45.4629C161.073 43.3257 160.684 41.1886 160.49 39.0514C160.296 36.9143 160.102 34.7772 159.908 32.4457C159.714 30.3086 159.714 28.3657 159.714 26.2286V25.84C159.714 24.6743 159.714 23.7029 159.714 22.5372C159.714 21.3714 159.52 20.4 159.714 19.2343C159.714 19.2343 159.908 19.04 159.908 19.2343C159.908 19.4286 160.102 19.6229 160.102 19.8172C160.878 19.6229 161.461 19.04 162.043 18.4572C162.819 18.2629 163.013 17.4857 163.595 17.0972ZM124.007 1.74859C124.395 -0.194268 126.53 -0.58284 128.082 0.388589C128.859 0.77716 129.441 1.36002 130.023 1.94287C130.605 2.52573 131.381 2.9143 132.158 3.10859C133.71 3.69145 135.457 3.88573 137.009 3.88573C141.084 3.88573 144.966 2.72002 149.041 2.9143C152.146 3.10859 155.445 3.88573 157.774 6.21716C158.938 7.38287 159.714 8.93716 160.296 10.6857C160.49 11.4629 160.684 12.24 160.684 13.0172V13.2114C160.684 13.6 160.878 14.1829 160.878 14.5714C160.878 14.96 160.684 15.3486 160.684 15.9314C160.49 16.9029 159.132 16.7086 158.938 15.9314C158.55 14.1829 158.744 12.4343 158.162 10.4914C157.774 8.93716 156.803 7.57716 155.445 6.60573C149.817 2.72002 142.443 6.02287 136.039 5.6343C134.486 5.6343 132.934 5.24573 131.576 4.85716C130.799 4.66287 130.023 4.2743 129.441 3.88573C128.859 3.49716 128.277 3.10859 127.694 2.52573L127.5 2.33145C127.112 1.94287 126.53 1.5543 125.948 1.94287C125.754 2.13716 125.754 2.52573 125.754 2.72002V2.9143C125.754 4.08002 125.948 5.44002 125.56 6.60573C125.366 7.18859 124.783 7.57716 124.201 7.18859C123.037 6.41145 121.484 7.96573 122.261 9.13144C122.843 9.7143 122.455 10.88 121.484 10.88C119.932 10.88 119.156 12.8229 120.514 13.7943C121.678 14.5714 120.708 16.1257 119.544 15.5429C119.738 15.5429 119.544 15.5429 119.35 15.7372C119.35 15.9314 119.156 15.9314 119.35 16.1257C119.35 16.7086 119.932 17.0972 120.126 17.2914C120.902 18.0686 121.873 18.4572 122.843 18.8457C126.918 20.0114 130.993 18.6514 135.069 17.68C139.144 16.7086 143.801 16.32 147.488 19.04C144.966 17.4857 141.667 17.68 138.95 18.2629C135.263 19.04 131.576 20.5943 127.694 20.9829C128.665 22.9257 129.247 25.0629 128.859 27.2C128.665 28.7543 128.082 29.92 127.306 31.28L127.112 31.4743C126.53 32.64 125.948 33.8057 125.948 35.1657C125.948 36.5257 124.007 36.72 123.619 35.5543C122.843 32.64 125.56 30.3086 126.724 27.7829C127.694 25.6457 127.694 23.3143 126.918 21.1772C125.948 21.1772 125.172 21.1772 124.201 21.1772C123.425 21.1772 122.649 20.9829 121.873 20.7886L121.484 22.1486C121.096 23.8972 120.708 25.6457 120.514 27.3943C120.514 28.7543 120.514 30.1143 120.514 31.4743C120.708 32.64 120.902 33.8057 121.096 34.7772C121.29 34.9714 121.484 35.5543 121.29 35.7486C122.649 36.1372 123.619 37.1086 124.007 38.6629C124.007 38.6629 124.007 38.8572 123.813 38.6629C122.843 37.1086 120.514 36.5257 118.962 37.4972C117.603 38.4686 117.021 40.4114 117.797 41.9657C118.185 42.7429 118.768 43.3257 119.738 43.7143H119.932C120.32 43.9086 120.708 44.1029 121.096 44.4914C121.484 45.0743 121.484 45.6572 121.484 46.24V46.4343C121.484 46.8229 121.484 47.2114 121.484 47.6C121.484 47.6 121.484 47.7943 121.678 47.7943L121.873 47.9886H122.067C122.261 47.7943 122.261 47.7943 122.455 47.6H122.649C123.037 47.2114 123.813 47.4057 124.007 47.7943C124.201 48.1829 124.395 48.3772 124.395 48.7657H124.589L124.783 49.1543C125.948 50.5143 126.918 51.8743 128.082 53.04C128.665 53.8172 129.441 54.4 130.217 54.9829C130.799 55.5657 132.158 55.9543 132.158 56.9257C132.158 57.3143 131.964 57.5086 131.77 57.5086C130.993 57.8972 129.829 56.7314 129.247 56.1486C128.471 55.5657 127.888 54.7886 127.112 54.0114C125.948 52.4572 124.783 50.7086 124.395 48.96C124.395 49.3486 124.201 49.5429 124.007 49.9314C123.619 50.32 123.231 50.7086 122.649 50.7086C121.484 50.9029 120.32 50.5143 119.544 49.5429C118.962 48.7657 118.768 47.6 118.768 46.4343V46.24C118.768 46.0457 118.768 45.8514 118.768 45.6572L118.379 45.4629C117.991 45.2686 117.409 44.88 117.021 44.4914C115.469 43.1314 114.692 40.6057 115.469 38.6629C115.857 37.3029 116.827 36.3314 117.991 35.7486C117.797 35.36 117.797 34.7772 117.603 34.1943C117.409 33.4172 117.409 32.64 117.409 31.6686C117.409 30.1143 117.409 28.56 117.603 27.2C117.991 24.6743 118.768 22.1486 120.32 20.2057C119.156 19.8172 118.185 19.04 117.409 18.2629C116.633 17.2914 116.051 15.9314 116.633 14.7657C116.827 14.3772 117.021 14.1829 117.215 13.9886C116.827 13.2114 116.633 12.24 116.827 11.2686C117.215 10.1029 117.991 9.32573 118.962 8.93716C118.768 7.96573 118.962 6.80002 119.738 6.02287C120.514 5.24573 121.678 4.85716 122.843 5.05145C124.007 4.08002 123.813 2.9143 124.007 1.74859ZM120.902 40.4114C121.873 39.8286 123.037 40.0229 124.007 40.4114C125.172 40.9943 126.53 42.16 126.142 43.52C125.948 44.2972 125.172 44.4914 124.395 44.2972C123.813 44.1029 123.619 43.52 123.425 42.9372C123.231 42.5486 123.037 42.3543 122.649 41.9657C122.067 41.3829 121.29 40.9943 120.514 40.6057C120.902 40.6057 120.902 40.4114 120.902 40.4114ZM146.13 13.7943C148.653 14.3772 150.981 15.9314 152.534 18.2629C152.534 18.4572 152.728 18.6514 152.534 18.8457L152.34 19.04C152.146 19.04 151.952 19.04 151.758 18.8457C150.399 16.5143 148.459 14.7657 146.13 13.7943ZM163.013 14.1829C163.207 13.7943 163.789 13.9886 163.983 14.3772C163.983 14.5714 163.983 14.5714 163.983 14.3772C164.177 14.5714 164.372 14.96 164.372 15.3486C163.983 17.2914 161.655 18.8457 159.714 18.6514C159.52 18.6514 159.52 18.4572 159.714 18.2629C160.49 17.8743 161.073 17.4857 161.655 16.9029C162.237 16.32 162.431 15.5429 162.625 14.96C162.625 14.5714 162.819 14.3772 163.013 14.1829ZM151.758 12.8229C152.728 13.0172 153.698 13.4057 154.475 14.1829C155.251 14.96 156.027 16.1257 156.027 17.0972C156.027 17.8743 155.057 18.2629 154.669 17.4857C154.475 17.0972 154.475 16.5143 154.28 16.1257C154.086 15.7372 153.892 15.3486 153.698 14.96C153.31 14.1829 152.534 13.6 151.952 13.0172C151.758 13.0172 151.758 12.8229 151.758 12.8229ZM125.754 12.6286C125.56 12.4343 125.754 12.0457 126.142 12.0457C127.694 12.4343 129.053 12.8229 130.799 13.0172C131.576 13.0172 132.352 13.0172 133.128 12.8229H133.516C134.098 12.8229 134.68 12.6286 135.263 12.8229C135.651 12.8229 135.651 13.4057 135.457 13.6C134.292 14.96 131.964 14.7657 130.411 14.5714C128.665 14.3772 127.112 13.7943 125.754 12.6286ZM153.116 8.74287C152.922 8.54859 153.116 8.3543 153.31 8.3543C154.863 8.93716 156.415 10.4914 156.803 12.0457C156.997 12.4343 156.415 12.8229 156.027 12.4343C155.445 11.8514 155.057 11.2686 154.475 10.4914C154.086 9.90859 153.504 9.32573 153.116 8.74287ZM128.471 9.32573C128.276 9.13145 128.471 8.93716 128.665 8.93716C129.635 9.32573 130.605 9.52002 131.576 9.7143C132.546 9.90859 133.71 9.7143 134.68 9.90859C135.069 9.90859 135.457 10.6857 134.875 10.88C132.934 11.8514 130.023 10.88 128.471 9.32573ZM131.187 7.38287C130.993 7.18859 131.187 6.9943 131.381 6.9943C132.352 7.38287 133.322 7.38287 134.292 7.38287C134.68 7.38287 134.68 7.96573 134.292 7.96573C133.128 8.16002 131.964 7.96573 131.187 7.38287Z" fill="#282828"/>
</g>
<mask id="mask4_1179_2574" style="mask-type:luminance" maskUnits="userSpaceOnUse" x="0" y="0" width="196" height="136">
<path d="M196 0H0V136H196V0Z" fill="white"/>
</mask>
<g mask="url(#mask4_1179_2574)">
<path fill-rule="evenodd" clip-rule="evenodd" d="M151.757 52.0685C150.98 52.0685 150.01 51.6799 149.428 51.4857H149.234C148.652 51.2914 148.069 51.0971 147.681 50.7085C147.681 50.5142 147.487 50.3199 147.487 50.1257V49.9314C147.681 49.9314 147.681 49.9314 147.875 49.9314H148.069C148.264 49.9314 148.458 49.9314 148.652 49.9314C148.846 49.9314 148.846 49.9314 149.04 49.9314C149.428 49.9314 149.816 50.1257 150.204 50.1257C150.398 50.1257 150.786 50.1257 150.98 50.1257C151.757 50.1257 152.533 49.9314 153.115 50.5142C153.309 50.5142 153.309 50.7085 153.309 50.9028C153.309 51.0971 153.309 51.2914 153.115 51.4857C152.921 51.8742 152.339 52.0685 151.757 52.0685ZM156.22 45.2685C155.832 45.8514 155.25 46.0457 154.473 46.0457C152.921 46.0457 150.98 45.4628 149.622 44.4914C149.234 44.2971 149.04 43.9085 149.04 43.5199V42.7428L148.652 43.3257C148.652 43.3257 148.652 43.5199 148.458 43.5199C148.264 43.7142 148.264 43.9085 148.069 44.1028C147.681 44.6857 147.293 45.4628 146.905 46.0457C146.711 46.6285 146.517 47.0171 146.323 47.5999C145.935 48.5714 145.741 49.3485 145.159 50.1257C145.159 50.3199 144.965 50.3199 144.77 50.3199C144.576 50.3199 144.576 50.3199 144.382 50.1257C143.8 48.5714 144.77 46.6285 145.547 45.4628V45.2685C146.323 44.1028 147.487 42.5485 149.04 42.3542L149.234 42.5485L149.428 42.3542C149.816 42.1599 150.398 42.1599 150.786 42.3542L151.174 42.5485C151.951 42.9371 152.921 43.3257 153.697 43.5199H153.891H154.085V43.3257V43.1314V42.9371C154.085 42.7428 153.891 42.3542 153.891 42.1599C153.503 41.1885 152.921 40.2171 152.339 39.4399V39.2457C152.339 39.0514 152.145 39.0514 152.145 38.8571C151.757 38.2742 151.174 37.4971 151.174 36.7199C151.757 36.7199 152.339 37.1085 152.727 37.4971C153.309 37.8857 153.891 38.4685 154.473 39.0514C155.444 40.0228 156.414 41.3828 156.802 42.9371C156.802 43.7142 156.608 44.6857 156.22 45.2685ZM140.501 37.3028C140.501 36.5257 140.889 34.5828 142.054 34.5828C142.83 34.5828 143.218 35.7485 143.218 37.1085C143.218 37.8857 143.024 39.6342 142.054 39.6342C141.083 39.8285 140.501 38.0799 140.501 37.3028ZM157.772 37.1085C157.772 36.3314 157.384 34.3885 156.22 34.3885C155.444 34.3885 155.056 35.5542 155.056 36.9142V37.1085C155.056 37.8857 155.25 39.6342 156.22 39.6342C157.19 39.4399 157.772 37.8857 157.772 37.1085ZM144.576 31.8628C144.382 31.8628 144.188 31.8628 144.188 31.8628C143.8 31.8628 143.218 32.0571 142.83 32.0571C142.054 32.2514 141.083 32.4457 140.307 32.8342C139.531 33.0285 138.755 33.4171 137.978 33.6114C137.978 33.6114 137.978 33.6114 137.784 33.6114C137.59 33.8057 137.202 33.8057 137.008 33.9999C136.62 34.1942 136.232 34.3885 135.844 34.3885C137.008 32.8342 138.561 31.6685 140.307 30.8914C141.277 30.5028 142.248 30.1142 143.218 29.7257L143.8 29.5314C144.576 29.3371 145.547 29.1428 146.323 29.5314C146.711 29.7257 146.905 29.9199 146.905 30.3085C146.905 30.6971 146.905 30.8914 146.711 31.2799C146.517 31.4742 146.323 31.6685 146.129 31.6685C145.935 31.6685 145.547 31.6685 145.353 31.4742C144.77 31.8628 144.576 31.8628 144.576 31.8628ZM156.608 31.8628C156.026 31.6685 155.444 31.6685 155.056 31.6685C154.862 31.6685 154.473 31.6685 154.279 31.6685C153.891 31.6685 153.503 31.8628 153.115 31.6685C152.921 31.6685 152.727 31.4742 152.533 31.2799C152.339 31.0857 152.339 30.8914 152.145 30.6971C152.145 30.5028 152.145 30.3085 152.145 30.1142C152.339 29.9199 152.339 29.7257 152.727 29.5314C153.309 29.1428 154.473 29.1428 155.25 29.3371C156.026 29.3371 156.802 29.7257 157.384 30.1142C157.967 30.5028 158.549 30.8914 159.131 31.4742C159.519 32.0571 159.713 32.6399 159.907 33.2228C159.131 32.6399 157.772 32.2514 156.608 31.8628Z" fill="#282828"/>
</g>
<mask id="mask5_1179_2574" style="mask-type:luminance" maskUnits="userSpaceOnUse" x="0" y="0" width="196" height="136">
<path d="M196 0H0V136H196V0Z" fill="white"/>
</mask>
<g mask="url(#mask5_1179_2574)">
<path fill-rule="evenodd" clip-rule="evenodd" d="M157.771 45.8515C156.994 45.6572 156.024 45.6572 155.248 45.4629C154.472 45.2686 153.695 44.6858 152.919 44.4915C152.143 44.2972 151.367 44.4915 150.979 44.8801C150.396 44.6858 149.814 44.6858 149.232 44.6858C148.456 44.8801 147.485 45.0744 146.709 45.4629C146.709 45.4629 146.515 45.4629 146.515 45.6572C145.157 45.6572 143.604 45.6572 142.246 45.8515C141.082 46.0458 139.917 46.8229 139.141 47.7944C138.365 48.9601 138.171 50.5144 137.977 51.8744C137.977 52.8458 139.141 52.8458 139.529 52.2629C139.917 51.6801 140.499 50.9029 140.887 50.3201C141.47 49.7372 142.246 49.5429 143.216 49.3486C145.157 49.1544 147.097 49.3486 149.038 49.1544C150.202 49.1544 151.367 48.7658 151.949 47.6001C152.531 48.3772 153.501 48.7658 154.472 48.9601C155.442 48.9601 156.412 48.7658 157.383 49.1544C158.353 49.3486 159.323 49.9315 159.129 51.0972C158.935 51.6801 159.905 52.0686 160.099 51.4858C161.846 49.5429 160.487 46.4344 157.771 45.8515Z" fill="#282828"/>
</g>
<mask id="mask6_1179_2574" style="mask-type:luminance" maskUnits="userSpaceOnUse" x="0" y="0" width="196" height="136">
<path d="M196 0H0V136H196V0Z" fill="white"/>
</mask>
<g mask="url(#mask6_1179_2574)">
<path fill-rule="evenodd" clip-rule="evenodd" d="M30.4697 126.674L30.2757 128.812L30.0816 128.617C30.0816 133.086 29.3054 137.554 28.7232 142.023C26.7826 140.469 25.2301 139.109 25.6182 136.389C26.7826 132.503 28.141 128.812 29.4994 125.12L29.6935 126.092L30.4697 126.286V126.674ZM166.699 362.149C166.311 360.594 165.923 359.04 165.535 357.486C165.535 357.292 165.147 357.292 165.147 357.292C163.206 352.629 161.654 351.657 157.967 350.88C151.951 349.714 146.129 347.383 140.501 344.08C140.695 343.497 141.084 342.72 141.278 341.749C141.278 341.749 141.278 341.749 141.084 341.749H140.89C140.501 342.72 140.113 343.497 139.919 343.692C139.143 343.303 138.367 342.72 137.785 342.332C137.202 341.943 136.426 341.36 135.844 340.972C135.65 340.389 134.874 340.194 134.292 339.806C133.321 339.223 132.933 338.834 131.963 339.612C130.216 337.28 128.664 334.754 127.305 331.452C126.335 329.509 125.947 327.372 124.783 325.817L125.559 325.623C111.781 295.12 109.646 261.12 106.735 228.48C106.153 221.097 105.377 213.909 104.212 206.72C104.018 205.554 103.824 204.583 103.242 203.806C111.004 197.394 111.004 184.96 107.317 175.829C115.856 152.514 98.9727 127.84 100.331 104.137C101.107 88.0115 98.1965 69.3601 79.9549 65.4744C77.6262 64.1144 74.9093 63.9201 72.7747 63.9201C70.8341 62.9487 70.446 60.8115 69.8638 59.0629H69.2816C69.0876 58.2858 68.8935 57.3144 68.6994 56.5372C68.5054 55.9544 68.5054 55.3715 67.7291 55.5658C65.9826 52.8458 51.2341 51.6801 51.2341 55.7601C50.6519 56.1487 50.6519 56.7315 50.4579 57.5087C49.6816 62.7544 44.0539 66.8344 39.0083 66.0572C17.4678 65.0858 8.92914 80.2401 4.85389 101.029C1.55488 117.154 -0.579769 134.64 2.13706 150.766C4.65983 158.149 12.2282 161.646 18.0499 166.114C17.4678 167.863 17.2737 169.612 17.2737 171.554C17.2737 173.692 17.0796 175.829 16.8856 177.966C16.4975 180.686 15.7212 185.349 19.4083 185.737C20.7668 217.6 23.6777 249.269 19.2143 281.132C15.5272 298.812 16.8856 320.183 21.543 337.474C21.7371 338.252 22.5133 339.029 23.2895 338.834C23.6777 339.029 24.0658 339.223 24.4539 339.029C24.648 339.417 24.842 339.806 25.2301 340.194C25.2301 344.857 25.8123 349.52 25.6182 354.377C25.2301 354.377 24.4539 353.989 24.0658 354.183V354.572L23.6777 354.766C23.0955 356.514 22.7074 358.263 22.3192 359.817C21.1549 362.343 19.4083 366.812 20.3786 369.726C20.3786 369.726 20.1846 370.114 19.9905 370.114C19.7965 370.309 19.7965 370.309 19.6024 370.503C19.0202 370.697 19.0202 371.474 18.8262 372.057C18.4381 373.806 19.0202 375.36 19.2143 377.109L19.7965 377.692C26.2004 378.08 32.6044 378.274 39.0083 378.469C39.3965 377.497 39.5905 376.332 39.9786 375.36C47.547 380.994 60.743 378.857 70.2519 377.497C74.1331 376.914 77.8202 376.332 81.1192 376.137C81.3133 376.137 81.3133 375.943 81.3133 375.943C81.3133 374.583 81.5074 373.417 81.5074 372.057C82.0895 371.474 81.8955 370.309 81.5074 369.143C79.7608 365.452 75.2974 365.063 71.4163 364.48C64.4301 363.12 58.8024 360.594 54.145 356.709C54.5331 356.514 54.7272 356.126 54.9212 355.932C54.7272 355.932 54.7272 355.737 54.5331 355.737C54.339 355.543 54.145 355.543 53.7569 355.349C53.5628 355.349 53.5628 355.349 53.3687 355.349C52.9806 355.154 52.5925 354.766 52.0103 354.377C52.0103 354.572 51.8163 354.572 51.8163 354.766C51.4282 354.377 50.846 353.794 50.4579 353.406C50.4579 353.212 50.4579 353.017 50.2638 353.017C49.0994 353.212 47.741 353.6 46.5767 353.989C45.2182 349.326 44.442 344.469 44.442 339.806C45.8004 339.806 46.9648 339.806 47.9351 339.223C48.1291 339.223 48.5173 339.417 48.7113 339.029C49.0994 337.28 49.2935 335.337 49.2935 333.589C51.4281 299.006 54.5331 271.029 65.4004 241.692C66.3707 245.772 68.1173 250.046 69.6697 254.126C76.8499 271.029 81.8955 289.292 86.3588 307.166C88.1054 313.772 90.046 321.154 91.7925 327.76C92.5687 330.869 93.9272 332.034 97.0321 332.034C99.3608 332.229 101.69 332.034 104.212 332.034C107.511 334.949 108.87 339.029 109.646 342.526C108.87 343.109 107.511 342.914 106.735 343.109C105.959 344.469 106.153 346.217 106.153 347.772C106.347 349.909 106.153 352.046 106.735 353.989C106.929 356.126 106.929 358.457 106.929 360.983C105.183 361.954 105.571 364.286 106.153 366.423C106.347 367.006 115.856 366.812 118.185 366.812C120.901 366.617 124.783 367.394 125.753 364.286C132.351 367.977 142.248 366.617 149.816 365.646C155.444 365.063 160.295 364.286 165.729 363.12C166.699 362.537 166.699 362.343 166.699 362.149Z" fill="white"/>
</g>
<mask id="mask7_1179_2574" style="mask-type:luminance" maskUnits="userSpaceOnUse" x="0" y="0" width="196" height="136">
<path d="M196 0H0V136H196V0Z" fill="white"/>
</mask>
<g mask="url(#mask7_1179_2574)">
<path fill-rule="evenodd" clip-rule="evenodd" d="M50.8445 54.5942C51.2326 54.5942 51.6207 54.5942 51.8148 54.7885C51.8148 55.3714 51.8148 55.9542 51.8148 56.5371C51.8148 56.5371 51.6207 56.5371 51.6207 56.7314C51.0386 60.4228 48.5158 63.7257 45.2168 65.2799C45.0227 65.6685 44.6346 65.6685 44.2465 65.6685L43.8584 65.8628C42.4999 66.2514 41.1415 66.6399 39.7831 66.6399C43.2762 76.5485 57.0544 81.7942 66.7574 82.5714C75.1019 82.9599 79.7594 75.9657 77.6247 68.1942C72.7732 67.6114 67.9217 62.3657 69.6683 57.3142V57.12C69.6683 57.7028 70.0564 58.2857 70.2505 58.6742V58.8685C70.6386 60.2285 71.2207 61.7828 72.3851 62.56H72.5792C74.9079 62.56 77.4306 62.9485 79.5653 64.1142C81.894 64.5028 84.0287 65.4742 86.1633 66.6399C102.464 75.5771 99.9415 94.4228 100.33 110.16C101.882 131.726 115.078 153.291 107.316 175.051C110.809 183.989 111.197 196.229 103.435 203.029C103.435 203.223 103.629 203.223 103.629 203.417C104.017 204.389 104.017 205.36 104.211 206.331V206.526C104.599 208.857 104.987 210.994 105.181 213.326C105.763 217.794 106.151 222.457 106.54 226.926V227.509C107.51 238.971 108.48 250.24 109.645 261.703L109.839 263.451C111.585 275.691 113.526 287.737 116.437 299.783C116.437 300.171 116.631 300.366 116.631 300.754C117.601 304.64 118.959 308.331 120.124 312.217C120.512 313.383 120.9 314.548 121.288 315.714L121.87 317.074C121.87 317.268 122.064 317.463 122.064 317.657C123.035 319.988 124.005 322.32 125.169 324.651C125.363 325.04 125.169 325.428 124.781 325.623C125.751 327.177 126.14 328.926 126.916 330.674C128.08 333.2 129.439 335.92 131.185 338.057C132.155 337.28 133.126 338.251 133.902 338.834C134.484 339.223 135.066 339.417 135.26 340C135.648 340.194 136.037 340.388 136.425 340.777V340.583C136.813 339.223 137.783 337.28 139.142 336.697C140.694 336.114 142.052 337.28 141.47 339.029C141.082 340.388 140.694 341.749 140.306 343.109C145.157 346.023 150.591 348.354 156.219 349.52H156.413C157.771 349.714 159.13 349.909 160.488 350.686C162.623 351.851 163.981 353.988 164.757 356.126C164.951 356.126 165.34 356.514 165.34 356.708L165.922 359.04C166.116 359.817 166.31 360.594 166.504 361.371C166.698 361.76 166.31 362.343 165.922 362.537C162.623 363.12 159.324 363.703 156.025 364.286C146.71 365.063 134.678 368.171 125.945 363.897C124.587 366.811 120.706 366.034 117.989 366.228C116.437 366.034 105.181 366.811 105.375 365.451V365.257C104.793 363.314 104.405 360.788 106.151 359.428C105.957 357.291 105.957 355.154 105.957 353.017C105.375 351.074 105.375 348.743 105.375 346.606C105.375 345.051 104.987 343.303 105.957 341.748C105.957 340.777 108.092 341.36 108.868 340.971V340.777C107.898 337.28 106.54 333.977 104.017 331.451C101.688 331.646 99.3594 331.646 97.0306 331.451C93.5376 331.451 91.9851 329.897 91.2089 326.594C90.6267 324.651 90.0445 322.708 89.6564 320.766C85.5811 305.417 81.894 290.069 77.2366 274.914C75.4901 269.863 73.5495 264.811 71.6089 259.76C70.2505 256.457 68.892 252.96 67.7277 249.657C67.1455 247.909 66.3693 246.16 65.7871 244.411C65.593 243.829 65.399 243.246 65.2049 242.857C55.1138 271.223 51.8148 301.143 50.0683 331.063C49.8742 333.394 49.8742 335.92 49.292 338.251C49.098 339.029 48.5158 339.223 47.9336 339.029C46.9633 339.611 46.1871 339.611 45.0227 339.611V340C45.0227 342.914 45.2168 345.828 45.993 348.743C46.1871 349.909 46.7693 351.074 46.9633 352.24C47.9336 351.851 49.098 351.657 50.0683 351.463C50.6504 351.463 50.8445 351.851 51.0386 352.24C51.2326 352.434 51.4267 352.629 51.6207 352.823L51.8148 352.629C52.7851 351.463 53.9495 349.714 55.696 349.52C56.4722 349.52 57.2485 349.909 57.2485 350.686C57.4425 352.434 55.89 354.377 54.7257 355.737C59.3831 359.623 65.2049 361.76 71.0267 362.926H71.2207C75.1019 363.509 79.7594 364.091 81.5059 367.977C81.894 368.948 82.2821 370.309 81.7 371.28C81.7 372.446 81.5059 373.611 81.5059 374.971C81.5059 375.554 81.1178 375.748 80.7297 375.748C68.698 376.331 50.2623 381.966 39.9772 375.36C39.7831 376.137 39.5891 376.914 39.395 377.497C39.395 377.886 39.0069 378.08 38.6188 378.08C32.2148 377.886 25.8108 377.691 19.4069 377.303C19.2128 377.303 19.0188 377.303 19.0188 377.108C18.8247 377.303 18.4366 377.303 18.4366 376.914C18.4366 376.526 18.4366 375.943 18.2425 375.554C18.2425 374.971 18.0485 374.583 18.0485 374C17.8544 373.029 18.0485 372.057 18.0485 371.086V370.891C18.0485 370.308 18.2425 369.531 18.8247 369.143C18.8247 368.948 19.0188 368.754 19.2128 368.56C18.8247 367.783 19.0188 367.006 19.0188 366.228C19.2128 363.508 19.9891 360.983 21.1534 358.651C21.5415 356.903 21.9296 354.96 22.5118 353.406C22.5118 353.406 22.5118 353.211 22.7059 353.211C22.8999 352.823 23.094 352.629 23.4821 352.629C23.6762 352.629 24.0643 352.629 24.2584 352.629C24.4524 347.966 23.8702 343.497 23.8702 338.834C23.4821 339.028 22.8999 338.834 22.5118 338.64C21.3475 338.834 20.5712 337.863 20.1831 336.697L19.9891 335.92C18.2425 328.343 16.8841 320.571 15.9138 312.8C14.7494 301.92 16.1079 291.04 17.8544 280.354C22.3178 251.989 19.0188 223.429 18.8247 194.869C18.6306 191.76 18.4366 188.651 18.0485 185.543C16.69 185.349 15.9138 184.183 15.3316 183.017C14.7494 181.269 15.1376 179.131 15.3316 177.383C15.5257 175.246 15.7197 173.303 15.7197 171.166V170.583C15.7197 169.029 15.9138 167.28 16.3019 165.92C10.6742 161.646 3.10588 158.149 0.777171 150.766C-0.387185 149.794 0.000933409 145.131 -0.193126 143.577C-0.581245 129.2 0.777171 114.629 3.88212 100.446C7.76331 81.2114 15.7197 63.9199 38.2306 64.6971C38.4247 64.6971 38.6188 64.6971 38.8128 64.8914C42.694 65.4742 46.3811 63.1428 48.1277 59.84C48.5158 59.0628 48.9039 58.0914 49.098 57.3142C49.4861 56.1485 49.4861 54.7885 50.8445 54.5942ZM21.7356 369.726C21.1534 370.114 20.5712 370.114 20.1831 370.503C19.795 372.446 19.795 374.388 20.3772 376.331C26.393 376.331 32.4089 376.72 38.4247 376.914C38.6188 375.943 38.8128 374.971 39.2009 374.194C39.7831 374.194 40.3653 374.194 41.1415 374.194C50.2623 380.8 69.4742 375.166 80.5356 374.583L80.7297 372.64C80.5356 372.64 80.5356 372.834 80.3415 372.834C80.5356 372.64 80.3415 372.251 79.9534 372.251C79.3712 372.446 78.7891 372.64 78.2069 372.64C78.2069 372.64 78.2069 372.64 78.0128 372.64C72.7732 373.029 67.5336 373.029 62.294 373.029C57.0544 373.029 51.8148 373.223 46.7693 373.223C44.6346 373.223 42.4999 373.223 40.3653 373.029C33.7673 372.057 27.7514 370.697 21.7356 369.726ZM164.369 358.457C164.175 358.651 163.787 358.651 163.399 358.651C163.011 358.651 162.817 358.651 162.429 358.846C161.652 359.428 159.906 359.234 159.13 359.428C141.858 361.177 124.587 359.04 107.316 360.4C106.54 361.566 106.734 363.12 107.122 364.286C111.973 364.48 116.825 364.48 121.482 364.286H121.87C122.452 364.286 123.035 364.286 123.617 363.897C124.199 363.703 124.781 363.12 124.587 362.537C124.393 361.76 125.169 360.983 125.945 361.566C132.544 366.034 141.47 363.703 148.844 363.314C154.278 362.731 159.518 361.954 164.757 360.983C164.951 360.206 164.563 359.234 164.369 358.457ZM44.0524 339.029C43.4702 339.029 42.8881 339.223 42.3059 339.223C40.1712 339.417 37.8425 339.611 35.7079 339.611H34.7376C32.6029 339.611 30.6623 339.806 28.5277 339.611C27.5574 339.611 26.393 339.417 25.4227 339.223C26.393 343.886 26.7811 348.743 26.7811 353.406C26.9752 353.6 26.9752 353.988 26.9752 354.377V354.571C27.1693 354.96 27.3633 355.543 27.3633 356.126C33.7673 360.011 39.2009 356.126 45.0227 353.211C44.0524 350.686 43.8584 347.966 43.6643 345.246C43.4702 343.108 43.6643 340.971 44.0524 339.029ZM55.89 351.268C55.696 351.268 55.3079 351.463 55.1138 351.657C54.1435 352.24 53.3673 353.017 52.7851 353.794C52.9792 353.988 53.3673 354.377 53.5613 354.571C54.5316 353.794 55.5019 352.629 55.89 351.268ZM124.199 326.983L123.423 327.371C117.989 329.12 112.555 330.868 106.928 331.451C107.316 331.84 107.51 332.034 107.704 332.423C107.898 332.617 108.092 332.811 108.092 333.006C108.286 333.394 108.48 333.783 108.674 334.171C109.645 336.309 110.615 338.446 111.391 340.583C111.585 341.554 112.555 342.72 112.167 343.691C118.183 346.411 125.751 345.246 130.409 340.388L130.215 340.194C127.304 336.114 124.975 331.84 124.199 326.983ZM140.694 338.251C140.306 337.863 139.724 338.834 139.53 339.029C138.947 339.806 138.559 340.777 138.171 341.554C138.559 341.749 138.947 342.137 139.336 342.331C139.724 341.748 141.082 338.64 140.694 338.251ZM25.2287 338.057C25.6168 338.057 25.8108 338.251 26.199 338.251C26.9752 338.251 27.7514 338.446 28.5277 338.446C27.3633 338.251 26.393 338.057 25.2287 338.057ZM33.7673 183.989H33.5732H33.1851C28.7217 183.406 24.2584 182.629 19.795 183.406C20.3772 186.32 20.3772 189.234 20.5712 192.149C21.5415 220.32 25.0346 248.686 21.1534 276.857L20.9594 277.634C19.6009 287.543 17.8544 297.646 18.6306 307.748C19.2128 317.074 20.9594 326.011 22.8999 335.143C23.2881 335.337 23.8702 335.337 24.2584 335.531C24.2584 335.337 24.2584 335.531 24.4524 335.531C29.8861 337.086 35.7079 337.086 41.3356 336.697C42.4999 336.697 43.4702 336.503 44.6346 336.503C45.4108 336.114 46.3811 335.92 47.1574 335.726C49.098 306.971 51.4267 278.023 60.3534 250.434C65.9811 232.949 72.9673 215.851 77.2366 197.977C77.4306 197.394 78.2069 197.589 78.0128 198.171L77.8188 198.949C76.8485 204.583 75.8782 210.217 74.1316 215.657C75.296 214.297 76.8485 213.131 78.0128 211.577C78.4009 211.189 78.7891 210.606 78.9831 210.217C79.1772 209.634 79.7594 209.051 80.3415 208.857C80.7297 208.663 80.9237 209.051 81.1178 209.246C81.3118 210.023 81.3118 210.411 80.9237 211.189L80.7297 211.383C78.7891 214.103 75.8782 215.657 73.5495 217.794C71.4148 224.594 69.0861 231.394 66.7574 238.194C66.7574 239.554 66.9514 240.914 67.3396 242.08C67.7277 243.44 68.1158 244.8 68.892 245.966C78.4009 265.977 83.2524 287.737 89.0742 309.109C90.6267 314.743 92.1792 320.377 93.7316 326.206V326.4C94.1198 327.954 94.7019 328.537 96.4485 328.537C105.181 328.926 114.108 327.566 122.064 324.069C117.601 312.411 114.69 300.366 112.361 287.931C111.197 282.103 110.227 276.274 109.45 270.446C108.286 262.869 107.316 255.486 106.345 247.909C104.211 233.337 104.405 218.377 101.688 203.806C100.718 203.806 99.9415 202.834 100.524 202.057C100.33 201.28 100.524 200.309 100.718 199.726V199.531C97.6128 202.251 93.5376 202.64 95.6722 197.394L95.8663 197.006C97.4188 193.12 99.3594 189.04 98.5831 184.766C89.6564 189.623 78.595 188.846 69.0861 186.709C69.8623 189.429 67.7277 191.177 65.593 189.234C65.2049 188.846 64.8168 188.651 64.4287 188.263C65.0108 190.594 64.6227 192.926 64.2346 195.257V195.451C64.0405 196.811 63.6524 198.56 62.6821 199.531C61.9059 200.309 60.7415 199.92 60.3534 198.949C60.1594 195.646 59.1891 192.537 57.6366 189.623C57.8306 191.76 57.8306 193.897 57.2485 195.84C57.0544 196.617 56.8603 197.394 56.6663 198.171V198.366C56.8603 199.726 56.6663 201.086 54.9197 201.086C50.8445 200.309 53.3673 190.594 50.8445 187.68C50.0683 191.371 51.0386 196.229 47.3514 198.754C46.3811 199.337 45.2168 198.949 45.0227 197.783V196.811C45.4108 190.983 45.4108 189.234 41.7237 183.794C39.0069 184.571 36.29 184.377 33.7673 183.989ZM106.734 332.811C106.734 333.006 106.734 333.006 106.928 333.006L106.734 332.811ZM103.241 203.611C103.046 203.806 103.046 203.806 103.046 203.806C103.241 204.389 103.241 205.166 103.435 205.749V205.36C103.435 204.971 103.435 204.194 103.241 203.611ZM100.524 144.354C99.1653 138.526 98.0009 136 99.5534 144.549L99.7475 145.52C100.524 149.211 101.106 153.291 101.882 157.76L102.076 158.731C102.852 163.394 103.823 170.194 104.017 175.634C104.017 181.851 100.912 183.6 99.7475 184.377C99.5534 185.154 99.7475 185.543 99.9415 186.32C100.136 187.291 100.33 188.457 100.136 189.429C99.9415 193.12 98.0009 196.423 97.0306 199.92C98.195 199.531 99.3594 198.56 100.524 197.783C102.27 196.423 103.629 194.286 104.017 192.149C104.211 191.177 104.017 189.817 104.793 189.04C104.987 188.846 105.375 188.846 105.763 189.04C106.345 189.623 106.345 190.4 106.151 191.177C105.763 193.897 104.599 196.617 102.658 198.56C102.658 199.531 102.27 200.503 102.076 201.474C102.076 201.669 102.27 201.863 102.27 202.057C103.629 200.891 104.599 199.531 105.569 198.171C109.256 191.566 108.092 183.989 107.122 176.8C106.928 177.189 106.54 177.383 105.957 177.383C105.763 177.966 104.987 177.577 104.987 176.8C104.793 171.749 104.211 164.754 102.852 157.371C102.27 152.709 101.494 148.434 100.524 144.354ZM53.3673 167.086C51.4267 172.914 44.2465 173.886 39.9772 177.577C42.1118 183.211 48.1277 189.234 46.3811 196.617C46.3811 196.811 46.1871 197.783 46.3811 197.783C46.5752 197.783 47.1574 197.2 47.3514 197.006C49.8742 193.897 48.5158 189.623 49.8742 186.126C50.0683 185.737 50.6504 185.349 51.0386 185.737C52.7851 187.68 53.3673 190.206 53.5613 192.731C53.7554 194.674 53.7554 196.811 54.3376 198.56C54.5316 198.949 54.7257 199.531 54.9197 199.531C55.696 199.726 55.3079 198.56 55.3079 198.171C55.3079 196.811 55.89 195.646 56.0841 194.286C56.4722 191.566 56.0841 188.651 55.1138 185.931C54.9197 185.154 55.89 184.766 56.4722 185.349C58.2188 187.68 59.7712 190.4 60.7415 193.314C61.1297 194.48 61.3237 195.646 61.5178 196.811C63.0702 191.954 63.0702 186.709 59.3831 182.629C58.6069 181.657 59.9653 180.103 60.9356 181.074C61.9059 182.24 62.8762 183.406 63.8465 184.571C64.8168 185.543 65.9811 186.903 67.1455 187.68C66.9514 183.017 61.9059 180.88 59.1891 177.577C56.4722 174.857 55.1138 170.777 53.3673 167.086ZM29.1098 127.257C28.1395 130.171 26.9752 133.28 26.0049 136.194C25.8108 138.331 26.393 139.109 27.9455 140.469C28.5277 136.777 28.9158 132.891 29.3039 129.2C29.1098 128.423 29.1098 127.84 29.1098 127.257ZM89.4623 88.2057L89.8504 90.7314C91.2089 99.8628 92.5673 108.994 94.7019 117.931C94.896 118.514 95.4782 117.737 95.2841 116.766C93.9257 106.857 89.4623 88.2057 89.4623 88.2057ZM77.8188 68.3885C77.8188 68.5828 78.0128 68.5828 78.0128 68.7771C78.0128 68.5828 78.0128 68.5828 78.0128 68.3885C78.0128 68.3885 78.0128 68.3885 77.8188 68.3885Z" fill="#282828"/>
</g>
<mask id="mask8_1179_2574" style="mask-type:luminance" maskUnits="userSpaceOnUse" x="0" y="0" width="196" height="136">
<path d="M196 0H0V136H196V0Z" fill="white"/>
</mask>
<g mask="url(#mask8_1179_2574)">
<path fill-rule="evenodd" clip-rule="evenodd" d="M69.4715 16.7085C54.3349 16.1257 39.9745 26.2285 35.123 40.6057C34.7349 41.7714 35.8992 42.7428 37.0636 42.5485C35.8992 48.1828 38.422 55.9543 44.826 56.7314C46.1844 56.9257 47.5428 56.7314 48.7072 56.9257C49.8715 57.12 56.2755 60.6171 58.7983 61.5885C63.8438 63.3371 76.6517 62.9485 81.6973 61.5885C81.8913 61.9771 85.7725 45.8514 86.7428 40.8C87.1309 38.6628 84.026 37.1085 84.22 34.7771C84.4141 31.8628 87.9072 28.3657 86.7428 25.6457C84.026 18.6514 76.0695 16.7085 69.4715 16.7085Z" fill="white"/>
</g>
<mask id="mask9_1179_2574" style="mask-type:luminance" maskUnits="userSpaceOnUse" x="0" y="0" width="196" height="136">
<path d="M196 0H0V136H196V0Z" fill="white"/>
</mask>
<g mask="url(#mask9_1179_2574)">
<path fill-rule="evenodd" clip-rule="evenodd" d="M61.9022 4.08003C62.4844 4.08003 63.2606 4.27431 63.8428 4.27431C65.7834 3.88574 67.918 4.27431 70.0527 4.85717C74.7101 6.41146 79.1735 8.93717 82.6665 12.4343C84.4131 14.1829 85.9655 16.1257 86.7418 18.6515C87.1299 19.8172 87.518 21.1772 87.518 22.3429V22.5372C87.518 22.9257 87.518 23.5086 87.518 23.8972C87.7121 24.8686 87.9061 25.84 87.9061 27.0057C87.9061 27.3943 87.9061 27.9772 87.9061 28.3657C87.9061 28.9486 87.7121 29.5315 87.518 30.1143C87.518 30.3086 87.518 30.3086 87.518 30.5029C87.518 30.6972 87.324 31.0857 87.324 31.28C87.1299 31.8629 86.9358 32.4457 86.7418 33.0286C86.7418 33.2229 86.7418 33.2229 86.7418 33.2229C86.5477 33.6115 86.5477 34.1943 86.3537 34.5829C86.3537 34.9715 86.5477 35.36 86.5477 35.7486C86.9358 37.8857 87.324 39.8286 87.9061 41.9657C88.8764 46.0457 90.4289 50.32 90.817 54.5943C91.2051 57.8972 90.623 61.5886 88.4883 64.3086C86.7418 66.64 84.0249 68 81.1141 68.3886C79.7556 68.5829 78.3972 68.3886 77.0388 68.1943H76.8447C76.2626 68 75.2923 67.8057 74.7101 67.2229C73.9339 67.0286 73.3517 66.4457 72.9636 66.0572C72.3814 65.4743 71.7992 64.5029 71.9933 63.5315C71.217 63.5315 70.4408 63.5315 69.6646 63.5315C67.724 63.5315 65.7834 63.3372 64.0368 62.7543C62.4844 62.1715 60.5438 61.3943 59.5735 59.84C59.5735 59.84 59.5735 59.6457 59.7675 59.6457C60.5438 59.84 61.32 60.2286 62.0962 60.4229C62.8725 60.6172 63.6487 60.8115 64.4249 61.0057C65.9774 61.2 67.724 61.2 69.2764 61.0057H69.8586C71.6051 61.0057 73.3517 60.8115 74.9042 60.2286C75.4863 60.0343 76.0685 59.6457 76.6507 59.2572C76.8447 59.0629 77.2329 58.8686 77.621 58.6743C77.621 58.6743 77.621 58.48 77.815 58.48C78.5913 57.5086 79.1735 56.7315 79.9497 55.76C81.1141 53.8172 81.6962 52.0686 81.6962 49.7372C81.6962 47.4057 81.6962 45.0743 81.8903 42.7429V41.9657C81.8903 39.2457 81.8903 36.72 82.0844 34C82.0844 32.8343 82.2784 31.4743 82.4725 30.3086V30.1143L82.8606 28.1715C82.8606 27.7829 83.0546 27.2 83.0546 26.8115C82.8606 26.6172 82.8606 26.4229 82.6665 26.2286C82.4725 26.0343 82.4725 25.84 82.2784 25.84H82.0844C81.8903 25.6457 81.6962 25.4515 81.5022 25.0629C81.3081 24.8686 81.1141 24.48 80.92 24.2857C80.92 24.2857 80.92 24.0915 80.7259 24.0915C80.5319 23.8972 80.5319 23.7029 80.3378 23.7029C79.7556 24.6743 79.1735 25.6457 78.0091 26.2286C77.621 26.4229 77.2329 26.2286 77.0388 25.84C76.6507 24.8686 76.2626 23.7029 75.6804 22.9257C74.7101 24.6743 72.9636 26.0343 71.023 26.6172C70.4408 26.8115 70.0527 26.2286 70.2467 25.84C70.6348 24.48 70.6348 22.9257 70.4408 21.5657C69.6646 22.1486 68.8883 22.5372 68.1121 23.12C66.3655 24.48 64.4249 25.6457 62.4844 26.6172C62.0962 26.8115 61.32 26.4229 61.5141 25.84C61.7081 25.2572 61.9022 24.8686 61.9022 24.2857V24.0915C57.2447 30.5029 45.7952 36.9143 44.8249 36.9143C45.4071 37.4972 45.7952 38.08 46.1834 38.8572C46.5715 39.6343 45.2131 40.0229 45.019 39.2457C44.4368 37.8857 43.2725 37.1086 41.9141 36.9143C41.1378 37.1086 40.3616 37.4972 39.7794 38.08C38.8091 39.2457 38.8091 40.6057 39.3913 41.9657L39.5853 42.16C39.9735 42.9372 40.3616 43.52 40.5556 44.2972C40.7497 45.2686 40.5556 46.24 40.7497 47.2115C40.7497 47.6 40.9438 48.1829 41.5259 47.9886C41.5259 47.9886 41.5259 47.9886 41.72 47.9886C41.9141 47.9886 41.9141 48.1829 42.1081 48.1829C42.4962 48.3772 42.8844 48.1829 43.2725 48.1829C43.6606 48.1829 44.0487 47.9886 44.4368 47.7943V47.9886C44.4368 48.5715 44.2428 48.96 43.8547 49.1543C44.4368 49.7372 44.8249 50.5143 45.2131 51.0972C45.9893 52.0686 46.5715 52.8457 47.3477 53.8172C48.124 54.7886 48.9002 55.5657 49.8705 56.3429C50.4527 56.9257 51.423 57.5086 51.8111 58.2857C52.1992 58.48 52.5873 58.6743 52.7814 59.2572C52.9754 60.2286 53.1695 62.56 52.9754 63.7257C52.7814 64.6972 52.0051 65.4743 51.2289 65.8629C50.8408 66.0572 50.6467 66.0572 50.4527 66.0572C50.2586 66.2515 50.0646 66.4457 49.8705 66.64C48.9002 67.2229 47.9299 67.4172 46.9596 67.4172C45.6012 67.8057 44.0487 68 42.6903 67.6115C42.3022 67.6115 41.72 67.8057 41.3319 67.8057C36.4804 68.1943 31.4348 67.8057 26.7774 66.64C24.6428 66.0572 22.5081 65.0857 20.5675 63.92C17.0745 61.7829 15.522 55.76 17.4626 49.9315L17.6566 49.5429C18.4329 47.0172 19.4032 44.2972 20.7616 41.9657L20.9556 41.7715C22.12 39.6343 23.2844 37.3029 25.0309 35.5543C25.8071 34.5829 26.7774 33.8057 27.9418 33.2229C28.3299 33.0286 28.9121 32.8343 29.3002 32.64V32.4457V32.2515C29.3002 31.8629 29.3002 31.4743 29.4943 31.0857C29.6883 29.7257 29.8824 28.1715 30.2705 26.8115C30.6586 25.4515 31.0467 24.0915 31.6289 22.7315C32.5992 20.5943 33.7636 18.4572 35.122 16.5143C35.316 16.32 35.316 16.1257 35.5101 15.9315C36.8685 13.6 38.2269 11.2686 40.3616 9.71431C42.6903 7.77146 45.4071 6.60574 48.124 5.63431C51.0348 4.66289 54.1398 4.08003 57.2447 3.88574C58.7972 3.88574 60.3497 3.88574 61.9022 4.08003ZM40.5556 40.8C42.1081 39.8286 44.0487 40.4115 44.8249 42.16C45.4071 43.3257 43.6606 43.9086 43.2725 42.7429C42.8844 41.5772 41.72 40.8 40.5556 40.8C40.5556 40.9943 40.3616 40.9943 40.5556 40.8Z" fill="#282828"/>
</g>
<mask id="mask10_1179_2574" style="mask-type:luminance" maskUnits="userSpaceOnUse" x="0" y="0" width="196" height="136">
<path d="M196 0H0V136H196V0Z" fill="white"/>
</mask>
<g mask="url(#mask10_1179_2574)">
<path fill-rule="evenodd" clip-rule="evenodd" d="M70.4402 53.6229C69.4699 53.2344 68.6937 52.6515 68.1115 51.8744C67.9174 51.6801 67.9174 51.2915 67.9174 51.0972C67.9174 50.9029 68.1115 50.5144 68.3055 50.3201C68.4996 50.1258 68.8877 50.1258 69.0818 50.1258C69.2758 50.1258 69.664 50.3201 69.858 50.5144C70.2461 50.9029 70.6343 51.2915 71.2164 51.6801C71.7986 51.8744 72.1867 52.0687 72.7689 51.8744C73.9333 51.6801 74.5154 51.0972 75.2917 50.3201C75.4857 50.1258 75.4857 50.1258 75.6798 49.9315L75.8738 49.7372C76.0679 49.7372 76.0679 49.7372 76.262 49.7372C76.456 49.7372 76.456 49.9315 76.456 49.9315C76.456 49.9315 76.456 50.1258 76.456 50.3201C76.456 51.0972 75.8738 51.8744 75.2917 52.4572C74.7095 53.0401 73.7392 53.6229 72.963 53.6229C72.1867 54.0115 71.4105 54.0115 70.4402 53.6229ZM73.5451 40.9944C74.5154 41.5772 76.0679 42.9372 74.9036 44.4915C73.7392 45.8515 71.7986 44.2972 71.0224 43.5201C70.2461 42.9372 69.2758 44.2972 70.0521 44.8801C76.456 49.7372 79.1729 40.9944 74.1273 40.0229C73.5451 40.2172 73.3511 40.8001 73.5451 40.9944ZM62.0956 35.3601C62.2897 34.0001 64.2303 33.6115 64.4243 34.9715C64.6184 36.1372 64.4244 37.3029 63.8422 38.2744C63.26 39.2458 62.0956 38.8572 61.9016 37.8858C61.9016 36.9144 62.0956 36.3315 62.0956 35.3601ZM77.8144 34.7772C78.0085 34.3887 78.5907 34.1944 78.9788 34.1944C80.5313 34.5829 80.1432 36.9144 79.561 37.8858C79.1729 38.4687 78.3966 38.6629 77.8144 38.0801C77.2323 37.4972 76.8441 35.7487 77.8144 34.7772ZM63.8422 29.5315H64.0362C64.8125 29.3372 65.7828 29.3372 66.3649 29.9201C66.559 30.3087 66.7531 30.8915 66.3649 31.0858C65.7828 31.6687 65.0065 31.4744 64.2303 31.4744C63.6481 31.4744 62.8719 31.6687 62.2897 31.8629C60.9313 32.2515 59.7669 33.0287 58.6026 33.8058C58.4085 34.0001 58.2144 33.8058 58.4085 33.6115C59.1847 32.2515 60.5432 31.0858 61.7075 30.5029C62.2897 29.9201 63.0659 29.5315 63.8422 29.5315ZM76.456 28.9487C78.7847 29.3372 81.3075 30.3087 82.2778 32.2515C82.2778 32.4458 82.2778 32.6401 82.2778 32.6401C82.2778 32.6401 82.2778 32.6401 82.0838 32.8344C82.0838 32.8344 82.0838 32.8344 81.8897 32.8344C81.5016 32.6401 81.1135 32.6401 80.7253 32.4458L80.3372 32.2515C79.9491 32.0572 79.561 31.8629 78.9788 31.6687C78.0085 31.2801 77.0382 31.0858 76.0679 31.0858C75.8739 31.0858 75.6798 30.8915 75.4857 30.8915C75.2917 30.6972 75.2917 30.6972 75.0976 30.3087C75.0976 30.1144 75.0976 29.7258 75.2917 29.5315C75.4857 29.3372 75.4857 29.1429 75.6798 29.1429C76.0679 28.7544 76.262 28.7544 76.456 28.9487Z" fill="#282828"/>
</g>
<mask id="mask11_1179_2574" style="mask-type:luminance" maskUnits="userSpaceOnUse" x="0" y="0" width="196" height="136">
<path d="M196 0H0V136H196V0Z" fill="white"/>
</mask>
<g mask="url(#mask11_1179_2574)">
<path fill-rule="evenodd" clip-rule="evenodd" d="M84.6137 42.1601C83.6434 43.3258 82.0909 43.7143 80.5384 43.5201C77.2394 43.1315 76.2691 39.4401 76.0751 36.7201C78.2097 37.3029 75.881 33.0286 83.2553 32.4458C85.9721 32.2515 85.1959 33.8058 86.3602 34.9715C86.5543 37.4972 86.1662 40.0229 84.6137 42.1601ZM69.283 39.2458C67.3424 48.1829 56.8632 46.0458 55.6988 38.0801C56.6691 37.3029 56.4751 35.5543 57.6394 34.9715C59.58 33.6115 62.1028 33.8058 64.4315 33.8058C67.3424 34.0001 68.1186 35.1658 69.6711 36.5258C69.6711 37.3029 69.4771 38.4686 69.283 39.2458ZM88.883 30.8915C88.6889 30.8915 88.6889 30.8915 88.4949 30.8915C88.4949 30.8915 88.3008 30.8915 88.1068 30.6972C87.9127 30.6972 87.5246 30.5029 87.3305 30.5029C83.6434 29.7258 74.9107 30.8915 74.5226 34.0001C73.3583 34.3886 72.388 34.0001 70.8355 34.0001C69.8652 29.5315 51.6236 30.3086 50.6533 32.8343C49.8771 32.6401 48.5186 32.6401 47.5484 32.6401C45.4137 32.6401 43.4731 32.8343 41.5325 33.2229C37.8454 33.8058 32.6058 34.5829 35.3226 39.2458C35.7107 39.6343 36.487 39.2458 36.487 38.6629C35.5167 36.5258 37.6513 36.1372 39.2038 35.5543C43.085 34.1943 46.9662 34.0001 50.8474 34.3886C51.2355 34.7772 51.6236 34.9715 52.0117 35.1658C54.7285 35.5543 53.1761 37.4972 54.9226 37.8858C54.5345 44.6858 62.879 48.3772 67.7305 43.9086C69.6711 41.9658 70.0592 39.2458 70.4474 36.7201C70.6414 36.7201 70.8355 36.5258 70.8355 36.3315C71.4177 35.7486 71.8058 35.1658 72.7761 35.1658C73.9404 34.9715 74.7167 35.3601 74.9107 35.3601C74.9107 35.3601 74.9107 35.5543 75.1048 35.5543L75.2988 35.7486C74.1345 42.5486 79.3741 46.8229 84.8078 43.3258C87.1365 41.1886 87.5246 37.8858 87.7186 34.7772C88.1068 34.5829 88.3008 34.1943 88.1068 33.8058C87.9127 33.2229 88.3008 32.6401 88.883 32.2515C89.8533 32.4458 89.6592 31.0858 88.883 30.8915Z" fill="#282828"/>
</g>
</g>
<defs>
<clipPath id="clip0_1179_2574">
<rect width="196" height="136" fill="white"/>
</clipPath>
</defs>
</svg>
