<svg width="37" height="38" viewBox="0 0 37 38" fill="none" xmlns="http://www.w3.org/2000/svg">
<g clip-path="url(#clip0_2787_385)">
<path d="M31.5812 31.8501C38.8061 24.6252 38.8061 12.9114 31.5812 5.68654C24.3564 -1.53832 12.6426 -1.53832 5.4177 5.68654C-1.80716 12.9114 -1.80716 24.6252 5.4177 31.8501C12.6426 39.0749 24.3564 39.0749 31.5812 31.8501Z" fill="#282828"/>
<path fill-rule="evenodd" clip-rule="evenodd" d="M15.033 32.7276H20.08V21.0852H23.8081L24.5535 16.3821H20.08V12.826C20.08 11.5071 21.3422 10.7616 22.5459 10.7616H24.7255V6.86162L20.8254 6.68966C17.0974 6.4601 15.033 9.38511 15.033 12.8836V16.3821H10.7891V21.0852H15.033V32.7276Z" fill="white"/>
</g>
<defs>
<clipPath id="clip0_2787_385">
<rect width="37" height="37" fill="white" transform="translate(0 0.267822)"/>
</clipPath>
</defs>
</svg>
