<svg width="36" height="38" viewBox="0 0 36 38" fill="none" xmlns="http://www.w3.org/2000/svg">
<g clip-path="url(#clip0_2787_388)">
<path d="M30.7315 31.8501C37.7611 24.6252 37.7611 12.9114 30.7315 5.68654C23.7019 -1.53832 12.3047 -1.53832 5.27508 5.68654C-1.75451 12.9114 -1.75451 24.6252 5.27508 31.8501C12.3047 39.0749 23.7019 39.0749 30.7315 31.8501Z" fill="#282828"/>
<path fill-rule="evenodd" clip-rule="evenodd" d="M12.7073 6.9834H23.2962C26.6977 6.9834 29.4957 9.85905 29.4957 13.3551V24.1813C29.4957 27.6774 26.6977 30.553 23.2962 30.553H12.7073C9.30574 30.553 6.50781 27.6774 6.50781 24.1813V13.3551C6.50781 9.85905 9.30574 6.9834 12.7073 6.9834ZM24.1736 11.0998C24.8869 11.0998 25.4905 11.7202 25.4905 12.4533C25.4905 13.1864 24.8869 13.8068 24.1736 13.8068C23.4059 13.8068 22.8567 13.1864 22.8567 12.4533C22.8567 11.7202 23.4051 11.0998 24.1736 11.0998ZM17.9741 12.3406H18.0294C21.4309 12.3406 24.2841 15.273 24.2841 18.769C24.2841 22.321 21.4309 25.1975 18.0294 25.1975H17.9741C14.5726 25.1975 11.7746 22.3218 11.7746 18.769C11.7746 15.273 14.5726 12.3406 17.9741 12.3406ZM17.9741 14.5399H18.0294C20.2789 14.5399 22.1442 16.457 22.1442 18.769C22.1442 21.137 20.2789 23.0541 18.0294 23.0541H17.9741C15.7246 23.0541 13.8593 21.137 13.8593 18.769C13.8593 16.457 15.7246 14.5399 17.9741 14.5399ZM12.7625 9.01404H23.2409C25.6002 9.01404 27.5199 10.9879 27.5199 13.4118V24.1254C27.5199 26.5501 25.5994 28.5232 23.2409 28.5232H12.7625C10.4033 28.5232 8.48357 26.5493 8.48357 24.1254V13.4118C8.48357 10.9871 10.4041 9.01404 12.7625 9.01404Z" fill="white"/>
</g>
<defs>
<clipPath id="clip0_2787_388">
<rect width="36" height="37" fill="white" transform="translate(0 0.267822)"/>
</clipPath>
</defs>
</svg>
