<svg width="37" height="38" viewBox="0 0 37 38" fill="none" xmlns="http://www.w3.org/2000/svg">
<g clip-path="url(#clip0_2787_391)">
<path d="M31.5812 31.8501C38.8061 24.6252 38.8061 12.9114 31.5812 5.68654C24.3564 -1.53832 12.6426 -1.53832 5.4177 5.68654C-1.80716 12.9114 -1.80716 24.6252 5.4177 31.8501C12.6426 39.0749 24.3564 39.0749 31.5812 31.8501Z" fill="#282828"/>
<path fill-rule="evenodd" clip-rule="evenodd" d="M8.20827 15.0543H12.3749V29.045H8.20827V15.0543ZM10.2661 7.95605C11.6549 7.95605 12.7863 9.08739 12.7863 10.4763C12.7863 11.8651 11.6549 12.9965 10.2661 12.9965C8.8772 12.9965 7.79688 11.8651 7.79688 10.4763C7.79688 9.08739 8.8772 7.95605 10.2661 7.95605ZM14.8441 15.0543H18.9588V17.0092C19.8335 15.7232 21.2733 14.9004 22.9197 14.9004H24.0511C26.6741 14.9004 28.7829 17.061 28.7829 19.6323V29.045H24.6682V27.7589V21.4835C24.6163 19.889 23.5368 18.6548 21.9423 18.6548C20.3477 18.6548 19.0107 19.889 18.9588 21.4835V29.045H14.8441V15.0543Z" fill="white"/>
</g>
<defs>
<clipPath id="clip0_2787_391">
<rect width="37" height="37" fill="white" transform="translate(0 0.267822)"/>
</clipPath>
</defs>
</svg>
