<svg width="119" height="65" viewBox="0 0 119 65" fill="none" xmlns="http://www.w3.org/2000/svg">
<path d="M42.9909 45.0405V60.8911L21.027 52.6419L19.6375 52.1191L4.98438 46.6148L26.0792 38.6875H26.0813L42.9909 45.0405Z" fill="#282828"/>
<path d="M42.9909 45.0405V60.8911L21.027 52.6419L19.6375 52.1191L4.98438 46.6148L26.0792 38.6875H26.0813L42.9909 45.0405Z" fill="white"/>
<path d="M42.9909 45.0405V60.8911L21.027 52.6419L19.6375 52.1191L4.98438 46.6148L9.17366 45.0405L26.0792 38.6875H26.0813L42.9909 45.0405Z" fill="white"/>
<path d="M42.9909 45.041V60.8916L21.027 52.6424L19.6375 52.1197L4.98438 46.6154L9.17366 45.041H42.9909Z" fill="white"/>
<path d="M45.3575 43.4418V64.2678L1.67188 47.8575L3.03835 47.345H3.04044L4.00785 46.9801L4.98151 46.6152H4.9836L19.6367 52.1195L21.0262 52.6422L42.9902 60.8915V45.0408H9.17289L26.0784 38.6879H26.0805L27.0542 38.323L28.0236 37.9581L29.3922 37.4456L45.3575 43.4418Z" fill="#282828"/>
<path d="M20.9991 20.4623L20.83 20.1302L20.7026 19.8823L20.6654 19.8105L15.9055 10.4825L15.1929 9.08339L10.5571 0L5.92114 9.08339L5.20524 10.4847L0.28298 20.1302L0 20.6867V62.5673C1.09696 62.8994 2.04287 63.1675 3.01581 63.3841C5.15902 63.8598 7.34169 64.0561 10.5582 64.0561C13.7747 64.0561 15.9607 63.8598 18.1005 63.3841C19.0712 63.1664 20.0374 62.8927 21.1118 62.565V20.6867L20.9991 20.4623ZM7.2977 11.5371C7.39693 11.5439 7.49387 11.5506 7.59084 11.5573L7.69342 11.5641C7.79265 11.5663 7.88735 11.573 7.98656 11.5798L8.02827 11.5809C8.1117 11.5854 8.19174 11.5899 8.27293 11.5921C8.34958 11.5966 8.42624 11.6011 8.48825 11.6033L10.0351 11.6426C10.3891 11.6471 10.7374 11.6471 11.0914 11.6426L12.0768 11.6235C12.1715 11.6213 12.2707 11.6168 12.3428 11.6123C12.4376 11.6101 12.5278 11.6078 12.5988 11.6033C12.6867 11.6011 12.7724 11.5966 12.8513 11.5921C12.9291 11.5899 13.0035 11.5854 13.0779 11.5798C13.1952 11.5753 13.3113 11.5685 13.4263 11.5618C13.5582 11.5551 13.6879 11.5461 13.8152 11.5371L18.0735 19.8845C18.0115 19.9047 17.9495 19.9215 17.8886 19.9417L17.7296 19.99C17.6992 20.0012 17.6665 20.0113 17.6236 20.0225C16.6777 20.3187 15.8919 20.5566 15.1028 20.735C13.813 21.0211 12.4951 21.14 10.5571 21.14C8.61791 21.14 7.30222 21.0211 6.01021 20.735C5.22554 20.5588 4.46793 20.3288 3.48258 20.0225L3.23002 19.944C3.16577 19.9238 3.1015 19.9047 3.03611 19.8845L7.2977 11.5371Z" fill="#282828"/>
<path d="M18.0761 19.8845C18.0146 19.9042 17.953 19.9218 17.8913 19.9414L17.733 19.9896C17.7021 20.0006 17.6692 20.0115 17.6274 20.0225C16.6812 20.3181 15.8957 20.5568 15.1057 20.7341C13.8163 21.021 12.4984 21.1392 10.5599 21.1392C8.62134 21.1392 7.30555 21.021 6.01392 20.7341C5.22844 20.5589 4.47154 20.329 3.48579 20.0225L3.23267 19.9437C3.16885 19.9239 3.10514 19.9042 3.03906 19.8845L7.30114 11.5374C7.4002 11.5439 7.497 11.5505 7.5938 11.5571L7.69716 11.5637C7.79622 11.5658 7.89087 11.5724 7.98982 11.5789L8.03161 11.5811C8.11531 11.5855 8.19449 11.5899 8.27593 11.5921C8.35296 11.5965 8.42989 11.6009 8.49156 11.6031L10.0383 11.6425C10.3926 11.6468 10.7402 11.6468 11.0946 11.6425L12.0802 11.6228C12.1749 11.6205 12.2739 11.6162 12.3466 11.6118C12.4411 11.6096 12.5313 11.6074 12.6017 11.6031C12.6898 11.6009 12.7756 11.5965 12.8548 11.5921C12.9318 11.5899 13.0067 11.5855 13.0814 11.5789C13.198 11.5746 13.3147 11.568 13.4291 11.5614C13.5611 11.5549 13.6909 11.5461 13.8186 11.5374L18.0761 19.8845Z" fill="#FFA14D"/>
<path d="M20.7037 19.8825L1.6697 27.0316L0.00112851 27.6588H0V48.4847H0.00112851L1.6697 47.8575L3.03611 47.3459H3.03837L4.00568 46.9801L4.97976 46.6155H4.98202L9.17034 45.0414L21.1129 40.5524L26.0758 38.6877H26.0781L27.0521 38.3231L28.0217 37.9584L29.3904 37.4457L45.3556 31.4477V10.6218L20.7037 19.8825ZM42.988 29.8489L26.0781 36.2014L24.7116 36.7142L23.7409 37.0788L22.7691 37.4457L21.1129 38.0661L21.0239 38.0998L19.6349 38.6226L2.36755 45.1087V29.2565L2.64152 29.1533L3.61334 28.7886L4.97976 28.2737L18.5436 23.1799L19.6349 22.7693L20.3305 22.5079L21.0239 22.2476L21.1129 22.2139L21.2347 22.1691L35.4626 16.8252L42.988 13.9956V29.8489Z" fill="#282828"/>
<path d="M42.9876 13.9958V29.8485L26.0779 36.2014L24.7115 36.7139L23.7399 37.0788L22.7683 37.4458L21.0236 38.0997L19.6342 38.6225L2.36719 45.1087V29.2561L2.6409 29.1536L3.61249 28.7886L4.97896 28.2741L18.5435 23.1798L19.6342 22.7698L20.3299 22.5075L21.0236 22.2471L21.2347 22.1692L35.4615 16.8248L42.9876 13.9958Z" fill="#282828"/>
<path d="M42.9876 13.9958V29.8485L26.0779 36.2014L24.7115 36.7139L23.7399 37.0788L22.7683 37.4458L21.0236 38.0997L19.6342 38.6225L2.36719 45.1087V29.2561L2.6409 29.1536L3.61249 28.7886L4.97896 28.2741L18.5435 23.1798L19.6342 22.7698L20.3299 22.5075L21.0236 22.2471L21.2347 22.1692L35.4615 16.8248L42.9876 13.9958Z" fill="white"/>
<path d="M71.5529 44.5237C71.5529 44.951 71.4052 45.3233 71.1112 45.6379C70.8171 45.9525 70.4665 46.1105 70.0606 46.1105C69.6299 46.1105 69.2461 45.9525 68.9065 45.6379L60.4577 38.2095V44.4564C60.4577 44.9963 60.3003 45.4071 59.9828 45.6888C59.6667 45.969 59.2594 46.1105 58.7624 46.1105C58.2641 46.1105 57.8513 45.969 57.5241 45.6888C57.1955 45.4071 57.0312 44.9963 57.0312 44.4564V23.6234C57.0312 23.0834 57.1955 22.6726 57.5241 22.391C57.8513 22.1107 58.2641 21.9692 58.7624 21.9692C59.2594 21.9692 59.6667 22.1107 59.9828 22.391C60.3003 22.6726 60.4577 23.0834 60.4577 23.6234V36.859L68.1941 29.6669C68.5779 29.3303 68.952 29.1613 69.3137 29.1613C69.7431 29.1613 70.1158 29.3193 70.4333 29.6339C70.7495 29.9486 70.9082 30.3209 70.9082 30.7481C70.9082 31.1754 70.7163 31.5697 70.3312 31.9296L64.2928 37.4333L70.9414 43.2735C71.3486 43.6115 71.5529 44.0291 71.5529 44.5237Z" fill="#282828"/>
<path d="M74.7411 25.2776C74.356 24.9191 74.1641 24.4465 74.1641 23.8598C74.1641 23.2746 74.356 22.8088 74.7411 22.4585C75.1263 22.1109 75.6454 21.9351 76.3025 21.9351C76.9348 21.9351 77.4497 22.1109 77.8459 22.4585C78.2407 22.8088 78.4395 23.2746 78.4395 23.8598C78.4395 24.4465 78.2476 24.9191 77.8625 25.2776C77.4773 25.639 76.9582 25.8189 76.3025 25.8189C75.6454 25.8189 75.1263 25.639 74.7411 25.2776ZM75.0642 45.7054C74.7356 45.4348 74.5713 45.0295 74.5713 44.4896V30.7813C74.5713 30.2414 74.7356 29.8306 75.0642 29.5489C75.3913 29.2687 75.8041 29.1272 76.3025 29.1272C76.7995 29.1272 77.2067 29.2687 77.5229 29.5489C77.8404 29.8306 77.9978 30.2414 77.9978 30.7813V44.4896C77.9978 45.0295 77.8404 45.4348 77.5229 45.7054C77.2067 45.9761 76.7995 46.1107 76.3025 46.1107C75.8041 46.1107 75.3913 45.9761 75.0642 45.7054Z" fill="#282828"/>
<path d="M97.5702 22.4091C97.8877 22.7017 98.0465 23.0947 98.0465 23.5906V44.4567C98.0465 44.9746 97.8932 45.3799 97.5881 45.6711C97.283 45.9638 96.8689 46.1108 96.3498 46.1108C95.8293 46.1108 95.4166 45.9638 95.1115 45.6711C94.8064 45.3799 94.6531 44.9746 94.6531 44.4567V43.1062C94.1548 44.0967 93.4314 44.8565 92.4816 45.384C91.5318 45.9143 90.4343 46.1781 89.1904 46.1781C87.7657 46.1781 86.4929 45.8181 85.3733 45.0982C84.2537 44.377 83.3826 43.3645 82.7614 42.0593C82.1387 40.7541 81.8281 39.2566 81.8281 37.5682C81.8281 35.8577 82.1387 34.3602 82.7614 33.0784C83.3826 31.7953 84.2482 30.8047 85.3567 30.1068C86.4653 29.4089 87.7423 29.0599 89.1904 29.0599C90.4343 29.0599 91.5263 29.3251 92.465 29.854C93.4024 30.3829 94.1216 31.1317 94.6186 32.0989V23.5233C94.6186 23.0493 94.7719 22.6729 95.077 22.3913C95.3821 22.111 95.7948 21.9695 96.3153 21.9695C96.8357 21.9695 97.254 22.1165 97.5702 22.4091ZM93.4314 41.9576C94.2459 40.9451 94.6531 39.5039 94.6531 37.6355C94.6531 35.7684 94.2514 34.3273 93.448 33.3147C92.6459 32.3008 91.4973 31.7953 90.0049 31.7953C88.5126 31.7953 87.353 32.2953 86.5274 33.2969C85.7019 34.2998 85.2891 35.7231 85.2891 37.5682C85.2891 39.4146 85.7074 40.8599 86.544 41.9068C87.3806 42.9537 88.5347 43.4771 90.0049 43.4771C91.4752 43.4771 92.6169 42.9702 93.4314 41.9576Z" fill="#282828"/>
<path d="M105.734 45.1311C104.5 44.4346 103.55 43.4385 102.884 42.143C102.217 40.8488 101.883 39.3472 101.883 37.6354C101.883 35.903 102.217 34.389 102.884 33.0948C103.55 31.8006 104.5 30.8046 105.734 30.1067C106.966 29.4088 108.397 29.0598 110.025 29.0598C111.654 29.0598 113.084 29.4088 114.317 30.1067C115.55 30.8046 116.5 31.8006 117.168 33.0948C117.835 34.389 118.169 35.903 118.169 37.6354C118.169 39.3472 117.835 40.8488 117.168 42.143C116.5 43.4385 115.55 44.4346 114.317 45.1311C113.084 45.829 111.654 46.178 110.025 46.178C108.397 46.178 106.966 45.829 105.734 45.1311ZM113.503 41.9919C114.306 41.0013 114.708 39.5492 114.708 37.6354C114.708 35.745 114.301 34.2997 113.486 33.2968C112.672 32.2952 111.519 31.7951 110.025 31.7951C108.533 31.7951 107.38 32.2952 106.566 33.2968C105.751 34.2997 105.344 35.745 105.344 37.6354C105.344 39.5492 105.746 41.0013 106.548 41.9919C107.351 42.9824 108.511 43.477 110.025 43.477C111.541 43.477 112.701 42.9824 113.503 41.9919Z" fill="#282828"/>
<path d="M62.1397 63.7503C61.0524 63.7503 60.1064 63.5314 59.3016 63.0937C58.4968 62.6419 57.8755 62.0065 57.4378 61.1876C57.0001 60.3686 56.7812 59.4085 56.7812 58.3071C56.7812 57.4741 56.9013 56.7328 57.1413 56.0833C57.3955 55.4197 57.7555 54.8619 58.2215 54.4101C58.6874 53.9442 59.2522 53.5912 59.9158 53.3511C60.5794 53.097 61.3207 52.9699 62.1397 52.9699C62.6056 52.9699 63.1069 53.0334 63.6434 53.1605C64.1941 53.2876 64.7094 53.4994 65.1895 53.7959C65.4154 53.9371 65.5637 54.1065 65.6343 54.3042C65.7049 54.5019 65.719 54.7066 65.6766 54.9184C65.6343 55.1161 65.5425 55.2926 65.4013 55.4479C65.2742 55.5891 65.1118 55.6809 64.9142 55.7232C64.7165 55.7515 64.4976 55.7021 64.2576 55.575C63.947 55.3914 63.6293 55.2573 63.3045 55.1726C62.9798 55.0737 62.6691 55.0243 62.3726 55.0243C61.9067 55.0243 61.4972 55.102 61.1442 55.2573C60.7912 55.3985 60.4877 55.6103 60.2335 55.8927C59.9935 56.161 59.8099 56.4998 59.6828 56.9093C59.5558 57.3188 59.4922 57.7918 59.4922 58.3283C59.4922 59.3732 59.7393 60.1992 60.2335 60.8063C60.7418 61.3993 61.4549 61.6959 62.3726 61.6959C62.6691 61.6959 62.9727 61.6535 63.2834 61.5688C63.6081 61.4841 63.9329 61.3499 64.2576 61.1664C64.4976 61.0393 64.7094 60.9969 64.893 61.0393C65.0907 61.0817 65.253 61.1805 65.3801 61.3358C65.5072 61.477 65.5849 61.6535 65.6131 61.8653C65.6413 62.063 65.6131 62.2606 65.5284 62.4583C65.4578 62.656 65.3166 62.8184 65.1048 62.9454C64.6388 63.2278 64.1447 63.4326 63.6222 63.5597C63.0998 63.6867 62.6056 63.7503 62.1397 63.7503Z" fill="#ffa14d"/>
<path d="M70.88 63.7503C69.7081 63.7503 68.8256 63.4185 68.2326 62.7548C67.6395 62.0771 67.343 61.0887 67.343 59.7897V49.7718C67.343 49.3341 67.456 49.0023 67.6819 48.7764C67.9078 48.5505 68.2326 48.4375 68.6562 48.4375C69.0797 48.4375 69.4045 48.5505 69.6304 48.7764C69.8705 49.0023 69.9905 49.3341 69.9905 49.7718V59.6626C69.9905 60.3121 70.1246 60.7922 70.3929 61.1028C70.6753 61.4135 71.0706 61.5688 71.5789 61.5688C71.6919 61.5688 71.7978 61.5688 71.8966 61.5688C71.9955 61.5547 72.0943 61.5405 72.1931 61.5264C72.3908 61.4982 72.5249 61.5547 72.5955 61.6959C72.6661 61.8229 72.7014 62.0912 72.7014 62.5007C72.7014 62.8537 72.6308 63.129 72.4896 63.3267C72.3485 63.5244 72.1155 63.6444 71.7907 63.6867C71.6495 63.7009 71.5013 63.715 71.346 63.7291C71.1906 63.7432 71.0353 63.7503 70.88 63.7503Z" fill="#ffa14d"/>
<path d="M78.726 63.7503C77.6529 63.7503 76.721 63.5314 75.9303 63.0937C75.1396 62.656 74.5254 62.0347 74.0877 61.2299C73.65 60.411 73.4311 59.4508 73.4311 58.3495C73.4311 57.5164 73.5512 56.7752 73.7912 56.1257C74.0453 55.462 74.4054 54.8972 74.8713 54.4313C75.3373 53.9512 75.895 53.5912 76.5445 53.3511C77.194 53.097 77.9212 52.9699 78.726 52.9699C79.7991 52.9699 80.731 53.1888 81.5217 53.6265C82.3124 54.0642 82.9266 54.6855 83.3643 55.4903C83.802 56.2951 84.0209 57.2482 84.0209 58.3495C84.0209 59.1826 83.8938 59.9309 83.6397 60.5945C83.3996 61.2582 83.0466 61.83 82.5807 62.3101C82.1147 62.776 81.557 63.1361 80.9075 63.3902C80.258 63.6303 79.5308 63.7503 78.726 63.7503ZM78.726 61.7382C79.2484 61.7382 79.7073 61.6111 80.1027 61.357C80.498 61.1028 80.8016 60.7287 81.0134 60.2345C81.2393 59.7262 81.3523 59.0978 81.3523 58.3495C81.3523 57.2199 81.1122 56.3798 80.6322 55.8291C80.1521 55.2644 79.5167 54.982 78.726 54.982C78.2036 54.982 77.7447 55.109 77.3493 55.3632C76.954 55.6032 76.6434 55.9774 76.4174 56.4857C76.2057 56.9799 76.0998 57.6012 76.0998 58.3495C76.0998 59.465 76.3398 60.3121 76.8199 60.891C77.2999 61.4558 77.9353 61.7382 78.726 61.7382Z" fill="#ffa14d"/>
<path d="M89.9548 63.7503C89.0935 63.7503 88.3804 63.595 87.8157 63.2843C87.2509 62.9596 86.8273 62.4795 86.5449 61.8441C86.2766 61.2087 86.1425 60.418 86.1425 59.472V54.3466C86.1425 53.8947 86.2554 53.5629 86.4813 53.3511C86.7073 53.1252 87.032 53.0123 87.4556 53.0123C87.8792 53.0123 88.2039 53.1252 88.4299 53.3511C88.6699 53.5629 88.7899 53.8947 88.7899 54.3466V59.5144C88.7899 60.2486 88.9382 60.7922 89.2347 61.1452C89.5312 61.4982 90.0042 61.6747 90.6537 61.6747C91.3597 61.6747 91.9386 61.4346 92.3904 60.9546C92.8423 60.4604 93.0682 59.8109 93.0682 59.0061V54.3466C93.0682 53.8947 93.1811 53.5629 93.407 53.3511C93.633 53.1252 93.9577 53.0123 94.3813 53.0123C94.8049 53.0123 95.1296 53.1252 95.3556 53.3511C95.5956 53.5629 95.7156 53.8947 95.7156 54.3466V62.3524C95.7156 63.2561 95.285 63.7079 94.4237 63.7079C94.0142 63.7079 93.6965 63.595 93.4706 63.369C93.2447 63.129 93.1317 62.7901 93.1317 62.3524V60.7428L93.4282 61.3782C93.1317 62.1406 92.6799 62.7266 92.0727 63.1361C91.4797 63.5455 90.7737 63.7503 89.9548 63.7503Z" fill="#ffa14d"/>
<path d="M102.453 63.7503C101.549 63.7503 100.751 63.5314 100.06 63.0937C99.3818 62.656 98.8523 62.0347 98.4711 61.2299C98.0899 60.411 97.8992 59.4508 97.8992 58.3495C97.8992 57.234 98.0899 56.281 98.4711 55.4903C98.8523 54.6855 99.3818 54.0642 100.06 53.6265C100.751 53.1888 101.549 52.9699 102.453 52.9699C103.314 52.9699 104.062 53.1817 104.698 53.6053C105.347 54.0289 105.785 54.5866 106.011 55.2785H105.778V49.7718C105.778 49.3341 105.891 49.0023 106.117 48.7764C106.343 48.5505 106.668 48.4375 107.091 48.4375C107.515 48.4375 107.839 48.5505 108.065 48.7764C108.305 49.0023 108.425 49.3341 108.425 49.7718V62.3524C108.425 62.7901 108.312 63.129 108.087 63.369C107.861 63.595 107.536 63.7079 107.112 63.7079C106.689 63.7079 106.364 63.595 106.138 63.369C105.912 63.129 105.799 62.7901 105.799 62.3524V60.7004L106.032 61.3358C105.82 62.07 105.39 62.656 104.74 63.0937C104.091 63.5314 103.328 63.7503 102.453 63.7503ZM103.194 61.7382C103.717 61.7382 104.175 61.6111 104.571 61.357C104.966 61.1028 105.27 60.7287 105.481 60.2345C105.707 59.7262 105.82 59.0978 105.82 58.3495C105.82 57.2199 105.58 56.3798 105.1 55.8291C104.62 55.2644 103.985 54.982 103.194 54.982C102.672 54.982 102.213 55.109 101.817 55.3632C101.422 55.6032 101.111 55.9774 100.886 56.4857C100.674 56.9799 100.568 57.6012 100.568 58.3495C100.568 59.465 100.808 60.3121 101.288 60.891C101.768 61.4558 102.403 61.7382 103.194 61.7382Z" fill="#ffa14d"/>
</svg>
