<svg width="340" height="507" viewBox="0 0 340 507" fill="none" xmlns="http://www.w3.org/2000/svg">
<g clip-path="url(#clip0_2210_664)">
<path fill-rule="evenodd" clip-rule="evenodd" d="M8.99951 518.499C9.67697 505.903 10.5092 493.317 11.5063 480.741C13.4904 455.691 16.0898 430.623 20.4159 405.861C24.6837 381.429 30.6582 357.673 39.2622 334.393C43.2546 323.591 47.5787 314.378 53.8507 304.667C59.781 295.488 67.3498 289.268 76.778 283.725C85.2734 278.733 95.1418 270.071 103.289 264.478C106.691 262.145 113.689 262.299 116.021 258.848C119.076 254.325 117.096 247.404 120.174 242.899C123.694 237.747 128.625 233.742 134.185 230.836C140.254 226.723 147.401 224.861 154.57 225.116C165.138 224.475 175.78 227.843 182.567 236.451C185.952 240.749 187.928 245.705 188.201 251.195C188.274 252.621 187.815 253.748 187.062 254.56C187.508 255.16 187.954 255.759 188.396 256.36C189.784 254.303 193.028 253.211 195.189 254.763C202.261 259.844 209.904 263.884 217.972 266.845C219.859 265.952 222.144 266.364 223.761 267.824C224.417 268.415 225.114 268.922 225.841 269.353C228.832 270.163 231.87 270.841 234.952 271.366C235.917 271.529 236.735 272.078 237.355 272.816C238.273 271.957 239.536 271.545 240.946 272.082C257.227 278.294 272.602 287.944 284.289 301.017C297.237 315.5 304.037 333.516 309.214 351.975C314.819 371.956 318.4 392.435 321.408 412.949C324.456 433.733 327.459 454.599 329.556 475.503C330.736 487.267 331.186 499.139 330.652 510.955C330.386 516.86 329.847 522.747 328.988 528.595C328.788 529.963 328.579 531.54 328.242 533.112C329.267 532.913 330.487 533.78 330.28 535.168C328.833 544.834 317.156 547.649 309.103 548.764C295.93 550.584 282.688 551.593 269.389 551.672C256.319 551.746 243.252 550.908 230.21 550.155C216.838 549.385 203.467 548.611 190.095 547.826C136.523 544.683 82.9495 541.574 29.3777 538.428C24.4826 538.141 18.8941 537.752 14.7007 534.91C8.95529 531.015 8.65979 524.826 8.99951 518.499Z" fill="white"/>
<path fill-rule="evenodd" clip-rule="evenodd" d="M270.159 410.381C270.345 410.031 269.914 409.719 269.628 409.97C263.124 415.682 259.719 424.855 259.005 433.335C258.249 442.327 259.321 451.635 259.731 460.623C260.187 470.634 260.597 480.648 261.154 490.656C261.719 500.809 262.328 510.957 262.85 521.112L264.025 543.953C264.149 546.388 263.879 549.381 264.812 551.654C266.259 555.175 270.556 554.63 271.459 551.688L271.487 551.589L271.569 551.654C272.366 549.001 271.77 545.85 271.635 543.108L270.405 518.151C269.535 500.511 268.76 482.869 267.826 465.232L267.509 459.354C267.072 451.439 266.738 443.545 266.469 435.633L266.382 432.997C266.126 425.052 266.329 417.553 270.159 410.381ZM112.505 263.939C108.88 263.593 106.144 264.795 102.855 266.062C101.422 266.613 100.065 267.251 98.6921 267.911C96.9693 268.737 95.8636 270.197 94.8042 271.74L94.2373 272.573C89.8227 279.045 86.8556 286.51 83.5044 293.556C79.5864 301.798 75.6302 310.021 71.7946 318.302L69.9029 322.382C68.9561 324.422 68.0132 326.463 67.0845 328.51L65.4783 332.074C63.866 335.688 62.4186 339.512 64.7184 343.241C66.8553 346.708 70.6447 349.391 73.646 352.072C76.1488 354.308 78.6536 356.545 81.1584 358.781C75.98 363.97 72.5062 370.502 70.4618 377.507C67.5609 376.299 64.0168 376.065 61.0175 375.542C56.816 374.808 56.3014 381.174 60.2656 381.097C63.1946 381.039 66.6282 381.339 69.6315 380.721C69.1108 383.024 68.7309 385.361 68.4897 387.704C67.2292 399.987 69.9873 412.34 72.862 424.224L73.0992 425.199C76.2232 438.063 79.1844 450.959 81.8359 463.927C84.4915 476.925 86.8797 489.976 89.0005 503.071C91.1575 516.399 92.6853 529.802 94.3277 543.203C94.575 545.23 95.8515 546.968 98.089 546.968C99.9545 546.968 102.087 545.226 101.852 543.203C100.16 528.611 97.7573 514.095 95.3711 499.604C91.2601 474.647 86.0856 449.907 80.1352 425.328L79.0959 421.048C76.4182 409.948 73.9878 398.51 75.3306 387.061C76.4262 377.737 80.3201 367.795 88.0195 362.005L88.2527 361.83C90.0519 360.511 90.7434 357.987 88.9724 356.249C87.8446 355.143 86.7169 354.037 85.5871 352.933L78.8104 346.312L77.4454 344.974C76.3056 343.86 75.1618 342.754 73.9818 341.682C73.2681 341.034 71.3342 339.797 71.1935 338.729C71.101 338.033 71.9252 336.811 72.2589 336.169L73.7888 333.078C74.6572 331.316 75.4975 329.542 76.3459 327.77C78.1048 324.1 79.8859 320.439 81.6067 316.751L91.9355 294.599C94.8484 288.349 97.4457 281.752 101.255 275.974L102.005 274.849C102.632 273.9 103.187 272.987 103.583 271.827C103.963 270.712 104.441 269.488 105.147 268.534C106.795 266.3 109.95 265.033 112.589 264.564C112.971 264.496 112.832 263.969 112.505 263.939ZM191.947 258.12C191.718 258.12 191.683 258.448 191.894 258.51C195.079 259.47 198.12 261.014 200.601 263.247C201.789 264.315 202.985 265.527 203.719 266.963C203.998 267.515 204.153 268.096 204.268 268.697L204.304 268.9C204.493 269.988 204.764 270.594 205.317 271.465L205.412 271.613C208.566 276.489 210.776 281.903 212.797 287.325L217.199 299.147L221.598 310.971C223.015 314.78 224.433 318.589 225.851 322.398C226.634 324.502 227.439 326.596 228.244 328.691C228.592 329.598 228.967 330.499 229.285 331.419C229.329 331.543 229.468 332.3 229.573 332.483L229.537 332.545C228.65 334.039 226.284 335.288 224.943 336.372L220.324 340.109C217.032 342.774 213.654 345.364 210.461 348.148C208.455 349.896 209.703 353.025 211.94 353.755C215.689 354.978 219.362 356.442 223.056 357.824C224.548 358.383 226.101 358.87 227.575 359.485L228.473 359.873C228.824 360.032 228.655 360.03 228.641 360.678C228.627 361.355 228.435 362.063 228.324 362.731C227.08 370.259 225.762 377.775 224.37 385.277C219.446 411.807 213.565 438.141 206.857 464.273C203.468 477.47 199.835 490.604 196.371 503.781C192.918 516.922 188.372 529.876 184.034 542.748C182.808 546.378 188.559 547.941 189.754 544.327C194.755 529.189 199.33 513.918 204.057 498.693C212.45 471.642 219.066 444.002 224.916 416.298C227.816 402.565 230.469 388.782 232.871 374.955C233.326 372.337 233.771 369.718 234.208 367.095L234.845 363.242C235.281 360.493 235.53 357.631 233.396 355.457C231.312 353.335 227.735 352.583 224.993 351.587L224.794 351.513C223.049 350.861 221.292 350.233 219.541 349.586C222.12 347.555 224.667 345.477 227.239 343.448C229.315 341.809 231.422 340.204 233.468 338.528C235.154 337.147 236.53 335.371 236.705 333.124C236.885 330.825 235.901 328.695 235.108 326.588L235.032 326.385C234.253 324.281 233.472 322.177 232.671 320.081L227.714 307.109C224.565 298.865 221.548 290.555 218.235 282.377C216.925 279.139 215.496 275.954 213.809 272.894C212.995 271.418 212.122 269.974 211.174 268.582C210.112 267.02 209.147 266.26 207.5 265.399C204.867 264.021 202.8 261.71 200.157 260.29C197.561 258.896 194.892 258.152 191.947 258.12ZM183.401 243.412C183.299 243.239 183.033 243.318 183.029 243.515C182.961 247.612 183.934 251.797 184.531 255.848C185.132 259.914 185.325 264.204 186.195 268.226C186.213 268.414 186.25 268.599 186.3 268.78L186.342 268.918C186.708 270.045 187.663 271 188.833 271.298C188.465 273.341 188.119 275.386 187.828 277.442C187.325 280.978 186.869 284.517 186.418 288.057L185.88 292.307C185.371 296.313 184.877 300.319 184.388 304.326C183.146 304.847 181.877 305.277 180.577 305.647C177.585 306.506 174.522 306.854 171.434 307.157C165.146 307.773 158.809 308.06 152.499 308.41L151.146 308.487C144.052 308.893 136.919 308.965 129.843 308.237C126.335 307.875 122.854 307.27 119.432 306.411C117.693 305.975 116.003 305.321 114.268 304.895C113.693 304.754 113.178 304.426 112.601 304.078C112.344 303.754 111.986 303.509 111.518 303.415L111.391 303.392L111.264 303.374L111.222 303.354L111.224 303.368C110.87 303.32 110.533 303.32 110.215 303.364C110.088 300.239 109.952 297.115 109.779 293.992C109.316 285.603 108.042 276.853 109.745 268.536C109.801 268.257 109.421 268.158 109.322 268.42C105.983 277.223 106.359 286.848 106.19 296.114C106.026 305.176 106.126 314.243 106.17 323.307C105.521 323.583 104.944 323.957 104.486 324.484C103.569 325.534 103.306 327.358 104.486 328.372C105.008 328.82 105.585 329.134 106.198 329.349C106.231 337.223 106.287 345.097 106.365 352.971C104.87 354.127 104.731 356.874 106.422 358.015C106.705 383.515 107.167 409.015 107.551 434.509L108.355 487.999C108.462 495.127 108.639 502.253 108.703 509.378L108.653 509.398L108.474 509.481C108.175 509.622 107.728 509.849 107.636 510.082C107.612 510.145 107.606 510.185 107.61 510.217C107.119 510.285 106.633 510.519 106.21 510.917C105.171 511.906 105.382 513.395 106.21 514.4L106.432 514.67C106.948 515.297 107.927 515.539 108.727 515.41C108.719 519.859 108.691 524.307 108.705 528.754C108.711 530.112 108.731 531.471 108.753 532.829L108.81 536.087C108.848 537.945 109.013 540.307 110.915 541.143C113.059 542.085 114.985 541.312 115.854 539.132C116.089 538.541 116.039 537.99 115.952 537.406C115.978 536.528 116.117 535.512 116.099 534.697L116.029 531.3C116.017 530.778 115.997 530.255 115.98 529.73L116.043 529.738C123.67 530.108 131.347 529.927 138.986 529.923L142.381 529.927C145.216 529.929 148.056 529.915 150.887 529.806L151.948 529.76C154.067 529.661 156.294 529.629 158.492 529.44C158.212 531.697 157.951 533.955 157.718 536.216C157.497 538.36 159.708 540.18 161.678 540.18C164.02 540.18 165.361 538.338 165.64 536.216C166.963 526.202 167.506 516.096 168.77 506.076C169.902 497.102 170.885 488.108 171.882 479.118L172.216 476.119C175.869 443.399 179.415 410.666 182.806 377.918L184.386 362.61C185.98 347.18 187.586 331.748 188.939 316.296C189.713 307.461 190.425 298.626 191.096 289.783C191.589 283.286 191.898 276.824 192.1 270.34C192.894 269.524 193.292 268.329 192.94 267.096C192.735 266.378 192.496 265.662 192.242 264.948C192.258 264.246 192.274 263.544 192.288 262.842C192.301 262.179 191.627 261.835 191.086 261.945C190.105 259.568 189.026 257.211 188.123 254.856C186.664 251.045 185.462 246.94 183.401 243.412ZM264.899 284.602C249.644 275.034 231.485 268.15 213.298 268.89C212.885 268.908 212.768 269.538 213.198 269.634C222.899 271.802 232.706 274.443 241.891 278.285C251.102 282.14 259.86 287.331 267.661 293.568C282.053 305.074 293.24 320.043 300.606 336.915C304.921 346.798 307.945 357.232 310.586 367.671C313.38 378.718 315.683 389.884 317.598 401.117C321.381 423.307 323.583 445.74 324.755 468.213C325.947 491.072 325.456 513.948 326.306 536.811C326.453 540.771 332.11 540.695 332.397 536.811C334.324 510.816 333.257 484.409 331.475 458.434C329.873 435.082 327.075 411.78 322.57 388.806L322.178 386.815C317.967 365.559 312.887 343.788 302.706 324.536C294.014 308.103 280.595 294.449 264.899 284.602ZM53.0608 386.194C52.9804 385.965 52.6809 385.969 52.6005 386.194C50.8616 391.065 50.7993 396.564 50.3369 401.698L50.3007 402.092C49.8564 406.779 49.5227 411.469 49.2131 416.163L49.0965 417.923C47.8522 437.071 46.2942 456.2 43.9482 475.248C41.6103 494.226 38.4481 513.071 35.0306 531.878C34.6487 533.971 35.5754 536.103 37.7707 536.707C39.7046 537.24 42.1872 536.047 42.5953 533.965C44.7182 523.169 46.4349 512.361 47.9648 501.472C50.6606 482.297 52.6728 463.036 53.9655 443.716C54.6148 434.014 55.0148 424.314 55.1736 414.59C55.246 410.079 55.1294 405.556 54.8882 401.051L54.8319 400.011C54.5665 395.403 54.5926 390.586 53.0608 386.194ZM217.901 508.164C217.697 508.053 217.444 508.28 217.574 508.491C220.527 513.296 224.523 517.437 228.386 521.522C232.423 525.79 236.361 530.186 240.48 534.372C243.457 537.392 248.244 532.517 245.103 529.744C240.687 525.846 236.071 522.139 231.576 518.328L229.61 516.661C225.924 513.544 222.129 510.456 217.901 508.164ZM77.6023 505.758C77.8234 505.338 77.3188 504.996 76.9771 505.273C74.5949 507.214 72.4579 509.527 70.1582 511.573C67.8806 513.6 65.5165 515.49 63.0881 517.335C60.6496 519.187 58.1588 520.965 55.5998 522.646C53.4769 524.042 51.2898 525.158 49.0684 526.317C48.0392 526.449 47.0863 526.954 46.3224 527.914C45.1162 529.43 44.9895 532.288 46.6621 533.603L46.9616 533.839C48.9136 535.375 51.2314 535.562 53.1533 533.839C55.3003 531.916 57.3286 529.8 59.3892 527.767L60.0083 527.159C62.2216 525.005 64.3827 522.783 66.4191 520.458L68.2645 518.358C71.684 514.455 75.2462 510.247 77.6023 505.758ZM88.5784 280.668C88.9744 280.406 88.7291 279.698 88.2406 279.867L87.344 280.177C83.5929 281.482 79.7352 282.928 76.3318 284.936C72.6731 287.094 69.2958 289.662 66.0673 292.419C59.3891 298.127 53.7061 305.144 48.8774 312.459C39.1879 327.135 33.1953 343.944 28.3565 360.762C23.1961 378.696 19.2259 397.014 15.9813 415.384C12.6864 434.055 10.1454 452.892 8.4729 471.779C7.6507 481.081 7.09787 490.388 6.82043 499.724C6.6777 504.527 6.68173 509.326 6.72195 514.131C6.73199 515.366 6.72397 516.601 6.7099 517.835L6.66364 521.54C6.63751 523.883 6.35809 526.345 6.91293 528.634C7.80951 532.318 13.8946 531.63 13.6956 527.865C13.8785 526.612 13.8866 525.317 13.8383 524.02C13.8665 523.853 13.8987 523.682 13.9328 523.509C14.0333 523.01 13.9489 522.55 13.7539 522.153C13.7217 521.532 13.6936 520.913 13.6835 520.305C13.6433 517.831 13.6453 515.368 13.7137 512.896C13.8584 507.681 14.0655 502.468 14.2746 497.257C14.6927 486.843 15.2757 476.423 16.118 466.035C19.053 429.873 25.2507 393.507 35.6599 358.719C40.4926 342.563 47.1586 326.704 56.7155 312.745C60.9592 306.546 65.7457 300.822 71.0528 295.509C76.3921 290.163 82.2782 284.845 88.5784 280.668ZM160.602 513.777L159.881 518.998C159.521 521.61 159.163 524.223 158.825 526.836C156.522 526.52 154.168 526.389 151.948 526.192C148.064 525.848 144.154 525.681 140.259 525.52C132.203 525.186 124.108 524.611 116.045 524.651C115.96 524.651 115.882 524.657 115.806 524.663L115.405 514.36L121.07 514.352C125.871 514.344 130.669 514.302 135.47 514.261C139.792 514.223 144.116 514.217 148.44 514.129L150.292 514.085C153.569 513.996 157.189 514.179 160.602 513.777ZM114.929 498.821C115.16 498.848 115.395 498.872 115.647 498.882C116.768 498.93 117.898 498.896 119.022 498.906C121.412 498.926 123.804 498.942 126.195 498.942C130.977 498.942 135.76 498.97 140.54 499.029C145.463 499.089 150.382 499.173 155.305 499.183C157.69 499.188 160.068 499.125 162.452 499.057C162.066 502.45 161.662 505.837 161.218 509.217C157.515 508.717 153.532 508.97 149.914 508.936L149.443 508.93C144.506 508.845 139.563 508.908 134.622 508.914C129.54 508.92 124.458 508.936 119.376 508.976L115.2 509.012L115.192 508.801C115.07 505.479 114.991 502.15 114.929 498.821ZM164.287 482.599C163.825 486.601 163.391 490.612 162.948 494.62C162.653 494.574 162.355 494.536 162.052 494.503C159.664 494.252 157.28 494.039 154.883 493.89C150.105 493.594 145.326 493.437 140.54 493.309C135.619 493.176 130.696 493.075 125.772 493.005C123.38 492.973 120.992 492.975 118.6 492.993C117.478 492.999 116.344 492.965 115.225 493.039C115.09 493.049 114.963 493.063 114.837 493.077L114.752 487.058C114.738 486.056 114.722 485.053 114.706 484.051C118.403 484.278 122.162 484.192 125.855 484.192L126.707 484.194C131.349 484.216 135.991 484.152 140.632 484.055C145.421 483.957 150.197 483.8 154.978 483.492C156.914 483.369 158.835 483.204 160.761 482.991L161.724 482.881C162.563 482.782 163.425 482.702 164.287 482.599ZM114.324 465.614C123.227 466.322 132.083 466.618 141.01 466.704L142.349 466.717C150.238 466.777 158.192 467.103 166.099 466.894C165.626 470.996 165.154 475.097 164.679 479.2C163.548 479.148 162.41 479.146 161.302 479.106C159.051 479.025 156.807 479.005 154.556 478.999C149.914 478.989 145.274 479.029 140.632 479.021C135.848 479.009 131.068 478.929 126.285 478.84C122.407 478.766 118.489 478.474 114.601 478.484L114.324 465.614ZM113.948 448.113C114.979 448.457 116.198 448.479 117.532 448.539L120.98 448.71C122.576 448.789 124.174 448.863 125.772 448.921C131.1 449.116 136.425 449.299 141.752 449.468C147.212 449.641 152.696 449.742 158.156 449.571C160.83 449.487 163.481 449.346 166.149 449.123C166.808 449.068 167.48 449.032 168.153 448.984C167.532 454.42 166.909 459.854 166.284 465.289C158.415 464.321 150.485 463.72 142.625 462.72L135.518 461.811C128.414 460.904 121.318 460.013 114.187 459.263L113.948 448.113ZM113.568 430.418C115.082 430.792 116.807 430.774 118.262 430.865L118.529 430.885C121.286 431.094 124.046 431.197 126.806 431.265C132.217 431.4 137.631 431.466 143.045 431.498L146.299 431.518C150.638 431.545 154.974 431.557 159.314 431.454C162.098 431.39 164.876 431.253 167.657 431.114C168.491 431.072 169.343 431.044 170.198 431.002C169.617 436.146 169.028 441.291 168.443 446.438C167.528 446.291 166.609 446.18 165.735 446.033C163.493 445.653 161.256 445.351 158.996 445.08C154.105 444.495 149.19 444.072 144.275 443.716C139.231 443.35 134.181 443.041 129.136 442.687L125.563 442.433C124.371 442.351 123.181 442.27 121.989 442.198C119.955 442.073 117.589 442.214 115.57 441.772C115.024 441.542 114.416 441.49 113.809 441.621L113.568 430.418ZM113.11 409.705C113.634 410.371 114.416 410.721 115.349 410.841C120.208 411.471 125.192 411.573 130.091 411.871L130.953 411.925C136.013 412.259 141.075 412.521 146.137 412.79C151.337 413.066 156.538 413.291 161.742 413.472C163.952 413.55 166.171 413.558 168.384 413.53L169.333 413.516C170.242 413.5 171.193 413.502 172.148 413.472C171.619 418.283 171.086 423.095 170.545 427.904C169.572 427.8 168.601 427.719 167.659 427.619C164.878 427.325 162.1 427.033 159.314 426.814C154.035 426.398 148.75 426.146 143.461 425.885C138.049 425.618 132.634 425.439 127.222 425.185C124.596 425.062 121.973 424.91 119.358 424.668C117.522 424.499 115.345 423.876 113.431 424.105C113.327 419.304 113.218 414.506 113.11 409.705ZM112.684 391.151C112.766 391.28 112.862 391.405 112.981 391.52C115.12 393.635 117.756 393.47 120.59 393.694L120.765 393.708C123.541 393.941 126.321 394.164 129.101 394.363C134.662 394.766 140.23 395.047 145.799 395.297C151.496 395.554 157.229 395.729 162.932 395.614C166.585 395.538 170.409 395.552 174.134 395.196C173.563 400.496 172.988 405.793 172.407 411.093C171.359 410.896 170.306 410.743 169.307 410.586C166.79 410.19 164.271 409.791 161.74 409.5C156.684 408.916 151.625 408.371 146.559 407.881C142.225 407.46 137.892 407.034 133.556 406.648L130.953 406.425C125.779 405.988 120.54 405.27 115.349 405.164C114.493 405.145 113.526 405.612 113.035 406.348C112.921 401.282 112.802 396.216 112.684 391.151ZM112.324 376.13C113.645 376.291 115.07 376.2 116.288 376.24C119.372 376.341 122.456 376.433 125.537 376.526L144.038 377.071C150.338 377.258 156.658 377.397 162.961 377.308C165.733 377.268 168.515 377.264 171.287 377.113L172.21 377.057C173.35 376.981 174.749 376.97 176.116 376.832L174.504 391.789C170.797 391.252 166.975 391.053 163.3 390.737L162.514 390.669C157.095 390.174 151.647 389.846 146.217 389.478C140.645 389.102 135.082 388.644 129.52 388.175C126.739 387.942 123.959 387.708 121.181 387.451L120.837 387.417C118.212 387.143 115.745 386.56 113.419 388.109C113.08 388.334 112.814 388.637 112.631 388.975C112.529 384.693 112.43 380.412 112.324 376.13ZM111.894 358.674C123.161 359.129 134.429 359.473 145.704 359.626C152.051 359.71 158.389 359.65 164.736 359.517C167.488 359.459 170.262 359.328 173.012 359.117L174.041 359.035C175.35 358.924 176.723 358.843 178.09 358.713C177.525 363.855 176.964 368.998 176.407 374.143C175.062 373.891 173.657 373.777 172.477 373.626L172.21 373.59C169.281 373.187 166.324 372.952 163.381 372.693C157.649 372.188 151.888 371.862 146.141 371.584C140.257 371.301 134.368 371.062 128.482 370.798L122.596 370.535C121.615 370.492 120.632 370.448 119.651 370.408C118.25 370.348 116.849 370.291 115.448 370.233C114.756 370.205 114.036 370.112 113.345 370.146L113.148 370.12C113.057 370.108 112.977 370.1 112.903 370.092C112.716 369.947 112.513 369.829 112.298 369.738L112.167 369.688L111.894 358.674ZM179.937 342.132C179.415 346.762 178.896 351.394 178.385 356.024C176.779 355.841 175.153 355.74 173.619 355.601C170.525 355.324 167.415 355.08 164.313 354.938L158.11 354.65C153.977 354.457 149.841 354.272 145.704 354.121C134.38 353.709 123.057 353.234 111.741 352.655C111.66 349.515 111.578 346.374 111.495 343.232C112.038 343.816 112.822 344.198 113.854 344.196C125.734 344.164 137.625 344.234 149.504 344.037C155.45 343.938 161.391 343.796 167.329 343.49C170.236 343.341 173.159 343.037 176.041 342.637C177.272 342.466 178.619 342.343 179.937 342.132ZM181.839 325.636C181.28 330.379 180.731 335.123 180.193 339.868C178.717 339.604 177.193 339.463 175.816 339.276C172.859 338.874 169.884 338.552 166.905 338.385C161.109 338.056 155.309 337.891 149.504 337.768C137.625 337.515 125.734 337.517 113.854 337.422C112.738 337.414 111.91 337.857 111.365 338.516C111.282 335.554 111.196 332.593 111.106 329.631C112.253 329.51 113.391 329.339 114.445 329.265C117.679 329.039 120.918 328.832 124.156 328.645C130.913 328.259 137.677 327.927 144.44 327.632C151.204 327.338 157.971 327.05 164.738 326.799L167.697 326.69C172.403 326.515 177.187 326.294 181.839 325.636ZM183.966 307.777C183.385 312.58 182.812 317.382 182.241 322.187L182.068 323.675C176.409 322.573 170.445 322.252 164.738 322.008C157.971 321.721 151.215 321.572 144.44 321.592C137.673 321.614 130.917 321.773 124.156 322.052C120.777 322.193 117.4 322.354 114.022 322.537C113.094 322.587 112.006 322.561 110.886 322.577C110.86 321.823 110.84 321.067 110.814 320.313C110.711 317.256 110.611 314.197 110.506 311.14C112.79 312.314 115.759 312.787 118.055 313.288L118.316 313.346C122.106 314.197 125.976 314.75 129.843 315.086C137.44 315.749 145.115 315.502 152.704 314.86L154.033 314.746C160.697 314.166 167.606 313.434 174.067 311.783C177.145 310.999 180.325 309.899 183.083 308.304C183.371 308.137 183.666 307.962 183.966 307.777ZM119.8 250.701C119.734 250.439 119.346 250.381 119.217 250.624C118.32 252.33 117.985 254.377 117.363 256.205C116.692 258.172 116.067 260.151 115.327 262.094C113.781 266.151 111.958 270.049 109.785 273.808C107.632 277.528 113.659 280.183 115.243 276.11C116.879 271.907 118.224 267.559 119.036 263.118C119.434 260.95 119.788 258.752 119.902 256.549C120.001 254.659 120.266 252.545 119.8 250.701Z" fill="#282828"/>
<path fill-rule="evenodd" clip-rule="evenodd" d="M75.7942 168.162C75.9631 158.64 76.15 148.927 77.5632 139.497C78.9463 130.278 82.7518 121.945 89.2892 115.251C103.172 101.031 123.299 97.5577 142.035 94.3748L174.064 88.9326C183.838 87.2728 194.264 84.6194 204.136 86.9735C209.001 88.1336 213.132 90.8284 216.908 94.017C220.548 97.0901 224.461 100.39 226.928 104.525C229.398 108.666 230.248 113.506 231.051 118.189C231.957 123.469 232.661 128.79 233.161 134.123C234.163 144.81 234.299 155.576 233.573 166.285C233.221 171.479 232.66 176.658 231.945 181.813C231.591 184.371 231.19 186.921 230.737 189.461C230.603 190.212 230.502 191.042 230.365 191.879C231.376 194.755 231.95 197.733 231.904 200.7C231.767 209.437 224.4 214.935 216.973 217.89C212.666 219.601 208.165 220.764 203.933 222.676C199.48 224.69 196.451 227.95 193.407 231.671C187.604 238.768 181.052 245.146 173.574 250.465C157.717 261.748 137.63 267.084 118.39 263.033C113.774 262.062 109.117 260.554 104.965 258.279C100.585 255.88 97.2901 252.4 94.5239 248.287C89.3877 240.653 85.7029 232.057 82.9166 223.308C80.0741 214.384 78.0558 205.444 76.9561 196.139C75.8585 186.863 75.6273 177.495 75.7942 168.162Z" fill="white"/>
<path fill-rule="evenodd" clip-rule="evenodd" d="M178.015 55.7619C164.759 53.9371 146.464 59.868 139.864 71.827C108.347 64.3908 68.5976 64.1472 42.6228 88.902C15.5183 118.267 49.5623 156.984 72.1377 165.713C70.4933 173.708 73.0564 224.921 91.1891 247.766C105.581 267.122 139.092 276.056 154.599 252.935L154.72 252.746C156.382 250.075 154.951 250.162 153.246 252.147C138.061 265.511 117.413 265.741 101.504 251.636C71.6874 225.856 74.7611 162.643 88.9496 126.074C129.352 121.633 172.609 133.889 200.516 164.328L198.628 175.697C198.307 177.636 197.941 179.57 197.663 181.513C197.484 182.76 197.464 183.997 198.327 185.007C201.173 188.335 205.972 183.333 209.918 181.344C211.084 181.179 212.252 181.117 213.397 181.197C232.363 183.643 228.626 220.466 207.781 214.012C206.03 212.92 204.524 213.252 203.845 214.837C198.877 219.392 195.601 227.516 187.345 235.341C184.434 238.276 181.782 240.731 178.505 243.086C176.582 245.033 170.776 247.02 172.615 250.353C176.097 257.937 196.624 234.114 200.253 227.526C211.623 232.019 224.224 230.492 236.007 229.394C298.171 226.16 289.873 160.576 238.918 119.169C229.327 112.102 218.744 106.337 207.745 101.901C206.243 101.295 206.898 98.8269 208.422 99.4411C215.7 102.377 222.796 105.872 229.559 109.916L229.57 107.498C229.58 103.425 229.516 99.1852 228.809 95.4641C228.456 92.8857 227.861 90.1318 226.947 88.0599C225.816 81.7081 208.099 59.9054 178.015 55.7619ZM214.227 189.651C213.267 188.739 211.475 189.828 210.621 189.799C208.436 190.099 206.36 191.022 204.741 192.163C203.672 192.762 202.922 193.325 202.297 193.842L202.279 193.838C202.285 193.838 202.291 193.842 202.295 193.844L202.237 193.884C201.324 194.532 197.987 198.182 200.096 197.201C200.253 196.997 200.413 196.8 200.576 196.607C200.594 196.633 200.618 196.66 200.647 196.686L200.528 196.861C198.737 199.558 201.831 196.716 202.307 195.962C202.329 195.98 202.353 195.992 202.379 196.006L201.76 196.76C201.674 196.867 201.605 196.953 201.549 197.026L201.416 197.152C199.346 199.19 199.282 201.024 201.688 198.011C201.593 198.152 201.517 198.303 201.507 198.438L201.364 198.619C199.475 201.056 201.01 200.191 201.951 199.149L202.03 199.059L202.014 199.085C201.139 200.431 202.872 199.485 203.179 198.765L203.192 198.733C203.525 198.46 203.73 198.154 203.801 198.078L203.815 198.063C205.439 196.398 207.795 194.988 209.795 194.347C210.085 194.292 210.378 194.248 210.676 194.216C211.879 193.949 213.095 193.763 214.324 193.665C214.475 193.647 214.627 193.536 214.741 193.393C216.599 193.331 216.026 192.569 215.255 192.426L215.241 192.424L215.394 192.412C216.587 192.295 217.401 191.867 216.195 191.603L216.043 191.573C216.061 191.543 216.078 191.515 216.094 191.485C217.127 191.372 216.453 190.367 215.879 190.61C216.121 189.822 215.018 190.214 214.88 190.097C214.776 189.98 214.645 189.878 214.57 189.872C214.238 189.638 214.399 189.659 214.227 189.651ZM207.906 176.871L208.149 177.012C208.344 177.127 208.545 177.203 208.748 177.247C208.462 177.37 208.179 177.501 207.902 177.642C207.906 177.471 207.908 177.298 207.908 177.127L207.906 176.871Z" fill="#282828"/>
<path fill-rule="evenodd" clip-rule="evenodd" d="M113.41 228.933C116.538 229.84 119.895 229.921 123.085 228.984C125.978 228.135 128.947 226.264 131.076 223.791C132.968 221.592 134.192 218.921 134.144 216.072C134.14 215.746 134.023 215.474 133.844 215.263C133.651 215.036 133.382 214.879 133.094 214.813C132.797 214.742 132.483 214.766 132.216 214.889C131.975 214.998 131.767 215.185 131.639 215.456C131.311 215.887 130.985 216.311 130.658 216.723C128.028 219.973 125.481 222.403 121.525 223.276C119.378 223.748 117.235 223.539 115.269 222.817C113.162 222.045 111.261 220.687 109.769 218.95C109.094 218.163 108.3 217.843 107.522 217.837C106.639 217.831 105.767 218.242 105.111 218.897C104.466 219.541 104.034 220.416 103.993 221.333C103.959 222.135 104.223 222.976 104.918 223.724C107.214 226.192 110.189 228 113.41 228.933ZM113.504 188.214C110.298 190.165 105.411 194.715 108.86 199.552C112.921 203.817 118.769 198.926 121.65 196.716C124.321 195.002 127.325 199.409 124.844 201.41C104.024 216.838 95.5745 188.725 111.882 185.92C113.677 185.612 114.344 187.611 113.504 188.214ZM143.505 179.629C144.537 178.969 145.749 178.744 147.092 179.355C148.143 179.834 149.985 181.427 151.265 183.52C152.144 184.954 152.765 186.636 152.636 188.385C152.606 188.794 152.755 189.093 152.992 189.314C153.179 189.489 153.45 189.618 153.766 189.658C154.035 189.693 154.337 189.662 154.582 189.584C155.048 189.439 155.296 189.135 155.388 188.89C156.287 186.503 155.901 183.842 154.894 181.441C153.537 178.199 151.072 175.483 149.456 174.609C146.692 173.11 143.431 173.042 140.665 174.568C138.309 175.868 136.835 177.965 135.37 180.103C135.058 180.558 134.749 181.008 134.429 181.451C133.79 182.34 133.725 183.221 133.973 183.975C134.248 184.813 134.948 185.519 135.824 185.887C136.634 186.229 137.573 186.278 138.405 185.928C139.107 185.63 139.752 185.053 140.16 184.071C140.846 182.42 141.992 180.598 143.505 179.629ZM91.1538 183.303C91.8615 183.671 92.4123 183.784 93.1963 183.548C93.6285 183.418 94.0567 183.168 94.3924 182.832C94.7241 182.501 94.9633 182.086 95.0578 181.628C95.287 180.497 95.9041 179.437 96.7866 178.748C97.5405 178.156 98.4914 177.845 99.5468 178.02C100.685 178.211 101.768 178.941 102.516 179.803C102.765 180.091 102.962 180.419 103.157 180.745C103.527 181.352 103.883 181.917 104.392 182.364C104.585 182.535 104.874 182.651 105.155 182.651C105.268 182.651 105.385 182.633 105.495 182.599C106.629 181.461 106.846 180.596 106.81 179.741C106.772 178.842 106.418 177.933 105.845 177.084C104.504 175.095 101.959 173.462 100.24 173.092C97.8863 172.587 95.5503 173.195 93.6768 174.51C91.7489 175.864 90.3196 177.965 89.8753 180.332C89.7668 180.904 89.813 181.519 90.0301 182.052C90.2432 182.575 90.6111 183.021 91.1538 183.303ZM138.317 158.411C139.728 159.788 141.399 160.001 143.091 160.191C144.03 160.297 144.78 160.383 145.518 160.55C147.546 161.008 149.552 161.698 151.382 162.692C153.293 163.732 155.378 164.985 156.876 166.59C157.234 166.972 157.569 167.373 157.905 167.775C158.213 168.141 158.508 168.494 158.82 168.834C159.178 169.225 159.517 169.634 159.855 170.042C160.064 170.387 160.106 170.472 160.149 170.56C160.211 170.693 160.285 170.841 160.37 171C160.484 171.218 160.619 171.457 160.76 171.673C160.995 172.068 161.121 172.177 161.23 172.226C161.411 172.306 161.584 172.346 161.749 172.325C161.905 172.304 162.052 172.229 162.199 172.107C162.923 171.494 163.138 170.487 163.116 169.419C163.081 167.799 162.484 166.004 161.934 164.901C160.653 162.338 158.878 159.674 156.743 157.761C154.307 155.577 151.641 153.924 148.581 152.785C146.678 152.077 144.476 151.427 142.404 151.509C140.91 151.568 139.487 152.012 138.311 153.121C137.589 153.801 137.241 154.769 137.241 155.736C137.241 156.722 137.601 157.714 138.317 158.411ZM88.2812 171.02C88.3717 171.168 88.4963 171.269 88.635 171.33C88.7797 171.394 88.9405 171.413 89.0974 171.386C89.2521 171.36 89.3989 171.29 89.5155 171.183C89.6261 171.08 89.7125 170.944 89.7507 170.777C90.6875 166.656 92.5088 163.589 96.3926 161.612C98.3044 160.639 100.504 160.021 102.584 159.528C103.187 159.385 103.827 159.293 104.47 159.198C106.486 158.904 108.519 158.566 109.831 156.935C110.623 155.952 110.957 154.696 110.768 153.546C110.591 152.464 109.96 151.472 108.812 150.877C105.952 149.398 102.399 150.85 99.5106 152.086C99.2975 152.178 99.0864 152.268 98.8814 152.355C96.0569 153.548 93.4818 155.123 91.365 157.375C89.6864 159.161 88.1284 161.802 87.5032 164.519C86.9805 166.779 87.1032 169.087 88.2812 171.02Z" fill="#282828"/>
<path fill-rule="evenodd" clip-rule="evenodd" d="M113.04 204.777C117.765 202.647 126.246 204.505 129.324 205.243C136.482 206.961 143.685 210.674 145.91 216.492C148.417 223.047 143.414 225.112 142.678 224.774C137.723 225.124 131.82 222.005 126.628 221.2C122.412 220.543 117.966 219.967 114.015 217.725C111.133 219.312 104.619 220.171 99.3625 221.558C94.8856 222.741 92.9458 225.303 88.7945 224.758C83.8211 224.107 85.8575 213.634 91.4019 209.393C97.4689 204.751 107.729 202.868 113.04 204.777ZM103.689 249.546C107.822 250.554 108.099 241.489 108.562 238.288C108.923 235.786 110.962 229.334 116.134 229.611C121.305 229.891 123.249 235.297 122.987 238.658C122.816 240.838 120.808 251.883 127.217 253.279C131.302 253.265 136.028 252.989 140.324 252.197C145.38 251.051 151.953 247.038 153.69 254.94C154.315 257.784 132.044 266.233 122.161 266.997C112.14 269.031 100.414 265.903 93.2774 258.231C91.6531 256.485 87.0818 249.239 86.7561 247.463C86.0726 243.734 87.6567 241.332 92.2683 242.648C95.5249 244.39 101.031 248.899 103.689 249.546Z" fill="#282828"/>
<path fill-rule="evenodd" clip-rule="evenodd" d="M83.6969 195.453C90.0715 198.526 98.9649 193.993 103.251 189.246C104.811 187.519 106.013 182.573 105.414 179.438C103.788 170.944 97.6803 165.847 91.2334 164.106C82.2957 161.692 73.3017 167.807 74.3491 175.021C75.3442 181.859 76.8499 191.778 83.6969 195.453ZM127.083 179.138C127.593 188.393 135.019 196.495 143.897 198.896C158.198 202.89 165.266 192.828 168.466 181.988C168.786 180.912 169.534 177.623 167.525 174.804C159.633 163.712 140.431 165.602 130.84 168.647C128.033 171.334 126.886 175.212 127.083 179.138ZM76.7715 163.174C76.7755 163.179 76.7815 163.184 76.7856 163.19C76.8177 163.17 76.8499 163.149 76.884 163.13C76.8479 163.145 76.8076 163.158 76.7715 163.174ZM64.8063 164.244C65.6366 154.82 95.1816 158.428 98.6352 159.201C108.061 161.975 116.203 169.525 126.743 166.206C137.665 154.022 174.439 157.516 182.148 163.723C183.608 163.15 185.383 163.457 187.262 163.998C196.918 163.649 240.995 166.98 231.979 179.313C230.611 180.264 229.244 179.297 229.206 177.34C182.206 160.36 186.762 176.264 181.189 174.408C180.337 174.653 179.45 174.808 178.672 174.971C174.358 176.36 172.893 175.93 172.326 180.777C168.422 218.206 118.621 205.288 122.706 174.587C118.662 174.365 115.125 172.614 110.85 174.323C107.88 203.244 84.6256 204.411 77.6278 194.385C72.3509 187.428 74.4436 176.926 67.1905 171.452C64.3279 173.85 64.1429 165.756 64.8063 164.244Z" fill="#282828"/>
</g>
<defs>
<clipPath id="clip0_2210_664">
<rect width="340" height="506" fill="white" transform="matrix(-1 0 0 1 340 0.267822)"/>
</clipPath>
</defs>
</svg>
