<svg width="92" height="93" viewBox="0 0 92 93" fill="none" xmlns="http://www.w3.org/2000/svg">
<mask id="mask0_2874_910" style="mask-type:luminance" maskUnits="userSpaceOnUse" x="-5" y="0" width="102" height="93">
<path d="M97 0.767807H-5V92.7678H97V0.767807Z" fill="white"/>
</mask>
<g mask="url(#mask0_2874_910)">
<path fill-rule="evenodd" clip-rule="evenodd" d="M80.1058 110.817C79.9501 108.166 79.7943 105.476 79.5608 102.825C79.1325 97.5237 78.5875 92.222 77.6921 86.9593C76.7966 81.7746 75.5119 76.7458 73.7211 71.8339C72.8646 69.5339 71.9692 67.5847 70.6455 65.5576C69.3997 63.6085 67.8035 62.2831 65.7791 61.1136C63.9882 60.061 61.886 58.2288 60.173 57.0203C59.4722 56.5136 57.9928 56.5525 57.4867 55.8119C56.8249 54.8373 57.2531 53.3949 56.5913 52.4203C55.8516 51.3288 54.8005 50.4712 53.6325 49.8475C52.3478 48.9898 50.8295 48.6 49.3111 48.639C47.0921 48.522 44.834 49.2237 43.3936 51.0559C42.6928 51.9525 42.2646 53.0051 42.1867 54.1746C42.1867 54.4864 42.2646 54.7203 42.4203 54.8763C42.3424 54.9932 42.2256 55.1492 42.1478 55.2661C41.8363 54.8373 41.1745 54.6034 40.7073 54.9153C39.2279 56.0068 37.5928 56.8644 35.8798 57.4881C35.4905 57.2932 34.9844 57.3712 34.673 57.6831C34.5173 57.8 34.4005 57.917 34.2447 57.9949C33.6218 58.1509 32.96 58.3068 32.3371 58.4237C32.1424 58.4627 31.9478 58.5797 31.831 58.7356C31.6363 58.5407 31.3638 58.4627 31.0524 58.5797C27.6264 59.9051 24.3562 61.9322 21.9035 64.7C19.1783 67.7797 17.7379 71.6 16.6478 75.4983C15.4798 79.7475 14.7012 84.0746 14.0783 88.4017C13.4165 92.8068 12.7936 97.2119 12.3653 101.656C12.1318 104.151 12.015 106.646 12.1318 109.18C12.1707 110.427 12.2875 111.675 12.4821 112.922C12.5211 113.195 12.56 113.546 12.6379 113.897C12.4043 113.858 12.1707 114.053 12.2096 114.325C12.5211 116.392 14.9737 116.976 16.6867 117.21C19.4898 117.6 22.2539 117.795 25.0959 117.834C27.86 117.834 30.6241 117.678 33.3882 117.522C36.2302 117.366 39.0333 117.21 41.8753 117.015C53.2043 116.353 64.5333 115.69 75.8623 115.027C76.9134 114.949 78.0814 114.871 78.9768 114.286C80.1058 113.468 80.1837 112.142 80.1058 110.817Z" fill="white"/>
</g>
<mask id="mask1_2874_910" style="mask-type:luminance" maskUnits="userSpaceOnUse" x="-5" y="0" width="102" height="93">
<path d="M97 0.767807H-5V92.7678H97V0.767807Z" fill="white"/>
</mask>
<g mask="url(#mask1_2874_910)">
<path fill-rule="evenodd" clip-rule="evenodd" d="M24.9022 87.8949C24.8633 87.817 24.9412 87.739 25.019 87.817C26.3816 89.0254 27.1213 90.9746 27.277 92.7678C27.4328 94.678 27.1992 96.6271 27.1213 98.5373C27.0435 100.642 26.9267 102.786 26.8099 104.892C26.6931 107.036 26.5763 109.18 26.4595 111.324L26.2259 116.158C26.187 116.664 26.2648 117.288 26.0702 117.795C25.7587 118.536 24.8633 118.419 24.6686 117.795V117.756C24.5129 117.21 24.6297 116.508 24.6686 115.963L24.9412 110.661C25.1358 106.919 25.2916 103.176 25.4862 99.4729L25.5641 98.2254C25.6419 96.5492 25.7198 94.8729 25.7977 93.1966V92.6509C25.7587 91.0136 25.7198 89.4153 24.9022 87.8949ZM58.2274 56.9034C59.0061 56.8254 59.59 57.0983 60.2519 57.3712C60.5633 57.4881 60.8358 57.6051 61.1473 57.761C61.4977 57.917 61.7312 58.2288 61.9648 58.5797L62.0816 58.7746C63.016 60.139 63.6389 61.7373 64.3396 63.2186C65.1572 64.9729 66.0137 66.6881 66.8312 68.4424L67.2206 69.3C67.4152 69.7288 67.6099 70.1576 67.8045 70.5864L68.1549 71.3271C68.5053 72.1068 68.8167 72.8864 68.3106 73.7051C67.8435 74.4458 67.0648 74.9915 66.4419 75.5763C65.8969 76.0441 65.3908 76.5119 64.8457 76.9797C65.9358 78.0712 66.6755 79.4746 67.1038 80.9559C67.7267 80.6831 68.4664 80.6441 69.0893 80.5271C69.9847 80.3712 70.1015 81.7356 69.245 81.6966C68.6221 81.6966 67.8824 81.7356 67.2595 81.6186C67.3763 82.1254 67.4541 82.5932 67.4931 83.1C67.7656 85.7119 67.1816 88.3237 66.5587 90.8186L66.5198 91.0136C65.858 93.7424 65.2351 96.4712 64.69 99.2C64.145 101.968 63.6389 104.736 63.1717 107.503C62.7045 110.31 62.3931 113.156 62.0427 116.002C62.0038 116.431 61.7312 116.781 61.2641 116.781C60.8748 116.781 60.4076 116.431 60.4854 116.002C60.8358 112.922 61.3419 109.842 61.848 106.763C62.7045 101.461 63.7946 96.2373 65.0793 91.0136L65.3129 90.117C65.8969 87.778 66.403 85.361 66.0916 82.9051C65.858 80.917 65.0404 78.8119 63.4053 77.6034L63.3664 77.5644C62.9771 77.2915 62.8213 76.7458 63.2106 76.3949C63.4442 76.161 63.6778 75.9271 63.9114 75.6932L65.3519 74.2898L65.6244 74.017C65.858 73.7831 66.0916 73.5492 66.3641 73.3153C66.5198 73.1593 66.9091 72.9254 66.948 72.6915C66.987 72.5356 66.7923 72.3017 66.7145 72.1458L66.403 71.4831C66.2083 71.0932 66.0526 70.7424 65.858 70.3525C65.4687 69.5729 65.1183 68.7932 64.729 68.0136L62.5488 63.3356C61.9259 62.0102 61.3809 60.6068 60.5633 59.3983L60.4076 59.1644C60.2908 58.9695 60.174 58.7746 60.0572 58.5407C59.9793 58.3068 59.8625 58.0339 59.7458 57.839C59.3954 57.3712 58.7335 57.0983 58.1885 56.9814C58.1496 57.0203 58.1496 56.9034 58.2274 56.9034ZM41.448 55.6559C41.487 55.6559 41.487 55.7339 41.448 55.7339C40.7862 55.9288 40.1244 56.2797 39.6183 56.7475C39.3847 56.9814 39.1122 57.2153 38.9564 57.5271C38.8786 57.6441 38.8786 57.761 38.8396 57.878V57.917C38.8007 58.1509 38.7618 58.2678 38.6061 58.4627L38.5671 58.5017C37.9053 59.5153 37.4381 60.6848 37.0099 61.8153L36.0755 64.3102L35.1412 66.8051C34.8297 67.6237 34.5572 68.4034 34.2458 69.222C34.09 69.6509 33.8954 70.1187 33.7396 70.5475C33.6618 70.7424 33.5839 70.9373 33.5061 71.1322C33.5061 71.1712 33.4671 71.3271 33.4282 71.3661C33.6228 71.678 34.129 71.9509 34.4015 72.1848L35.3748 72.9644C36.0755 73.5102 36.7763 74.0949 37.477 74.6797C37.9053 75.0305 37.6328 75.6932 37.1656 75.8492C36.387 76.122 35.6083 76.4339 34.8297 76.7068C34.5183 76.8237 34.1679 76.9407 33.8564 77.0576L33.6618 77.1356C33.5839 77.1746 33.6228 77.1746 33.6228 77.2915C33.6228 77.4475 33.6618 77.6034 33.7007 77.7203C33.9732 79.3186 34.2457 80.917 34.5183 82.4763C35.5694 88.0898 36.8152 93.6644 38.2167 99.2C38.9175 102.007 39.6961 104.775 40.4358 107.581C41.1755 110.349 42.1099 113.117 43.0442 115.846C43.3167 116.625 42.0709 116.937 41.8374 116.197C40.7862 113 39.8129 109.764 38.8007 106.529C37.0099 100.798 35.6083 94.9509 34.4015 89.0644C33.7786 86.1407 33.2335 83.2559 32.7274 80.2932C32.6496 79.7475 32.5328 79.2017 32.4549 78.617L32.3381 77.7983C32.2603 77.2136 32.1824 76.6288 32.6496 76.161C33.0778 75.6932 33.8564 75.5373 34.4404 75.3424H34.4793C34.8297 75.1864 35.219 75.0695 35.6083 74.9525C35.0633 74.5237 34.5183 74.0949 33.9732 73.6661C33.545 73.3153 33.0778 72.9644 32.6496 72.6136C32.2992 72.3017 31.9877 71.9509 31.9488 71.4831C31.9099 71.0153 32.1045 70.5475 32.2992 70.0797V70.0407C32.4549 69.6119 32.6106 69.1441 32.8053 68.7153L33.8564 65.9864C34.5183 64.2322 35.1412 62.478 35.8419 60.7627C36.1145 60.061 36.4259 59.3983 36.7763 58.7356C36.932 58.4237 37.1267 58.1119 37.3213 57.839C37.5549 57.5271 37.7496 57.3322 38.0999 57.1763C38.645 56.9034 39.1122 56.3966 39.6572 56.0847C40.2412 55.8509 40.8251 55.6559 41.448 55.6559ZM43.2389 52.5373C43.2778 52.4983 43.3167 52.4983 43.3167 52.5763C43.3167 53.4339 43.1221 54.3305 43.0053 55.1881C42.8885 56.0458 42.8496 56.9424 42.6549 57.8C42.6549 57.839 42.6549 57.878 42.616 57.917V57.9559C42.5381 58.1898 42.3435 58.3848 42.0709 58.4627C42.1488 58.8915 42.2267 59.3203 42.2656 59.7492C42.3824 60.4898 42.4603 61.2305 42.577 62.0102L42.6938 62.9068C42.8106 63.7644 42.8885 64.622 43.0053 65.4407C43.2778 65.5576 43.5503 65.6356 43.8228 65.7136C44.4457 65.9085 45.1076 65.9864 45.7694 66.0254C47.0931 66.1424 48.4557 66.2203 49.7793 66.2983H50.0519C51.5702 66.3763 53.0496 66.4153 54.5679 66.2593C55.3076 66.1814 56.0473 66.0644 56.787 65.8695C57.1374 65.7915 57.5267 65.6356 57.877 65.5576C57.9938 65.5186 58.1106 65.4407 58.2274 65.4017C58.2664 65.3237 58.3442 65.2847 58.461 65.2458H58.5H58.5389C58.6167 65.2458 58.6946 65.2458 58.7335 65.2458C58.7725 64.5831 58.7725 63.9203 58.8114 63.2576C58.9282 61.4644 59.1618 59.6322 58.8114 57.878C58.8114 57.8 58.8893 57.8 58.8893 57.839C59.59 59.7102 59.5122 61.7373 59.5511 63.6864C59.59 65.5966 59.5511 67.5068 59.5511 69.4559C59.7068 69.4949 59.8236 69.6119 59.9015 69.6898C60.0961 69.9237 60.1351 70.3136 59.9015 70.5085C59.7847 70.5864 59.6679 70.6644 59.5511 70.7034C59.5511 72.3797 59.5511 74.0559 59.5122 75.6932C59.8236 75.9271 59.8625 76.5119 59.5122 76.7458C59.4343 82.1644 59.3564 87.5441 59.2786 92.9627L59.1228 104.307C59.0839 105.827 59.045 107.308 59.045 108.829H59.0839C59.1618 108.868 59.2396 108.907 59.2786 108.946V108.985C59.3954 108.985 59.4732 109.063 59.59 109.141C59.8236 109.336 59.7457 109.647 59.59 109.881L59.5511 109.92C59.4343 110.037 59.2396 110.115 59.0839 110.076C59.0839 111.012 59.0839 111.947 59.0839 112.883C59.0839 113.156 59.0839 113.468 59.0839 113.741V114.442C59.0839 114.832 59.045 115.339 58.6557 115.495C58.1885 115.69 57.7992 115.534 57.6045 115.066C57.5656 114.949 57.5656 114.832 57.5656 114.715C57.5656 114.52 57.5267 114.325 57.5267 114.131V113.429C57.5267 113.312 57.5267 113.195 57.5267 113.078C55.9305 113.156 54.2954 113.117 52.6603 113.117H51.9595C51.3755 113.117 50.7526 113.117 50.1686 113.078H49.9351C49.4679 113.039 49.0007 113.039 48.5335 113C48.6114 113.468 48.6503 113.975 48.6893 114.442C48.7282 114.91 48.261 115.3 47.8328 115.3C47.3267 115.3 47.0541 114.91 46.9763 114.442C46.7038 112.337 46.587 110.193 46.3145 108.049C46.0809 106.139 45.8862 104.229 45.6526 102.358L45.5748 101.734C44.7961 94.7949 44.0564 87.8559 43.3167 80.9559L42.9664 77.7203C42.616 74.4458 42.3045 71.1712 41.9931 67.8966C41.8374 66.0254 41.6816 64.1542 41.5259 62.2831C41.4091 60.9187 41.3702 59.5542 41.3312 58.1509C41.1755 57.9949 41.0977 57.722 41.1366 57.4492C41.1755 57.2932 41.2145 57.1373 41.2923 56.9814C41.2923 56.8254 41.2923 56.6695 41.2923 56.5526C41.2923 56.3966 41.448 56.3576 41.5648 56.3576C41.7595 55.8509 41.9931 55.3441 42.1877 54.8373C42.5381 54.1746 42.8106 53.317 43.2389 52.5373ZM25.9923 61.2695C29.2236 59.2424 33.0389 57.8 36.8931 57.9559C36.9709 57.9559 37.0099 58.1119 36.932 58.1119C34.8686 58.5797 32.8053 59.1254 30.8587 59.9441C28.9122 60.7627 27.0435 61.8542 25.4083 63.1797C22.3717 65.6356 19.9969 68.7932 18.4396 72.3407C17.5442 74.4458 16.8824 76.6288 16.3374 78.8509C15.7534 81.1898 15.2473 83.5678 14.858 85.9458C14.0404 90.6627 13.6122 95.3797 13.3396 100.175C13.1061 105.008 13.1839 109.842 13.0282 114.715C12.9893 115.573 11.7824 115.534 11.7435 114.715C11.3541 109.219 11.5488 103.605 11.9381 98.1085C12.2885 93.1576 12.8725 88.2458 13.8068 83.3729L13.8847 82.9441C14.7801 78.461 15.8312 73.822 18.0114 69.7678C19.8412 66.2593 22.6832 63.3746 25.9923 61.2695ZM70.8022 82.7881C70.8022 82.7492 70.8801 82.7492 70.8801 82.7881C71.2305 83.8017 71.2694 84.9712 71.3473 86.0627V86.1407C71.4251 87.1153 71.503 88.1288 71.5809 89.1034L71.6198 89.4932C71.8923 93.5475 72.2038 97.6017 72.7099 101.617C73.216 105.632 73.8778 109.608 74.5786 113.624C74.6564 114.053 74.4618 114.52 73.9946 114.637C73.5664 114.754 73.0603 114.481 72.9824 114.053C72.5152 111.753 72.1648 109.492 71.8534 107.153C71.2694 103.098 70.8412 99.0051 70.5687 94.9119C70.4129 92.8458 70.3351 90.8186 70.2961 88.7525C70.2961 87.778 70.2961 86.8424 70.374 85.8678V85.6339C70.4908 84.7373 70.4908 83.7237 70.8022 82.7881ZM35.9587 108.634C35.9977 108.595 36.0366 108.673 36.0366 108.712C35.4137 109.725 34.5572 110.622 33.7396 111.48C32.8832 112.376 32.0656 113.312 31.1702 114.208C30.5473 114.832 29.5351 113.819 30.1969 113.234C31.1312 112.415 32.1045 111.636 33.0389 110.817L33.4671 110.466C34.2458 109.764 35.0633 109.102 35.9587 108.634ZM65.6244 108.127C65.5854 108.049 65.7022 107.971 65.7412 108.01C66.2473 108.439 66.7145 108.907 67.1816 109.336C67.6488 109.764 68.1549 110.154 68.661 110.544C69.1671 110.934 69.7122 111.324 70.2572 111.675C70.7244 111.986 71.1526 112.22 71.6198 112.454C71.8534 112.493 72.048 112.571 72.2038 112.805C72.4763 113.117 72.4763 113.741 72.1259 114.014L72.048 114.053C71.6198 114.364 71.1526 114.403 70.7244 114.053C70.2572 113.663 69.829 113.195 69.4007 112.766L69.2839 112.649C68.8167 112.181 68.3496 111.714 67.9213 111.246L67.532 110.817C66.8702 109.959 66.0915 109.063 65.6244 108.127ZM63.2885 60.4509C63.2106 60.4119 63.2496 60.2559 63.3664 60.2949L63.561 60.3729C64.3396 60.6458 65.1572 60.9576 65.8969 61.3864C66.6755 61.8542 67.3763 62.4 68.077 62.9848C69.4786 64.1932 70.6854 65.6746 71.6977 67.2339C73.761 70.3525 75.0068 73.9 76.019 77.4475C77.1091 81.2288 77.9656 85.1271 78.6274 89.0254C79.3282 92.9627 79.8732 96.978 80.2236 100.954C80.3793 102.942 80.4961 104.892 80.574 106.88C80.6129 107.893 80.6129 108.907 80.6129 109.92C80.6129 110.193 80.6129 110.427 80.6129 110.7V111.48C80.6129 111.986 80.6908 112.493 80.574 113C80.3793 113.78 79.0946 113.624 79.1335 112.844C79.0946 112.571 79.0946 112.298 79.0946 112.025C79.0946 111.986 79.0946 111.947 79.0557 111.908C79.0167 111.792 79.0557 111.714 79.0946 111.636C79.0946 111.519 79.0946 111.363 79.0946 111.246C79.0946 110.739 79.0946 110.193 79.0946 109.686C79.0557 108.595 79.0167 107.464 78.9778 106.373C78.8999 104.151 78.7832 101.968 78.5885 99.7458C77.9656 92.1051 76.6419 84.3864 74.4618 77.0187C73.4496 73.5881 72.048 70.2356 70.0236 67.2729C69.1282 65.9475 68.116 64.739 66.987 63.6085C65.858 62.439 64.6122 61.3085 63.2885 60.4509ZM48.0664 109.803L48.2221 110.895C48.2999 111.441 48.3778 111.986 48.4557 112.571C48.9618 112.493 49.429 112.493 49.8961 112.454C50.7137 112.376 51.5312 112.337 52.3488 112.298C54.0618 112.22 55.7748 112.103 57.4488 112.103H57.4877L57.5656 109.92H56.3587C55.3465 109.92 54.3343 109.92 53.3221 109.881C52.4267 109.881 51.4923 109.881 50.5969 109.842H50.2076C49.5457 109.842 48.7671 109.881 48.0664 109.803ZM57.7213 106.646C57.6824 106.646 57.6045 106.646 57.5656 106.646C57.332 106.646 57.0984 106.646 56.8648 106.646C56.3587 106.646 55.8526 106.646 55.3465 106.646C54.3343 106.646 53.3221 106.646 52.3099 106.646C51.2587 106.646 50.2465 106.685 49.1954 106.685C48.6893 106.685 48.1832 106.685 47.677 106.646C47.7549 107.347 47.8328 108.088 47.9496 108.79C48.7282 108.673 49.5847 108.751 50.3244 108.712H50.4412C51.4923 108.712 52.5435 108.712 53.5557 108.712C54.6457 108.712 55.6969 108.712 56.787 108.712H57.6824V108.673C57.6824 108.049 57.7213 107.347 57.7213 106.646ZM47.2877 103.215C47.4045 104.073 47.4824 104.931 47.5603 105.749C47.6381 105.749 47.677 105.749 47.7549 105.71C48.261 105.671 48.7671 105.593 49.2732 105.593C50.2854 105.515 51.2977 105.515 52.3099 105.476C53.361 105.437 54.3732 105.437 55.4244 105.398C55.9305 105.398 56.4366 105.398 56.9427 105.398C57.1763 105.398 57.4099 105.398 57.6435 105.398C57.6824 105.398 57.6824 105.398 57.7213 105.398V104.112C57.7213 103.917 57.7213 103.683 57.7213 103.488C56.9427 103.527 56.1641 103.527 55.3465 103.527H55.1519C54.1786 103.527 53.2053 103.527 52.1931 103.488C51.1809 103.449 50.1687 103.449 49.1564 103.371C48.7282 103.332 48.3389 103.293 47.9496 103.254L47.7549 103.215C47.6381 103.254 47.4824 103.215 47.2877 103.215ZM57.8381 99.6288C55.9694 99.7848 54.1007 99.8237 52.1931 99.8627H51.9206C50.2465 99.8627 48.5725 99.9407 46.8984 99.9017C47.0152 100.759 47.0931 101.656 47.2099 102.514C47.4435 102.514 47.677 102.514 47.9106 102.475C48.3778 102.475 48.845 102.436 49.3511 102.436C50.3244 102.436 51.2977 102.436 52.3099 102.436C53.3221 102.436 54.3343 102.397 55.3465 102.397C56.1641 102.397 56.9816 102.319 57.7992 102.319L57.8381 99.6288ZM57.916 95.8864C57.6824 95.9644 57.4488 95.9644 57.1763 95.9644L56.4366 96.0034C56.0862 96.0034 55.7748 96.0424 55.4244 96.0424C54.2954 96.0814 53.1664 96.1203 52.0373 96.1593C50.8694 96.1983 49.7404 96.1983 48.5725 96.1983C47.9885 96.1983 47.4435 96.1593 46.8984 96.1203C46.7427 96.1203 46.6259 96.1203 46.4702 96.0814C46.587 97.2509 46.7427 98.3814 46.8595 99.5508C48.5335 99.3559 50.2076 99.2 51.8427 99.0051L53.361 98.8102C54.8793 98.6153 56.3587 98.4203 57.877 98.2644L57.916 95.8864ZM57.9938 92.1441C57.6824 92.222 57.2931 92.222 57.0206 92.222H56.9816C56.3977 92.261 55.8137 92.3 55.2297 92.3C54.1007 92.339 52.9328 92.339 51.8038 92.339H51.103C50.1687 92.339 49.2732 92.339 48.3389 92.339C47.7549 92.339 47.1709 92.3 46.587 92.261C46.3923 92.261 46.2366 92.261 46.0419 92.222C46.1587 93.3136 46.2755 94.4051 46.4312 95.4966C46.6259 95.4576 46.8206 95.4576 47.0152 95.4187C47.4824 95.3407 47.9496 95.2627 48.4557 95.2237C49.5068 95.1068 50.519 95.0288 51.5702 94.9509C52.6213 94.8729 53.7114 94.7949 54.7625 94.717L55.5022 94.678C55.7358 94.678 56.0083 94.639 56.2419 94.639C56.6702 94.6 57.1763 94.639 57.6045 94.561C57.7213 94.522 57.8381 94.4831 57.9938 94.522V92.1441ZM58.1106 87.778C57.9938 87.9339 57.8381 88.0119 57.6435 88.0119C56.6312 88.1288 55.5801 88.1678 54.529 88.2458H54.3343C53.2831 88.3237 52.1931 88.3627 51.1419 88.4407C50.0519 88.4797 48.9618 88.5576 47.8328 88.5966C47.3656 88.5966 46.8984 88.5966 46.4312 88.5966H46.2366C46.0419 88.5966 45.8473 88.5966 45.6526 88.5966C45.7694 89.6102 45.8862 90.6237 46.003 91.6373C46.1977 91.5983 46.4312 91.5983 46.6259 91.5593C47.2099 91.4814 47.7938 91.4424 48.3778 91.4034C49.5068 91.3254 50.5969 91.2475 51.7259 91.2085C52.8549 91.1695 54.0228 91.1305 55.1519 91.0526C55.6969 91.0136 56.2809 91.0136 56.8259 90.9356C57.2152 90.8966 57.6824 90.7797 58.0717 90.8186C58.0717 89.8051 58.0717 88.7915 58.1106 87.778ZM58.1885 83.8407C58.1885 83.8797 58.1496 83.8797 58.1106 83.9187C57.6435 84.3475 57.0984 84.3475 56.5145 84.3864H56.4755C55.8915 84.4254 55.3076 84.4644 54.7236 84.5424C53.5557 84.6203 52.3877 84.6983 51.1809 84.7373C49.974 84.7763 48.7671 84.8153 47.5603 84.8153C46.7816 84.8153 45.9641 84.8153 45.1854 84.7373C45.3022 85.8678 45.419 86.9983 45.5358 88.0898C45.7694 88.0509 45.9641 88.0119 46.1977 87.9729C46.7427 87.8949 47.2488 87.817 47.7938 87.739C48.845 87.622 49.9351 87.5051 50.9862 87.3881C51.9206 87.3102 52.816 87.1932 53.7503 87.1153L54.2954 87.0763C55.3854 86.9983 56.5145 86.8424 57.6045 86.8034C57.7992 86.8034 57.9938 86.8814 58.1106 87.0373C58.1496 85.9848 58.1496 84.9322 58.1885 83.8407ZM58.2664 80.6441C57.9938 80.6831 57.6824 80.6441 57.4099 80.6831C56.748 80.722 56.1251 80.722 55.4633 80.761L51.5702 80.878C50.2465 80.917 48.8839 80.9559 47.5603 80.917C46.9763 80.917 46.3923 80.917 45.8083 80.878H45.6137C45.3801 80.878 45.0686 80.878 44.7961 80.839L45.1465 83.9966C45.9251 83.8797 46.7427 83.8407 47.5213 83.7627H47.677C48.8061 83.6458 49.974 83.6068 51.1419 83.5288C52.3099 83.4509 53.4778 83.3339 54.6847 83.2559C55.2687 83.217 55.8526 83.139 56.4366 83.1H56.5145C57.0595 83.061 57.6045 82.9051 58.0717 83.2559C58.1496 83.2949 58.1885 83.3729 58.2274 83.4509C58.2274 82.4763 58.2274 81.5797 58.2664 80.6441ZM58.3442 76.9797C55.9694 77.0576 53.5946 77.1356 51.1809 77.1746C49.8572 77.1746 48.4946 77.1746 47.1709 77.1356C46.587 77.1356 46.003 77.0966 45.419 77.0576H45.1854C44.9129 77.0186 44.6015 77.0187 44.329 76.9797C44.4457 78.0712 44.5625 79.1627 44.6793 80.2542C44.9519 80.2153 45.2633 80.1763 45.4969 80.1373H45.5358C46.1587 80.0593 46.7816 80.0203 47.4045 79.9424C48.6114 79.8254 49.8183 79.7475 51.0641 79.7085C52.3099 79.6305 53.5557 79.5915 54.8015 79.5526L56.0473 79.5136C56.2419 79.5136 56.4755 79.5136 56.6702 79.4746C56.9816 79.4746 57.2541 79.4356 57.5656 79.4356C57.7213 79.4356 57.877 79.3966 57.9938 79.4356H58.0328H58.0717C58.1106 79.3966 58.1496 79.3966 58.1885 79.3576H58.2274L58.3442 76.9797ZM43.9786 73.4712C44.0954 74.4458 44.2122 75.4203 44.29 76.3949C44.6404 76.3559 44.9908 76.317 45.3022 76.317C45.9641 76.239 46.6259 76.2 47.2877 76.161L48.6114 76.0831C49.4679 76.0441 50.3633 76.0051 51.2198 75.9661C53.5946 75.8881 56.0083 75.7712 58.3832 75.6542C58.3832 74.9915 58.4221 74.3288 58.4221 73.6661C58.3053 73.7831 58.1496 73.861 57.916 73.861C55.3854 73.861 52.8938 73.861 50.3633 73.822C49.1175 73.7831 47.8328 73.7831 46.587 73.7051C45.9641 73.6661 45.3412 73.6271 44.7572 73.5102C44.5236 73.5102 44.2511 73.5102 43.9786 73.4712ZM43.5893 69.9627C43.7061 70.9763 43.8228 71.9898 43.9396 72.9644C44.2511 72.9254 44.5625 72.8864 44.874 72.8475C45.4969 72.7695 46.1198 72.6915 46.7427 72.6525C47.9496 72.5746 49.1954 72.5356 50.4022 72.5356C52.9328 72.4966 55.4244 72.4966 57.9549 72.4576C58.1885 72.4576 58.3832 72.5356 58.5 72.6915C58.5 72.0678 58.5389 71.4441 58.5389 70.8203C58.3053 70.7814 58.0717 70.7424 57.8381 70.7424C57.1373 70.7034 56.4755 70.6644 55.7748 70.6254C54.3343 70.5475 52.9328 70.4695 51.4923 70.3915C50.0519 70.3136 48.6503 70.2746 47.2099 70.1966L46.587 70.1576C45.5748 70.1576 44.5625 70.1187 43.5893 69.9627ZM43.1221 66.1814C43.2389 67.1949 43.3557 68.2085 43.4725 69.222L43.5114 69.5339C44.7183 69.3 45.9641 69.222 47.1709 69.1831C48.6114 69.1051 50.0129 69.1051 51.4534 69.1051C52.8938 69.1051 54.2954 69.1441 55.7358 69.1831C56.4366 69.222 57.1763 69.261 57.877 69.3C58.0717 69.3 58.3053 69.3 58.5389 69.3C58.5389 69.1441 58.5389 68.9881 58.5389 68.8322C58.5778 68.1695 58.5778 67.5458 58.6167 66.8831C58.1496 67.117 57.4877 67.2339 57.0206 67.3509H56.9816C56.1641 67.5458 55.3465 67.6627 54.529 67.7017C52.9328 67.8576 51.2977 67.7797 49.7015 67.6627L49.429 67.6237C48.0274 67.5068 46.548 67.3509 45.1854 67C44.5236 66.8441 43.8618 66.6102 43.2778 66.2593C43.2389 66.2593 43.1999 66.2203 43.1221 66.1814ZM56.6702 54.0966C56.6702 54.0576 56.748 54.0187 56.787 54.0966C56.9816 54.4475 57.0595 54.8763 57.1763 55.2661C57.332 55.6949 57.4488 56.0848 57.6045 56.5136C57.916 57.3712 58.3053 58.1898 58.7725 59.0085C59.2396 59.7881 57.9549 60.3729 57.6045 59.5153C57.2541 58.6186 56.9816 57.722 56.787 56.7475C56.7091 56.2797 56.6312 55.8119 56.5923 55.3441C56.6312 54.9153 56.5923 54.4864 56.6702 54.0966Z" fill="#282828"/>
</g>
<mask id="mask2_2874_910" style="mask-type:luminance" maskUnits="userSpaceOnUse" x="-5" y="0" width="102" height="93">
<path d="M97 0.767807H-5V92.7678H97V0.767807Z" fill="white"/>
</mask>
<g mask="url(#mask2_2874_910)">
<path fill-rule="evenodd" clip-rule="evenodd" d="M65.9683 36.6322C65.9294 34.6051 65.8904 32.578 65.579 30.5509C65.2675 28.6017 64.4889 26.8475 63.0874 25.4051C60.1675 22.4034 55.8851 21.6627 51.953 21L45.179 19.8305C43.1156 19.4797 40.8965 18.9339 38.8332 19.4017C37.821 19.6356 36.9255 20.2203 36.1469 20.8831C35.3683 21.5458 34.5507 22.2475 34.0446 23.1051C33.5385 23.9627 33.3439 25.0153 33.1881 25.9898C32.9935 27.1203 32.8378 28.2509 32.7599 29.3814C32.5652 31.6424 32.5263 33.9424 32.682 36.2034C32.7599 37.2949 32.8767 38.3865 33.0324 39.478C33.1103 40.0237 33.1881 40.5695 33.3049 41.1153C33.3439 41.2712 33.3439 41.4661 33.3828 41.622C33.1881 42.2458 33.0324 42.8695 33.0713 43.4932C33.1103 45.3254 34.6675 46.4949 36.2248 47.1187C37.1202 47.4695 38.0935 47.7424 38.9889 48.1322C39.9232 48.561 40.5851 49.2627 41.208 50.0424C42.4538 51.5627 43.8164 52.8881 45.4126 54.0187C48.7607 56.3966 53.0042 57.5271 57.0919 56.6695C58.0652 56.4746 59.0385 56.1627 59.9339 55.6559C60.8683 55.1492 61.569 54.4085 62.153 53.5509C63.2431 51.9526 64.0217 50.1204 64.6057 48.2492C65.1897 46.378 65.6179 44.4678 65.8515 42.4797C65.9683 40.5695 66.0072 38.5814 65.9683 36.6322Z" fill="white"/>
</g>
<mask id="mask3_2874_910" style="mask-type:luminance" maskUnits="userSpaceOnUse" x="-5" y="0" width="102" height="93">
<path d="M97 0.767807H-5V92.7678H97V0.767807Z" fill="white"/>
</mask>
<g mask="url(#mask3_2874_910)">
<path fill-rule="evenodd" clip-rule="evenodd" d="M44.3629 12.8136C47.1659 12.4237 51.0201 13.6712 52.4217 16.2051C59.0789 14.6458 67.4881 14.5678 72.9774 19.8305C78.7003 26.0678 71.498 34.2542 66.7484 36.0865C67.0988 37.7627 66.5537 48.639 62.7385 53.4729C59.7018 57.5661 52.6163 59.4763 49.3461 54.5644L49.3072 54.5254C48.9568 53.9407 49.2682 53.9797 49.6186 54.4085C52.811 57.2542 57.2102 57.2932 60.5583 54.2915C66.8652 48.8339 66.2033 35.4627 63.2056 27.7051C54.6797 26.7695 45.5308 29.3424 39.6133 35.8136L40.0026 38.2305C40.0804 38.6593 40.1583 39.0492 40.1972 39.478C40.2362 39.7509 40.2362 39.9848 40.0415 40.2187C39.4575 40.9203 38.4064 39.8678 37.5888 39.439C37.3552 39.4 37.0827 39.4 36.8491 39.4C32.8392 39.9068 33.6178 47.7034 38.0171 46.339C38.4064 46.1051 38.7178 46.1831 38.8346 46.4949C39.8858 47.4695 40.5865 49.1848 42.3384 50.822C42.9614 51.4458 43.5064 51.9526 44.2072 52.4593C44.5965 52.8881 45.8423 53.278 45.453 53.9797C44.7133 55.578 40.3919 50.5492 39.6133 49.1458C37.1995 50.0814 34.5522 49.7695 32.0606 49.5356C18.9018 48.8339 20.6537 34.9559 31.4377 26.1848C33.4621 24.7034 35.7201 23.4559 38.0171 22.5204C38.3285 22.4034 38.2117 21.8576 37.8614 22.0136C36.3041 22.6373 34.8247 23.378 33.3843 24.2356V23.7288C33.3843 22.8712 33.3843 21.9746 33.54 21.1949C33.6178 20.6492 33.7346 20.0644 33.9293 19.6356C34.2797 18.3102 38.0171 13.6712 44.3629 12.8136ZM36.7323 41.1542C36.927 40.9593 37.3163 41.1932 37.511 41.1932C37.9781 41.2712 38.4064 41.4661 38.7568 41.7C38.9904 41.817 39.1461 41.9339 39.2629 42.0509C39.4575 42.2068 40.1583 42.9475 39.7301 42.7526C39.6911 42.7136 39.6522 42.6746 39.6133 42.6356L39.6522 42.6746C40.0415 43.2593 39.3797 42.6356 39.2629 42.4797L39.3797 42.6356C39.3797 42.6746 39.4186 42.6746 39.4186 42.6746L39.4575 42.7136C39.8858 43.1424 39.9247 43.5322 39.4186 42.9085C39.4575 42.9475 39.4575 42.9865 39.4575 42.9865L39.4965 43.0254C39.8858 43.5322 39.5743 43.3763 39.3797 43.1424C39.5743 43.4153 39.185 43.2204 39.1461 43.0644C39.0682 43.0254 39.0293 42.9475 39.0293 42.9085C38.6789 42.5576 38.1728 42.2458 37.7835 42.1288C37.7056 42.1288 37.6667 42.0898 37.5888 42.0898C37.3163 42.0509 37.0827 42.0119 36.8102 41.9729C36.7713 41.9729 36.7323 41.9339 36.7323 41.9339C36.343 41.9339 36.4598 41.778 36.6156 41.739H36.5766C36.343 41.7 36.1484 41.622 36.4209 41.5831H36.4598C36.2262 41.5441 36.382 41.3492 36.4988 41.3881C36.4598 41.2322 36.6934 41.3102 36.6934 41.2712C36.7323 41.2322 36.7323 41.2322 36.7713 41.2322C36.7323 41.1542 36.6934 41.1542 36.7323 41.1542ZM38.056 38.4644L38.0171 38.5034C37.9781 38.5424 37.9392 38.5424 37.9003 38.5424C37.9781 38.5814 38.0171 38.5814 38.0949 38.6203C38.0949 38.5814 38.0949 38.5424 38.0949 38.5034L38.056 38.4644Z" fill="#282828"/>
</g>
<mask id="mask4_2874_910" style="mask-type:luminance" maskUnits="userSpaceOnUse" x="-5" y="0" width="102" height="93">
<path d="M97 0.767807H-5V92.7678H97V0.767807Z" fill="white"/>
</mask>
<g mask="url(#mask4_2874_910)">
<path fill-rule="evenodd" clip-rule="evenodd" d="M58.0269 49.4966C57.3651 49.6915 56.6644 49.6915 55.9636 49.4966C55.3407 49.3017 54.7178 48.9119 54.2895 48.4051C53.9002 47.9373 53.6277 47.3915 53.6277 46.7678C53.6277 46.6898 53.6666 46.6509 53.7056 46.6119C53.7445 46.5729 53.8224 46.5339 53.8613 46.5339C53.9392 46.5339 53.9781 46.5339 54.0559 46.5339C54.0949 46.5729 54.1338 46.6119 54.1727 46.6509C54.2506 46.7288 54.3285 46.8458 54.3674 46.9237C54.9124 47.6254 55.4575 48.1322 56.314 48.3271C56.7811 48.4441 57.2094 48.3661 57.6376 48.2492C58.0659 48.0932 58.4941 47.7814 58.8056 47.4305C58.9613 47.2746 59.117 47.1966 59.2727 47.1966C59.4674 47.1966 59.6621 47.2746 59.7788 47.4305C59.9346 47.5475 60.0124 47.7424 60.0124 47.9373C60.0124 48.0932 59.9735 48.2882 59.8178 48.4441C59.3506 48.9119 58.7277 49.3017 58.0269 49.4966ZM58.0269 40.8814C58.6888 41.3102 59.7399 42.2458 59.0002 43.2983C58.1437 44.1949 56.8979 43.1814 56.314 42.7136C55.7689 42.3627 55.1071 43.2983 55.6521 43.7271C60.0514 47.0017 61.8422 41.0373 58.3773 40.4526C57.988 40.2966 57.8323 40.7254 58.0269 40.8814ZM51.6811 39.0492C51.4476 38.8932 51.214 38.8543 50.9414 39.0102C50.7079 39.1271 50.3185 39.439 50.046 39.9068C49.8514 40.2187 49.7346 40.5695 49.7735 40.9204C49.7735 40.9983 49.7346 41.0763 49.6956 41.1153C49.6567 41.1543 49.6178 41.1932 49.5399 41.1932C49.501 41.1932 49.4231 41.1932 49.3842 41.1932C49.2674 41.1543 49.2285 41.1153 49.2285 41.0373C49.0338 40.5305 49.1117 39.9848 49.3453 39.478C49.6178 38.7763 50.1628 38.2305 50.5132 38.0356C51.0972 37.7237 51.7979 37.6848 52.3819 38.0356C52.888 38.3085 53.1995 38.7373 53.5109 39.2051C53.5888 39.2831 53.6277 39.4 53.7056 39.478C53.8224 39.6729 53.8613 39.8678 53.7834 40.0237C53.7445 40.2187 53.5888 40.3356 53.3941 40.4136C53.2384 40.4915 53.0437 40.4915 52.8491 40.4136C52.6934 40.3356 52.5766 40.2187 52.4598 40.0237C52.2262 39.6339 51.9926 39.2441 51.6811 39.0492ZM62.7376 39.8288C62.5819 39.9068 62.4651 39.9458 62.3094 39.8678C62.2315 39.8288 62.1147 39.7898 62.0758 39.7119C61.9979 39.6339 61.959 39.5559 61.9201 39.439C61.8811 39.2051 61.7254 38.9712 61.5697 38.8153C61.414 38.6983 61.2193 38.6204 60.9857 38.6593C60.7521 38.6983 60.5185 38.8543 60.3628 39.0492C60.3239 39.1271 60.285 39.1661 60.246 39.2441C60.1682 39.361 60.0903 39.478 59.9735 39.5949C59.9346 39.6339 59.8567 39.6729 59.8178 39.6729C59.7789 39.6729 59.7789 39.6729 59.7399 39.6729C59.5063 39.439 59.4674 39.2441 59.4674 39.0492C59.4674 38.8543 59.5453 38.6593 59.6621 38.5034C59.9346 38.0746 60.4796 37.7237 60.83 37.6458C61.3361 37.5288 61.8033 37.6848 62.2315 37.9576C62.6208 38.2305 62.9323 38.6983 63.0491 39.2051C63.088 39.322 63.0491 39.439 63.0101 39.5559C62.9323 39.6729 62.8544 39.7509 62.7376 39.8288ZM52.7712 34.5661C52.4598 34.839 52.1094 34.917 51.759 34.9559C51.5643 34.9949 51.4086 34.9949 51.2529 35.0339C50.8247 35.1119 50.3964 35.2678 50.0071 35.5017C49.6178 35.7356 49.1506 35.9695 48.8392 36.3204C48.7613 36.3983 48.6834 36.4763 48.6056 36.5543C48.5277 36.6322 48.4888 36.7102 48.4109 36.7882C48.333 36.8661 48.2552 36.9441 48.1773 37.061C48.1384 37.139 48.1384 37.139 48.0995 37.178C48.0995 37.217 48.0605 37.2559 48.0605 37.2559C48.0216 37.2949 48.0216 37.3339 47.9827 37.4119C47.9437 37.4898 47.9048 37.5288 47.8659 37.5288C47.8269 37.5288 47.788 37.5678 47.7491 37.5678C47.7101 37.5678 47.6712 37.5288 47.6712 37.5288C47.5155 37.4119 47.4766 37.178 47.4766 36.9441C47.4766 36.5932 47.5934 36.2034 47.7101 35.9695C47.9827 35.4237 48.372 34.878 48.8002 34.4492C49.3063 33.9814 49.8903 33.6305 50.5132 33.3966C50.9025 33.2407 51.3697 33.1237 51.8369 33.1237C52.1483 33.1237 52.4598 33.2407 52.6934 33.4746C52.8491 33.6305 52.9269 33.8254 52.9269 34.0204C53.0048 34.1763 52.9269 34.4102 52.7712 34.5661ZM63.3605 37.217C63.3605 37.2559 63.3216 37.2559 63.2827 37.2949C63.2437 37.2949 63.2048 37.2949 63.1659 37.2949C63.1269 37.2949 63.088 37.2559 63.088 37.2559C63.0491 37.217 63.0491 37.217 63.0491 37.178C62.8544 36.3204 62.4651 35.6576 61.6476 35.2288C61.2582 35.0339 60.7911 34.878 60.3239 34.8C60.2071 34.761 60.0514 34.761 59.9346 34.722C59.5063 34.6441 59.0781 34.6051 58.8056 34.2543C58.6498 34.0593 58.572 33.7865 58.6109 33.5526C58.6498 33.3187 58.7666 33.1237 59.0392 33.0068C59.6621 32.6949 60.4018 33.0068 61.0247 33.2797C61.0636 33.2797 61.1025 33.3187 61.1414 33.3187C61.7254 33.5526 62.2705 33.9034 62.7376 34.3712C63.088 34.761 63.4384 35.3068 63.5552 35.8915C63.6331 36.3204 63.5941 36.8271 63.3605 37.217Z" fill="#282828"/>
</g>
<mask id="mask5_2874_910" style="mask-type:luminance" maskUnits="userSpaceOnUse" x="-5" y="0" width="102" height="93">
<path d="M97 0.767807H-5V92.7678H97V0.767807Z" fill="white"/>
</mask>
<g mask="url(#mask5_2874_910)">
<path fill-rule="evenodd" clip-rule="evenodd" d="M58.1061 44.3509C57.0939 43.8831 55.303 44.3119 54.6801 44.4678C53.1618 44.8186 51.6435 45.6373 51.1763 46.8458C50.6313 48.2492 51.7213 48.678 51.8771 48.6C52.9282 48.678 54.174 48.0153 55.2641 47.8593C56.1595 47.7034 57.0939 47.5864 57.9114 47.1186C58.5343 47.4695 59.8969 47.6254 61.0259 47.9373C61.9603 48.1712 62.3885 48.717 63.245 48.6C64.2962 48.4441 63.8679 46.261 62.7 45.3644C61.4152 44.3509 59.2351 43.961 58.1061 44.3509ZM60.0916 53.8627C59.2351 54.0576 59.1572 52.1475 59.0794 51.4848C59.0015 50.939 58.5733 49.5746 57.4832 49.6525C56.3931 49.7305 55.9649 50.861 56.0427 51.5627C56.0817 52.0305 56.5099 54.3695 55.1473 54.6424C54.2908 54.6424 53.2786 54.5644 52.3832 54.4085C51.332 54.1746 49.9305 53.317 49.5412 54.9932C49.4244 55.578 54.1351 57.3712 56.1984 57.5271C58.3007 57.9559 60.7923 57.2932 62.3107 55.6559C62.661 55.3051 63.6343 53.7458 63.6733 53.3949C63.829 52.6153 63.4786 52.1085 62.5053 52.3814C61.8045 52.7712 60.6366 53.7068 60.0916 53.8627Z" fill="#282828"/>
</g>
<mask id="mask6_2874_910" style="mask-type:luminance" maskUnits="userSpaceOnUse" x="-5" y="0" width="102" height="93">
<path d="M97 0.767807H-5V92.7678H97V46.7678V0.767807Z" fill="white"/>
</mask>
<g mask="url(#mask6_2874_910)">
<path fill-rule="evenodd" clip-rule="evenodd" d="M64.298 42.4017C62.9354 43.0644 61.0667 42.0898 60.1712 41.0763C59.8598 40.7254 59.5873 39.6729 59.7041 39.0102C60.0545 37.217 61.3392 36.1254 62.7018 35.7746C64.6094 35.2678 66.4781 36.5542 66.2835 38.0746C66.0888 39.517 65.7774 41.622 64.298 42.4017ZM55.1491 38.9322C55.0323 40.8814 53.4751 42.5966 51.6064 43.1034C48.5697 43.961 47.0903 41.817 46.4285 39.517C46.3506 39.2831 46.1949 38.5814 46.6232 37.9966C48.2972 35.6576 52.3461 36.0475 54.3705 36.7102C54.9545 37.2949 55.188 38.1136 55.1491 38.9322ZM65.7774 35.5407C65.7774 35.5797 65.7774 35.5797 65.7774 35.5407V35.5407ZM68.3079 35.7746C68.1522 33.7865 61.8842 34.5271 61.1445 34.722C59.159 35.3068 57.4461 36.9051 55.188 36.2034C52.8911 33.6305 45.1048 34.3712 43.4697 35.6966C43.1583 35.5797 42.769 35.6576 42.3796 35.7356C40.3552 35.6576 31.0117 36.3593 32.9193 38.9712C33.1919 39.1661 33.5033 38.9712 33.5033 38.5424C43.4308 34.9559 42.4575 38.3085 43.6644 37.9187C43.859 37.9576 44.0148 37.9966 44.2094 38.0356C45.1048 38.3475 45.4163 38.2305 45.5331 39.2831C46.3506 47.1966 56.901 44.4678 56.0056 37.9576C56.8621 37.9187 57.6018 37.5288 58.4972 37.9187C59.1201 44.039 64.0255 44.2729 65.5048 42.1678C66.6339 40.6864 66.1667 38.4644 67.7239 37.2949C68.4247 37.8017 68.4636 36.1254 68.3079 35.7746Z" fill="#282828"/>
</g>
</svg>
