<svg width="208" height="155" viewBox="0 0 208 155" fill="none" xmlns="http://www.w3.org/2000/svg">
<g clip-path="url(#clip0_1179_2187)">
<path fill-rule="evenodd" clip-rule="evenodd" d="M112.723 146.184C112.23 143.392 111.778 140.593 111.367 137.788C111.172 136.456 110.982 135.123 110.811 133.788C110.691 132.853 110.508 131.783 111.143 131.09C112.037 130.115 112.849 129.28 112.958 127.884C113.061 126.569 112.618 125.136 112.34 123.861C111.759 121.185 111.035 118.543 110.235 115.925C109.422 113.267 108.532 110.632 107.628 108.003C106.783 105.545 105.97 103.065 104.87 100.707C102.781 96.2311 99.2471 92.9161 94.8796 90.7031C93.7937 90.153 91.5784 88.1883 90.4438 87.7479C89.4001 87.3434 89.4042 88.5248 88.3773 88.0798C87.5566 87.7241 86.7922 87.25 86.3329 86.4557C85.8336 85.5934 84.5826 84.3871 84.3921 83.3833C83.9884 81.2549 84.4257 79.444 82.91 77.8425C81.5652 76.4203 79.757 75.4461 77.8863 74.9233C73.7702 73.7726 68.2814 74.5769 65.7985 78.41C64.6124 80.2401 64.1977 82.4531 62.5975 83.9467C61.1999 85.2511 61.5127 86.1429 59.7028 86.8148C59.6003 86.8531 56.822 86.2561 56.7194 86.2944C54.7394 85.8696 52.847 87.0585 51.0304 87.7479C48.3222 88.7767 45.7439 90.1147 43.3215 91.7052C38.4371 94.9128 34.2536 99.0784 30.8047 103.791C27.3273 108.543 24.6291 113.87 22.7079 119.437C22.2414 120.789 21.8223 122.158 21.4527 123.539C21.2457 124.313 21.0246 125.115 21.2766 125.907C21.4827 126.555 21.941 127.037 22.4792 127.426C23.2089 127.953 24.6724 128.295 24.6439 129.355C24.6221 130.161 24.3494 131.009 24.2163 131.805C24.0578 132.753 23.9276 133.707 23.7974 134.66C23.2052 138.995 22.7443 143.354 22.5404 147.726C22.3398 152.031 22.1732 156.424 22.4712 160.727C22.4909 161.011 22.5753 161.272 22.7115 161.491C22.5843 161.54 22.5746 161.778 22.7328 161.811C22.8436 161.835 22.9543 161.859 23.0651 161.882C23.2954 162.057 23.5825 162.164 23.9131 162.174C24.1371 162.181 24.361 162.191 24.5848 162.203C26.9465 162.698 29.3077 163.165 31.7003 163.519C34.6085 163.949 37.5253 164.3 40.4511 164.585C46.4632 165.171 52.428 164.976 58.4483 164.661C64.4589 164.346 70.466 164.272 76.483 164.429C82.5052 164.586 88.5256 164.848 94.5489 164.956C101.279 165.076 107.998 164.891 114.708 164.355C115.628 164.282 116.197 163.548 116.016 162.632C114.929 157.145 113.697 151.695 112.723 146.184Z" fill="white"/>
<path fill-rule="evenodd" clip-rule="evenodd" d="M54.8466 86.1592C55.4689 86.1319 56.1034 86.2329 56.7243 86.2944C56.7784 86.2996 56.799 86.3832 56.738 86.3959C55.6269 86.6286 54.528 86.9466 53.4367 87.2698L52.9694 87.4085C51.7389 87.7734 50.5444 88.15 49.3531 88.6363C46.9789 89.6064 44.7239 90.9155 42.6486 92.4189C34.6571 98.2103 28.8732 106.978 25.2232 116.055C24.2319 118.521 23.3921 121.047 22.7117 123.616C22.5463 124.241 22.3907 124.869 22.2431 125.498C22.1998 125.683 22.011 126.156 22.1145 126.344C22.206 126.511 22.5619 126.615 22.7272 126.701L23.2852 126.991C24.3739 127.553 26.1872 128.478 26.3691 128.568L26.6527 128.708C31.2914 130.987 36.2478 132.92 41.4678 133.054L41.5087 132.607C41.7414 130.137 42.0468 127.654 42.7134 125.26C42.7493 125.131 42.9126 125.174 42.9276 125.289C43.2989 128.123 43.1803 130.979 43.0506 133.826C42.8212 138.869 42.5166 143.91 42.2458 148.951C42.1102 151.472 41.935 153.992 41.7768 156.513C41.6183 159.038 41.567 161.624 41.2052 164.129C41.1246 164.687 40.4722 164.991 39.9781 164.932C39.4314 164.867 39.0108 164.385 39.0083 163.831C39.0017 162.372 39.1846 160.896 39.2863 159.44C39.3828 158.058 39.4864 156.675 39.5927 155.293C39.9808 150.249 40.4273 145.211 40.8402 140.169C40.9866 138.381 41.1447 136.594 41.3074 134.808C35.7776 134.629 30.6115 132.576 25.6831 130.177C25.6118 131.801 25.4395 133.421 25.2727 135.038C24.8072 139.549 24.3967 144.059 24.0894 148.584C23.9343 150.869 23.8213 153.158 23.7229 155.446C23.6746 156.572 23.6352 157.696 23.605 158.822C23.5949 159.197 23.5857 159.572 23.5777 159.947L23.5608 160.807C23.5471 161.351 23.4918 161.856 23.0346 162.252C22.5703 162.655 21.9431 162.676 21.4835 162.252C20.8683 161.684 20.9771 160.911 20.9953 160.148C21.0104 159.505 21.0287 158.862 21.0499 158.219C21.0923 156.933 21.1466 155.647 21.2125 154.362C21.4433 149.869 21.9044 145.394 22.507 140.937L22.7423 139.217C23.1816 136.019 23.6638 132.747 24.6459 129.667C24.2635 129.476 23.8822 129.284 23.5024 129.091C22.8287 128.749 22.1321 128.428 21.4773 128.051C20.9577 127.752 20.5096 127.341 20.365 126.735C20.2037 126.06 20.4504 125.322 20.6142 124.663L20.6285 124.605C20.7891 123.942 20.9621 123.282 21.1447 122.624C21.885 119.959 22.8004 117.345 23.8716 114.794C26.0165 109.689 28.7852 104.838 32.1671 100.453C35.2112 96.505 38.8074 92.9249 43.0221 90.2401C45.0827 88.9275 47.2785 87.8495 49.6008 87.0876C50.6863 86.7313 51.8672 86.4215 53.0037 86.2944C53.6167 86.2253 54.2306 86.1859 54.8466 86.1592ZM65.873 78.0688C66.6126 77.2733 68.082 78.0967 67.7264 79.1504C66.8912 81.6304 65.5615 83.8922 63.4857 85.5215C61.5345 87.0528 59.208 88.0479 56.7022 87.8355C56.6829 87.8338 56.6661 87.8286 56.6513 87.8216L56.8672 88.1152C58.5622 90.4136 60.3507 92.68 62.5063 94.5588C66.8982 98.3862 72.8781 100.451 78.6524 98.9821C83.1948 97.8268 87.1974 94.2264 88.3743 89.6378C88.2057 89.7138 88.0053 89.7399 87.7852 89.6917C86.8435 89.4869 85.911 88.4941 85.3035 87.7821C84.6467 87.0122 84.133 86.1807 83.7571 85.2407C83.0685 83.5208 82.8478 81.306 83.7878 79.6401C83.9042 79.4347 84.1712 79.5496 84.1944 79.7504L84.2297 80.0631C84.411 81.6246 84.6369 83.1349 85.3718 84.5589C85.7309 85.2552 86.1618 85.9352 86.6866 86.5184C86.9675 86.8305 87.2715 87.1288 87.5999 87.3905C87.9202 87.6458 88.3076 87.8297 88.5949 88.1227L88.647 88.1784L88.6488 88.1686C88.7212 87.5506 89.1538 87.2779 89.5772 87.2953C89.9866 87.3116 90.4679 87.4926 90.6538 87.5791L90.6718 87.5872C93.5288 88.9618 96.1606 90.7536 98.6371 92.7415C103.759 96.8531 107.596 102.227 109.455 108.556C110.368 111.663 110.891 114.863 111.444 118.049L111.784 120.001C112.3 122.942 112.876 125.941 114.041 128.677C114.342 129.384 114.11 130.048 113.372 130.326C112.449 130.674 111.524 131.011 110.596 131.342C111.052 133.3 111.329 135.326 111.67 137.293C112.395 141.475 113.284 145.63 114.046 149.806C114.435 151.941 114.787 154.084 115.176 156.219C115.363 157.248 115.559 158.275 115.749 159.303C115.851 159.857 115.944 160.413 116.042 160.968L116.058 161.06C116.115 161.353 116.185 161.656 116.105 161.949C116.013 162.283 115.753 162.519 115.52 162.759C115.329 162.956 115.053 162.957 114.818 162.85L114.741 162.814C114.323 162.618 113.995 162.422 113.847 161.949C113.753 161.649 113.719 161.312 113.657 161.003C113.54 160.412 113.428 159.819 113.322 159.225C113.111 158.036 112.905 156.847 112.704 155.656L112.516 154.541C111.871 150.699 111.259 146.834 110.949 142.951C110.812 141.229 110.666 139.508 110.519 137.786L110.409 136.495C110.27 134.861 110.099 133.186 110.075 131.529L109.521 131.727L106.815 132.685C106.144 132.923 105.291 133.41 104.568 133.321C104.215 133.278 103.946 133.166 103.738 132.964C103.987 136.487 104.324 140.005 104.773 143.504C105.182 146.689 105.636 149.869 106.171 153.034C106.436 154.602 106.709 156.168 107.005 157.73C107.153 158.511 107.305 159.291 107.463 160.07C107.541 160.459 107.634 160.848 107.696 161.24C107.766 161.689 107.643 161.965 107.392 162.335C107.187 162.637 106.776 162.794 106.443 162.584C106.001 162.307 105.771 162.066 105.642 161.561C105.523 161.102 105.452 160.622 105.361 160.157C105.192 159.299 105.029 158.44 104.872 157.58C104.543 155.781 104.24 153.977 103.969 152.167C103.016 145.795 102.41 139.368 102.105 132.931C101.954 129.755 101.907 126.576 101.934 123.397C101.948 121.767 102.001 120.133 102.116 118.508C102.233 116.862 102.475 115.25 102.691 113.62C102.698 113.563 102.779 113.56 102.783 113.62C102.885 115.447 103.046 117.272 103.124 119.104C103.199 120.852 103.232 122.602 103.292 124.351C103.371 126.649 103.479 128.949 103.623 131.247C103.884 130.962 104.277 130.796 104.67 130.861C105.24 130.741 105.853 130.442 106.396 130.26L108.444 129.574C109.52 129.214 110.597 128.856 111.677 128.509C110.711 125.253 110.05 121.948 109.485 118.595L109.233 117.087C108.734 114.118 108.196 111.149 107.293 108.274C106.343 105.252 104.922 102.443 103.037 99.8983C101.179 97.391 98.918 95.1832 96.5903 93.1181C94.5974 91.3501 92.4655 89.7538 90.4332 88.0345C90.454 88.1483 90.4587 88.2736 90.4401 88.4117C90.0081 91.5816 88.358 94.5339 86.0582 96.7295C81.4387 101.141 74.6005 102.056 68.6878 99.9876C62.9685 97.9869 57.9116 93.2481 56.125 87.3835C56.0945 87.2837 56.2285 87.2437 56.2824 87.3174C56.3815 87.4537 56.4811 87.5895 56.5808 87.7259C56.5741 87.6719 56.6021 87.6127 56.6687 87.5872C58.7533 86.7801 60.8001 85.6364 62.3627 84.0181C63.1243 83.2289 63.7886 82.3354 64.3133 81.371C64.5647 80.9097 64.7906 80.4316 64.9707 79.9372L65.0165 79.8096C65.2348 79.1904 65.4172 78.5591 65.873 78.0688Z" fill="#282828"/>
<path fill-rule="evenodd" clip-rule="evenodd" d="M94.1499 51.9676C93.8591 48.1973 94.3097 44.2455 92.8589 40.6618C90.3303 34.7158 83.239 32.7333 77.7409 30.4696C75.5384 29.8173 68.1273 29.7262 65.5483 28.8629C59.7121 26.9091 58.3174 24.5811 53.6799 28.3013C52.897 28.9367 52.4072 29.6275 52.0499 30.5711L52.0646 30.5752C51.9625 30.9686 52.0719 31.3611 52.3018 31.661C50.291 33.721 49.4495 36.8095 50.4812 39.5517C53.8482 46.6877 53.6899 50.5462 52.605 58.218C51.1883 65.3794 54.4256 67.9958 59.7868 71.8927C59.5684 72.3169 59.5232 72.8809 59.8082 73.2551C66.0076 81.9867 77.6969 86.1552 87.7124 81.7238C91.7776 79.91 93.5927 75.5709 94.6283 71.6554C95.8353 67.2716 96.2059 62.6517 95.2237 58.1855C94.8275 56.1204 94.3109 54.0699 94.1499 51.9676Z" fill="white"/>
<path fill-rule="evenodd" clip-rule="evenodd" d="M58.3946 10.1956C59.1475 10.0824 59.7157 10.5503 59.9861 11.2099L60 11.2454C60.0869 11.4698 60.1836 11.6881 60.2879 11.9027C62.1708 10.9768 64.8575 11.2147 66.0494 13.0898C66.8997 14.429 66.3813 16.0184 66.0604 17.4385L65.8502 18.3742C66.2568 18.6337 66.5637 19.0983 66.5493 19.5795L66.5475 19.6165L66.4618 20.9213C66.7334 20.6454 66.9819 20.3449 67.2031 20.0249C67.3566 19.744 67.5217 19.4681 67.6989 19.2007C68.7426 17.6273 71.0859 18.9947 70.2247 20.6797C70.059 21.0047 69.8731 21.3125 69.6739 21.6093C69.4486 22.0471 69.2638 22.4972 69.1219 22.9595C69.5297 23.1374 69.8424 23.5322 69.876 24.1282C69.953 25.5201 69.2233 26.6815 68.0638 27.4112C67.7221 27.6258 67.3699 27.6675 67.0502 27.5878C66.9941 27.6638 66.9379 27.7398 66.884 27.8171C67.3468 28.1936 67.7638 28.6228 68.1223 29.0986C69.2013 28.9368 70.2866 28.8607 71.372 28.8583C72.6983 28.2071 74.2869 28.2206 75.7123 28.4646C76.6297 28.6216 77.5111 28.9269 78.4141 29.1465C79.3656 29.377 80.3323 29.3856 81.2954 29.5426C82.5094 29.74 83.5739 30.3017 84.2434 31.1981C84.9783 31.2203 85.7515 31.5219 86.3933 31.9315C87.8858 32.8856 89.3702 33.8532 90.8592 34.8134C91.4308 35.1821 91.644 35.7706 91.5391 36.427L91.5322 36.4691L91.4818 36.7413L91.6 36.9088C92.0552 37.5538 92.5515 38.2294 92.8463 38.9414C93.3919 39.7299 93.8848 40.5565 94.322 41.4088C94.9105 42.5542 95.3964 43.7683 95.7254 45.0142C95.807 45.3294 95.8893 45.647 95.9431 45.9683C96.0202 46.4221 95.9014 46.7741 95.8366 47.2094C95.7561 47.7613 95.7265 48.3205 95.6408 48.8736C95.5835 49.2403 95.2725 49.4206 94.947 49.4304C95.0697 50.3636 95.1578 51.303 95.2418 52.235C95.3605 53.5668 95.4416 54.9023 95.5111 56.2378C95.8707 56.7615 96.6063 57.176 97.1374 57.3195C97.8729 57.5169 98.6438 57.3023 99.3388 57.0509C99.7755 56.8927 100.134 57.4434 99.9208 57.8112C99.2519 58.9664 97.8202 58.9618 96.736 58.45C96.2773 58.2342 95.8748 57.9216 95.5759 57.5145C95.5945 57.902 95.6142 58.2893 95.6333 58.6781L95.6518 59.0303C95.8725 63.1425 96.348 67.3963 95.5771 71.4679C94.2421 78.5208 88.4192 83.891 81.3053 84.3076C77.5725 84.5269 74.4636 83.4215 72.9178 82.8053C71.372 82.1885 71.9732 80.9317 73.0458 81.2909C74.8945 81.91 78.2907 82.832 81.3296 82.434C88.4927 81.4957 94.5664 77.9074 93.9427 62.4532C93.8541 60.2616 93.5813 58.0688 93.5228 55.8773C93.4666 53.7349 93.4875 51.5912 93.3931 49.45L93.3618 48.7194C93.3247 47.8658 93.2853 47.0082 93.2216 46.1535C93.1446 45.8224 93.0809 45.4864 92.9871 45.1614C92.7311 44.2772 92.3969 43.4176 91.9822 42.5971C91.8907 42.667 91.7876 42.7173 91.6764 42.7369C90.8308 42.889 90.0379 42.8461 89.2462 42.4929C88.8767 42.3298 88.5512 42.1127 88.2477 41.8441C88.1035 41.7178 88.0068 41.5952 87.9309 41.4676C87.5481 41.4738 87.1653 41.3585 86.9255 41.0826C86.6516 40.768 86.6064 40.4432 86.7135 40.1425L86.7245 40.1125L86.6979 40.1027C86.3747 40.9403 85.7313 41.6773 85.0253 42.1753C83.9092 42.965 82.5128 43.1931 81.1744 43.214C79.6963 43.2361 78.1372 43.008 76.6789 42.7749C76.2932 42.7136 75.9103 42.6437 75.535 42.5493C75.52 42.564 75.5055 42.5812 75.4893 42.5959C74.2377 43.7965 72.477 44.1055 70.889 43.42C69.971 43.0239 69.2013 42.3862 68.5213 41.6553C68.5115 42.0379 68.4918 42.4205 68.4588 42.7995L68.4449 42.9499C68.3771 43.6557 68.2468 44.4043 67.7151 44.9137C66.8545 45.739 65.6064 45.4079 64.6143 44.8708C64.6154 44.8965 64.6154 44.9235 64.6154 44.9505C64.8836 45.8629 65.1529 46.7765 65.4216 47.6902L65.4795 47.8848C65.6753 48.5335 65.8902 49.1831 65.9492 49.862C66.0616 51.1595 65.2004 52.441 63.7612 52.0057C63.0065 51.7782 62.4018 51.1421 61.8215 50.6326L61.4561 50.3158C62.4018 53.4148 63.058 56.6242 63.1189 59.8583C63.1229 60.0335 62.9723 60.1658 62.8055 60.1722C62.4169 60.1879 61.9982 60.1107 61.6067 59.9552C61.5846 59.9534 61.5626 59.9523 61.5395 59.9488C60.8711 59.8519 60.2508 59.6105 59.7041 59.2537C59.8298 59.6546 59.8865 60.0852 59.8535 60.5349C59.8448 60.6439 59.6746 60.6822 59.6502 60.5621C59.3346 59.0059 57.5174 57.8296 55.9513 58.1274C54.27 58.4477 53.0317 59.8972 52.7283 61.5468C52.4028 63.3189 53.0257 65.3683 54.1795 66.7354C54.7105 67.3655 55.4092 67.8918 56.2388 68.0241C56.6181 68.0844 57.0121 68.0636 57.3804 67.9556C57.537 67.9092 57.6838 67.8442 57.8332 67.7827C58.0511 67.6945 58.3054 67.6812 58.511 67.5878C58.9772 67.3783 59.4458 67.8083 59.2095 68.2881C59.0039 68.7065 58.8191 68.9885 58.478 69.2043C58.7543 69.5426 59.0056 70.0132 59.0983 70.1397C59.5732 70.7826 60.0551 71.3895 60.596 71.9767C61.1468 72.5727 61.7474 73.1175 62.3822 73.6212L62.6492 73.833C63.2613 74.3192 63.7936 74.7695 64.2251 75.4669C64.5656 76.0176 64.1249 76.7644 63.4872 76.7562C61.4931 76.7278 60.0429 74.9714 59.0103 73.4372C58.8631 73.2179 58.7253 72.9864 58.5967 72.7485C58.5504 72.8233 58.4988 72.893 58.4415 72.9568L58.555 73.2631C58.8927 74.166 57.4379 74.7555 57.0158 73.913C56.7086 73.3026 56.3526 72.7212 55.9561 72.1717C55.7224 72.1386 55.4936 71.9965 55.3664 71.8125C55.0446 71.3454 54.6836 70.8731 54.3789 70.3753C54.2101 70.2145 54.0363 70.0602 53.8589 69.9093C53.8075 69.9546 53.7549 69.9998 53.7047 70.048C53.482 70.5569 53.2067 71.0217 52.8653 71.4592L52.7921 71.5526C52.1382 72.3789 51.2863 73.2243 50.2322 73.4262C49.9104 73.4877 49.6008 73.0868 49.8859 72.8303C50.6237 72.1659 51.4961 71.7133 52.1765 70.9712C52.5117 70.6056 52.8194 70.2029 53.084 69.7811L53.1443 69.6836C53.1884 69.6111 53.2336 69.5391 53.2801 69.4654C52.973 69.2554 52.6659 69.0448 52.3588 68.8335C51.5133 69.5577 50.4123 69.889 49.4772 70.4884L49.3842 70.5493C48.5387 71.1162 47.6479 69.8629 48.3258 69.1747C49.0731 68.4192 49.6968 67.5181 50.3588 66.6785C50.0475 66.1035 49.9002 65.424 49.8451 64.7376C49.8233 64.5432 49.8062 64.3482 49.7892 64.1539C49.3145 64.1614 48.8373 63.9983 48.4335 63.7175L48.2806 63.6084C47.7899 63.7651 47.2748 63.8411 46.7817 63.8278C45.6217 63.7935 45.1469 62.4653 45.8726 61.6251C46.6128 60.767 47.9086 60.579 48.9352 60.9961C48.9682 60.9787 49.0025 60.9608 49.0355 60.9422C48.9866 60.7165 48.9974 60.5116 49.0531 60.3318L49.037 60.2227C48.8112 59.8751 48.6628 59.4788 48.6065 59.0599C48.562 58.7285 48.571 58.3995 48.6476 58.0717C48.6731 57.963 48.726 57.85 48.7666 57.7363C48.6831 57.5252 48.6341 57.3069 48.6189 57.0873C48.5955 57.0595 48.5723 57.0309 48.5502 57C48.0408 56.2832 48.1438 55.4195 48.6285 54.8394C48.6307 54.8025 48.6342 54.7656 48.6392 54.729C48.6108 54.6649 48.5847 54.6003 48.561 54.5349C48.0873 54.056 47.7396 53.4798 47.8045 52.7657C47.8425 52.3455 48.0148 51.9673 48.2755 51.6846C48.2293 51.5475 48.2249 51.3887 48.2809 51.2561C47.8648 50.1468 47.9174 48.8107 48.2169 47.57C48.1509 47.3811 48.1166 47.1763 48.1239 46.9593C48.1582 46.0383 48.9535 45.1921 49.8957 45.2031C50.0091 45.2041 50.1154 45.2189 50.2174 45.2406L50.2187 45.2187C50.2548 44.9423 50.3307 44.6868 50.4414 44.4576C50.387 44.4379 50.3365 44.4096 50.2924 44.3719C49.6887 44.6947 49.0498 44.9414 48.3801 45.1096C47.8875 45.2332 47.3831 44.6721 47.6892 44.2088C47.8312 43.9938 47.988 43.8008 48.1568 43.6244C47.9168 43.6258 47.6731 43.6421 47.4265 43.6739C46.9836 43.7315 46.4892 43.4286 46.2017 43.019C45.8444 43.3673 45.4858 43.7143 45.1273 44.0614C44.2194 44.9432 42.8478 44.2944 42.7046 43.1318C42.4342 43.0594 42.1822 42.9368 41.9607 42.7614C40.5291 43.3844 38.9886 43.7266 37.4138 43.7916C36.2832 43.8382 35.6225 42.5187 36.1511 41.5866C36.5059 40.9612 36.9464 40.3995 37.4542 39.9114C36.6662 40.153 35.8526 40.3271 35.0217 40.4388C34.5727 40.4988 33.9376 40.126 33.7578 39.7127C33.0701 38.1234 33.1288 36.4666 33.9205 34.9201C33.9511 34.8588 33.9853 34.8 34.0184 34.7411C34.1003 34.5363 34.1897 34.3339 34.2863 34.1353C33.3123 33.1174 33.228 31.6041 33.7528 30.3372C33.5424 29.9951 33.4616 29.583 33.6048 29.2102C34.0123 28.1372 34.5996 27.1463 35.3411 26.2952C35.2701 26.1578 35.2077 26.0119 35.1551 25.8549C34.7378 24.5857 35.2212 23.0539 36.1964 22.1697C36.8094 21.613 37.5142 21.2794 38.2667 21.0661C38.5836 20.5044 38.9911 19.9979 39.4658 19.5711C39.4842 19.5307 39.5025 19.4902 39.5233 19.4497C40.2623 18.0541 41.6083 17.306 43.0509 17.1331C43.1072 16.5874 43.4743 16.0662 44.0077 15.8969C44.1546 15.4248 44.3736 14.9735 44.6746 14.5639C45.1482 13.9189 45.9349 13.6147 46.6764 14.0378C47.0827 14.2696 47.4717 14.5357 47.8364 14.83C48.0002 14.753 48.1858 14.7032 48.3953 14.6873L48.4482 14.6841L49.6546 14.6228C50.16 14.3983 50.6641 14.1629 51.1694 13.9335C51.4729 13.6822 51.8118 13.4725 52.1814 13.3167C52.5998 13.1413 53.0281 13.042 53.4575 13.0089C53.8063 12.8948 54.1575 12.7943 54.5148 12.7158C55.3541 12.5318 56.2327 12.4288 57.1039 12.4374C57.1217 12.2114 57.1306 11.9827 57.1288 11.7513L57.1271 11.6354C57.1075 10.8935 57.6986 10.3011 58.3946 10.1956ZM57.5492 69.5571C57.4294 69.5832 57.3082 69.6041 57.1871 69.6186C57.2238 69.7091 57.2605 69.8002 57.296 69.8908C57.3939 69.9459 57.493 69.9987 57.5921 70.048C57.5627 69.8809 57.5456 69.7132 57.5492 69.5571ZM51.2629 67.6852L51.1815 67.8349C51.1683 67.8599 51.1553 67.8837 51.1426 67.908C51.3151 67.8941 51.4888 67.8982 51.6601 67.9179L51.6596 67.8993C51.6376 67.8918 51.6156 67.8848 51.5945 67.875C51.4763 67.8175 51.3665 67.7543 51.2629 67.6852ZM54.6604 60.8354C55.7429 60.8987 56.66 61.0652 57.6446 61.5398L57.7291 61.581C58.599 62.0139 60.0383 62.8135 59.9166 63.96C59.8825 64.2861 59.6468 64.6297 59.2744 64.6041C58.255 64.5339 57.6728 63.504 56.9827 62.8616C56.2865 62.2141 55.4312 61.548 54.5881 61.1029C54.469 61.0402 54.5159 60.8418 54.6456 60.8354H54.6604ZM49.7513 45.728C49.4919 45.7366 49.5788 45.9892 49.7122 45.7783C49.7232 45.7611 49.7366 45.7439 49.7513 45.728ZM63.7536 28.8629C61.2968 28.9277 58.8243 30.3815 56.9839 31.8511C55.3829 33.1296 54.0003 34.6502 52.7761 36.2892C52.4612 37.1055 52.1907 37.9388 51.9623 38.7783C51.8118 39.3326 51.7176 39.893 51.5916 40.4522L51.5524 40.6237C51.4534 40.8091 51.3799 41.0086 51.3263 41.2148C51.5494 41.4389 51.8387 41.5995 52.1574 41.6756C52.26 41.7002 52.3453 41.7532 52.4127 41.8236C52.6692 41.3947 52.8933 40.9419 53.0238 40.4619L53.0286 40.4397C53.5215 39.6305 54.057 38.8463 54.631 38.089C56.2143 35.9981 57.9579 34.0924 60.0539 32.5067C61.6431 31.3049 63.42 30.363 65.3093 29.7511C64.8471 29.3772 64.3218 29.0813 63.7536 28.8629Z" fill="#282828"/>
<path fill-rule="evenodd" clip-rule="evenodd" d="M82.912 74.4306C82.0896 74.094 81.3558 73.5329 80.8189 72.8163C80.6324 72.5674 80.5843 72.3046 80.6231 72.0638C80.6671 71.7934 80.827 71.5479 81.0447 71.3837C81.2631 71.2183 81.5365 71.1371 81.8006 71.1789C82.0305 71.2149 82.2587 71.3408 82.44 71.6019L82.4776 71.6541C82.7967 72.087 83.212 72.4415 83.6857 72.6701C84.1421 72.8906 84.653 72.9939 85.1812 72.9341C86.1877 72.8198 86.881 72.2744 87.6183 71.534C87.7098 71.4406 87.8013 71.3437 87.8928 71.2462C87.9507 71.1568 88.0318 71.1 88.121 71.0698C88.22 71.0367 88.3324 71.0385 88.4355 71.0744C88.5345 71.1093 88.6231 71.1748 88.6828 71.2624C88.739 71.346 88.7714 71.4487 88.761 71.5665C88.6932 72.3342 88.293 73.0194 87.7243 73.5573C87.0924 74.1544 86.2549 74.5681 85.4667 74.7126C84.5985 74.8727 83.7135 74.7584 82.912 74.4306ZM85.8767 62.5889C86.8005 63.1517 88.2085 64.4643 87.2146 65.8598C86.0441 67.0905 84.3599 65.6793 83.5299 65.0416C82.7602 64.5472 81.895 65.8186 82.6091 66.3959C88.6075 70.847 91.0423 62.7363 86.3441 61.9268C85.8263 61.8381 85.6346 62.4148 85.8767 62.5889ZM75.1274 57.4111C75.2293 56.1411 77.1591 55.8527 77.3514 57.1095C77.5228 58.2353 77.3207 59.2693 76.8145 60.283C76.3315 61.2514 75.1164 60.7994 75.0243 59.918C74.9009 58.7361 75.0637 58.2011 75.1274 57.4111ZM89.818 56.8489C90.0873 56.4957 90.4759 56.2546 90.941 56.3908C92.3953 56.8167 91.9667 58.8858 91.4558 59.8931C91.1784 60.4403 90.2813 60.5789 89.8759 60.0973C89.215 59.3117 88.8988 57.7435 89.7386 56.9699C89.7618 56.9299 89.7873 56.8896 89.818 56.8489ZM76.7942 51.8538L77.0242 51.8136C77.7348 51.6904 78.618 51.572 79.1208 52.1446C79.3878 52.4482 79.4793 53.0126 79.1208 53.3033C78.4906 53.8146 77.7933 53.6165 77.0381 53.6598C76.4155 53.6956 75.8172 53.7988 75.2178 53.9706C73.9019 54.3475 72.8298 55.0355 71.7063 55.7909C71.5592 55.89 71.4086 55.701 71.4787 55.5628C72.1273 54.2895 73.3841 53.2435 74.6432 52.6059C75.3156 52.2656 76.0506 51.9833 76.7942 51.8538ZM88.4922 51.2834L88.6683 51.3195C90.5819 51.7204 93.0677 52.521 93.9735 54.4047C94.0082 54.671 93.9717 54.7281 93.9422 54.7654L93.9324 54.7778C93.9075 54.8097 93.8883 54.8536 93.7731 54.8898C93.7412 54.8822 93.7088 54.8741 93.6764 54.8655C93.2605 54.7564 92.9321 54.6062 92.6142 54.4503L92.269 54.2799C91.8688 54.0832 91.4651 53.8937 91.0371 53.7538C90.1243 53.4554 89.1849 53.2451 88.2316 53.1328C88.0249 53.1085 87.8256 53.0386 87.6687 52.9187C87.5198 52.805 87.4057 52.6475 87.3536 52.4382C87.2864 52.1673 87.3061 51.9622 87.4509 51.7178C87.5598 51.5342 87.7162 51.407 87.8951 51.334C88.0776 51.2595 88.2855 51.242 88.4922 51.2834Z" fill="#282828"/>
<path fill-rule="evenodd" clip-rule="evenodd" d="M88.4621 76.317C87.3229 75.2998 86.0453 73.2545 84.4085 74.8728C84.0037 75.33 83.8392 76.3553 83.2201 76.5566C82.3982 76.8236 81.5834 75.952 81.303 75.2824C80.1563 71.5619 84.8962 70.5412 87.5957 71.1424C88.915 71.6855 89.8863 73.8707 89.9454 75.0114C89.983 75.7774 89.3361 76.9048 88.4621 76.317ZM97.0593 70.583C97.0483 70.5337 97.0326 70.489 97.0135 70.4484C96.5096 70.2575 96.1112 70.4519 95.8644 70.8157C95.8726 70.9062 95.8998 70.9979 95.9166 71.0872C95.7266 71.4888 95.5546 71.9855 95.2974 72.3324C95.2465 72.3365 95.1938 72.3313 95.1428 72.3162C90.8709 72.7636 92.9565 68.2841 88.6237 67.1712C85.2744 66.6176 79.2209 67.2518 77.641 70.7455C76.3946 76.3269 70.0585 72.4381 67.9782 69.5357C65.7582 66.8938 64.323 63.6665 62.9394 60.5343C62.6469 59.8711 61.7342 60.3451 61.8332 60.9811C60.5544 63.5533 60.5967 66.642 60.2799 69.4596C59.7412 75.0805 59.2159 82.9632 64.4273 86.3953C71.2163 94.0871 88.1702 96.8009 96.0011 89.7341C98.7116 83.8927 98.3775 76.7673 97.0593 70.583Z" fill="#282828"/>
<path fill-rule="evenodd" clip-rule="evenodd" d="M96.1926 63.6867C95.3685 64.7961 93.8412 65.1489 92.4327 65.0271C89.3944 64.734 88.4382 61.2758 88.3386 58.5875C90.3761 59.1619 88.166 55.0937 95.131 54.6463C97.5861 54.4413 96.9091 55.9273 97.9938 57.0132C97.9713 59.2919 97.5931 61.7678 96.1926 63.6867ZM81.721 61.068C79.9273 69.4874 70.1047 67.4844 69.0726 59.8954C70.0253 59.2211 69.7745 57.557 70.9583 56.954C72.8343 55.7526 75.1793 55.804 77.3095 55.8322C80.0327 56.0198 80.8088 57.1503 82.2075 58.3838C82.1403 59.2078 81.9463 60.1843 81.721 61.068ZM100.083 53.252C99.9827 53.2352 99.8819 53.2193 99.7812 53.2045C99.7024 53.1597 99.6103 53.1253 99.5026 53.1046C99.2576 53.0421 99.0138 53.0001 98.7705 52.9774C95.2793 52.19 87.2028 53.3081 86.8698 56.2939C85.7578 56.6659 84.7958 56.3328 83.5072 56.366C82.5266 52.2571 65.5698 52.837 64.7543 55.3142C64.7508 55.3134 64.7479 55.3126 64.7445 55.3116C63.9614 55.0686 62.806 55.1272 61.9089 55.0887C59.9941 55.0484 58.0765 55.2196 56.2031 55.6243C52.6944 56.1832 47.9059 56.8375 50.3461 61.2288L50.3476 61.2311C50.7682 61.6634 51.4822 61.3146 51.5088 60.7298C50.6884 58.6496 52.5414 58.4001 53.9671 57.802C57.5147 56.5247 61.1264 56.3476 64.7954 56.7426C65.0717 57.0684 65.4904 57.3524 65.9329 57.501C68.3863 57.9092 67.0936 59.7329 68.644 59.9981C68.359 66.3558 76.0608 69.8263 80.5227 65.6468C82.3048 63.9014 82.7293 61.3146 83.1423 58.9838C83.3606 58.9345 83.4996 58.8149 83.5807 58.6565C84.106 58.1308 84.4361 57.6454 85.4746 57.501C86.5136 57.3568 87.3134 57.6464 87.4212 57.735C87.4484 57.7901 87.4779 57.8453 87.5121 57.9005C87.5596 57.9828 87.6239 58.0484 87.6974 58.1001C86.6717 64.4311 91.5755 68.4349 96.5262 65.1512C98.6773 63.1233 99.1313 60.0184 99.2217 57.2469C99.513 57.0706 99.6978 56.7288 99.5964 56.2991C99.4574 55.7068 99.784 55.1939 100.304 54.9364C100.978 54.6019 100.859 53.3806 100.083 53.252Z" fill="#282828"/>
<path fill-rule="evenodd" clip-rule="evenodd" d="M186.844 155.982C186.56 153.351 186.385 150.702 186.284 148.058C186.184 145.417 186.315 142.744 186.373 140.101C186.49 134.727 186.681 129.34 186.252 123.973C185.847 118.902 184.916 113.866 183.447 108.992C182.732 106.619 181.978 104.151 180.801 101.958C179.618 99.753 177.744 98.2845 175.686 96.9381C173.494 95.505 171.32 94.0443 169.137 92.5974C167.305 91.3831 164.007 89.9693 162.503 88.3456C160.921 86.6373 160.624 82.4027 159.57 80.379C158.544 78.4078 155.64 77.1216 153.403 77.1216C149.702 77.1216 146.897 76.9332 143.853 80.348C142.334 82.0519 143.543 83.7744 141.951 85.4103C140.487 86.9136 136.745 88.4588 134.859 89.3312C132.6 90.3765 130.284 91.2985 127.934 92.1206C125.537 92.9587 123.079 93.5835 120.669 94.3752C118.359 95.1332 115.342 98.2591 113.548 99.9132C111.881 101.451 111.467 101.279 110.199 103.147C107.417 107.247 104.632 111.393 102.416 115.832C101.312 118.043 100.244 120.369 99.8434 122.825C99.4163 125.444 99.8397 127.975 100.532 130.511C101.238 133.091 103.476 135.548 104.206 138.122C104.542 139.308 103.388 140.603 103.919 141.721C104.184 142.279 104.518 142.776 104.898 143.263C105.191 143.637 106.332 143.554 106.48 144.013C106.629 144.476 105.803 145.438 105.791 145.917C105.774 146.603 105.746 147.29 105.724 147.976L105.59 152.033C105.502 154.699 105.415 157.365 105.327 160.031C105.298 160.901 105.257 161.752 105.466 162.578C105.39 162.507 105.318 162.432 105.253 162.346C105.061 162.096 104.654 162.308 104.817 162.6C105.089 163.088 105.48 163.431 105.939 163.678C106.473 164.463 187.306 166.216 187.704 163.921C187.927 162.634 187.521 161.255 187.358 159.977C187.189 158.645 186.988 157.318 186.844 155.982Z" fill="white"/>
<path fill-rule="evenodd" clip-rule="evenodd" d="M104.732 122.829C104.93 122.264 105.835 122.509 105.636 123.078C104.612 126.002 105.338 129.185 106.445 131.976C106.667 132.536 105.761 132.777 105.542 132.224C104.377 129.288 103.657 125.9 104.732 122.829ZM111.597 139.534C114.484 139.939 117.373 140.189 120.28 140.391C120.41 140.4 120.523 140.38 120.62 140.338C120.533 141.666 120.463 142.995 120.408 144.323C119.615 144.301 118.806 144.354 118.021 144.333C116.994 144.305 115.968 144.253 114.944 144.175C112.961 144.026 110.981 143.787 109.02 143.458C108.287 143.336 107.356 143.261 106.521 143.018C105.732 142.788 105.03 142.407 104.661 141.69C104.347 141.083 104.29 140.34 104.29 139.668C104.29 139.205 104.37 138.736 104.418 138.27C104.477 138.229 104.531 138.178 104.574 138.122C105.445 138.396 106.349 138.589 107.234 138.776C108.676 139.082 110.138 139.33 111.597 139.534ZM109.968 128.737C109.984 129.63 110.232 130.44 110.714 131.192C111.04 131.701 110.229 132.168 109.905 131.664C109.338 130.778 109.05 129.786 109.032 128.737C109.021 128.135 109.958 128.137 109.968 128.737ZM183.976 138.473C184.367 138.495 184.761 138.509 185.152 138.529C185.499 138.824 185.977 138.975 186.415 138.882C186.43 138.919 186.444 138.962 186.456 139.01C186.533 139.311 186.572 139.633 186.616 139.939C186.661 140.24 186.695 140.544 186.718 140.847C186.73 141 186.804 141.346 186.71 141.479C186.626 141.599 186.44 141.589 186.311 141.604C185.964 141.641 185.613 141.659 185.264 141.688C184.605 141.745 183.946 141.802 183.288 141.859C182.643 141.916 181.934 141.898 181.303 142.068C181.196 140.805 181.097 139.543 181.006 138.279C181.984 138.424 183.005 138.42 183.976 138.473ZM102.008 136.38C102.401 137.137 102.764 137.883 103.517 138.338C103.615 138.396 103.726 138.428 103.838 138.436C103.754 138.797 103.701 139.166 103.654 139.507C103.551 140.258 103.529 141.034 103.717 141.774C103.901 142.495 104.206 143.138 104.803 143.6C105.08 143.815 105.383 143.978 105.702 144.107C105.648 144.258 105.616 144.407 105.633 144.572C105.557 144.954 105.506 145.343 105.451 145.715C105.331 146.542 105.21 147.37 105.115 148.201C104.926 149.855 104.777 151.508 104.652 153.167C104.526 154.821 104.436 156.479 104.361 158.137C104.323 158.984 104.289 159.832 104.257 160.681C104.225 161.553 104.084 162.445 104.47 163.254C104.782 163.908 105.834 163.871 106.157 163.254C106.567 162.471 106.446 161.54 106.457 160.681C106.467 159.871 106.481 159.062 106.499 158.252C106.534 156.595 106.586 154.94 106.627 153.283C106.666 151.666 106.716 150.05 106.748 148.432C106.765 147.586 106.766 146.739 106.771 145.892C106.773 145.423 106.793 144.922 106.758 144.433C107.051 144.502 107.346 144.56 107.637 144.62C109.863 145.075 112.112 145.407 114.375 145.612C115.512 145.715 116.652 145.787 117.792 145.828C118.631 145.859 119.499 145.917 120.351 145.886C120.284 147.913 120.253 149.941 120.257 151.969C120.259 153.432 120.279 154.895 120.315 156.358C120.335 157.128 120.352 157.897 120.375 158.667C120.386 159.012 120.386 159.362 120.409 159.706C120.416 159.813 120.431 159.917 120.451 160.02C120.374 160.238 120.31 160.454 120.257 160.657C119.999 161.637 119.999 162.58 120.114 163.579C120.212 164.427 120.928 165.212 121.873 164.915C122.026 164.867 122.179 164.817 122.331 164.765C123.722 164.923 125.121 164.959 126.532 164.986C128.594 165.026 130.657 165.039 132.72 165.049C136.766 165.07 140.813 165.081 144.861 165.092C152.994 165.116 161.128 165.138 169.261 165.161C171.518 165.168 173.775 165.174 176.032 165.181C177.201 165.185 178.367 165.186 179.534 165.23C180.079 165.251 180.624 165.28 181.169 165.288C181.8 165.299 182.358 165.118 182.961 164.953C183.302 164.859 183.437 164.518 183.364 164.229C183.909 164.359 184.571 164.084 184.757 163.47C184.893 163.026 184.843 162.543 184.64 162.131C184.249 159.668 183.753 157.216 183.363 154.753C182.936 152.054 182.524 149.35 182.163 146.641C181.891 144.595 181.668 146.045 181.474 143.991C182.316 144.056 183.268 143.8 184.102 143.691C184.7 143.615 185.303 143.553 185.902 143.471C185.858 144.074 185.871 144.687 185.854 145.265C185.822 146.413 185.837 147.556 185.866 148.704C185.922 150.919 186.047 149.63 186.247 151.836C186.45 154.058 186.698 156.272 186.999 158.484C187.154 159.622 187.319 160.759 187.493 161.895C187.574 162.426 187.657 162.954 187.743 163.485C187.844 164.109 187.877 164.701 188.347 165.17C188.704 165.527 189.433 165.496 189.67 165C189.97 164.373 189.833 163.836 189.723 163.177C189.632 162.648 189.546 162.119 189.46 161.591C189.278 160.457 189.104 159.322 188.942 158.186C188.628 155.996 188.332 153.803 188.067 151.608C187.8 149.396 187.524 150.688 187.261 148.476C187.129 147.359 186.997 146.245 186.843 145.133C186.764 144.56 186.715 143.951 186.611 143.361C186.645 143.357 186.677 143.35 186.71 143.345C187.422 143.215 188.03 142.815 188.209 142.084C188.38 141.384 188.176 140.58 188.032 139.893C187.909 139.309 187.798 138.562 187.421 138.061C188.751 136.372 189.616 134.245 190.167 132.202C190.768 129.975 191.02 127.65 191.073 125.349C191.135 122.683 190.933 120.032 190.475 117.426C190.465 116.873 190.439 116.321 190.398 115.77C189.995 110.356 188.304 103.95 182.945 101.42C182.923 101.41 182.901 101.401 182.879 101.392C182.459 100.89 181.934 100.44 181.51 100.018C180.76 99.2711 179.976 98.5563 179.145 97.8977C177.498 96.5933 175.693 95.5519 173.816 94.6144C171.918 93.6652 169.993 92.7741 168.138 91.7382C166.522 90.8344 165.068 89.7466 163.688 88.5179C162.137 87.1367 161.033 85.2743 160.599 83.2413C160.577 83.1352 160.419 83.1645 160.417 83.2661C160.303 86.992 162.825 90.2847 165.727 92.3675C169.197 94.8564 173.388 96.0342 176.907 98.4469C177.782 99.0457 178.6 99.722 179.378 100.44C178.185 100.318 176.972 100.395 175.853 100.725C175.413 100.698 174.971 100.69 174.53 100.668C173.52 100.618 172.51 100.572 171.499 100.527C169.44 100.436 167.379 100.353 165.319 100.281C161.276 100.139 157.232 100.031 153.189 99.9601C145.062 99.8164 136.925 99.7883 128.8 100.023C126.597 100.086 115.011 99.6479 113.938 99.7717C115.515 98.4104 117.246 97.2988 119.148 96.3845C121.528 95.2436 123.988 94.4823 126.53 93.7862C131.764 92.3537 137.2 90.9725 141.389 87.3328C142.43 86.4279 143.355 85.3876 144.112 84.2352C144.836 83.1352 145.64 81.7269 145.66 80.3855C145.675 79.4325 144.345 79.0856 143.871 79.9021C143.578 80.4076 143.432 80.9623 143.192 81.4921C142.954 82.0175 142.67 82.5247 142.355 83.0092C141.736 83.9622 140.968 84.8119 140.132 85.5793C138.35 87.2163 136.191 88.4151 133.957 89.3223C128.885 91.3813 123.338 92.2498 118.532 94.9636C116.43 96.1508 114.417 97.7894 113.154 99.8794C112.95 99.9109 112.748 99.9479 112.545 99.9899C112.696 99.7999 112.848 99.6098 113.002 99.4203C113.102 99.2966 112.947 99.133 112.824 99.243C110.434 101.363 108.233 103.653 106.238 106.149C104.33 108.538 102.55 111.042 101.29 113.84C99.0259 118.865 98.5272 124.613 99.6968 129.987C100.015 131.451 100.465 132.885 101.037 134.271C101.332 134.987 101.652 135.692 102.008 136.38Z" fill="#282828"/>
<path fill-rule="evenodd" clip-rule="evenodd" d="M153.584 31.5688C160.232 31.5688 168.558 39.1317 170.995 42.35C173.043 45.0559 172.754 58.9953 172.754 67.2645C172.754 68.9937 171.97 72.2665 171.685 73.9212C170.643 79.9829 166.1 85.0667 157.108 85.0667C149.787 85.0667 144.153 82.7541 138.705 76.8388C137.462 75.4891 131.392 80.3204 130.15 78.5807C126.907 78.5807 124.196 48.3644 130.563 39.3014C136.929 30.2383 146.937 31.5688 153.584 31.5688Z" fill="white"/>
<path fill-rule="evenodd" clip-rule="evenodd" d="M133.613 33.6971C137.455 30.2117 142.572 28.535 147.735 28.6587C150.41 28.7229 153.074 29.2309 155.599 30.1008C156.863 30.5374 158.086 31.1073 159.256 31.7518C159.677 31.9835 160.066 32.2551 160.44 32.5435L160.533 32.6159C161.537 32.9755 162.433 33.6212 163.246 34.3767C164.874 34.2471 166.516 34.393 168.09 34.8939C170.282 35.5922 172.311 36.8708 173.736 38.6865C175.395 40.8003 175.947 43.3643 175.751 46.0112L175.714 46.4608C175.519 48.799 175.171 51.8064 173.246 53.3428C173.1 53.4595 172.939 53.5482 172.771 53.602C174.011 55.72 175.028 58.0717 175.637 60.4467C177.961 69.518 176.174 78.9784 173.38 87.7218C173.15 88.4422 172.058 88.9207 171.502 88.2168C170.509 86.9583 169.067 85.9981 167.444 85.8186C166.443 85.7075 165.447 85.9086 164.501 85.4556C164.13 85.2766 163.772 84.9849 163.514 84.6297C161.917 85.2335 160.197 85.5186 158.491 85.4484C155.692 85.334 152.699 84.3672 150.774 82.2468C150.464 81.9065 150.386 81.5242 150.457 81.1795C150.699 81.0938 150.947 81.0298 151.202 80.9894C153.644 82.4253 156.336 83.3844 159.23 83.4446C160.902 83.4794 162.532 83.2463 163.888 82.2054C164.181 81.98 164.451 81.7303 164.7 81.4623C167.534 79.6442 169.532 76.5559 170.482 73.2477C171.368 70.1627 171.258 66.9506 170.954 63.7861L170.794 62.1165C170.56 59.6656 170.342 57.2075 170.281 54.7463L170.3 54.7453C170.898 54.7068 170.903 53.7723 170.3 53.8112C168.74 53.9119 167.193 53.6567 165.638 53.7679C165.625 53.0349 165.572 52.3053 165.357 51.5984C165.233 51.1945 164.528 51.1149 164.453 51.5984C164.354 52.2453 164.317 52.8885 164.306 53.5383C161.98 53.5075 159.655 53.3123 157.328 53.3925C156.899 52.9359 156.763 52.1264 156.562 51.5633C156.533 51.4803 156.503 51.3986 156.473 51.3157C156.297 52.1204 156.046 52.9075 155.717 53.6781L155.147 53.68C151.909 53.6952 148.605 53.7917 145.444 54.4623C145.224 54.294 145.093 54.0005 145.057 53.7339C144.829 51.9993 144.501 50.3108 143.921 48.6577L143.838 48.4245C143.831 48.4051 143.824 48.3846 143.817 48.363C143.389 49.0511 142.879 49.6924 142.323 50.2897C141.995 50.6417 141.652 50.9784 141.299 51.3054C140.956 51.6849 140.602 52.0587 140.258 52.4393C140.272 52.5086 140.284 52.5789 140.293 52.6505C140.398 53.4403 140.409 54.2415 140.332 55.0344C140.193 56.4679 139.787 57.8493 139.136 59.1271L139.115 59.2551C139.016 59.8539 138.875 60.4728 138.546 60.9238C138.957 61.3823 139.273 61.9303 139.456 62.5392C139.619 63.0811 138.867 63.5507 138.478 63.1071C138.168 62.7546 137.824 62.4635 137.446 62.2309C137.422 62.2629 137.379 62.279 137.331 62.2519C136.278 61.669 134.49 61.8453 133.439 62.3944C132.131 63.0762 131.621 64.4761 131.766 65.8949C131.905 67.2506 132.5 68.8351 133.653 69.5296C134.182 69.8483 134.595 69.8754 135.157 69.7224C135.336 69.6738 135.559 69.5246 135.654 69.4506L135.749 69.3749C136.117 69.0848 136.46 68.8859 136.895 68.8782C137.34 68.7401 137.787 68.9318 137.957 69.397L137.967 69.4268C138.047 69.6638 138.192 69.9616 138.161 70.324C138.128 70.7113 137.95 71.0643 137.684 71.3477C137.638 71.3969 137.59 71.4461 137.539 71.4914C142.117 76.4343 142.704 84.1357 140.357 90.3101C140.255 90.5814 140.146 90.8488 140.033 91.114C139.641 92.0222 138.13 91.7405 137.938 90.8405C137.881 90.5709 137.818 90.3024 137.749 90.0361C137.622 89.5439 137.476 89.0566 137.312 88.5765L137.25 88.3964C137.111 87.9997 136.981 87.5992 136.84 87.2019L136.826 87.1566C136.821 87.139 136.815 87.118 136.809 87.0948L136.571 87.6119L135.848 89.1732C135.51 89.9019 134.436 89.5057 134.396 88.8036V88.7798C134.392 88.65 134.387 88.5218 134.379 88.3942C134.328 87.4401 134.163 86.513 133.9 85.6059L133.806 85.723C132.397 87.4605 130.743 89.0886 128.475 89.4897C127.906 89.5897 127.262 88.9969 127.653 88.4235C127.815 88.1864 127.97 87.9434 128.118 87.697C127.99 87.6378 127.87 87.576 127.758 87.5124C126.898 87.0307 126.181 86.344 125.589 85.565C124.333 83.9142 123.883 81.8358 123.773 79.8016C123.656 77.652 123.846 75.3857 124.435 73.3118C124.69 72.4151 125.035 71.5544 125.434 70.7196C125.406 70.645 125.379 70.5704 125.352 70.4953C124.922 69.2975 124.568 68.0727 124.274 66.8335C123.682 64.3325 123.363 61.7519 123.325 59.1821C123.254 54.5781 124.051 49.9005 125.728 45.6071C127.461 41.1794 130.067 36.914 133.613 33.6971ZM131.456 73.9504C131.138 73.451 130.342 73.9012 130.637 74.404L130.648 74.4222C131.153 75.215 131.389 76.1166 131.68 77.0006C131.866 77.5691 132.771 77.326 132.582 76.7514L132.52 76.5597C132.231 75.6636 131.967 74.7526 131.456 73.9504ZM134.227 64.4131L134.438 64.3109C135.105 63.9938 135.689 63.7778 136.477 64.0546C137.532 64.4247 138.662 65.6032 137.949 66.7462C137.687 67.1678 137.22 67.3357 136.741 67.2363C135.931 67.0694 135.723 66.3424 135.312 65.7457L135.241 65.6446C134.991 65.2838 134.674 64.785 134.257 64.643C134.162 64.6104 134.123 64.4634 134.227 64.4131ZM134.822 40.1427L134.89 40.0818C135.343 39.6825 134.678 39.0239 134.227 39.4209C132.164 41.2389 131.448 44.0845 130.378 46.5097C130.138 47.055 130.944 47.5314 131.187 46.9814C132.207 44.6672 132.885 41.8989 134.822 40.1427ZM159.612 39.3473C159.073 39.1051 158.601 39.8874 159.119 40.145L159.139 40.1542C160.96 40.9751 161.736 42.834 162.478 44.5597C162.714 45.1109 163.521 44.6356 163.287 44.0892L163.153 43.7795C162.379 42.001 161.475 40.1882 159.612 39.3473ZM162.467 38.2241C161.896 38.0267 161.651 38.9282 162.218 39.1255C163.762 39.6614 164.821 40.8174 165.715 42.1392C166.049 42.6343 166.861 42.1672 166.523 41.6674C165.485 40.1332 164.254 38.8453 162.467 38.2241Z" fill="#282828"/>
<path fill-rule="evenodd" clip-rule="evenodd" d="M159.324 76.8675C158.537 76.547 157.835 76.0128 157.321 75.3305C157.143 75.0935 157.097 74.8432 157.134 74.6139C157.176 74.3565 157.329 74.1228 157.537 73.9664C157.746 73.809 158.008 73.7316 158.26 73.7714C158.48 73.8057 158.699 73.9256 158.872 74.1742L158.908 74.2239C159.214 74.636 159.611 74.9736 160.064 75.1913C160.501 75.4012 160.99 75.4995 161.495 75.4426C162.458 75.3338 163.122 74.8145 163.827 74.1095C163.915 74.0206 164.002 73.9283 164.09 73.8355C164.145 73.7504 164.223 73.6963 164.308 73.6676C164.403 73.6361 164.51 73.6377 164.609 73.672C164.704 73.7051 164.788 73.7675 164.846 73.851C164.899 73.9305 164.93 74.0283 164.92 74.1405C164.856 74.8714 164.473 75.5238 163.928 76.036C163.324 76.6045 162.523 76.9984 161.768 77.1359C160.938 77.2884 160.091 77.1796 159.324 76.8675ZM162.161 65.5927C163.045 66.1286 164.392 67.3782 163.441 68.7069C162.321 69.8787 160.709 68.5351 159.915 67.9279C159.179 67.4572 158.351 68.6677 159.034 69.2174C164.774 73.4554 167.103 65.733 162.608 64.9623C162.112 64.8778 161.929 65.4269 162.161 65.5927ZM151.875 60.6628C151.973 59.4535 153.819 59.1789 154.003 60.3755C154.167 61.4475 153.974 62.432 153.49 63.3971C153.027 64.3192 151.865 63.8888 151.777 63.0496C151.659 61.9243 151.814 61.4149 151.875 60.6628ZM165.932 60.1274C166.189 59.7911 166.561 59.5616 167.006 59.6913C168.398 60.0968 167.988 62.0668 167.499 63.0259C167.233 63.5469 166.375 63.6789 165.987 63.2204C165.355 62.4723 165.052 60.9792 165.856 60.2427C165.878 60.2046 165.902 60.1662 165.932 60.1274ZM153.47 55.3715L153.69 55.3331C154.37 55.2159 155.215 55.1032 155.696 55.6483C155.952 55.9374 156.039 56.4748 155.696 56.7516C155.093 57.2384 154.426 57.0498 153.703 57.091C153.108 57.1251 152.535 57.2234 151.962 57.3869C150.703 57.7458 149.677 58.4008 148.602 59.1201C148.461 59.2145 148.317 59.0345 148.384 58.9029C149.005 57.6905 150.207 56.6946 151.412 56.0876C152.055 55.7636 152.759 55.4948 153.47 55.3715ZM164.663 54.8284L164.832 54.8627C166.663 55.2444 169.041 56.0068 169.908 57.8002C169.941 58.0538 169.906 58.1082 169.878 58.1437L169.869 58.1555C169.845 58.1858 169.826 58.2276 169.716 58.2622C169.686 58.2549 169.655 58.2472 169.624 58.239C169.226 58.1352 168.911 57.9921 168.607 57.8436L168.277 57.6814C167.894 57.4942 167.508 57.3137 167.098 57.1805C166.225 56.8964 165.326 56.6961 164.414 56.5892C164.216 56.5661 164.025 56.4995 163.875 56.3854C163.733 56.2771 163.624 56.1272 163.574 55.9279C163.509 55.6699 163.528 55.4746 163.667 55.2419C163.771 55.0672 163.921 54.9461 164.092 54.8765C164.266 54.8056 164.465 54.7889 164.663 54.8284Z" fill="#282828"/>
<path fill-rule="evenodd" clip-rule="evenodd" d="M172.036 66.6379C171.248 67.6942 169.787 68.0301 168.439 67.9141C165.532 67.6351 164.617 64.3424 164.521 61.7828C166.471 62.3297 164.356 58.4563 171.021 58.0303C173.37 57.8351 172.722 59.25 173.76 60.2838C173.738 62.4535 173.376 64.8109 172.036 66.6379ZM158.189 64.1446C156.473 72.1609 147.075 70.2538 146.087 63.0281C146.999 62.3861 146.759 60.8016 147.891 60.2275C149.686 59.0837 151.93 59.1326 153.968 59.1595C156.574 59.338 157.317 60.4145 158.655 61.5889C158.591 62.3734 158.405 63.3032 158.189 64.1446ZM175.759 56.7027C175.663 56.6867 175.566 56.6716 175.47 56.6575C175.395 56.6149 175.307 56.5821 175.204 56.5624C174.969 56.5029 174.736 56.4629 174.503 56.4413C171.163 55.6916 163.435 56.7561 163.116 59.5991C162.052 59.9532 161.132 59.6361 159.899 59.6676C158.96 55.7554 142.735 56.3076 141.955 58.6662C141.952 58.6654 141.949 58.6647 141.946 58.6638C141.197 58.4324 140.091 58.4882 139.233 58.4515C137.4 58.4132 135.566 58.5761 133.773 58.9615C130.416 59.4936 125.834 60.1166 128.169 64.2976L128.17 64.2999L128.171 64.2993C128.573 64.7109 129.256 64.3794 129.281 63.8225C128.496 61.8419 130.269 61.6044 131.634 61.0349C135.028 59.8187 138.484 59.6501 141.995 60.0263C142.259 60.3364 142.66 60.6069 143.083 60.7484C145.43 61.137 144.193 62.8734 145.677 63.1259C145.404 69.1793 152.774 72.4836 157.043 68.5041C158.748 66.8423 159.154 64.3794 159.549 62.1601C159.758 62.1132 159.891 61.9994 159.969 61.8485C160.472 61.348 160.787 60.8858 161.781 60.7484C162.775 60.6111 163.541 60.8868 163.644 60.9712C163.67 61.0236 163.698 61.0761 163.731 61.1287C163.776 61.207 163.838 61.2696 163.908 61.3187C162.927 67.3467 167.619 71.1588 172.356 68.0323C174.414 66.1015 174.848 63.1452 174.935 60.5064C175.213 60.3385 175.39 60.0131 175.293 59.604C175.16 59.04 175.473 58.5517 175.97 58.3065C176.616 57.9881 176.501 56.8252 175.759 56.7027Z" fill="#282828"/>
</g>
<defs>
<clipPath id="clip0_1179_2187">
<rect width="208" height="155" fill="white"/>
</clipPath>
</defs>
</svg>
