<svg width="570" height="571" viewBox="0 0 570 571" fill="none" xmlns="http://www.w3.org/2000/svg">
<g clip-path="url(#clip0_2473_331)">
<path fill-rule="evenodd" clip-rule="evenodd" d="M563.507 401.199C560.944 400.46 557.741 400.27 554.936 400.135C545.023 399.55 534.917 404.29 525.195 406.427C520.94 407.482 516.436 408.724 511.883 409.649C507.839 410.199 503.661 410.612 499.46 410.875C496.065 410.977 492.112 410.716 490.953 414.297C484.126 415.624 478.084 416.176 471.576 415.048C472.187 412.969 472.533 410.795 471.905 408.555C472.221 408.024 472.654 407.307 472.885 406.823H472.103C460.681 402.238 448.333 399.107 436.851 394.356C421.866 388.939 399.795 378.474 382.479 371.328C383.654 364.881 384.088 358.331 383.591 351.962L384.286 351.398C384.514 350.147 384.87 348.65 385.515 347.515C386.331 345.342 386.351 342.375 386.674 339.918C387.352 335.113 387.802 327.879 386.573 322.173C386.035 314.436 380.833 308.472 375.225 303.688C368.34 296.859 361.449 290.197 354.726 283.105C317.529 245.075 314.588 197.175 256.357 182.617L256.328 182.391C255.87 181.878 255.682 181.471 255.159 182.282C253.237 181.543 250.839 181.605 249.229 180.356C246.371 177.741 244.343 174.722 243.017 171.14C241.995 164.368 242.718 153.931 236.802 149.598C230.232 145.651 195.322 142.841 192.311 151.471C190.443 153.23 189.593 155.465 189.01 158.202C187.064 161.892 185.837 165.983 183.878 169.73C179.712 178.133 177.012 176.271 169.657 178.191C168.859 176.407 166.435 176.766 164.669 177.025C143.281 180.04 117.204 188.266 108.046 208.428L108.826 208.328C93.0185 238.112 103.27 275.99 106.097 307.553C108.384 335.61 105.768 363.8 99.5535 389.97C91.925 417.733 91.4874 448.788 106.623 473.918C108.161 476.794 110.034 480.859 113.348 479.055C115.164 480.432 117.205 481.383 120.022 482.212C120.799 482.778 121.604 483.727 122.417 484.132C122.455 484.186 123.764 483.431 123.833 483.411C126.308 486.951 262.173 498.785 276.272 500.624C288.694 502.126 305.107 505.962 315.23 496.974C323.596 494.579 332.349 488.338 339.036 482.141C343.092 541.144 345.336 661.985 348.956 662.827C350.538 663.365 352.677 664.009 354.47 664.524C354.481 668.764 354.796 673.58 354.464 677.75C353.906 682.455 352.499 688.012 351.861 692.959C349.124 692.777 348.318 695.532 347.999 697.402C345.635 712.86 345.705 725.325 345.877 742.313C373.673 758.735 406.249 767.764 437.529 778.376C440.525 780.636 447.016 778.194 450.475 777.581C462.485 775.211 476.13 768.195 473.097 755.336C470.881 745.65 461.561 740.08 453.716 734.381C445.132 728.147 436.085 721.917 428.193 714.49C421.859 708.509 417.13 703.868 411.851 697.115C409.507 693.976 407.008 688.817 403.858 686.503C407.186 682.542 400.463 686.254 397.914 686.483C396.416 679.414 394.562 672.624 392.339 665.841L394.502 665.938C401.598 659.29 405.578 627.376 406.071 617.905C409.631 556.185 409.544 485.044 395.271 433.062C406.115 439.758 418.004 445.35 428.784 451.972C435.584 455.966 442.482 461.513 450.103 463.449C450.6 464.879 452.416 465.435 453.407 464.035C454.771 464.204 456.53 463.636 456.678 463.012C458.075 460.151 460.097 457.068 459.852 453.959L457.981 449.604C462.176 451.314 466.733 454.912 471.21 455.241C480.254 485.523 498.066 468.559 515.211 456.774C525.554 449.524 536.872 441.518 547.76 433.788C556.998 426.419 575.033 419.426 566.19 404.829" fill="white"/>
<path fill-rule="evenodd" clip-rule="evenodd" d="M174.91 176.341C183.642 174.213 185.134 153.216 190.407 156.206C193.455 158.864 188.47 163.881 187.587 166.881L187.2 167.644C185.411 171.139 183.388 174.622 179.862 176.638C177.596 179.031 170.822 176.681 171.818 180.493C175.296 191.98 193.755 199.934 204.634 203.511C221.543 209.881 248.897 207.726 252.87 186.37C243.595 184.667 236.738 167.881 242.454 160.892C242.649 167.681 244.498 174.687 249.811 179.286L250.104 179.557C251.039 180.412 252.25 181.433 253.456 181.244C254.633 179.6 256.917 180.535 257.59 182.27C310.397 191.426 322.161 248.555 355.417 282.182C362.06 289.197 369.005 295.914 375.859 302.716C382.861 308.288 387.815 316.056 388.161 325.176C388.785 330.248 388.476 335.326 387.808 340.406L387.761 340.865C387.449 344.014 387.264 347.396 385.773 350.191C385.514 351.139 385.618 352.336 384.802 353.005C385.158 358.801 384.819 364.702 383.842 370.482L386.387 371.622C414.426 384.147 442.784 395.953 472.018 405.342C474.517 404.887 474.315 407.801 473.103 409.125C473.422 410.683 473.459 412.303 473.083 413.844C478.436 414.616 483.873 413.974 489.159 412.995C490.832 409.303 495.271 409.5 498.707 409.396C502.972 409.128 507.23 408.71 511.465 408.117C521.903 405.778 532.149 402.701 542.486 399.997C549.405 398.045 556.86 398.138 563.798 399.934C564.977 401.259 566.069 402.675 566.985 404.177C573.329 414.041 567.079 423.079 558.227 428.261C544.021 438.359 529.815 448.445 515.546 458.451L514.511 459.192C497.535 471.378 478.44 486.802 469.375 457.144C466.326 456.785 463.656 454.734 460.818 453.523C461.581 457.083 459.3 460.678 457.729 463.73C457.054 465.467 455.203 466.041 453.494 466.024C452.03 467.464 449.286 466.897 448.329 465.19C440.568 462.962 434.156 457.76 427.289 453.719C417.523 447.769 407.276 442.697 397.373 436.999C413.828 505.343 409.802 576.534 405.423 646.102L405.392 646.728C404.852 656.886 402.528 661.692 394.128 667.916C395.593 672.395 396.902 676.888 397.9 681.492C398.252 682.563 399.875 681.556 399.888 683.024C402.87 682.324 408.935 683.071 406.82 687.21C412.811 692.256 416.864 699.086 422.117 704.835C431.366 715.952 443.456 724.231 455.311 732.384C482.56 746.311 484.122 770.445 452.238 778.69L451.919 778.767C447.529 779.825 442.24 782.25 437.985 780.209C431.618 778.979 425.301 776.491 419.071 774.594C393.987 766.269 369.455 756.522 345.684 745.317C344.821 744.91 344.334 743.98 344.314 743.05C344.58 735.365 342.497 693.239 350.443 692.333C352.22 683.728 352.499 674.843 352.176 666.06C349.597 665.248 346.991 664.464 344.321 663.955C341.728 663.137 337.675 662.951 335.939 660.846C335.314 660.617 334.856 660.058 334.95 659.176C336.355 645.977 337.42 632.741 338.195 619.488C340.855 575.045 339.952 530.464 336.923 486.072C330.681 491.484 323.569 496.226 315.651 498.745C311.28 503.137 304.273 504.08 298.307 504.612C290.635 505.09 283.098 503.551 275.527 502.595C262.671 500.971 249.904 502.409 237.141 504.003L232.779 504.548C201.533 507.983 167.764 508.694 138.642 495.3C133.158 495.788 126.351 489.844 122.931 485.873C121.42 486.809 119.936 484.98 118.732 484.021C116.746 483.414 114.493 482.545 112.69 481.276C108.117 482.778 105.65 476.822 103.913 473.584C76.3411 426.228 107.047 379.089 104.737 328.872C106.136 289.502 88.2312 248.485 105.535 210.725C109.036 194.746 129.51 183.703 144.921 179.641C149.887 178.819 168.687 172.001 170.757 177.735C171.737 176.444 173.41 176.347 174.91 176.341ZM403.616 689.056C401.033 689.336 398.511 689.494 395.959 689.962C386.636 691.498 377.746 695.118 369.733 700.147C367.141 701.77 364.824 703.814 361.848 704.717C355.729 706.946 349.718 701.413 350.164 695.432C348.462 710.463 348.754 725.928 349.637 741.036C373.569 751.895 398.034 761.574 422.943 769.984C428.551 772.341 435.194 773.096 440.346 776.285C449.131 775.729 457.974 772.634 465.352 767.798C477.59 759.281 469.466 745.772 459.32 739.827C436.984 729.72 417.973 709.264 403.616 689.056ZM354.681 666.828C354.215 671.284 357.59 678.225 357.113 687.106C356.747 689.878 355.887 692.781 356.186 695.566C357.559 705.892 368.709 692.771 373.313 691.333C379.855 687.726 386.962 685.267 394.266 683.923C394.222 681.542 392.651 680.592 392.443 678.238C392.147 674.773 392.16 671.442 392.006 667.943C382.505 672.274 364.76 669.209 354.681 666.828ZM405.869 688.382C405.701 688.494 405.527 688.588 405.349 688.672C406.668 690.275 407.814 692.057 409.379 693.434L408.71 692.397C407.82 691.009 406.907 689.632 405.869 688.382ZM110.814 318.922C110.336 320.873 109.464 322.708 108.158 324.269C114.902 379.112 80.2042 424.833 112.106 475.824C112.509 476.013 112.877 476.247 113.231 476.54C113.419 476.416 113.607 476.283 113.791 476.151C128.743 449.614 150.028 426.722 166.988 401.327C170.243 394.952 175.602 388.536 177.653 381.171C143.571 367.674 129.957 347.979 110.814 318.922ZM559.342 402.109C557.898 402.628 556.289 402.2 554.748 402.172C549.27 402.055 543.92 403.488 538.685 404.936C523.455 409.114 508.141 412.813 492.538 415.287C492.222 415.615 491.92 415.949 491.648 416.3C491.916 416.76 491.96 417.334 491.567 417.904C489.213 422.414 491.114 427.936 489.404 432.764C486.926 442.538 480.337 453.561 470.5 457.03C473.781 460.165 476.132 464.2 479.511 467.226C487.816 472.935 496.961 464.426 503.741 459.864C516.651 450.718 529.59 441.636 542.57 432.59C548.384 427.757 561.246 421.666 564.027 415.263C565.81 410.354 562.566 405.571 559.342 402.109ZM470.383 414.571C464.828 425.936 461.618 438.02 458.41 450.222C461.749 451.143 464.821 452.585 468.103 453.555C472.724 454.597 479.245 445.642 481.563 442.087C483.951 438.111 485.623 433.743 486.399 429.166C487.054 424.684 486.355 420.029 488.3 415.878C482.281 416.494 476.173 416.624 470.383 414.571ZM140.062 391.121C145.279 389.655 133.41 401.493 132.726 402.757C125.008 411.897 117.937 421.549 110.921 431.232L108.793 434.171C108.589 434.469 107.18 436.557 108.199 436.292C108.292 436.267 108.336 436.39 108.261 436.441C101.772 437.592 136.933 391.926 140.062 391.121ZM267.263 385.533C267.685 384.258 265.682 383.712 265.26 384.98L263.93 388.998C258.91 404.177 253.922 419.378 247.923 434.202C247.421 435.446 249.427 435.988 249.926 434.758C256.451 418.625 261.782 402.048 267.263 385.533ZM325.608 380.218C323.779 388.926 319.155 396.778 316.353 405.102C321.616 403.939 325.671 399.019 328.74 394.788L328.832 394.647C330.279 392.412 331.962 388.921 335.249 390.498C340.237 393.405 336.664 403.716 336.57 408.604C335.939 415.303 333.767 421.57 332.286 428.077C336.09 425.47 337.184 420.329 339.038 416.323L346.171 399.153C351.417 391.944 348.982 413.532 348.71 415.57C348.284 420.045 346.406 424.547 347.142 429.053C350.101 425.86 351.964 421.848 353.529 417.777C355.702 412.115 357.684 406.38 359.752 400.681C360.464 398.855 363.175 399.496 362.782 401.507C362.647 407.975 362.543 414.443 362.439 420.912L362.362 425.763C362.348 426.682 361.895 429.369 363.48 428.626C371.799 419.869 373.931 402.359 372.847 390.595C356.498 390.991 339.814 388.864 325.608 380.218ZM471.115 412.887C471.048 413.101 470.971 413.314 470.893 413.528C470.94 413.538 470.991 413.548 471.038 413.56C471.068 413.334 471.095 413.11 471.115 412.887ZM108.214 412.887C106.4 411.543 136.886 372.283 134.91 383.617C126.405 393.71 116.487 402.555 108.214 412.887ZM377.444 326.133C348.932 319.416 323.826 344.511 295.195 340.719C295.527 349.708 295.987 358.757 295.806 367.749C333.828 370.894 329.502 387.126 373.27 385.492C378.925 381.692 381.249 358.404 380.772 351.374C381.138 343.062 374.005 339.331 366.902 337.873C364.337 339.428 359.732 334.79 363.541 333.158C368.558 331.645 373.253 329.265 377.444 326.133ZM167.115 178.817C156.972 179.819 146.926 182.592 137.604 186.877C103.144 196.856 98.1749 237.316 102.319 267.977C104.036 291.293 110.665 314.097 124.602 333.058C161.709 389.819 223.167 380.831 281.381 373.323C283.479 371.859 287.035 372.899 289.057 370.964C288.846 370.891 288.655 370.79 288.493 370.665C289.464 369.904 290.216 368.57 290.44 367.153L290.86 367.194C291.271 358.391 290.942 349.761 291.075 341.027C271.946 335.766 251.432 333.076 232.046 327.835C229.843 329.377 227.302 327.603 225.15 326.765C219.57 324.384 213.94 322.123 208.269 319.97L206.851 319.434C203.154 318.044 199.46 316.619 195.798 315.133L194.426 314.573C192.328 313.713 187.031 310.527 184.742 312.516L184.927 312.915C186.284 315.885 190.958 326.874 185.212 324.701C180.546 321.414 178.126 298.495 173.504 298.292C171.915 302.559 170.776 306.988 170.516 311.549C170.422 312.575 169.077 313.441 168.269 312.482C162.787 305.241 171.067 297.353 171.289 289.71C171.811 280.823 167.891 272.508 165.938 264.001L165.818 263.414C164.673 257.896 162.891 251.205 163.363 246.255L164.501 250.552C165.642 254.851 166.81 259.151 168.151 263.389C171.479 273.976 177.488 284.883 174.149 296.211C180.847 296.434 181.98 307.04 184.496 311.883C188.567 306.584 217.213 319.289 223.75 321.328L225.01 319.893C245.483 296.607 260.262 280.849 291.992 299.268C286.511 281.53 285.981 262.691 285.046 244.272C285.367 240.768 283.348 231.525 286.195 229.612C286.689 229.684 287.17 229.834 287.623 230.034L287.623 231.849C287.637 235.366 287.8 241.198 289.27 242.522L289.945 249.486C291.712 267.594 293.715 285.688 299.106 303.138C312.046 310.395 323.853 319.481 334.961 329.284L336.227 328.821C349.949 323.781 366.466 317.32 380.497 323.61C380.262 320.059 378.895 316.66 376.991 313.656C373.811 312.865 371.732 309.502 369.455 307.263C362.241 299.491 354.839 291.896 347.79 283.967C317.722 251.518 304.929 198.235 257.71 185.649C254.589 211.87 221.148 216.054 200.996 207.081L200.232 206.786C187.705 201.937 173.548 194.617 169.149 181.281L168.966 180.895C168.514 179.955 167.975 178.996 167.115 178.817ZM174.547 328.029C174.584 327.989 174.654 328.044 174.623 328.088C168.752 335.479 163.975 345.559 169.809 354.388C170.888 356.375 168.367 358.285 166.754 356.77C158.655 347.544 167.64 335.039 174.547 328.029ZM378.808 329.699C375.58 332.012 372.118 333.932 368.451 335.447C368.464 335.871 368.256 336.324 368.071 336.657C372.897 337.041 377.924 338.292 381.313 341.824C381.478 340.532 381.639 339.237 381.763 337.942C382.075 334.609 381.508 331.627 378.808 329.699ZM156.807 297.028L156.844 296.851C156.871 296.649 157.176 296.634 157.167 296.851C157.055 299.492 155.139 301.372 153.516 303.253C151.107 306.044 148.698 308.834 146.289 311.624C142.261 316.486 136.326 321.374 137.66 328.418C137.685 330.92 134.56 331.456 133.292 329.616C128.249 319.968 144.124 311.759 149.475 305.534C151.988 302.84 155.947 300.858 156.807 297.028ZM232.394 325.995C232.469 326.115 232.523 326.245 232.552 326.378C233.397 326.468 234.239 326.565 235.081 326.668L232.394 325.995ZM106.121 303.43C106.272 304.438 106.413 305.448 106.548 306.46L106.681 307.471L106.701 307.383C106.77 307.12 106.9 306.892 107.07 306.71L107.128 306.651C106.778 305.582 106.443 304.509 106.121 303.43ZM337.89 292.994C339.915 292.778 330.748 299.389 330.241 300.207C329.502 300.852 328.639 299.707 329.427 299.148C332.275 297.133 335.081 295.064 337.89 292.994ZM320.058 273.546C321.466 272.967 322.422 275.319 321.087 275.974C316.223 278.36 311.081 280.049 306.6 283.189C306.404 283.326 306.157 283.005 306.344 282.858L306.882 282.431C311.009 279.142 315.132 275.569 320.058 273.546ZM107.8 243.817C109.159 250.238 116.512 252.347 122.22 254.057L124.003 254.738C129.042 256.673 134.263 258.85 137.889 262.938C139.31 267.55 129.17 259.517 127.755 259.11C120.83 254.803 108.318 254.071 107.8 243.817ZM257.918 183.868C257.956 184.195 257.975 184.528 257.984 184.862C258.411 184.862 258.834 184.865 259.261 184.879C258.764 184.587 258.309 184.253 257.918 183.868Z" fill="#282828"/>
</g>
<g clip-path="url(#clip1_2473_331)">
<path fill-rule="evenodd" clip-rule="evenodd" d="M268.298 95.1293C268.165 87.6041 268.018 79.9284 266.904 72.4764C265.814 65.191 262.818 58.6056 257.669 53.3153C246.733 42.0778 230.88 39.333 216.124 36.8176L190.895 32.5169C183.199 31.2052 174.987 29.1084 167.211 30.9687C163.379 31.8854 160.125 34.0151 157.151 36.5348C154.284 38.9635 151.202 41.5716 149.259 44.839C147.313 48.1112 146.644 51.9363 146.011 55.6371C145.298 59.8096 144.743 64.0146 144.35 68.2297C143.561 76.6747 143.453 85.1831 144.025 93.6456C144.303 97.7502 144.744 101.843 145.307 105.918C145.586 107.938 145.902 109.954 146.259 111.962C146.364 112.554 146.444 113.21 146.551 113.873C145.756 116.145 145.303 118.499 145.34 120.843C145.447 127.747 151.25 132.093 157.1 134.427C160.492 135.78 164.038 136.699 167.371 138.211C170.877 139.801 173.264 142.378 175.661 145.319C180.232 150.926 185.392 155.966 191.283 160.171C203.773 169.087 219.593 173.304 234.748 170.103C238.384 169.335 242.052 168.143 245.321 166.346C248.772 164.449 251.366 161.7 253.545 158.45C257.591 152.417 260.493 145.623 262.688 138.709C264.927 131.657 266.516 124.592 267.383 117.238C268.247 109.909 268.429 102.504 268.298 95.1293Z" fill="white"/>
<path fill-rule="evenodd" clip-rule="evenodd" d="M187.793 6.30313C198.233 4.86104 212.643 9.5481 217.842 18.9988C242.665 13.1223 273.974 12.9298 294.433 32.4927C315.781 55.6986 288.967 86.2957 271.186 93.1941C272.481 99.5117 270.462 139.985 256.18 158.038C244.845 173.334 218.45 180.394 206.236 162.124L206.14 161.973C204.832 159.863 205.959 159.93 207.302 161.5C219.262 172.062 235.524 172.242 248.055 161.096C271.541 140.723 269.119 90.7681 257.944 61.8688C226.122 58.3591 192.05 68.0446 170.071 92.0994L171.557 101.085C171.81 102.615 172.098 104.145 172.317 105.681C172.458 106.665 172.473 107.644 171.794 108.441C169.552 111.071 165.773 107.119 162.664 105.547C161.746 105.417 160.826 105.367 159.924 105.431C144.986 107.363 147.929 136.463 164.348 131.362C165.727 130.5 166.912 130.763 167.448 132.015C171.361 135.615 173.942 142.035 180.444 148.219C182.738 150.538 184.825 152.479 187.406 154.339C188.922 155.878 193.495 157.448 192.045 160.082C189.304 166.075 173.136 147.249 170.278 142.042C161.322 145.594 151.397 144.387 142.116 143.519C93.1527 140.963 99.6891 89.1342 139.823 56.4121C147.377 50.8271 155.713 46.2711 164.377 42.7651C165.56 42.2864 165.043 40.3361 163.843 40.8215C158.11 43.1417 152.522 45.9032 147.194 49.0995L147.186 47.1885C147.178 43.97 147.229 40.6193 147.785 37.6786C148.064 35.6409 148.532 33.4645 149.252 31.8272C150.143 26.8076 164.097 9.57766 187.793 6.30313ZM159.271 112.111C160.027 111.39 161.438 112.25 162.111 112.229C163.833 112.465 165.468 113.195 166.743 114.096C167.585 114.57 168.175 115.014 168.668 115.424L168.681 115.42C168.678 115.42 168.673 115.424 168.669 115.425L168.715 115.456C169.433 115.968 172.062 118.854 170.401 118.078C170.277 117.916 170.151 117.761 170.023 117.609C170.009 117.629 169.99 117.65 169.967 117.67L170.061 117.809C171.472 119.941 169.035 117.695 168.66 117.098C168.643 117.113 168.622 117.122 168.603 117.133L169.091 117.73C169.159 117.814 169.213 117.882 169.257 117.939L169.36 118.039C170.992 119.649 171.043 121.099 169.147 118.718C169.222 118.83 169.282 118.949 169.29 119.054L169.403 119.198C170.891 121.124 169.68 120.44 168.941 119.617L168.879 119.547L168.891 119.566C169.58 120.631 168.214 119.883 167.973 119.314L167.963 119.288C167.7 119.073 167.538 118.831 167.483 118.77L167.472 118.76C166.193 117.443 164.337 116.329 162.761 115.823C162.533 115.779 162.302 115.744 162.068 115.719C161.121 115.507 160.163 115.361 159.195 115.283C159.076 115.269 158.956 115.181 158.866 115.068C157.403 115.019 157.854 114.416 158.462 114.305L158.472 114.303L158.352 114.292C157.412 114.2 156.771 113.862 157.721 113.654L157.841 113.63C157.826 113.607 157.813 113.584 157.801 113.561C156.987 113.471 157.518 112.677 157.97 112.869C157.78 112.245 158.648 112.556 158.756 112.464C158.839 112.372 158.942 112.29 159.001 112.286C159.262 112.101 159.136 112.117 159.271 112.111ZM164.249 102.012L164.058 102.124C163.904 102.214 163.745 102.274 163.586 102.31C163.811 102.406 164.033 102.509 164.253 102.62C164.249 102.485 164.247 102.35 164.247 102.214L164.249 102.012Z" fill="#282828"/>
<g clip-path="url(#clip2_2473_331)">
<path fill-rule="evenodd" clip-rule="evenodd" d="M273.556 109.663C269.494 113.877 262.714 115.087 257.311 112.826C243.437 107.005 250.228 88.849 260.928 83.9731C262.264 83.6385 264.05 82.8448 265.678 82.6647C265.825 82.5921 266.145 82.8021 266.534 82.6036C278.333 83.9264 281.019 102.319 273.556 109.663ZM228.805 110.742C224.25 116.809 215.781 118.681 208.862 115.86C195.193 110.455 200.041 94.3543 209.393 88.0424C229.149 80.5881 237.307 99.5553 228.805 110.742ZM199.174 97.299C199.161 97.2929 199.148 97.2899 199.135 97.2839C199.207 97.2519 199.28 97.22 199.352 97.1875C199.328 97.2489 199.303 97.3097 199.28 97.3712C199.245 97.3467 199.213 97.3181 199.174 97.299ZM282.96 90.7408C281.844 90.7432 280.233 90.9273 279.31 91.7043C277.033 83.9939 268.63 76.858 261.321 82.0614C255.566 83.92 251.295 88.0421 248.868 93.5223C244.491 90.9081 237.61 92.0244 233.815 95.4813C231.329 87.2342 225.212 84.3463 217.932 83.92C209.985 82.613 202.064 90.3629 199.593 96.5801C197.538 96.3453 194.467 95.6886 192.534 96.962C179.988 93.658 158.052 91.8363 155.501 93.6721C153.683 94.3725 152.686 98.6809 155.225 98.9134C157.437 98.598 154.967 95.7564 157.197 95.4464C169.08 94.7067 180.616 97.1099 192.373 98.1183C193.422 99.5362 196.814 100.011 198.623 99.4408C195.774 109.987 201.925 117.163 211.143 119.312C225.416 122.604 237.833 109.783 234.101 96.4468C238.425 94.2868 243.398 94.3795 248.108 95.5173C240.237 124.604 286.888 123.299 279.602 92.7009C284.45 95.1229 285.504 91.2296 282.96 90.7408Z" fill="#282828"/>
</g>
<path fill-rule="evenodd" clip-rule="evenodd" d="M245.035 142.819C242.571 143.535 239.926 143.599 237.414 142.859C235.135 142.188 232.796 140.71 231.119 138.755C229.63 137.018 228.665 134.907 228.703 132.654C228.707 132.397 228.799 132.182 228.94 132.016C229.091 131.836 229.304 131.713 229.531 131.659C229.764 131.604 230.011 131.624 230.221 131.72C230.411 131.807 230.574 131.954 230.676 132.169C230.934 132.509 231.191 132.844 231.448 133.17C233.52 135.739 235.527 137.659 238.643 138.348C240.333 138.721 242.021 138.556 243.57 137.985C245.228 137.375 246.728 136.302 247.902 134.929C248.433 134.308 249.06 134.055 249.672 134.051C250.367 134.046 251.054 134.37 251.571 134.888C252.079 135.397 252.419 136.089 252.45 136.812C252.477 137.448 252.271 138.111 251.722 138.703C249.914 140.653 247.57 142.081 245.035 142.819ZM244.959 110.64C247.485 112.182 251.334 115.778 248.616 119.6C245.418 122.971 240.812 119.106 238.543 117.358C236.438 116.004 234.074 119.487 236.027 121.069C252.426 133.261 259.081 111.043 246.237 108.827C244.822 108.583 244.297 110.163 244.959 110.64ZM221.329 103.856C220.517 103.334 219.562 103.155 218.504 103.639C217.676 104.017 216.226 105.276 215.216 106.931C214.525 108.064 214.036 109.392 214.138 110.776C214.161 111.098 214.043 111.334 213.857 111.51C213.709 111.648 213.496 111.75 213.246 111.781C213.034 111.808 212.797 111.784 212.604 111.724C212.236 111.608 212.042 111.369 211.969 111.174C211.262 109.289 211.566 107.185 212.359 105.287C213.428 102.725 215.369 100.58 216.642 99.888C218.818 98.7039 221.387 98.6494 223.567 99.8557C225.422 100.883 226.583 102.54 227.737 104.23C227.982 104.589 228.225 104.946 228.477 105.296C228.981 105.998 229.032 106.694 228.836 107.291C228.62 107.952 228.068 108.51 227.378 108.802C226.741 109.072 226.001 109.11 225.346 108.833C224.793 108.598 224.285 108.142 223.964 107.367C223.423 106.061 222.521 104.622 221.329 103.856ZM262.563 106.76C262.007 107.05 261.572 107.138 260.955 106.953C260.614 106.85 260.277 106.653 260.013 106.388C259.752 106.125 259.563 105.798 259.489 105.436C259.309 104.541 258.822 103.704 258.128 103.159C257.534 102.692 256.785 102.445 255.954 102.584C255.057 102.735 254.203 103.312 253.615 103.993C253.418 104.221 253.264 104.48 253.109 104.737C252.819 105.217 252.537 105.664 252.138 106.017C251.986 106.151 251.758 106.244 251.536 106.244C251.446 106.244 251.355 106.229 251.268 106.202C250.376 105.303 250.204 104.62 250.233 103.944C250.263 103.234 250.542 102.515 250.992 101.845C252.048 100.272 254.054 98.9827 255.407 98.6904C257.261 98.2907 259.101 98.7707 260.577 99.81C262.095 100.88 263.22 102.54 263.571 104.412C263.656 104.863 263.62 105.349 263.449 105.771C263.282 106.183 262.991 106.536 262.563 106.76ZM225.416 87.0877C224.304 88.1759 222.988 88.3444 221.656 88.4944C220.916 88.5784 220.325 88.6462 219.744 88.7779C218.146 89.1401 216.567 89.6856 215.126 90.4712C213.62 91.2924 211.978 92.2829 210.798 93.5516C210.517 93.8536 210.252 94.1704 209.987 94.4879C209.745 94.7774 209.512 95.0562 209.267 95.3249C208.985 95.6336 208.718 95.9571 208.451 96.2799C208.287 96.552 208.254 96.6192 208.221 96.6887C208.171 96.7935 208.113 96.9107 208.047 97.0364C207.956 97.2087 207.85 97.3971 207.739 97.5681C207.553 97.8809 207.454 97.9669 207.368 98.0051C207.226 98.069 207.09 98.1006 206.959 98.0834C206.836 98.0676 206.721 98.0082 206.606 97.9111C206.035 97.4267 205.867 96.6316 205.884 95.7874C205.91 94.5067 206.381 93.0887 206.814 92.2169C207.823 90.1915 209.221 88.0859 210.903 86.5741C212.821 84.8485 214.921 83.5422 217.332 82.642C218.83 82.0824 220.565 81.5687 222.197 81.6336C223.373 81.6803 224.494 82.0311 225.421 82.907C225.99 83.4447 226.262 84.2095 226.262 84.9738C226.262 85.7533 225.979 86.5374 225.416 87.0877ZM264.825 97.0528C264.755 97.1691 264.657 97.2493 264.548 97.2974C264.434 97.3481 264.306 97.3625 264.184 97.3417C264.062 97.3212 263.946 97.2658 263.854 97.1811C263.766 97.0999 263.699 96.992 263.669 96.8603C262.931 93.6033 261.497 91.1801 258.436 89.6175C256.931 88.8488 255.2 88.3604 253.561 87.971C253.085 87.8578 252.582 87.7845 252.075 87.7102C250.487 87.4773 248.887 87.2106 247.852 85.9214C247.228 85.1449 246.966 84.1517 247.114 83.2435C247.253 82.3883 247.751 81.6042 248.656 81.1343C250.908 79.965 253.706 81.1124 255.981 82.0898C256.149 82.1623 256.315 82.2335 256.477 82.3022C258.701 83.2449 260.73 84.4893 262.397 86.2689C263.72 87.6807 264.946 89.7678 265.44 91.9149C265.85 93.7012 265.754 95.5248 264.825 97.0528Z" fill="#282828"/>
</g>
<defs>
<clipPath id="clip0_2473_331">
<rect width="569.574" height="635.189" fill="white" transform="translate(0 145.811)"/>
</clipPath>
<clipPath id="clip1_2473_331">
<rect width="195.022" height="190.466" fill="white" transform="translate(107.539)"/>
</clipPath>
<clipPath id="clip2_2473_331">
<rect width="135.479" height="46.3567" fill="white" transform="translate(149.016 77.597)"/>
</clipPath>
</defs>
</svg>
