<svg width="181" height="138" viewBox="0 0 181 138" fill="none" xmlns="http://www.w3.org/2000/svg">
<g clip-path="url(#clip0_1179_2426)">
<mask id="mask0_1179_2426" style="mask-type:luminance" maskUnits="userSpaceOnUse" x="0" y="0" width="184" height="138">
<path d="M183.1 0H0V138H183.1V0Z" fill="white"/>
</mask>
<g mask="url(#mask0_1179_2426)">
<mask id="mask1_1179_2426" style="mask-type:luminance" maskUnits="userSpaceOnUse" x="0" y="55" width="96" height="91">
<path d="M95.4 55.2H0V145.6H95.4V55.2Z" fill="white"/>
</mask>
<g mask="url(#mask1_1179_2426)">
<path fill-rule="evenodd" clip-rule="evenodd" d="M92.1961 143.2C94.4961 143.1 93.4961 139.1 93.3961 137.7C91.5961 132.4 91.9961 126.6 91.2961 121C90.8961 115.8 90.2961 110.6 89.7961 105.4C88.8961 94.7999 82.1961 73.2999 74.5961 69.8999C73.5961 65.6999 69.6961 61.6999 64.6961 61.6999C61.2961 57.5999 57.1961 54.7999 51.8961 55.2999C49.6961 55.3999 47.5961 57.6999 45.4961 58.1999C44.2961 58.3999 33.9961 57.8999 31.8961 59.1999C30.4961 59.8999 29.0961 61.2999 29.5961 63.0999C30.2961 65.1999 28.1961 62.8999 23.7961 65.1999C14.7961 70.5999 20.1961 77.8999 20.3961 78.0999C14.7961 85.8999 9.89608 92.2999 7.59608 101.9C6.09608 109 6.29608 116.4 5.09608 123.5C4.69608 126 3.99608 128.4 3.29608 130.8C2.49608 134 2.09608 141.8 1.69608 141.9C0.896079 142.1 2.19608 143.7 2.99608 143.7C25.9961 147.5 49.4961 143.9 72.5961 143.3C79.1961 143 85.6961 142.9 92.1961 143.2Z" fill="white"/>
<path fill-rule="evenodd" clip-rule="evenodd" d="M57.2969 78.7C57.2969 78.6 57.4969 78.6 57.4969 78.7L57.6969 80.3C57.8969 82.2 58.0969 84.2 58.1969 86.1C58.3969 88.5 58.4969 90.9 58.4969 93.4C58.6969 101.8 58.6969 110.3 58.6969 118.7C59.7969 118.6 60.9969 118.5 62.0969 118.5C62.8969 118.4 63.5969 118.4 64.3969 118.4L66.3969 118.3H67.1969C67.6969 118.3 68.3969 118.1 68.6969 118.6C68.8969 118.8 68.8969 119 68.7969 119.3C68.4969 119.8 67.9969 119.8 67.3969 119.8C66.8969 119.8 66.2969 119.8 65.7969 119.9C64.5969 119.9 63.4969 120 62.2969 120C61.0969 120 59.8969 120.1 58.6969 120.1C58.6969 123.7 58.4969 127.2 58.3969 130.8L58.2969 132.4C58.0969 136.7 57.8969 141.1 57.5969 145.4C57.5969 145.8 57.0969 145.8 57.0969 145.4C56.7969 140.5 56.4969 135.6 56.2969 130.8C56.0969 127.3 55.9969 123.7 55.9969 120.2C55.7969 120.2 55.6969 120.2 55.4969 120.2C50.8969 120.2 46.3969 120.2 41.7969 120.2C42.0969 121 42.1969 122 42.1969 122.8C42.1969 123.8 42.0969 124.7 41.7969 125.7C40.9969 129.1 38.9969 132.1 36.6969 134.5L36.5969 134.6C36.0969 135.2 35.3969 135.8 35.0969 136.5C34.7969 137.3 34.5969 138.1 34.4969 139V139.1L33.7969 142.2C33.5969 143.2 33.4969 144.6 32.7969 145.3C32.0969 146 31.0969 145.6 30.7969 144.8C30.4969 144.1 30.7969 143.4 30.9969 142.8L32.1969 137.6C32.3969 136.8 32.5969 135.9 33.0969 135.1C33.4969 134.3 34.1969 133.8 34.8969 133.2C36.1969 132.1 37.2969 130.9 38.2969 129.5C39.2969 128.1 40.0969 126.7 40.6969 125.1C40.9969 124.3 41.1969 123.5 41.3969 122.7C41.5969 121.9 41.5969 121.1 41.6969 120.3C41.6969 120.2 41.7969 120.2 41.7969 120.2C41.7969 120.2 41.7969 120.1 41.8969 120.1L45.5969 119.9C48.8969 119.7 52.1969 119.5 55.4969 119.2H56.0969C56.0969 114.5 56.0969 109.8 56.1969 105C56.2969 100.7 56.2969 96.3 56.3969 92C56.4969 89.8 56.5969 87.7 56.7969 85.6C56.7969 83.1 57.0969 80.9 57.2969 78.7ZM22.2969 103.9C22.2969 103.7 22.5969 103.5 22.6969 103.7C24.2969 106.2 24.9969 108.9 25.3969 111.9C25.6969 114.5 25.5969 117.1 25.4969 119.7C25.2969 122.5 25.1969 125.3 24.9969 128L24.6969 132.3L23.9969 143C23.9969 143.8 23.7969 144.5 23.0969 144.8C22.9969 144.9 22.8969 144.9 22.7969 145C22.3969 145.2 21.9969 145.1 21.7969 144.7L21.8969 144.8C21.9969 144.8 21.8969 144.8 21.6969 144.6L21.4969 144.3C21.3969 144.1 21.2969 143.9 21.1969 143.6C21.0969 143.2 21.1969 142.8 21.1969 142.4L21.6969 135.4C22.0969 130 22.4969 124.5 22.7969 119.1C22.8969 116.6 22.9969 114 22.9969 111.5C22.8969 108.9 22.6969 106.4 22.2969 103.9ZM35.9969 57C39.1969 56.5 42.6969 56.6 45.4969 58.1V58.2H44.5969C41.6969 58.1 38.6969 58 35.8969 58.7L35.5969 58.8C34.5969 59.1 33.4969 59.4 32.5969 60.1C31.7969 60.8 31.3969 61.8 30.9969 62.7C30.5969 63.6 30.0969 64.5 29.2969 65.1C28.1969 65.8 26.8969 65.8 25.5969 65.9C23.3969 66.1 21.5969 67.7 20.6969 69.7C20.1969 70.9 19.8969 72.2 19.8969 73.6C19.8969 74.3 19.8969 75 19.9969 75.6C19.9969 75.8 20.2969 76.6 20.3969 76.6C20.6969 76.6 20.9969 76.7 21.0969 77C21.7969 76.3 22.5969 75.6 23.3969 74.9C25.2969 73.2 27.3969 71.7 29.5969 70.5C31.2969 69.5 32.9969 68.5 34.8969 67.8C34.7969 67.8 34.5969 67.8 34.4969 67.9C34.3969 67.9 34.3969 67.9 34.3969 67.8C34.9969 67.2 35.6969 67.1 36.3969 67.3C36.4969 67.3 36.6969 67.2 36.7969 67.2C36.8969 67.2 36.8969 67.3 36.8969 67.3L36.6969 67.4C37.4969 67.7 38.1969 68.2 38.7969 68.6C40.4969 69.7 41.9969 71.1 43.4969 72.5L43.7969 72.7C45.0969 73.9 46.4969 75.1 47.9969 76C48.7969 76.5 49.5969 77 50.4969 77.3C51.1969 77.6 52.4969 77.8 52.7969 78.6C53.0969 79 52.9969 79.5 52.5969 79.7C51.9969 80.4 50.7969 79.9 49.9969 79.7C49.0969 79.4 48.2969 78.9 47.4969 78.5C45.8969 77.6 44.4969 76.4 43.0969 75.2C41.6969 73.9 40.2969 72.5 38.9969 71.2C38.3969 70.6 37.7969 70 37.1969 69.5L36.8969 69.2C36.5969 68.9 36.1969 68.5 35.6969 68.2C34.7969 68.7 33.8969 69.2 33.0969 69.8C31.8969 70.6 30.6969 71.4 29.5969 72.2C27.3969 73.8 25.2969 75.6 23.2969 77.5C19.6969 81 16.5969 85.1 13.9969 89.4L13.7969 89.7C12.2969 92.1 10.7969 94.7 9.79688 97.4C8.69687 100.4 8.09688 103.5 7.79688 106.7C7.49687 109.8 7.39687 113 7.09687 116.1C6.79687 119.3 6.09688 122.5 5.29688 125.6L4.79688 126C4.09687 128.8 3.39687 131.6 3.09687 134.5C2.89687 136 2.79688 137.6 2.79688 139.1C2.79688 140.7 3.09687 142.2 3.29688 143.7C3.39687 144.3 2.79688 144.8 2.29688 144.9C1.69687 145 1.19687 144.6 0.996875 144.1C0.396875 142.4 0.296875 140.5 0.296875 138.6C0.296875 136.8 0.596875 134.9 0.896875 133.1C1.49688 129.5 2.49688 126 3.39688 122.5C4.09688 119.4 4.59687 116.3 4.89687 113.1C5.19688 109.8 5.29688 106.5 5.79688 103.2C6.29688 100 7.19688 96.9 8.59688 93.9C9.89688 91.2 11.4969 88.7 13.1969 86.2C15.1969 83.2 17.4969 80.4 19.9969 77.8C19.7969 77.8 19.4969 77.7 19.2969 77.6C18.6969 77.2 18.2969 76.4 18.2969 75.7C18.0969 74 18.0969 72.2 18.5969 70.5C19.2969 67.8 21.0969 65.4 23.7969 64.5C24.4969 64.3 25.1969 64.2 25.8969 64.1C26.5969 64.1 27.2969 64.2 27.9969 64C29.0969 63.7 29.4969 62.4 29.8969 61.5C30.3969 60.3 30.9969 59.3 32.0969 58.5C33.1969 57.6 34.6969 57.3 35.9969 57ZM65.9969 61.8C66.8969 61.5 68.0969 61.8 69.0969 62.1C70.0969 62.4 71.0969 63 71.8969 63.7C72.7969 64.4 73.4969 65.4 73.9969 66.4V66.5C74.4969 67.4 74.9969 68.8 74.7969 69.8V69.9C76.6969 70.8 78.3969 72 79.8969 73.5C81.6969 75.2 83.0969 77.2 84.3969 79.3C89.3969 87.7 90.2969 97.8 90.8969 107.3L90.9969 109.7C91.2969 114.9 91.6969 120.2 92.6969 125.3L92.7969 125.7C93.7969 131.1 95.2969 136.6 95.1969 142.1C95.1969 143.8 92.6969 143.8 92.5969 142.1C92.2969 135.9 90.8969 129.9 89.8969 123.8C88.1969 113 88.9969 101.9 86.5969 91.3C85.5969 87.1 84.1969 83.1 82.0969 79.3C81.0969 77.5 79.8969 75.7 78.4969 74.1C77.2969 72.7 75.9969 71.4 74.5969 70.3C74.1969 70.8 73.2969 70.5 72.9969 69.9C72.7969 69.4 72.8969 68.9 72.7969 68.4C72.6969 68 72.5969 67.5 72.3969 67.1C71.9969 66.3 71.4969 65.5 70.8969 64.8C70.2969 64.1 69.4969 63.5 68.6969 63C67.6969 62.4 66.7969 62.2 65.9969 61.8C65.8969 61.8 65.8969 61.8 65.9969 61.8ZM69.5969 119.3C69.9969 119.6 70.1969 120 70.4969 120.4C70.7969 120.8 71.0969 121.3 71.3969 121.7C71.9969 122.5 72.6969 123.3 73.3969 124.1C73.9969 124.8 74.6969 125.5 75.4969 126.1C76.2969 126.8 77.0969 127.4 77.8969 128.2C79.3969 129.8 79.5969 132 79.8969 134.1V134.3C80.0969 135.5 80.2969 136.8 80.3969 138C80.4969 138.6 80.4969 139.2 80.5969 139.8V140C80.6969 140.6 80.6969 141.2 80.2969 141.7C79.8969 142.3 79.0969 142.4 78.5969 141.9C77.7969 141 77.8969 139.4 77.7969 138.2C77.6969 137.2 77.5969 136.3 77.4969 135.3L77.3969 134.8C77.2969 133.7 77.1969 132.6 76.8969 131.5C76.6969 130.5 76.2969 129.8 75.5969 129.1C74.8969 128.4 74.1969 127.8 73.4969 127C72.7969 126.2 72.1969 125.4 71.6969 124.5C71.1969 123.7 70.7969 122.9 70.4969 122.1L70.3969 122C70.1969 121.3 69.5969 120.2 69.5969 119.3ZM81.7969 84.7C81.7969 84.6 81.9969 84.6 81.9969 84.7C81.9969 85.7 81.9969 86.6 82.0969 87.6C82.2969 95.4 82.1969 103.2 82.8969 111C83.2969 114.7 83.8969 118.3 84.6969 121.9C85.0969 123.7 85.4969 125.6 85.8969 127.4C86.2969 129.2 86.6969 131 86.9969 132.8C87.2969 134.6 87.5969 136.4 87.6969 138.2V138.4C87.7969 139.3 87.9969 140.6 87.4969 141.3C86.9969 142.1 85.9969 142.2 85.3969 141.4C84.8969 140.6 84.9969 139.3 84.8969 138.4C84.7969 137.5 84.6969 136.6 84.5969 135.7C84.3969 133.9 84.0969 132.2 83.7969 130.4C83.1969 126.7 82.2969 123.1 81.5969 119.4C80.8969 115.6 80.3969 111.9 80.3969 108C80.3969 104.1 80.7969 100.3 80.9969 96.4C81.2969 92.5 81.4969 88.6 81.7969 84.7ZM45.1969 60.5C45.3969 59.8 46.0969 59.4 46.8969 59.6C47.5969 59.8 48.0969 60.6 47.7969 61.3C47.4969 62 46.9969 62.7 46.5969 63.4C46.1969 64 45.6969 64.5 45.2969 65.1L45.6969 65.6C45.8969 65.8 46.0969 66.1 46.2969 66.3L46.9969 67.1C47.5969 67.7 48.1969 68.3 48.7969 68.9C50.5969 70.6 52.3969 72.3 54.2969 73.7C54.7969 74 55.1969 74.4 55.6969 74.7L55.8969 74.8C56.1969 75 56.5969 75.2 56.9969 75.2C57.8969 75.1 58.7969 74.1 59.3969 73.5C60.9969 72 62.4969 70.3 63.7969 68.5C64.0969 68.1 64.3969 67.7 64.5969 67.3C63.9969 66.6 64.0969 65.1 64.0969 64.2C64.0969 63.6 64.0969 62.9 64.0969 62.3V62.2C64.0969 61.8 64.0969 61.4 64.2969 61.1C64.2969 61.1 64.2969 61.1 64.3969 61.1C64.7969 61.3 64.8969 61.6 64.9969 62C65.1969 62.4 65.3969 62.9 65.4969 63.3C65.6969 63.7 65.8969 64.2 65.9969 64.7C66.0969 64.9 66.1969 65.1 66.1969 65.3C66.1969 65.4 66.2969 65.6 66.2969 65.7C66.3969 65.8 66.3969 65.8 66.4969 65.9C66.6969 66 66.8969 66.2 66.8969 66.5C67.0969 67.1 66.6969 67.6 66.3969 68C65.1969 69.9 63.7969 71.7 62.1969 73.3C61.3969 74.1 60.5969 74.9 59.7969 75.6L59.9969 75.5C59.1969 76.2 58.3969 76.8 57.3969 76.9C56.1969 77.1 55.2969 76.5 54.3969 75.8L54.2969 75.7C53.3969 75 52.5969 74.4 51.7969 73.7C50.0969 72.3 48.5969 70.7 47.1969 69C45.7969 67.3 44.4969 65.5 43.6969 63.5C43.5969 63.4 43.7969 63.3 43.8969 63.4C44.2969 63.8 44.6969 64.2 45.0969 64.6C45.0969 64 44.9969 63.4 45.0969 62.7C44.9969 62 44.9969 61.2 45.1969 60.5Z" fill="#282828"/>
</g>
</g>
<mask id="mask2_1179_2426" style="mask-type:luminance" maskUnits="userSpaceOnUse" x="0" y="0" width="184" height="138">
<path d="M183.1 0H0V138H183.1V0Z" fill="white"/>
</mask>
<g mask="url(#mask2_1179_2426)">
<mask id="mask3_1179_2426" style="mask-type:luminance" maskUnits="userSpaceOnUse" x="27" y="5" width="59" height="67">
<path d="M85.3016 5H27.6016V71.5H85.3016V5Z" fill="white"/>
</mask>
<g mask="url(#mask3_1179_2426)">
<path fill-rule="evenodd" clip-rule="evenodd" d="M72.6089 25.3C72.1089 22.6 73.6089 22 72.6089 19.4C70.3089 14.6 64.1089 14.8 59.5089 14.4C54.4089 14.2 49.2089 14.9 44.6089 16.9C43.5089 17.4 42.4089 18 41.4089 18.6C40.5089 19.2 40.6089 20.2 41.2089 20.8C37.1089 26.6 39.5089 34.4 36.2089 40.5C35.6089 41.6 34.8089 42.6 34.3089 43.7C33.5089 45.4 33.5089 47.9 35.3089 49C37.8089 50.4 39.2089 47.7 40.5089 51.6C46.5089 65.4 59.0089 66.1 70.9089 59C71.9089 58.4 73.0089 57.8 73.7089 56.9C75.5089 54.9 75.3089 52.1 75.3089 49.6C75.3089 48.1 75.3089 46.7 75.3089 45.2C75.3089 39.4 73.3089 31.2 72.6089 25.3Z" fill="white"/>
<path fill-rule="evenodd" clip-rule="evenodd" d="M47.3052 8.90002C54.5052 5.60002 62.6052 4.40002 70.4052 5.20002C74.3052 5.60002 78.1052 6.50002 81.7052 7.90002L82.0052 8.00002C82.9052 8.30002 83.9052 8.70002 84.5052 9.40002C85.3052 10.2 85.5052 11.5 84.9052 12.5C84.5052 13.3 83.7052 13.8 82.8052 14.1C83.1052 14.3 83.4052 14.6 83.6052 14.9C84.0052 15.4 84.1052 16.1 83.6052 16.6C82.7052 17.6 81.5052 18.3 80.2052 18.6C80.3052 19.3 80.3052 20.1 80.0052 20.8C79.1052 22.8 76.6052 23.1 74.7052 22.9H74.6052L74.5052 24.1C74.4052 24.8 74.1052 25.3 73.4052 25.4C73.4052 25.4 73.4052 25.4 73.3052 25.4C74.4052 29.2 75.0052 33.2 75.6052 37.1C75.9052 39.1 76.2052 41.2 76.4052 43.3L76.5052 44C76.8052 46.2 77.1052 48.5 77.3052 50.7C77.4052 52.7 77.0052 54.7 75.8052 56.3C74.7052 57.8 73.2052 58.9 71.5052 59.7C67.8052 61.5 63.9052 62.9 59.9052 63.5H59.6052C58.0052 63.7 56.4052 63.9 54.8052 63.5C53.4052 63.1 52.0052 62.1 52.3052 60.5C52.4052 60 53.2052 59.9 53.4052 60.4L53.5052 60.5C53.8052 61 54.1052 61.4 54.7052 61.7C55.3052 62 56.1052 62.1 56.7052 62.1C58.6052 62.1 60.6052 61.6 62.5052 61.2C66.0052 60.3 69.5052 58.8 72.3052 56.6C73.5052 55.7 74.5052 54.5 74.8052 52.9C75.2052 51 74.8052 49 74.6052 47.1C74.2052 43.2 73.7052 39.3 73.2052 35.4L73.1052 34.6C72.7052 31.4 72.2052 28.1 72.0052 24.9C71.9052 24.8 71.9052 24.6 71.8052 24.5V24.3C71.8052 24.1 71.8052 24 71.8052 23.8C71.8052 23.2 71.8052 22.6 71.9052 22C71.9052 21.9 71.9052 21.8 71.9052 21.7C71.3052 21.8 70.7052 21.9 70.1052 22C65.8052 22.7 61.4052 22.8 57.0052 22.5C54.8052 22.3 52.7052 22.1 50.5052 21.7C49.4052 21.5 48.3052 21.3 47.2052 21.1C46.4052 20.9 45.6052 20.7 44.9052 20.5C44.1052 21.7 43.7052 23.1 43.8052 24.5C43.9052 26.1 45.0052 27.6 44.7052 29.2C44.4052 30.7 43.1052 31.2 41.8052 31.6L41.3052 32C40.9052 32.1 40.6052 32.2 40.5052 32.8C40.4052 33.7 40.5052 34.7 40.6052 35.6C40.6052 36.6 40.7052 37.7 40.7052 38.7C40.7052 39.2 40.7052 39.8 40.7052 40.3C40.7052 40.7 40.6052 40.9 40.5052 41.2C40.6052 41.3 40.7052 41.5 40.8052 41.7C40.8052 41.8 40.8052 41.8 40.7052 41.8C40.6052 41.7 40.5052 41.6 40.3052 41.5C40.2052 41.6 40.2052 41.7 40.1052 41.8C39.8052 42.1 39.4052 42.1 39.0052 41.8V41.5C38.7052 41.3 38.6052 41.1 38.5052 40.7C38.5052 40.7 38.5052 40.7 38.5052 40.6C37.9052 40.6 37.2052 40.7 36.6052 41.1C35.7052 41.6 35.0052 42.3 34.7052 43.2C34.9052 43.4 35.0052 43.5 35.2052 43.7C35.0052 43.6 34.8052 43.5 34.6052 43.3C34.5052 43.7 34.4052 44 34.3052 44.4C34.1052 45.8 34.5052 47.5 35.7052 48.3C36.2052 48.6 36.9052 48.8 37.5052 48.8C37.8052 48.8 38.1052 48.7 38.4052 48.7C38.6052 48.6 38.8052 48.6 39.0052 48.6C39.2052 48.6 39.4052 48.6 39.5052 48.7C39.4052 48.7 39.4052 48.7 39.6052 48.7C40.1052 48.7 40.3052 49.2 40.1052 49.6V49.7V49.8L40.8052 50.9C41.7052 52.2 42.5052 53.5 43.5052 54.7C44.2052 55.5 44.9052 56.4 45.7052 57.1C46.4052 57.8 47.2052 58.1 48.0052 58.7C48.4052 59 48.6052 59.6 48.2052 60C47.1052 61.1 45.5052 60.2 44.5052 59.3C43.6052 58.4 42.9052 57.4 42.2052 56.3C41.0052 54.4 40.1052 52.4 39.7052 50.3C39.5052 50.5 39.3052 50.6 39.1052 50.6C38.7052 50.8 38.2052 50.8 37.7052 50.8C36.8052 50.8 35.9052 50.6 35.1052 50.2C31.9052 48.6 31.4052 44 33.4052 41.2C33.1052 40.4 33.0052 39.6 32.8052 38.9L32.7052 38.6C31.9052 35 31.3052 31.2 32.8052 27.7C33.0052 27.2 33.2052 26.8 33.4052 26.4C33.6052 26.1 33.9052 25.7 34.0052 25.3C34.2052 24.4 32.9052 23.6 32.5052 22.9C32.1052 22.1 32.0052 21.2 32.6052 20.4C32.7052 20.3 32.8052 20.2 32.9052 20.2C32.3052 19.2 32.3052 17.8 33.1052 16.8C33.6052 16.1 34.4052 15.6 35.2052 15.5C35.7052 15.4 36.3052 15.4 36.9052 15.6C40.1052 13 43.5052 10.7 47.3052 8.90002ZM35.6052 44.5C36.4052 43.8 37.3052 43.4 38.4052 43.5C39.5052 43.6 40.9052 44.1 41.5052 45C42.0052 45.8 41.0052 46.9 40.2052 46.3C39.5052 45.8 39.0052 45.2 38.2052 44.9C37.4052 44.7 36.5052 44.5 35.7052 44.6C35.6052 44.7 35.6052 44.6 35.6052 44.5Z" fill="#282828"/>
<path fill-rule="evenodd" clip-rule="evenodd" d="M63.7018 48.8001C63.9018 48.5001 64.3018 48.2001 64.6018 48.3001C66.2018 48.5001 66.2018 50.5001 65.6018 51.6001C65.1018 52.6001 63.9018 53.2001 62.8018 53.1001C61.6018 53.0001 60.6018 52.3001 60.1018 51.2001C59.8018 50.5001 59.7018 49.1001 60.5018 48.6001C60.5018 48.6001 60.5018 48.6001 60.6018 48.6001C61.0018 49.0001 61.0018 49.7001 61.3018 50.2001C61.6018 50.7001 62.1018 51.0001 62.6018 51.1001C63.0018 51.1001 63.4018 51.0001 63.6018 50.6001C63.7018 50.4001 63.7018 50.3001 63.6018 50.1001V50.0001C63.5018 49.5001 63.5018 49.2001 63.7018 48.8001ZM64.1018 40.2001C64.9018 40.7001 66.2018 41.9001 65.3018 43.2001C64.2018 44.3001 62.7018 43.0001 62.0018 42.5001C61.3018 42.0001 60.5018 43.2001 61.2018 43.7001C66.6018 47.8001 68.8018 40.4001 64.6018 39.6001C64.1018 39.5001 63.9018 40.0001 64.1018 40.2001ZM55.3018 36.6001C55.8018 35.8001 57.0018 35.9001 57.3018 36.9001C57.5018 37.4001 57.2018 37.9001 57.3018 38.4001C57.3018 38.8001 57.3018 39.3001 57.2018 39.7001C56.9018 40.6001 56.1018 41.3001 55.1018 41.3001C54.1018 41.3001 53.3018 40.6001 52.9018 39.8001C52.5018 38.9001 52.6018 38.0001 52.9018 37.1001C52.9018 37.1001 53.0018 37.0001 53.0018 37.1001C53.4018 37.5001 53.6018 37.9001 53.9018 38.3001L54.2018 38.7001C54.4018 39.0001 54.7018 39.5001 55.1018 39.4001H55.2018C55.3018 39.4001 55.3018 39.4001 55.4018 39.3001C55.4018 39.2001 55.4018 39.1001 55.5018 39.0001C55.5018 39.0001 55.5018 38.9001 55.5018 38.8001C55.1018 38.0001 55.0018 37.2001 55.3018 36.6001ZM68.3018 37.2001C68.2018 36.2001 69.6018 36.0001 70.0018 36.7001C70.2018 37.1001 70.3018 37.6001 70.4018 38.0001V38.2001C70.5018 38.7001 70.5018 39.2001 70.3018 39.6001C70.0018 40.3001 69.3018 40.7001 68.6018 40.6001C67.9018 40.5001 67.2018 40.1001 66.9018 39.5001C66.6018 38.9001 66.3018 37.8001 66.7018 37.2001H66.8018C67.1018 37.5001 67.2018 38.1001 67.4018 38.5001C67.6018 38.9001 67.9018 39.3001 68.4018 39.4001C68.9018 39.5001 69.1018 39.2001 68.9018 38.7001C68.8018 38.2001 68.4018 37.8001 68.3018 37.2001ZM55.7018 30.7001L55.9018 30.6001C56.7018 30.3001 57.7018 30.0001 58.4018 30.6001C58.8018 31.0001 58.9018 31.6001 58.6018 32.1001C58.3018 32.7001 57.7018 32.7001 57.1018 32.8001C56.4018 32.9001 55.8018 33.1001 55.2018 33.3001C54.5018 33.6001 53.9018 34.0001 53.2018 34.4001C52.6018 34.8001 52.0018 35.4001 51.3018 35.6001H51.2018C51.0018 34.9001 51.5018 34.2001 51.9018 33.6001C52.4018 32.9001 53.0018 32.4001 53.6018 31.9001C54.2018 31.4001 55.0018 31.0001 55.7018 30.7001ZM69.8018 33.3001C70.3018 33.2001 70.8018 33.2001 71.1018 33.6001C71.4018 33.9001 71.5018 34.3001 71.3018 34.6001C71.2018 35.0001 70.9018 35.3001 70.5018 35.4001C69.2018 35.6001 67.8018 35.6001 66.5018 35.4001C65.9018 35.3001 65.3018 35.2001 64.7018 35.0001H64.5018C64.0018 34.9001 63.5018 34.7001 63.1018 34.3001C63.0018 34.2001 63.0018 34.0001 63.2018 33.9001C63.8018 33.7001 64.7018 33.8001 65.3018 33.8001C66.1018 33.8001 66.8018 33.7001 67.6018 33.6001C68.3018 33.6001 69.0018 33.4001 69.8018 33.3001Z" fill="#282828"/>
</g>
</g>
<mask id="mask4_1179_2426" style="mask-type:luminance" maskUnits="userSpaceOnUse" x="0" y="0" width="184" height="138">
<path d="M183.1 0H0V138H183.1V0Z" fill="white"/>
</mask>
<g mask="url(#mask4_1179_2426)">
<path fill-rule="evenodd" clip-rule="evenodd" d="M177.198 127.2C176.698 124.4 176.298 121.6 175.798 118.8C175.598 117.5 175.398 116.1 175.198 114.8C175.098 113.9 174.898 112.8 175.498 112.1C176.398 111.1 177.198 110.3 177.298 108.9C177.398 107.6 176.998 106.2 176.698 104.9C176.098 102.2 175.398 99.6 174.598 97C173.798 94.3 172.898 91.7 171.998 89.1C171.198 86.6 170.298 84.2 169.198 81.8C167.098 77.3 163.598 74 159.198 71.8C158.098 71.2 155.898 69.3 154.798 68.8C153.798 68.4 153.798 69.6 152.698 69.1C151.898 68.7 151.098 68.3 150.698 67.5C150.198 66.6 148.998 65.4 148.798 64.4C148.398 62.3 148.798 60.5 147.298 58.9C145.998 57.5 144.198 56.5 142.298 56C138.198 54.9 132.698 55.7 130.198 59.5C128.998 61.3 128.598 63.5 126.998 65C125.598 66.3 125.898 67.2 124.098 67.9C123.998 67.9 121.198 67.3 121.098 67.4C119.098 67 117.198 68.2 115.398 68.9C112.698 69.9 110.098 71.3 107.698 72.9C102.798 76.1 98.5985 80.3 95.1985 85C91.6985 89.7 88.9985 95.1 87.0985 100.6C86.5985 102 86.1985 103.3 85.7985 104.7C85.5985 105.5 85.3985 106.3 85.5985 107.1C85.7985 107.7 86.2985 108.2 86.7985 108.6C87.4985 109.1 88.9985 109.5 88.9985 110.5C88.9985 111.3 88.6985 112.2 88.5985 112.9C88.3985 113.8 88.2985 114.8 88.1985 115.8C87.5985 120.1 87.0985 124.5 86.8985 128.9C86.6985 133.2 86.4985 137.6 86.7985 141.9C86.7985 142.2 86.8985 142.4 86.9985 142.7C86.8985 142.7 86.8985 143 86.9985 143C87.0985 143 87.1985 143 87.2985 143.1C87.4985 143.3 87.7985 143.4 88.0985 143.4C88.2985 143.4 88.4985 143.4 88.7985 143.4C91.1985 143.9 93.4985 144.4 95.8985 144.7C98.7985 145.1 101.698 145.5 104.598 145.8C110.598 146.4 116.598 146.2 122.598 145.9C128.598 145.6 134.598 145.5 140.598 145.7C146.598 145.9 152.598 146.1 158.598 146.2C165.298 146.3 171.998 146.1 178.698 145.6C179.598 145.5 180.198 144.8 179.998 143.9C179.498 138.1 178.198 132.7 177.198 127.2Z" fill="white"/>
</g>
<mask id="mask5_1179_2426" style="mask-type:luminance" maskUnits="userSpaceOnUse" x="0" y="0" width="184" height="138">
<path d="M183.1 0H0V138H183.1V0Z" fill="white"/>
</mask>
<g mask="url(#mask5_1179_2426)">
<path fill-rule="evenodd" clip-rule="evenodd" d="M119.5 67.2001C120.1 67.2001 120.8 67.3001 121.4 67.3001C121.5 67.3001 121.5 67.4001 121.4 67.4001C120.3 67.6001 119.2 68.0001 118.1 68.3001L117.6 68.4001C116.4 68.8001 115.2 69.1001 114 69.6001C111.6 70.6001 109.4 71.9001 107.3 73.4001C99.3001 79.2001 93.5001 87.9001 89.9001 97.0001C88.9001 99.5001 88.1001 102 87.4001 104.6C87.2001 105.2 87.1001 105.9 86.9001 106.5C86.9001 106.7 86.7001 107.2 86.8001 107.3C86.9001 107.5 87.2001 107.6 87.4001 107.7L88.0001 108C89.1001 108.6 90.9001 109.5 91.1001 109.6L91.4001 109.7C96.0001 112 101 113.9 106.2 114V113.6C106.4 111.1 106.7 108.7 107.4 106.3C107.4 106.2 107.6 106.2 107.6 106.3C108 109.1 107.9 112 107.7 114.8C107.5 119.8 107.2 124.9 106.9 129.9C106.8 132.4 106.6 134.9 106.4 137.5C106.2 140 106.2 142.6 105.8 145.1C105.7 145.7 105.1 146 104.6 145.9C104.1 145.8 103.6 145.4 103.6 144.8C103.6 143.3 103.8 141.9 103.9 140.4C104 139 104.1 137.6 104.2 136.3C104.6 131.3 105 126.2 105.4 121.2C105.5 119.4 105.7 117.6 105.9 115.8C100.4 115.6 95.2001 113.6 90.3001 111.2C90.2001 112.8 90.1001 114.4 89.9001 116.1C89.4001 120.6 89.0001 125.1 88.7001 129.6C88.5001 131.9 88.4001 134.2 88.3001 136.5C88.3001 137.6 88.2001 138.7 88.2001 139.9C88.2001 140.3 88.2001 140.7 88.2001 141V141.9C88.2001 142.4 88.1001 142.9 87.7001 143.3C87.2001 143.7 86.6001 143.7 86.2001 143.3C85.6001 142.7 85.7001 142 85.7001 141.2C85.7001 140.6 85.7001 139.9 85.8001 139.3C85.8001 138 85.9001 136.7 86.0001 135.4C86.2001 130.9 86.7001 126.4 87.3001 122L87.5001 120.3C87.9001 117.1 88.4001 113.8 89.4001 110.8C89.0001 110.6 88.6001 110.4 88.3001 110.2C87.6001 109.9 86.9001 109.5 86.3001 109.2C85.8001 108.9 85.3001 108.5 85.2001 107.9C85.0001 107.2 85.3001 106.5 85.4001 105.8V105.7C85.6001 105 85.7001 104.4 85.9001 103.7C86.6001 101 87.6001 98.4001 88.6001 95.9001C90.7001 90.8001 93.5001 86.0001 96.9001 81.6001C99.9001 77.7001 103.5 74.1001 107.7 71.4001C109.8 70.1001 111.9 69.0001 114.3 68.2001C115.4 67.8001 116.6 67.5001 117.7 67.4001C118.2 67.3001 118.9 67.2001 119.5 67.2001ZM130.5 59.1001C131.2 58.3001 132.7 59.1001 132.4 60.2001C131.6 62.7001 130.2 64.9001 128.2 66.6001C126.3 68.1001 123.9 69.1001 121.4 68.9001C121.4 68.9001 121.4 68.9001 121.3 68.9001L121.5 69.2001C123.2 71.5001 125 73.8001 127.1 75.6001C131.5 79.4001 137.5 81.5001 143.2 80.0001C147.7 78.8001 151.7 75.2001 152.9 70.7001C152.7 70.8001 152.5 70.8001 152.3 70.8001C151.4 70.6001 150.4 69.6001 149.8 68.9001C149.1 68.1001 148.6 67.3001 148.3 66.4001C147.6 64.7001 147.4 62.5001 148.3 60.8001C148.4 60.6001 148.7 60.7001 148.7 60.9001V61.2001C148.9 62.8001 149.1 64.3001 149.8 65.7001C150.2 66.4001 150.6 67.1001 151.1 67.7001C151.4 68.0001 151.7 68.3001 152 68.6001C152.3 68.9001 152.7 69.0001 153 69.3001L153.1 69.4001C153.2 68.8001 153.6 68.5001 154 68.5001C154.4 68.5001 154.9 68.7001 155.1 68.8001C158 70.2001 160.6 72.0001 163.1 74.0001C168.2 78.1001 172 83.5001 173.9 89.8001C174.8 92.9001 175.3 96.1001 175.9 99.3001L176.2 101.3C176.7 104.2 177.3 107.2 178.5 110C178.8 110.7 178.6 111.4 177.8 111.6C176.9 111.9 176 112.3 175 112.6C175.5 114.6 175.7 116.6 176.1 118.5C176.8 122.7 177.7 126.8 178.5 131C178.9 133.1 179.2 135.3 179.6 137.4C179.8 138.4 180 139.5 180.2 140.5C180.3 141.1 180.4 141.6 180.5 142.2V142.3C180.6 142.6 180.6 142.9 180.5 143.2C180.4 143.5 180.1 143.8 179.9 144C179.7 144.2 179.4 144.2 179.2 144.1H179.1C178.7 143.9 178.4 143.7 178.2 143.2C178.1 142.9 178.1 142.6 178 142.3C177.9 141.7 177.8 141.1 177.7 140.5C177.5 139.3 177.3 138.1 177.1 136.9L176.9 135.8C176.3 132 175.6 128.1 175.3 124.2C175.2 122.5 175 120.8 174.9 119L174.8 117.7C174.7 116.1 174.5 114.4 174.5 112.7L173.9 112.9L171.2 113.9C170.5 114.1 169.7 114.6 169 114.5C168.6 114.5 168.4 114.3 168.2 114.1C168.4 117.6 168.8 121.1 169.2 124.6C169.6 127.8 170.1 131 170.6 134.1C170.9 135.7 171.1 137.2 171.4 138.8C171.5 139.6 171.7 140.4 171.9 141.1C172 141.5 172.1 141.9 172.1 142.3C172.2 142.7 172 143 171.8 143.4C171.6 143.7 171.2 143.9 170.9 143.6C170.5 143.3 170.2 143.1 170.1 142.6C170 142.1 169.9 141.7 169.8 141.2C169.6 140.3 169.5 139.5 169.3 138.6C169 136.8 168.7 135 168.4 133.2C167.4 126.8 166.8 120.4 166.5 114C166.4 110.8 166.3 107.6 166.3 104.5C166.3 102.9 166.4 101.2 166.5 99.6001C166.6 98.0001 166.9 96.3001 167.1 94.7001C167.1 94.6001 167.2 94.6001 167.2 94.7001C167.3 96.5001 167.5 98.3001 167.5 100.2C167.6 101.9 167.6 103.7 167.7 105.4C167.8 107.7 167.9 110 168 112.3C168.3 112 168.7 111.8 169 111.9C169.6 111.8 170.2 111.5 170.7 111.3L172.7 110.6C173.8 110.2 174.8 109.9 175.9 109.5C174.9 106.2 174.3 102.9 173.7 99.6001L173.4 98.1001C172.9 95.1001 172.4 92.2001 171.5 89.3001C170.6 86.3001 169.1 83.5001 167.3 80.9001C165.4 78.4001 163.2 76.2001 160.9 74.1001C158.9 72.3001 156.8 70.7001 154.8 69.0001C154.8 69.1001 154.8 69.2001 154.8 69.4001C154.4 72.6001 152.7 75.5001 150.4 77.7001C145.8 82.1001 139 83.0001 133.1 81.0001C127.4 79.0001 122.3 74.3001 120.6 68.4001C120.6 68.3001 120.7 68.3001 120.8 68.3001C120.9 68.4001 121 68.6001 121.1 68.7001C121.1 68.6001 121.1 68.6001 121.2 68.6001C123.3 67.8001 125.3 66.7001 126.9 65.0001C127.7 64.2001 128.3 63.3001 128.8 62.4001C129.1 61.9001 129.3 61.5001 129.5 61.0001V60.9001C129.8 60.2001 130 59.6001 130.5 59.1001Z" fill="#282828"/>
</g>
<mask id="mask6_1179_2426" style="mask-type:luminance" maskUnits="userSpaceOnUse" x="0" y="0" width="184" height="138">
<path d="M183.1 0H0V138H183.1V0Z" fill="white"/>
</mask>
<g mask="url(#mask6_1179_2426)">
<mask id="mask7_1179_2426" style="mask-type:luminance" maskUnits="userSpaceOnUse" x="107" y="0" width="63" height="69">
<path d="M169.7 0H107.5V68.6H169.7V0Z" fill="white"/>
</mask>
<g mask="url(#mask7_1179_2426)">
<path fill-rule="evenodd" clip-rule="evenodd" d="M164.697 54.2C164.197 53.5 163.097 48.3 162.297 47.6C162.397 44.6 163.197 34 160.797 29.3C161.297 28.8 162.597 24.4 162.297 22.7C163.397 19.2 156.197 13.7 153.397 12.2C140.597 5.29996 121.997 12.9 116.097 25.7C112.597 33.4 112.497 42 112.097 50.3C112.097 52.1 111.897 53.9 111.897 55.6C112.197 57.2 113.397 58.7 112.497 60C111.497 60.7 109.397 62.5 110.297 63.4C110.797 63.9 111.697 63.6 112.297 64C112.597 64.2 112.797 64.5 113.097 64.6C116.297 64.5 118.597 64.5 121.797 64.3C123.197 64.3 125.397 64.9 126.997 63.7C132.597 66.8 130.297 62.3 131.397 59C134.897 60.2 141.797 63.9 145.497 64.1C148.497 64.5 151.297 62.7 154.297 63.1C157.997 64.5 162.297 64.8 165.697 62.5C166.497 61.9 167.497 62.6 168.497 61.9C170.597 60.9 165.697 55.3 164.697 54.2Z" fill="white"/>
<path fill-rule="evenodd" clip-rule="evenodd" d="M160.497 28.7999C160.497 28.4999 160.797 28.2999 160.997 28.5999C161.997 30.4999 162.397 32.7999 162.797 34.8999C163.197 37.0999 163.397 39.1999 163.397 41.3999C163.397 43.0999 163.297 44.7999 162.997 46.4999V46.5999C163.097 46.7999 163.097 46.9999 163.197 47.2999L163.297 47.5999C163.497 48.1999 163.697 48.8999 163.897 49.4999C164.297 50.7999 164.697 52.0999 165.297 53.3999C165.797 54.5999 166.397 55.7999 167.197 56.9999C167.897 58.0999 169.097 58.9999 169.597 60.1999C169.797 60.5999 169.497 61.1999 168.997 61.0999L168.897 61.1999C168.497 61.1999 168.197 61.1999 167.797 61.1999C167.597 61.1999 167.597 60.8999 167.797 60.8999C167.997 60.8999 168.097 60.8999 168.297 60.8999C167.197 60.2999 166.397 58.9999 165.797 57.9999C164.997 56.6999 164.397 55.1999 163.897 53.7999C163.397 52.2999 162.997 50.7999 162.797 49.1999C162.797 48.9999 162.697 48.7999 162.697 48.6999C162.297 50.1999 161.897 51.6999 161.297 53.1999L161.197 53.3999C159.897 56.6999 158.197 59.9999 155.397 62.1999C155.297 62.2999 155.097 62.3999 154.997 62.4999L155.197 62.5999C155.397 62.6999 155.497 62.7999 155.697 62.8999C156.297 63.1999 156.897 63.3999 157.497 63.4999C158.797 63.7999 160.097 63.6999 161.397 63.7999C161.797 63.7999 162.097 64.4999 161.597 64.6999C160.197 65.3999 158.597 65.1999 157.097 64.7999C156.397 64.5999 155.697 64.1999 154.997 63.7999C154.697 63.5999 154.397 63.3999 154.197 63.0999C151.297 64.6999 147.797 64.8999 144.597 64.2999C142.897 63.9999 141.297 63.4999 139.897 62.4999C138.497 61.5999 137.597 60.4999 136.897 58.9999C136.797 58.8999 136.997 58.6999 137.097 58.7999C139.297 61.3999 142.997 62.4999 146.297 62.6999C148.097 62.7999 149.797 62.6999 151.497 62.1999C153.097 61.6999 154.497 60.7999 155.597 59.5999C157.897 57.0999 159.297 53.7999 160.297 50.5999C161.397 47.0999 161.897 43.4999 161.997 39.8999C162.097 38.0999 161.997 36.1999 161.697 34.3999C161.297 32.3999 160.797 30.5999 160.497 28.7999ZM127.997 13.1999C128.197 13.0999 128.297 13.2999 128.097 13.3999C125.397 15.4999 122.997 18.0999 120.997 20.8999C117.397 25.9999 115.097 31.9999 113.997 38.1999C113.397 41.7999 113.197 45.5999 113.297 49.2999C113.297 50.7999 113.397 52.1999 113.497 53.6999L113.597 55.2999C113.597 56.0999 113.697 56.7999 113.697 57.5999V57.7999C113.597 58.6999 113.697 59.5999 113.497 60.3999C113.397 60.7999 112.797 60.8999 112.497 60.4999C112.497 60.3999 112.397 60.2999 112.397 60.2999C111.897 61.1999 111.197 61.8999 110.397 62.5999C110.797 62.4999 111.097 62.4999 111.497 62.4999C112.097 62.5999 112.597 62.7999 112.997 63.1999C113.397 62.9999 113.797 62.8999 114.197 62.8999C114.497 62.8999 114.797 63.2999 114.597 63.5999C114.197 64.1999 113.697 64.4999 113.097 64.7999C112.697 64.9999 112.197 64.7999 111.997 64.3999C111.797 63.7999 110.897 63.8999 110.497 63.9999H110.397C109.597 64.1999 108.797 64.3999 107.997 64.1999C107.497 64.0999 107.297 63.2999 107.797 62.9999C109.397 62.1999 110.797 60.9999 112.197 59.8999C111.897 59.0999 111.697 58.2999 111.497 57.4999C111.197 56.3999 111.097 55.1999 110.997 54.0999C110.797 51.9999 110.697 49.7999 110.797 47.6999C110.897 40.4999 112.097 33.1999 115.197 26.6999C116.597 23.7999 118.397 21.1999 120.497 18.7999C122.697 16.4999 125.197 14.6999 127.997 13.1999ZM125.497 48.5999C125.397 48.4999 125.597 48.2999 125.697 48.3999C128.197 49.9999 129.897 52.4999 130.997 55.1999C132.097 57.8999 132.797 61.1999 131.697 63.9999C131.497 64.3999 130.697 64.5999 130.597 63.9999C130.197 61.2999 130.197 58.4999 129.297 55.8999C128.497 53.1999 127.097 50.7999 125.497 48.5999ZM123.597 57.3999C123.597 58.3999 123.597 59.3999 123.497 60.2999C123.397 60.7999 123.397 61.1999 123.297 61.6999C123.197 62.1999 123.197 62.6999 122.997 63.0999C122.597 63.5999 121.697 63.4999 121.697 62.6999C121.697 62.1999 121.997 61.8999 122.197 61.3999C122.297 61.0999 122.497 60.7999 122.597 60.4999L122.797 60.0999C122.997 59.1999 123.297 58.3999 123.597 57.3999ZM119.097 54.8999C119.097 54.7999 119.197 54.7999 119.197 54.8999C119.097 56.2999 118.997 57.5999 118.697 58.9999C118.597 59.5999 118.497 60.1999 118.297 60.7999L118.197 61.0999C118.097 61.6999 117.997 62.4999 117.597 63.0999C117.297 63.6999 116.497 63.2999 116.597 62.6999C116.697 61.9999 117.097 61.3999 117.397 60.6999C117.597 60.0999 117.797 59.4999 117.997 58.8999C118.597 57.4999 118.897 56.1999 119.097 54.8999ZM127.397 58.6999C127.497 58.4999 127.697 58.5999 127.797 58.7999C127.997 59.2999 127.897 59.9999 127.897 60.4999V60.5999C127.897 61.1999 127.897 61.6999 127.597 62.1999C127.297 62.7999 126.497 62.3999 126.397 61.8999C126.297 61.2999 126.597 60.6999 126.797 60.0999C126.897 59.6999 126.997 59.2999 127.197 58.9999C126.997 58.9999 126.897 59.0999 126.697 59.0999C126.597 59.0999 126.597 58.9999 126.697 58.9999C126.897 58.8999 127.197 58.8999 127.397 58.6999ZM160.297 60.5999C160.197 60.4999 160.297 60.3999 160.397 60.3999C161.597 60.9999 162.697 61.2999 163.997 61.3999C164.597 61.4999 164.597 62.2999 163.997 62.2999C162.597 62.1999 161.197 61.5999 160.297 60.5999ZM118.897 41.9999C119.897 39.6999 123.197 37.5999 125.397 39.7999C125.397 39.7999 125.397 39.8999 125.297 39.8999C123.897 39.2999 122.297 40.0999 121.297 41.0999C120.497 41.8999 120.097 42.9999 119.997 44.0999C119.897 45.1999 120.197 46.3999 120.897 47.1999C121.297 47.5999 121.797 48.0999 122.397 48.0999C122.997 48.1999 123.497 47.6999 124.097 47.5999C124.497 47.4999 124.897 47.7999 124.897 48.1999C124.997 49.1999 123.997 49.7999 123.197 49.9999C122.297 50.1999 121.397 49.9999 120.597 49.4999C118.297 47.8999 117.797 44.4999 118.897 41.9999ZM142.197 19.0999C142.697 18.6999 143.397 19.0999 143.297 19.6999C142.897 20.9999 142.197 22.0999 141.397 23.1999C140.597 24.1999 139.697 25.1999 138.797 26.0999C137.897 26.9999 136.897 27.7999 135.897 28.5999L135.597 28.7999C134.897 29.2999 134.097 29.7999 133.197 30.1999C132.997 31.8999 132.597 33.5999 131.997 35.2999C131.397 36.8999 130.697 38.3999 129.797 39.7999L129.697 39.9999C128.897 41.2999 127.897 42.6999 126.597 43.4999H126.497C126.797 43.6999 127.097 43.9999 127.197 44.2999C127.397 44.6999 126.997 45.0999 126.697 45.1999C125.997 45.4999 125.297 44.9999 124.597 44.4999C124.597 44.5999 124.497 44.5999 124.497 44.6999C124.397 45.0999 124.297 45.4999 123.897 45.7999C123.697 45.8999 123.497 45.7999 123.397 45.6999C122.997 45.1999 123.397 44.5999 123.697 44.1999C123.697 44.0999 123.797 44.0999 123.797 43.9999C123.697 43.8999 123.497 43.7999 123.397 43.6999C122.597 43.2999 121.497 43.1999 121.097 44.0999C121.097 44.1999 120.997 44.0999 120.997 44.0999C120.997 42.9999 122.097 42.3999 123.097 42.3999C123.797 42.2999 124.497 42.5999 125.097 42.8999L125.197 42.9999C125.397 43.0999 125.697 43.1999 125.897 43.2999C125.897 43.1999 125.897 43.0999 125.897 42.9999C126.597 41.5999 127.897 40.3999 128.797 39.0999C129.697 37.7999 130.497 36.3999 131.097 34.8999C131.697 33.4999 132.197 31.9999 132.497 30.4999C132.397 30.4999 132.297 30.3999 132.297 30.2999C132.297 29.9999 132.497 29.7999 132.697 29.6999C132.997 28.2999 133.097 26.8999 133.097 25.3999C133.097 25.2999 133.297 25.2999 133.297 25.3999C133.397 26.6999 133.397 27.9999 133.297 29.1999C133.897 28.5999 134.497 28.0999 135.097 27.4999C135.997 26.5999 136.797 25.7999 137.597 24.7999C138.397 23.8999 139.197 22.8999 139.897 21.8999L140.297 21.3999C140.897 20.5999 141.397 19.7999 142.197 19.0999ZM140.997 9.8999C145.997 9.5999 151.297 10.1999 155.697 12.4999C158.197 13.7999 159.997 15.6999 161.397 18.0999C162.197 19.4999 162.797 21.0999 163.097 22.7999C163.297 24.4999 163.097 25.9999 161.997 27.2999C161.597 27.7999 160.897 27.1999 160.997 26.6999C161.597 23.3999 160.597 20.0999 158.697 17.2999C155.997 13.2999 151.297 11.4999 146.797 10.6999C144.597 10.2999 142.297 10.0999 139.997 10.1999C138.297 10.2999 136.497 10.3999 134.797 10.9999C134.697 10.9999 134.697 10.8999 134.797 10.8999C136.797 10.2999 138.997 9.9999 140.997 9.8999ZM148.397 17.3999C148.697 17.1999 148.997 17.3999 149.097 17.6999C149.397 18.5999 148.797 19.8999 148.297 20.6999C147.797 21.5999 147.197 22.4999 146.497 23.2999C145.197 24.8999 143.497 26.1999 141.597 27.0999C141.497 27.1999 141.397 26.9999 141.497 26.8999C142.997 25.4999 144.297 24.0999 145.397 22.3999C145.997 21.5999 146.397 20.6999 146.897 19.8999C147.297 18.9999 147.597 17.8999 148.397 17.3999ZM156.797 18.4999C156.997 17.8999 157.897 17.9999 157.897 18.5999C157.797 20.1999 156.997 21.7999 156.197 23.1999C155.397 24.5999 154.297 25.7999 153.097 26.8999C152.997 26.9999 152.997 26.8999 152.997 26.7999C154.097 25.5999 154.897 24.2999 155.497 22.8999C156.097 21.4999 156.297 19.9999 156.797 18.4999ZM152.097 18.2999C152.297 17.7999 153.097 17.7999 153.097 18.3999C152.997 19.9999 151.997 21.6999 151.097 23.0999C150.197 24.4999 148.997 25.7999 147.597 26.7999C147.497 26.7999 147.497 26.7999 147.497 26.6999C148.697 25.5999 149.697 24.2999 150.497 22.7999C150.897 22.0999 151.197 21.2999 151.497 20.4999C151.797 19.7999 151.897 18.9999 152.097 18.2999Z" fill="#282828"/>
<path fill-rule="evenodd" clip-rule="evenodd" d="M154.495 53.7998C153.595 54.0998 152.695 54.0998 151.695 53.7998C150.895 53.5998 149.995 52.9998 149.395 52.2998C148.895 51.6998 148.495 50.8998 148.495 50.0998C148.495 49.9998 148.495 49.8998 148.595 49.8998C148.695 49.7998 148.695 49.7998 148.795 49.7998C148.895 49.7998 148.995 49.7998 148.995 49.7998C149.095 49.7998 149.095 49.8998 149.195 49.9998C149.295 50.0998 149.395 50.1998 149.495 50.3998C150.195 51.2998 150.995 51.9998 152.095 52.2998C152.695 52.3998 153.295 52.3998 153.895 52.1998C154.495 51.9998 154.995 51.5998 155.495 51.0998C155.695 50.8998 155.895 50.7998 156.095 50.7998C156.395 50.7998 156.595 50.8998 156.795 51.0998C156.995 51.2998 157.095 51.4998 157.095 51.7998C157.095 51.9998 156.995 52.2998 156.795 52.4998C156.195 52.9998 155.395 53.4998 154.495 53.7998ZM154.495 42.1998C155.395 42.7998 156.795 44.0998 155.795 45.3998C154.595 46.5998 152.995 45.1998 152.195 44.5998C151.395 44.0998 150.595 45.3998 151.295 45.8998C157.195 50.2998 159.595 42.2998 154.995 41.4998C154.395 41.4998 154.195 41.9998 154.495 42.1998ZM145.895 39.6998C145.595 39.4998 145.295 39.3998 144.895 39.5998C144.595 39.6998 144.095 40.1998 143.695 40.7998C143.495 41.1998 143.295 41.6998 143.295 42.1998C143.295 42.2998 143.295 42.3998 143.195 42.4998C143.095 42.4998 143.095 42.5998 142.995 42.5998C142.895 42.5998 142.795 42.5998 142.795 42.5998C142.695 42.5998 142.595 42.4998 142.595 42.3998C142.295 41.6998 142.495 40.9998 142.695 40.2998C143.095 39.3998 143.795 38.5998 144.195 38.3998C144.995 37.9998 145.895 37.9998 146.695 38.3998C147.395 38.7998 147.795 39.3998 148.195 39.9998C148.295 40.0998 148.395 40.2998 148.495 40.3998C148.695 40.6998 148.695 40.8998 148.595 41.0998C148.495 41.2998 148.295 41.4998 148.095 41.5998C147.895 41.6998 147.595 41.6998 147.395 41.5998C147.195 41.4998 146.995 41.3998 146.895 41.0998C146.695 40.4998 146.295 39.9998 145.895 39.6998ZM160.795 40.7998C160.595 40.8998 160.395 40.8998 160.195 40.8998C160.095 40.8998 159.995 40.7998 159.895 40.6998C159.795 40.5998 159.695 40.4998 159.695 40.3998C159.595 40.0998 159.495 39.7998 159.195 39.5998C158.995 39.3998 158.695 39.2998 158.395 39.3998C158.095 39.4998 157.795 39.6998 157.595 39.8998C157.495 39.9998 157.495 40.0998 157.395 40.1998C157.295 40.3998 157.195 40.4998 156.995 40.6998C156.895 40.6998 156.895 40.7998 156.795 40.7998H156.695C156.395 40.4998 156.295 40.1998 156.295 39.9998C156.295 39.6998 156.395 39.4998 156.595 39.1998C156.995 38.5998 157.695 38.1998 158.195 38.0998C158.895 37.9998 159.495 38.0998 160.095 38.4998C160.595 38.8998 161.095 39.4998 161.195 40.1998C161.195 40.3998 161.195 40.4998 161.195 40.6998C161.095 40.5998 160.995 40.6998 160.795 40.7998ZM147.395 33.6998C146.995 34.0998 146.495 34.1998 145.995 34.1998C145.695 34.1998 145.495 34.2998 145.295 34.2998C144.695 34.3998 144.195 34.5998 143.595 34.8998C143.095 35.1998 142.495 35.5998 141.995 35.9998C141.895 36.0998 141.795 36.1998 141.695 36.2998C141.595 36.3998 141.495 36.4998 141.395 36.5998C141.295 36.6998 141.195 36.7998 141.095 36.8998C140.995 36.9998 140.995 36.9998 140.995 36.9998C140.995 36.9998 140.995 37.0998 140.895 37.0998C140.895 37.1998 140.795 37.1998 140.795 37.2998C140.695 37.3998 140.695 37.3998 140.695 37.4998C140.595 37.4998 140.595 37.4998 140.595 37.4998C140.595 37.4998 140.495 37.4998 140.495 37.3998C140.295 37.1998 140.195 36.8998 140.195 36.5998C140.195 36.0998 140.395 35.5998 140.495 35.2998C140.895 34.5998 141.395 33.7998 141.995 33.2998C142.695 32.6998 143.495 32.1998 144.295 31.8998C144.795 31.6998 145.495 31.4998 146.095 31.4998C146.495 31.4998 146.895 31.5998 147.295 31.9998C147.495 32.1998 147.595 32.4998 147.595 32.6998C147.695 33.1998 147.595 33.4998 147.395 33.6998ZM161.595 37.2998L161.495 37.3998H161.395C161.395 37.3998 161.295 37.3998 161.295 37.2998L161.195 37.1998C160.895 35.9998 160.395 35.1998 159.295 34.5998C158.795 34.2998 158.095 34.0998 157.495 33.9998C157.295 33.9998 157.095 33.8998 156.995 33.8998C156.395 33.7998 155.795 33.6998 155.495 33.2998C155.295 32.9998 155.195 32.6998 155.195 32.2998C155.295 31.9998 155.395 31.6998 155.795 31.4998C156.595 31.0998 157.595 31.4998 158.395 31.7998C158.495 31.7998 158.495 31.8998 158.595 31.8998C159.395 32.1998 160.095 32.6998 160.695 33.2998C161.195 33.7998 161.595 34.5998 161.795 35.2998C161.995 36.0998 161.995 36.6998 161.595 37.2998Z" fill="#282828"/>
</g>
</g>
</g>
<defs>
<clipPath id="clip0_1179_2426">
<rect width="181" height="138" fill="white"/>
</clipPath>
</defs>
</svg>
