<svg width="486" height="277" viewBox="0 0 486 277" fill="none" xmlns="http://www.w3.org/2000/svg">
<g clip-path="url(#clip0_2791_763)">
<mask id="mask0_2791_763" style="mask-type:luminance" maskUnits="userSpaceOnUse" x="0" y="0" width="486" height="279">
<path d="M486 0.267822H0V278.278H486V0.267822Z" fill="white"/>
</mask>
<g mask="url(#mask0_2791_763)">
<path fill-rule="evenodd" clip-rule="evenodd" d="M172.293 291.256C200.247 295.46 228.749 295.643 256.886 294.18C268.031 293.267 279.176 293.267 290.321 294.18C296.899 294.729 325.766 296.922 328.141 291.073C326.68 260 323.574 228.562 314.438 198.586C310.602 187.984 307.313 179.028 300.005 170.255C297.629 167.878 292.696 162.761 289.773 161.116C287.215 159.653 286.302 160.202 284.84 157.825C283.378 155.084 282.282 150.697 280.272 148.869C278.262 147.041 275.156 147.59 271.32 148.321C272.05 138.999 267.665 136.623 261.636 134.795C251.222 130.774 240.808 132.784 238.067 145.579C233.134 145.579 230.393 147.59 227.47 149.6C226.191 150.331 227.105 152.525 225.643 153.073C222.902 153.987 218.152 153.804 215.594 154.901C203.901 160.202 193.304 167.878 186.361 179.211C170.831 203.338 160.234 253.969 162.061 282.3C161.33 283.579 162.426 285.407 162.609 286.686C162.974 287.783 164.071 288.697 165.35 288.514C167.359 290.342 169.917 290.708 172.293 291.256Z" fill="white"/>
</g>
<mask id="mask1_2791_763" style="mask-type:luminance" maskUnits="userSpaceOnUse" x="0" y="0" width="486" height="279">
<path d="M486 0.267822H0V278.278H486V0.267822Z" fill="white"/>
</mask>
<g mask="url(#mask1_2791_763)">
<path fill-rule="evenodd" clip-rule="evenodd" d="M287.942 160.384C287.759 160.202 287.942 160.019 288.125 160.202C296.347 164.04 302.741 170.803 307.309 178.663C311.877 186.705 314.617 196.027 316.81 204.983V205.349C319.185 215.036 321.377 224.724 323.205 234.411C325.032 244.281 326.676 254.151 327.772 264.204C328.32 269.139 328.868 274.075 329.417 279.01C329.599 281.569 329.782 283.945 329.965 286.504C329.965 287.418 330.147 288.514 330.147 289.428V290.159C330.147 290.89 330.33 291.439 330.147 292.17C329.965 292.718 329.782 293.267 329.417 293.815C328.868 294.912 327.407 294.729 326.859 293.815L326.676 293.632C326.311 293.084 325.945 292.535 325.945 291.804C325.762 291.073 325.762 290.342 325.762 289.611C325.58 288.331 325.58 287.052 325.58 285.773C325.397 283.031 325.214 280.289 324.849 277.547C324.301 272.064 323.935 266.763 323.205 261.28C322.108 251.592 320.647 242.088 319.002 232.583C317.358 223.261 315.348 214.122 313.156 204.8L312.973 203.886C309.319 187.436 303.472 168.975 287.942 160.384ZM199.695 223.261C199.695 223.078 200.06 223.078 200.06 223.261C200.608 225.82 200.608 228.379 200.791 230.938C200.791 233.497 200.791 236.056 200.791 238.432C200.608 247.754 200.426 256.893 200.243 266.215C200.06 270.784 200.06 275.537 199.877 280.106C199.877 281.934 199.877 283.579 199.877 285.407V287.783C199.877 288.88 199.877 289.794 199.695 290.89C199.695 291.622 199.512 292.17 199.147 292.718C198.964 293.084 198.599 293.267 198.233 293.632C197.685 293.998 197.32 293.998 196.771 293.632L196.589 293.449C196.223 293.084 195.675 292.901 195.493 292.353C195.127 291.622 195.127 290.708 194.944 289.977C194.762 288.697 194.944 287.418 194.944 286.138C194.944 283.579 194.944 281.02 195.127 278.644C195.31 269.322 195.675 260.183 196.223 250.861C196.589 246.475 196.954 242.088 197.32 237.884L197.502 237.153C197.685 235.873 197.868 234.594 197.868 233.314C195.493 231.669 193.483 229.659 191.656 227.465C191.473 227.282 191.656 227.1 191.838 227.282C193.665 229.11 195.675 230.573 198.05 231.852C198.233 228.562 198.781 225.82 199.695 223.261ZM238.977 140.644C239.159 140.644 239.159 140.644 238.977 140.644C239.525 141.192 239.525 142.106 239.525 142.837C239.525 143.934 239.525 145.031 239.525 146.127V149.6C239.525 150.149 239.525 150.514 239.525 151.063V151.245C239.708 151.428 239.89 151.976 239.89 152.342C239.89 152.89 239.525 153.256 239.159 153.439L240.073 154.535L240.986 155.632C242.631 158.008 244.458 160.384 246.285 162.761C248.112 165.137 250.122 167.513 252.132 169.706C253.045 170.803 254.141 171.9 255.238 172.814C255.603 173.179 256.151 173.727 256.517 174.093L256.882 174.459C257.065 174.641 257.43 175.007 257.613 175.19C257.796 175.373 257.796 175.921 257.796 175.921C258.161 176.652 257.613 177.749 256.699 177.383C256.882 177.2 256.699 177.2 256.334 177.383C256.151 177.383 255.968 177.383 255.603 177.2C255.238 177.018 255.055 176.835 254.872 176.469C254.324 175.921 253.776 175.373 253.228 174.824C252.132 173.727 251.035 172.631 250.122 171.534C248.112 169.158 246.102 166.782 244.275 164.406C242.448 161.847 240.621 159.288 239.159 156.546C238.611 155.449 238.063 154.535 237.515 153.439C236.602 153.073 236.236 152.159 236.419 150.88C236.053 149.966 235.688 149.235 235.505 148.321C235.505 148.138 235.688 148.138 235.688 148.138C236.053 148.504 236.236 148.869 236.602 149.235C236.784 148.504 236.967 147.773 237.15 147.224L237.515 145.214C235.14 145.031 232.399 146.127 230.755 147.773C230.755 148.138 230.39 148.504 230.024 149.052C229.659 149.6 229.293 150.149 229.111 150.697C228.562 151.976 228.928 153.804 227.832 154.718C227.649 154.901 227.649 154.901 227.466 154.901C228.014 157.46 227.832 160.202 227.649 162.761V162.943C227.649 165.868 227.466 168.61 227.466 171.534L227.284 174.276C227.101 178.114 227.101 181.77 227.466 185.426C229.111 183.963 230.938 182.501 232.582 181.222C233.678 180.308 234.957 179.576 236.236 178.663L237.15 177.931C238.429 177.2 239.525 176.286 240.804 175.738C242.448 175.007 244.093 175.19 245.737 176.104C247.381 176.835 249.026 177.749 250.67 178.48C252.314 179.394 253.959 180.125 255.603 181.039C256.699 181.587 258.344 182.135 259.074 183.049C259.074 182.867 259.257 182.684 259.257 182.318C259.257 181.953 259.257 181.587 259.44 181.222C262.18 176.286 264.556 171.351 267.114 166.416C268.393 163.857 269.489 161.298 270.768 158.739L272.047 156.363C272.229 155.998 272.412 155.632 272.595 155.084C272.96 154.535 273.143 153.804 273.508 153.256C273.691 153.073 273.874 152.708 273.874 152.525V152.342C273.874 152.342 274.239 151.428 273.874 151.428C273.691 151.428 273.691 151.428 273.691 151.245C274.056 150.88 274.422 151.245 274.605 151.611C275.153 152.525 274.239 154.17 273.874 155.084C272.777 158.191 271.499 161.298 270.22 164.223C267.844 170.072 265.104 175.738 262.546 181.587V181.77C263.094 181.404 263.642 181.039 264.19 180.49C265.469 179.576 266.748 178.663 268.21 177.749C270.585 176.104 273.143 174.459 275.701 172.996L276.249 172.631C277.528 171.9 278.807 171.351 280.268 171.534C281.73 171.717 283.009 172.448 284.288 173.179H284.471L288.308 175.007C287.942 173.362 287.394 171.717 287.029 170.072C286.115 166.782 285.019 163.674 283.923 160.567C282.826 157.643 281.73 154.718 280.634 151.794L280.268 150.88C279.72 149.6 279.355 148.321 277.893 147.955C276.432 147.59 274.97 148.138 273.691 147.407C273.508 147.407 273.508 147.224 273.691 147.041L274.422 146.859C275.883 146.493 277.528 146.127 278.99 146.493C280.451 146.859 281.73 148.138 282.461 149.418C283.192 150.88 283.923 152.525 284.471 153.987L284.653 154.17C285.384 155.815 286.115 157.643 286.663 159.471C287.942 162.943 289.038 166.599 290.135 170.072C290.683 171.717 291.048 173.545 291.596 175.19C291.779 175.738 291.962 176.286 292.144 177.018C292.327 177.2 292.51 177.383 292.693 177.749C293.058 178.114 292.693 178.663 292.327 178.845C292.327 179.211 292.144 179.759 291.962 180.125C291.048 181.587 288.673 181.222 288.673 179.211C288.673 178.845 288.856 178.663 289.038 178.48C288.673 178.297 288.125 178.114 287.759 177.931L283.557 175.921C282.278 175.373 280.999 174.459 279.72 174.276C278.441 174.093 277.162 175.007 276.066 175.555C273.508 176.835 270.95 178.297 268.393 179.576C267.114 180.308 266.017 180.856 264.738 181.587C263.642 182.135 262.546 182.867 261.45 183.232C260.902 183.598 260.353 183.598 259.805 183.232C259.988 184.512 259.988 185.974 259.988 187.253C259.988 189.081 260.171 190.909 260.171 192.737V193.468C260.171 197.489 260.353 201.51 260.353 205.531C260.353 219.788 260.171 234.228 260.171 248.485C260.171 255.614 259.988 262.925 259.805 270.053C259.805 273.161 259.623 276.085 259.44 279.192L259.257 280.837C259.074 284.31 258.892 287.783 258.344 291.256C258.344 291.622 257.43 291.804 257.43 291.256C256.882 287.6 256.882 283.762 256.699 280.106V279.375C256.517 275.354 256.517 271.333 256.517 267.312C256.517 253.055 256.882 238.615 257.247 224.358C257.43 217.229 257.43 209.918 257.796 202.79C257.978 199.134 257.978 195.661 258.161 192.006C258.161 190.361 258.344 188.716 258.344 187.253V186.522C258.344 186.157 258.344 185.608 258.526 185.243C257.065 185.791 255.786 184.877 254.507 184.146C253.045 183.415 251.401 182.684 249.939 181.77L248.477 181.039L245.371 179.576C244.093 178.845 242.996 178.114 241.535 179.028C236.236 181.953 231.486 185.791 227.101 189.995C226.187 190.726 224.543 190.543 224.36 189.264C223.447 183.598 223.995 177.931 224.543 172.448L224.726 170.437C224.908 167.878 225.091 165.502 225.456 162.943C225.639 161.847 225.639 160.75 225.822 159.653L226.005 158.739C226.187 157.46 226.37 156.18 226.735 154.901C226.553 154.901 226.553 154.718 226.37 154.718C225.274 153.622 225.822 151.611 226.37 150.331C226.918 149.052 227.649 147.955 228.745 146.859C228.928 146.676 229.293 146.493 229.659 146.493C232.217 144.848 234.774 144.117 237.698 145.031C237.698 144.665 237.88 144.3 237.88 143.934V143.569C238.246 142.837 238.246 141.192 238.977 140.644ZM264.373 287.235C265.104 287.052 266.017 287.235 266.565 287.783C267.114 288.331 267.296 289.245 267.114 289.977C266.931 290.342 266.748 290.708 266.565 290.89C266.383 291.073 266.017 291.256 265.652 291.439H265.469C265.104 291.622 264.738 291.622 264.373 291.439C264.008 291.256 263.642 291.073 263.459 290.89C263.277 290.708 263.094 290.342 262.911 289.977C262.729 289.611 262.729 289.245 262.911 288.88V288.697C263.094 288.331 263.277 287.966 263.459 287.783C263.642 287.6 264.008 287.418 264.373 287.235ZM309.867 211.563C310.05 211.38 310.232 211.563 310.05 211.746C308.771 214.122 307.492 216.316 306.213 218.692C306.396 219.24 306.396 219.971 306.578 220.52C307.126 223.078 307.674 225.637 308.04 228.196C309.502 237.518 310.232 247.023 310.963 256.527C311.694 266.032 311.694 275.537 311.877 285.041C311.877 285.955 311.329 286.869 310.415 287.052C310.05 287.052 309.684 287.052 309.319 287.052C308.405 286.869 307.857 285.955 307.857 285.041C307.674 279.741 307.309 274.44 306.944 269.139C306.213 259.635 305.847 250.313 305.299 240.808L305.117 237.518C304.934 233.863 304.751 230.39 304.568 226.734C304.568 224.358 304.568 221.982 304.568 219.606C304.568 217.412 304.203 215.036 304.751 212.843C304.751 212.843 304.934 212.66 304.934 212.843C305.482 213.939 305.847 215.036 306.03 216.133C307.309 214.671 308.588 213.025 309.867 211.563ZM224.726 153.804C224.908 153.804 224.908 153.987 224.726 154.17C222.168 154.535 219.793 155.449 217.235 156.363H217.052C214.677 157.277 212.302 158.191 209.926 159.471C205.541 161.847 201.339 164.954 197.685 168.427C183.251 182.501 176.674 202.607 171.741 221.616C169 232.218 167.173 242.819 165.894 253.603C165.346 258.904 164.798 264.387 164.615 269.688C164.432 272.429 164.432 275.171 164.432 277.913C164.432 279.375 164.432 280.655 164.432 282.117C164.432 282.848 164.615 283.579 164.432 284.128C164.25 284.676 163.884 285.224 163.519 285.773C163.153 286.321 162.423 286.321 162.057 285.773L161.874 285.59C161.509 285.041 160.961 284.493 160.961 283.762C160.961 283.031 160.961 282.117 160.961 281.386C160.961 279.741 160.961 278.096 160.961 276.633C160.961 273.526 161.144 270.419 161.326 267.312C161.692 261.097 162.24 254.882 163.153 248.668C164.615 237.701 166.99 226.734 170.096 215.95C173.02 205.897 176.308 195.661 181.241 186.339C185.809 177.566 191.656 169.524 199.512 163.492C203.166 160.75 207.003 158.374 211.388 156.546C213.58 155.632 215.773 154.901 218.148 154.535C220.158 153.987 222.35 153.987 224.726 153.804ZM264.738 269.505C265.104 269.505 265.652 269.505 266.017 269.871L266.565 270.236C266.748 270.419 266.748 270.602 266.931 270.784C267.296 271.15 267.296 271.698 267.114 272.247C267.114 272.612 266.931 272.795 266.931 273.161L266.565 273.526C266.2 273.892 266.017 274.075 265.469 274.075C265.287 274.075 265.104 274.075 264.921 274.075H264.738H264.556C264.556 274.075 264.556 274.075 264.373 274.075C263.825 274.075 263.277 273.892 262.911 273.526C262.546 273.161 262.363 272.612 262.363 272.064V271.881C262.363 271.516 262.363 271.516 262.546 271.15C262.729 270.784 262.911 270.602 263.094 270.236C263.642 269.688 264.19 269.505 264.738 269.505ZM263.277 245.743C264.008 245.012 265.104 245.012 266.017 245.378C266.2 245.561 266.383 245.743 266.565 245.743C267.114 246.109 267.296 246.84 267.296 247.388C267.296 247.937 267.114 248.668 266.565 249.033L266.383 249.216C266.2 249.399 265.835 249.582 265.469 249.765C264.921 249.947 264.556 249.947 264.008 249.582C263.642 249.399 263.277 249.033 262.911 248.668C262.363 247.571 262.546 246.657 263.277 245.743ZM263.642 221.982C264.008 221.799 264.19 221.799 264.556 221.982C264.738 221.982 264.921 221.982 265.104 222.165C265.287 222.165 265.469 222.347 265.652 222.53C265.835 222.713 266.017 222.713 266.017 222.896C266.2 223.078 266.383 223.444 266.383 223.627V224.175V224.724L266.2 225.272L266.017 225.455C265.835 225.637 265.835 225.82 265.652 225.82C265.469 226.003 265.469 226.003 265.286 226.003C264.738 226.369 264.008 226.551 263.459 226.369C263.094 226.186 262.729 226.003 262.546 225.82C262.363 225.637 262.18 225.272 261.998 224.906V224.541C261.998 224.175 261.998 223.992 261.998 223.444C261.998 223.261 262.18 222.896 262.18 222.713C262.363 222.713 262.911 222.165 263.642 221.982ZM290.683 204.983C291.596 204.983 292.51 204.983 293.423 204.983H294.154C295.25 204.983 296.164 204.8 297.077 205.714C297.808 206.263 297.443 207.176 296.895 207.725C295.981 208.456 294.885 208.09 293.789 207.908C292.693 207.908 291.596 207.725 290.5 207.725C288.308 207.542 286.115 207.542 283.923 207.542C281.73 207.542 279.538 207.542 277.345 207.542C275.153 207.542 272.777 207.725 270.585 207.542C270.22 207.542 270.22 207.176 270.585 206.994C272.595 206.263 274.97 206.08 277.162 205.714C279.355 205.349 281.73 205.166 283.923 205.166C286.115 205.166 288.49 204.983 290.683 204.983ZM263.642 198.037C264.19 198.037 264.556 198.22 264.738 198.403L265.286 198.769C265.652 199.134 265.835 199.317 265.835 199.865V200.414C265.835 200.779 265.835 200.962 265.652 201.327C265.469 201.693 265.469 201.876 265.104 202.059C264.921 202.241 264.556 202.424 264.373 202.607C264.19 202.79 263.825 202.79 263.459 202.79C263.094 202.79 262.729 202.607 262.363 202.424L261.815 202.059C261.45 201.693 261.267 201.51 261.267 200.962V200.414C261.267 200.048 261.267 199.865 261.45 199.5C261.632 199.134 261.632 198.951 261.998 198.769C262.18 198.586 262.546 198.403 262.729 198.22C262.911 198.037 263.277 198.037 263.642 198.037ZM270.585 143.386C271.133 142.655 272.047 143.386 271.864 143.934C271.864 145.579 272.047 147.224 272.412 148.686C272.595 149.418 272.777 150.149 273.143 150.88L273.326 151.245C273.691 152.159 274.056 152.89 273.508 153.987C273.143 154.353 272.777 154.718 272.229 154.718C269.671 154.535 269.489 151.245 269.306 149.235C268.941 147.041 269.306 145.031 270.585 143.386Z" fill="#282828"/>
</g>
<mask id="mask2_2791_763" style="mask-type:luminance" maskUnits="userSpaceOnUse" x="0" y="0" width="486" height="279">
<path d="M486 0.267822H0V278.278H486V0.267822Z" fill="white"/>
</mask>
<g mask="url(#mask2_2791_763)">
<path fill-rule="evenodd" clip-rule="evenodd" d="M218.333 63.8757C219.429 62.7791 220.89 61.8651 222.352 61.4996C221.073 62.2307 219.611 62.9618 218.333 63.8757ZM216.14 74.1115C215.957 73.1976 215.775 72.2837 215.775 71.3698C215.957 71.7354 216.505 71.9181 216.871 72.1009C216.688 72.6493 216.323 73.3804 216.14 74.1115ZM290.319 88.1857C289.04 82.885 283.011 72.6493 281.732 70.8214C280.27 65.8863 288.492 62.0479 283.924 58.2095C281.914 56.5645 279.174 55.8334 276.616 55.285C258.893 51.081 239.892 53.2744 223.631 60.9512C221.073 60.4029 218.515 61.4996 216.688 63.1446C208.101 71.5526 219.794 86.9062 222.352 96.5936C226.737 107.195 217.784 109.023 218.698 118.162C219.429 122.914 224.179 124.011 228.199 124.742C228.93 124.925 229.66 124.925 229.843 125.656C230.574 129.677 232.766 133.333 235.69 135.892C235.507 136.623 235.69 137.537 236.603 138.268C245.008 144.482 255.605 147.59 266.019 147.041C278.443 146.31 284.838 139.364 286.482 137.537C295.069 126.021 293.973 110.851 292.329 97.142C291.05 87.4546 292.694 97.5075 290.319 88.1857Z" fill="white"/>
</g>
<mask id="mask3_2791_763" style="mask-type:luminance" maskUnits="userSpaceOnUse" x="0" y="0" width="486" height="279">
<path d="M486 0.267822H0V278.278H486V0.267822Z" fill="white"/>
</mask>
<g mask="url(#mask3_2791_763)">
<path fill-rule="evenodd" clip-rule="evenodd" d="M251.953 44.1354C252.319 42.856 253.415 42.1248 254.694 42.3076C255.79 42.4904 257.069 43.5871 256.887 44.6838C256.887 44.8665 256.887 45.0493 256.704 45.4149C256.704 45.7805 256.521 46.146 256.338 46.5116C256.156 47.0599 255.973 47.7911 255.79 48.3394C256.156 48.3394 256.338 48.3394 256.704 48.3394C257.069 47.6083 257.435 46.6944 257.617 45.9632C257.983 45.0493 258.166 43.9526 258.896 43.2215C259.81 42.3076 261.272 42.1248 262.368 42.856C263.464 43.5871 263.829 44.6838 263.647 45.9632C263.464 46.5116 263.099 47.0599 262.55 47.2427L262.185 48.1566C262.368 48.1566 262.368 47.9738 262.55 47.9738C262.733 47.9738 262.916 47.7911 263.281 47.7911C263.829 46.6944 264.56 45.7805 265.108 44.6838C265.839 43.5871 267.301 43.0387 268.58 43.7699C269.676 44.501 270.224 46.146 269.493 47.2427C268.945 48.1566 268.397 48.8877 267.666 49.8017C267.849 49.8017 267.849 49.8017 268.032 49.8017C268.032 49.8017 268.032 49.6189 268.214 49.6189C268.763 48.8877 269.493 48.3394 270.224 47.6083C270.955 47.0599 271.138 46.146 272.051 45.5977C273.147 45.0493 274.609 45.2321 275.157 46.5116C276.619 48.8877 274.244 50.7156 272.599 52.1778C273.878 51.2639 275.34 50.5328 276.802 49.9844C277.532 49.6189 278.446 49.2533 279.359 48.8877C280.638 48.3394 281.552 48.5222 282.648 49.4361C283.014 49.8016 283.379 50.7156 283.196 51.2639C282.831 52.3606 282.1 52.9089 281.004 53.2745C280.273 53.4573 279.359 53.6401 278.629 53.8228C277.35 54.1884 276.071 54.7368 274.792 55.2851C274.975 55.2851 274.975 55.4679 274.975 55.4679C275.888 55.1023 276.802 54.9195 277.898 54.7367C279.542 54.3712 281.004 54.1884 282.648 54.0056H283.196C285.206 53.8228 287.399 53.4573 288.678 55.2851C289.043 55.8334 289.043 56.9301 288.678 57.4785C287.764 58.5752 287.033 58.9407 285.572 58.9407C286.85 59.1235 288.312 59.3063 289.591 59.4891C290.505 59.6719 291.418 59.8546 292.332 60.0374H292.88C293.976 60.2202 295.255 60.403 296.169 60.9513C298.361 62.4136 297.265 65.1553 294.89 65.3381C293.793 65.5209 292.514 64.9725 291.418 64.7897C290.322 64.6069 289.226 64.4242 288.129 64.2414C287.581 64.2414 287.033 64.0586 286.485 64.0586C287.581 64.2414 288.678 64.4242 289.956 64.7897L290.322 64.9725C292.514 65.7036 295.255 66.6175 295.986 68.9937C296.351 70.456 295.255 71.5526 293.976 71.7354C292.697 71.7354 291.784 71.0043 290.687 70.456C289.957 70.0904 289.226 69.7248 288.312 69.5421C287.399 69.3593 286.668 68.9937 285.754 68.8109C286.485 69.1765 287.216 69.7248 287.947 70.0904L288.312 70.2732C290.139 71.5526 293.063 73.746 292.332 76.305C292.149 77.0361 291.235 77.95 290.322 77.7672C288.129 77.5844 286.85 75.2083 285.023 73.9288C284.658 73.5632 284.11 73.1977 283.562 73.0149C286.12 76.1222 288.312 79.595 289.774 83.2507C293.245 91.293 294.341 98.7871 294.341 107.561V108.109C294.341 112.861 294.159 117.796 293.793 122.549C293.428 126.935 292.514 131.322 290.505 135.343C287.216 142.106 280.638 147.224 273.33 149.235C265.291 151.428 256.156 149.783 249.578 144.665C247.934 143.386 250.126 140.461 251.771 141.741C258.714 146.493 267.484 147.955 275.523 144.848C281.735 142.289 286.85 136.806 289.043 130.408C290.322 126.387 290.87 122 291.235 117.796V117.431C291.784 113.044 291.966 108.657 291.966 104.088C291.966 95.8626 290.687 89.0997 287.033 81.6056C285.389 78.1328 283.014 74.8427 280.456 71.9182C279.725 72.101 278.811 71.9182 277.898 71.7354C277.532 71.7354 276.984 71.7354 276.619 71.5526C276.984 71.7354 277.532 72.101 277.898 72.4666L278.446 72.8321C280.09 74.1116 282.283 75.3911 281.917 77.7672C281.735 78.3156 281.187 79.0467 280.638 79.0467C278.446 79.595 276.984 77.4016 275.34 76.1222C274.061 75.0255 272.599 74.1116 271.32 73.0149C270.955 72.8321 270.772 72.6493 270.407 72.2838C270.772 72.6493 270.955 73.0149 271.32 73.3805L271.686 73.9288C272.965 75.5738 274.792 77.5844 273.696 79.595C273.33 80.1434 272.599 80.5089 272.051 80.5089C269.859 80.5089 268.945 77.95 267.849 76.305C266.935 74.8427 265.839 73.5632 264.926 72.2838C264.56 71.9182 264.378 71.5526 264.012 71.1871C259.262 71.3699 254.511 72.101 249.761 73.0149C246.472 73.746 243.366 74.6599 240.26 75.5738H240.078C238.433 76.1222 236.606 76.8533 235.327 77.95C235.144 78.6811 235.327 79.595 235.51 80.5089L235.693 81.0573C236.241 83.6162 236.606 86.1752 236.241 88.9169C235.875 91.6586 235.144 94.2175 234.048 96.7765C233.5 98.056 233.135 97.6904 232.952 99.1526C232.769 100.067 232.952 101.163 232.952 102.26V103.174C233.135 105.367 233.317 107.926 231.856 109.754C231.673 110.12 231.125 109.937 230.942 109.571C230.942 109.388 230.76 109.388 230.76 109.206C230.029 108.109 228.932 107.561 227.653 107.378C227.471 107.378 227.471 107.195 227.653 107.195C228.75 107.012 229.663 107.378 230.577 107.926C230.211 106.464 227.105 107.195 226.009 107.561C224.73 107.926 223.451 108.474 222.538 109.206C220.345 110.851 219.249 113.227 219.249 115.786C219.249 118.345 220.711 120.721 222.903 122C223.999 122.549 225.278 122.914 226.557 122.914C227.836 122.914 229.115 122.366 230.394 122.366C231.125 122.366 231.673 123.28 231.308 124.011C230.942 124.559 230.577 124.925 230.211 125.108C231.308 127.667 232.769 130.043 234.231 132.053C235.144 133.333 236.058 134.429 237.154 135.343C238.068 136.075 239.895 136.988 239.712 138.451C239.712 138.999 239.347 139.182 238.981 139.365C237.52 139.913 235.875 138.085 234.962 137.171C233.866 136.075 232.769 134.795 231.856 133.516C230.211 131.139 229.298 128.58 228.75 125.656C226.557 126.387 223.634 125.656 221.807 124.925C216.143 122.366 214.316 114.872 217.787 109.937C218.518 109.023 219.249 108.109 220.163 107.378C219.98 107.195 219.797 107.195 219.614 107.012C218.701 105.916 217.97 104.636 217.239 103.539V103.357C216.691 102.26 216.143 101.163 215.595 100.067L215.412 99.701C214.316 97.1421 213.22 96.0454 212.306 93.4864C211.575 90.9275 210.844 88.3685 210.479 85.6268L210.296 84.8957C210.114 83.4334 209.748 81.7884 209.931 80.1434C208.652 80.5089 207.556 80.6917 206.277 80.1434C205.546 79.7778 204.998 78.6811 205.363 77.7672C205.546 77.2189 205.911 76.6705 206.277 76.305C206.094 76.1222 205.729 75.9394 205.546 75.9394L205.363 75.7566C204.632 75.2083 204.632 73.9288 204.998 73.1977C204.998 73.1977 204.998 73.0149 205.181 73.0149C205.546 72.2838 206.459 71.7354 207.373 71.7354C207.556 71.7354 207.556 71.7354 207.738 71.7354C207.373 71.7354 207.008 71.5526 206.642 71.3699C204.998 70.2732 205.181 67.5315 207.19 67.1659C208.104 66.9831 209.017 66.9831 209.931 67.3487C209.931 67.3487 209.931 67.3487 209.748 67.3487C209.017 66.9831 208.469 66.0692 208.469 65.1553C208.469 64.2414 208.835 63.5103 209.748 62.9619C210.479 62.5964 211.575 62.4136 212.306 62.9619C212.854 63.3275 213.585 63.8758 214.133 64.2414C213.585 63.5103 213.037 62.7791 212.854 61.8652C212.672 60.7685 213.037 59.6719 213.95 59.1235C214.681 58.7579 215.595 58.7579 216.143 59.1235C216.143 58.5752 216.326 58.0268 216.691 57.4785C217.422 56.3818 218.884 55.8334 219.98 56.5646C220.163 56.7473 220.345 56.7473 220.528 57.1129C220.162 55.8334 220.528 54.554 221.807 54.0056C222.72 53.6401 223.817 53.8228 224.547 54.3712C224.182 51.995 227.653 50.1672 229.115 52.7262C229.481 53.2745 229.663 53.8228 230.029 54.554L230.211 54.7367V54.554V54.3712C229.846 53.4573 229.298 52.5434 229.115 51.6295C228.932 50.1672 229.481 48.8877 231.125 48.5222C231.856 48.3394 232.769 48.705 233.317 49.4361C232.952 47.2427 235.51 45.5977 237.337 47.2427C238.25 47.9738 238.616 49.2533 239.164 50.1672C239.529 50.7156 239.712 51.2639 240.078 51.8122C240.078 51.6295 240.26 51.6295 240.26 51.4467C239.712 50.1672 239.529 48.705 239.164 47.2427C238.799 45.9632 239.529 44.501 240.991 44.1354C242.27 43.7699 243.732 44.501 244.097 45.9632C244.28 46.8771 244.463 47.7911 244.828 48.705C245.011 48.705 245.193 48.705 245.376 48.5222C245.376 48.3394 245.376 48.1566 245.376 47.9738V47.4255C245.559 45.9632 245.741 44.501 246.472 43.2215C247.751 41.2109 251.04 41.942 251.04 44.501C251.04 45.7805 250.492 47.0599 250.309 48.1566C250.309 48.705 250.126 49.2533 250.126 49.8017C250.492 47.9738 250.857 46.146 251.405 44.501C251.953 44.501 251.953 44.3182 251.953 44.1354ZM224.182 113.775C227.105 113.41 229.663 114.872 231.308 117.065C231.673 117.431 231.49 117.979 231.125 118.345C230.942 118.527 230.577 118.71 230.394 118.71C230.029 118.71 229.663 118.527 229.481 118.162C228.202 115.969 226.375 114.689 224.182 113.775ZM228.019 75.3911C228.75 74.6599 227.836 73.746 227.105 74.4771C226.557 75.0255 226.009 75.9394 225.644 76.6705C225.278 77.4016 226.375 78.1328 226.74 77.4017L226.923 77.0361C227.471 76.305 227.653 75.7566 228.019 75.3911ZM220.163 74.1116C220.893 73.9288 220.711 72.8321 219.797 72.8321C218.701 73.0149 217.787 73.1977 216.691 73.3805C215.96 73.5632 216.143 74.6599 217.056 74.6599C217.97 74.4771 219.066 74.2944 220.163 74.1116ZM268.58 65.7036C267.849 65.5209 267.484 66.6175 268.214 66.9831C269.311 67.3487 270.407 67.7142 271.32 68.2626C272.051 68.6281 272.782 67.5315 272.051 67.1659C270.955 66.6175 269.676 66.252 268.58 65.7036ZM219.98 64.0586C219.249 63.693 218.884 64.9725 219.614 65.3381L222.355 66.4348C223.086 66.8003 223.451 65.5209 222.72 65.1553L219.98 64.0586ZM278.263 61.1341C277.532 60.5858 276.802 61.6824 277.532 62.2308C277.898 62.4136 278.446 62.5964 278.811 62.9619C279.36 63.5103 280.273 62.5964 279.725 62.048C279.36 61.6824 278.811 61.4997 278.263 61.1341Z" fill="#282828"/>
</g>
<mask id="mask4_2791_763" style="mask-type:luminance" maskUnits="userSpaceOnUse" x="0" y="0" width="486" height="279">
<path d="M486 0.267822H0V278.278H486V0.267822Z" fill="white"/>
</mask>
<g mask="url(#mask4_2791_763)">
<path fill-rule="evenodd" clip-rule="evenodd" d="M275.522 132.419C274.243 132.419 272.599 131.87 271.502 131.505L271.32 131.322C270.406 130.957 269.493 130.591 268.762 129.86C268.579 129.677 268.396 129.311 268.214 129.129C268.214 128.946 268.031 128.763 268.214 128.58C268.396 128.58 268.762 128.58 268.944 128.398C269.127 128.398 269.127 128.398 269.31 128.398C269.675 128.398 269.858 128.398 270.223 128.398C270.223 128.398 270.223 128.398 270.406 128.398C270.589 128.398 270.772 128.398 271.137 128.398C271.685 128.398 272.416 128.58 272.964 128.58C273.512 128.58 273.878 128.58 274.426 128.58C275.705 128.58 276.984 128.398 278.08 129.311C278.263 129.494 278.445 129.86 278.445 130.043C278.445 130.408 278.263 130.774 278.08 131.139C277.166 132.236 276.435 132.419 275.522 132.419ZM283.013 121.086C282.465 122 281.369 122.549 280.09 122.549C277.349 122.366 274.243 121.452 271.868 119.99C271.32 119.624 270.954 119.076 270.772 118.345L270.589 117.248L269.858 118.162C269.858 118.345 269.675 118.345 269.675 118.527C269.493 118.893 269.31 119.076 269.127 119.441C268.396 120.538 267.848 121.635 267.3 122.731C266.935 123.462 266.569 124.376 266.387 125.29C265.838 126.753 265.473 128.398 264.377 129.494C264.194 129.677 264.011 129.677 263.646 129.677C263.463 129.677 263.281 129.494 263.098 129.311C261.819 126.753 263.463 123.645 264.925 121.452L265.108 121.269C266.387 119.258 268.579 116.7 270.954 116.334L271.32 116.7L271.685 116.517C272.416 116.151 273.147 116.151 274.06 116.517L274.791 116.882C276.253 117.431 277.532 118.162 279.176 118.345C279.359 118.345 279.359 118.345 279.541 118.345C279.724 118.345 279.724 118.345 279.907 118.345C279.907 118.162 279.907 118.162 279.907 117.979C279.907 117.796 279.907 117.796 279.907 117.613C279.907 117.431 279.907 117.431 279.907 117.248C279.724 116.882 279.724 116.334 279.541 115.968C278.993 114.323 277.897 112.861 276.984 111.399L276.801 111.216C276.618 111.033 276.435 110.851 276.435 110.485C275.705 109.388 274.791 108.292 274.791 107.012C275.705 107.012 276.618 107.743 277.349 108.292C278.445 109.023 279.359 109.937 280.09 110.851C281.734 112.678 283.196 114.872 283.926 117.248C283.744 118.527 283.561 119.99 283.013 121.086ZM256.52 107.743C256.52 106.281 257.251 103.174 259.261 103.174C260.54 103.174 261.271 105.367 261.454 107.378C261.454 108.657 261.088 111.582 259.261 111.582C257.434 111.764 256.52 109.023 256.52 107.743ZM285.388 107.195C285.388 105.733 284.657 102.625 282.648 102.625C281.369 102.625 280.638 104.636 280.638 106.647V106.829C280.638 108.109 280.82 111.216 282.648 111.216C284.475 111.399 285.388 108.657 285.388 107.195ZM263.098 98.6042C262.915 98.6042 262.55 98.6042 262.367 98.787C261.636 98.9698 260.905 98.9697 260.175 99.1525C258.713 99.5181 257.434 99.8837 255.972 100.249C254.693 100.615 253.414 101.163 252.135 101.711H251.953C251.587 101.894 251.039 102.077 250.674 102.26C249.943 102.625 249.395 102.808 248.664 102.991C250.491 100.432 253.414 98.6042 256.155 97.3247C257.799 96.5936 259.444 95.8625 261.088 95.4969L262.002 95.1313C263.281 94.7658 264.925 94.4002 266.204 95.1313C266.752 95.4969 267.117 95.8625 267.117 96.4108C267.3 96.9592 267.117 97.5075 266.752 97.8731C266.387 98.2386 266.021 98.4214 265.656 98.6042C265.108 98.6042 264.742 98.6042 264.194 98.4214C263.463 98.4214 263.463 98.4214 263.098 98.6042ZM283.744 98.787C282.83 98.6042 281.917 98.4214 281.003 98.6042C280.638 98.6042 280.09 98.6042 279.724 98.787C279.176 98.9698 278.445 98.9698 277.714 98.787C277.349 98.787 276.984 98.6042 276.801 98.2386C276.618 97.8731 276.435 97.5075 276.253 97.1419C276.253 96.7764 276.253 96.4108 276.435 96.0453C276.618 95.6797 276.984 95.3141 277.349 95.1313C278.445 94.4002 280.272 94.583 281.551 94.7658C282.83 94.9486 284.109 95.3141 285.205 95.8625C286.302 96.4108 287.215 97.3247 287.946 98.2386C288.494 99.1525 288.86 100.066 289.225 100.98C287.763 99.8837 285.571 99.1525 283.744 98.787Z" fill="#282828"/>
</g>
<mask id="mask5_2791_763" style="mask-type:luminance" maskUnits="userSpaceOnUse" x="0" y="0" width="486" height="279">
<path d="M486 0.267822H0V278.278H486V0.267822Z" fill="white"/>
</mask>
<g mask="url(#mask5_2791_763)">
<path fill-rule="evenodd" clip-rule="evenodd" d="M281.004 127.849C281.552 128.398 282.1 129.129 282.648 129.677C282.831 130.774 282.831 131.87 282.648 132.967C282.466 134.612 282.1 136.074 281.369 137.537C281.004 137.537 280.638 137.354 280.273 137.171C279.177 136.623 278.629 135.709 277.898 134.795C276.436 133.15 273.878 132.053 272.051 133.881C271.32 134.612 270.772 135.709 270.041 136.623C269.311 137.537 268.397 138.451 267.484 139.182C267.301 139.364 267.301 139.364 267.118 139.547C266.57 138.999 266.022 138.451 265.656 137.719C264.195 135.892 262.916 134.064 262.368 131.87C262.185 131.139 262.002 130.408 262.002 129.677C262.733 128.946 263.464 128.215 264.195 127.484C266.753 125.656 269.676 125.29 272.599 125.29C275.888 125.29 278.629 125.473 281.004 127.849ZM288.678 136.257C288.495 134.978 288.312 133.698 288.129 132.602C287.033 127.849 284.841 123.28 280.456 121.086C278.446 119.99 276.071 119.807 273.696 120.172C269.676 118.71 265.291 120.172 262.185 122.914C258.531 126.021 256.887 130.957 256.338 135.709C255.973 138.999 255.79 143.203 256.704 145.579C257.617 147.955 263.464 154.17 271.869 154.17C283.744 154.17 286.668 146.31 287.033 145.579C288.678 142.655 288.86 139.547 288.678 136.257Z" fill="#282828"/>
</g>
<mask id="mask6_2791_763" style="mask-type:luminance" maskUnits="userSpaceOnUse" x="0" y="0" width="486" height="279">
<path d="M486 0.267822H0V278.278H486V0.267822Z" fill="white"/>
</mask>
<g mask="url(#mask6_2791_763)">
<path fill-rule="evenodd" clip-rule="evenodd" d="M293.064 113.227C291.054 115.603 283.381 118.345 279.361 115.42C275.342 112.496 273.697 110.485 273.149 106.829C273.149 106.464 272.418 106.098 272.053 106.464C270.408 107.926 269.312 109.937 268.216 111.947C266.937 114.141 265.841 116.517 263.648 117.979C259.811 119.99 252.686 120.355 250.493 119.441C246.474 117.614 243.368 113.958 242.637 108.657C242.637 108.657 241.906 106.281 241.175 105.915C240.627 105.367 237.156 105.002 236.79 105.002C230.213 103.722 221.808 102.991 215.779 107.378C215.048 107.926 212.308 109.754 212.125 109.206C212.125 107.378 214.135 103.539 218.52 101.712C224.184 99.3354 232.405 99.3354 237.156 99.7009C237.339 99.7009 238.252 99.5181 238.252 99.5181C245.56 96.4109 253.965 97.142 261.821 98.6042C262.917 98.787 272.966 101.346 276.986 99.7009C283.563 96.9592 290.506 95.1314 297.632 95.8625C297.632 95.8625 298.545 101.346 297.814 101.712C297.266 102.077 296.353 102.808 295.987 103.174C295.622 103.539 295.439 104.088 295.439 104.636C295.805 108.109 294.891 111.033 293.064 113.227ZM266.024 109.937C266.937 108.657 267.12 106.098 266.754 104.088C266.572 103.174 266.206 102.26 265.841 101.894C265.475 101.712 265.293 101.529 264.927 101.529C264.745 101.529 264.562 101.529 264.379 101.712C261.273 100.066 257.619 99.5181 254.148 99.7009C251.407 99.7009 249.397 100.432 248.118 101.346C246.474 102.625 245.743 104.27 245.743 106.281C245.743 108.474 246.657 111.033 248.118 112.861C249.58 114.689 251.59 116.151 253.782 116.517C256.34 117.065 258.715 116.517 260.908 115.42C262.917 114.141 264.927 112.313 266.024 109.937ZM290.323 111.216C291.785 109.571 292.699 107.378 292.881 105.367C293.064 103.357 292.516 101.529 291.054 99.8837C289.775 98.787 287.4 98.787 285.025 99.3354C281.919 100.066 278.63 101.894 277.534 103.174C277.351 103.357 276.986 103.539 276.803 104.088V104.27C276.438 105.733 276.62 107.378 277.169 108.657C277.717 110.119 278.813 111.582 280.092 112.678C281.736 114.141 283.563 114.506 285.208 114.323C287.217 113.958 289.045 112.861 290.323 111.216Z" fill="white"/>
</g>
<mask id="mask7_2791_763" style="mask-type:luminance" maskUnits="userSpaceOnUse" x="0" y="0" width="486" height="279">
<path d="M486 0.267822H0V278.278H486V0.267822Z" fill="white"/>
</mask>
<g mask="url(#mask7_2791_763)">
<path fill-rule="evenodd" clip-rule="evenodd" d="M276.798 98.9698C283.375 96.2281 290.501 94.4003 297.809 95.1314C298.357 94.9487 299.088 95.1314 299.454 95.8626C302.012 103.539 296.348 101.529 296.348 104.453C296.896 120.721 274.971 123.463 272.413 106.829C268.759 110.12 268.028 115.42 263.826 118.345C255.421 124.559 243.363 119.624 241.718 108.657V108.474C241.17 106.281 240.622 105.733 238.064 105.733H237.699C231.121 104.453 222.169 103.357 216.139 107.743C214.86 108.474 214.678 110.485 213.581 111.399C212.302 111.582 211.572 110.12 211.572 109.206C211.389 99.1526 229.66 98.4215 237.881 99.1526C238.064 98.9698 238.43 98.9698 238.43 99.1526C245.921 96.0453 254.142 96.4109 262.181 97.6904C266.932 98.7871 271.865 100.98 276.798 98.9698ZM297.261 96.9592C293.242 96.7765 289.587 96.9592 285.568 97.8732C283.558 98.4215 281.914 98.9698 279.904 99.701C267.48 105.184 266.201 95.497 238.43 99.3354C238.795 100.798 238.795 102.443 238.795 103.722C244.459 103.539 243.18 108.84 245.19 112.678V112.861C248.296 118.345 255.604 120.904 261.451 117.248C266.384 114.323 266.749 107.195 271.682 104.453C275.884 104.271 274.24 109.937 276.615 112.313C279.904 116.517 286.664 117.248 290.866 113.227C292.693 111.216 293.79 108.84 293.79 106.098C293.972 104.453 293.607 102.625 294.886 101.529C295.799 100.615 297.444 100.98 297.627 99.5182C297.809 98.6043 297.444 97.6904 297.261 96.9592ZM253.777 99.1526C257.796 98.9698 261.999 99.701 265.287 101.529C267.845 99.5182 268.393 107.378 266.749 109.754C264.374 114.689 258.71 117.796 253.229 116.882C244.824 115.786 238.978 99.1526 253.777 99.1526ZM265.105 102.26H264.922C261.268 101.712 251.219 99.1526 247.382 103.174C243.728 109.937 253.046 121.269 262.912 112.13C265.653 109.388 266.749 105.916 265.105 102.26ZM276.615 102.991C278.442 100.798 288.126 96.2281 291.597 99.1526C297.809 105.916 287.943 119.807 279.904 113.044C277.163 110.851 275.336 107.195 276.25 103.722V103.539C276.25 103.539 276.25 103.539 276.25 103.357C276.25 103.357 276.433 103.174 276.615 102.991ZM291.415 107.195C293.424 96.0453 284.837 100.249 277.712 103.174C278.077 103.539 278.077 103.905 277.894 104.453C277.346 112.678 287.395 117.431 291.415 107.195ZM237.699 99.701C234.775 100.615 215.043 98.9698 213.216 108.109C215.043 105.002 219.063 103.722 222.717 103.174C227.65 102.26 232.4 102.808 237.151 103.722L237.333 102.808C237.333 101.529 237.516 100.615 237.699 99.701Z" fill="#282828"/>
</g>
<mask id="mask8_2791_763" style="mask-type:luminance" maskUnits="userSpaceOnUse" x="0" y="0" width="486" height="279">
<path d="M486 0.267822H0V278.278H486V0.267822Z" fill="white"/>
</mask>
<g mask="url(#mask8_2791_763)">
<path fill-rule="evenodd" clip-rule="evenodd" d="M322.843 183.049C325.766 169.158 336.363 158.374 350.431 153.073C353.172 151.611 355.73 145.031 359.384 143.751C359.932 143.568 359.019 145.031 359.384 145.214C360.663 145.579 361.942 145.579 363.221 144.482C365.596 142.472 366.327 136.257 367.788 133.515C375.462 118.893 394.646 124.559 397.204 140.827C399.031 141.923 401.589 143.02 403.416 143.934C405.426 144.848 407.253 147.224 409.263 147.955C411.09 148.686 414.196 148.138 416.023 148.869C424.61 151.794 431.736 155.632 437.4 163.126C438.679 164.771 439.958 166.599 441.054 168.244C446.718 174.641 450.555 181.77 454.209 189.447C464.258 211.929 466.998 236.787 469.373 260.914C469.373 265.118 472.114 276.816 467.912 278.827C468.094 279.01 468.094 279.558 467.546 279.558C456.949 279.375 446.17 280.472 435.755 282.3C430.64 283.213 425.706 284.31 420.408 284.676C409.628 284.676 399.031 282.848 388.252 284.493C375.462 284.493 359.749 284.127 345.498 283.579C332.161 283.031 318.64 284.31 305.485 281.934C304.389 281.751 303.841 280.472 304.206 279.558C305.668 273.892 306.582 268.225 307.312 262.559C307.13 258.904 307.495 255.065 308.774 251.592C312.611 228.562 317.179 205.714 322.843 183.049Z" fill="white"/>
</g>
<mask id="mask9_2791_763" style="mask-type:luminance" maskUnits="userSpaceOnUse" x="0" y="0" width="486" height="279">
<path d="M486 0.267822H0V278.278H486V0.267822Z" fill="white"/>
</mask>
<g mask="url(#mask9_2791_763)">
<path fill-rule="evenodd" clip-rule="evenodd" d="M327.043 213.391C327.409 214.67 327.774 216.133 328.322 217.412C328.87 218.692 329.601 219.788 330.149 221.068C330.149 221.251 330.332 221.433 330.515 221.433V221.799V222.165C330.332 224.358 329.967 226.734 329.784 228.927L329.601 230.024C329.053 234.776 328.322 239.346 327.774 244.098C327.226 248.668 326.495 253.237 325.947 257.807C325.216 262.559 324.668 267.129 323.755 271.881C323.389 273.892 323.024 275.902 322.658 277.73L322.293 279.192C319.37 279.923 318.456 283.945 321.562 285.407C322.841 286.138 324.668 285.955 325.764 284.859C326.861 283.762 327.043 281.751 327.226 280.289L327.409 278.827C329.419 268.408 331.063 257.807 331.794 247.206C331.976 244.464 332.159 241.722 332.342 238.98C332.525 236.421 332.342 233.863 332.525 231.304V230.572C332.525 227.831 332.525 225.089 332.525 222.347C332.525 221.982 332.525 221.616 332.525 221.251C332.707 221.068 332.707 221.068 332.707 220.885V220.702C332.89 220.337 332.707 219.788 332.342 219.423C332.159 217.595 331.976 215.584 331.976 213.757C331.976 213.574 331.794 213.574 331.794 213.757C331.611 215.402 331.428 216.864 331.246 218.509C329.601 217.229 328.505 215.036 327.774 213.391C327.226 213.208 327.043 213.208 327.043 213.391ZM365.595 138.816C365.412 140.096 364.864 141.192 364.133 142.106C363.767 142.655 363.402 143.02 362.854 143.386C362.489 143.751 361.94 143.934 361.575 144.117C361.027 143.934 360.296 144.3 359.931 144.665V143.934C359.931 143.751 359.565 143.751 359.565 143.934C357.738 153.256 355.911 162.578 354.449 171.9L353.719 176.104L353.17 179.942C352.074 186.339 351.161 192.919 350.43 199.5C349.516 208.273 348.603 216.864 348.055 225.637C347.507 234.411 347.141 243.184 346.776 252.141C346.776 254.334 346.593 256.527 346.593 258.721L346.228 255.979C345.862 253.237 345.314 250.678 344.949 247.937C343.487 238.432 342.391 228.745 342.025 219.057C341.477 210.284 341.66 201.145 344.035 192.554C344.583 190.361 345.314 188.35 346.228 186.157C346.958 184.146 348.237 182.318 348.968 180.308C350.064 177.931 350.247 175.738 349.699 173.362C349.151 171.168 348.42 169.158 348.237 166.965C348.055 162.761 349.334 158.739 351.343 155.266C351.892 154.353 352.44 153.439 352.988 152.342C354.632 149.6 356.642 146.859 358.652 144.117C358.834 143.934 358.469 143.751 358.469 143.934C356.642 145.762 354.632 147.407 352.988 149.417C352.257 150.331 351.343 151.245 350.613 152.342C342.573 153.621 335.631 158.557 331.063 165.137C325.764 172.448 323.024 181.404 321.014 190.178C318.822 199.865 316.994 209.735 314.985 219.606C312.975 229.659 310.782 239.894 308.773 249.947C307.676 254.882 306.763 260 305.667 264.935C305.119 267.494 304.57 270.053 304.022 272.612C303.657 273.892 303.474 275.171 303.109 276.451C302.743 277.913 303.109 278.827 304.022 279.923C304.388 280.289 304.936 280.289 305.484 280.106H305.667H305.849C306.397 279.741 306.946 279.558 307.311 279.01C307.676 278.278 307.676 277.547 307.859 276.816C308.042 275.354 308.407 274.074 308.59 272.612C308.955 270.602 309.321 268.408 309.686 266.398L311.696 255.979C312.244 253.237 312.792 250.496 313.34 247.754C315.35 237.884 317.36 228.014 319.187 218.143C321.014 208.639 322.841 199.134 324.851 189.812L325.034 189.264L325.216 188.715C327.226 180.673 329.784 172.814 334.717 165.868C338.554 160.567 343.67 155.815 349.882 153.439C349.516 153.987 348.968 154.718 348.603 155.266C346.045 159.288 344.218 164.04 344.766 168.792C344.949 171.168 345.862 173.362 345.862 175.738C345.862 177.749 344.401 179.759 343.487 181.587C341.477 185.791 340.016 190.178 338.919 194.565C336.91 203.704 336.91 213.025 337.64 222.165C338.371 232.217 339.65 242.088 341.295 251.958C342.025 257.076 343.122 262.011 344.035 267.129C344.401 269.688 344.949 272.064 345.497 274.623L345.679 275.902C345.862 276.633 345.862 277.182 346.045 277.913L346.228 278.278C346.228 278.827 346.41 279.192 346.593 279.558C346.958 280.472 347.324 281.386 347.689 282.3C347.872 282.665 348.237 283.031 348.603 283.031C348.968 283.945 349.882 284.676 350.978 284.676H365.046C373.268 284.676 381.307 284.676 389.529 284.493C391.539 284.493 393.549 284.493 395.741 284.31C397.751 284.31 399.578 283.945 401.405 283.762C403.598 283.579 404.694 281.934 404.328 279.923C404.328 279.375 404.146 279.01 404.146 278.461C404.511 278.644 405.059 278.461 405.425 278.278L405.79 277.913C406.155 277.547 406.704 276.999 406.886 276.451C407.252 275.902 407.434 275.171 407.617 274.623C408.165 273.343 408.713 272.064 409.261 270.602C410.358 267.86 411.454 265.301 412.367 262.559C414.377 257.259 416.022 251.775 417.483 246.474C420.224 236.787 422.051 226.917 423.33 216.864L423.695 214.488V213.757C424.243 209.918 424.609 205.897 424.426 202.059C424.243 199.682 423.878 197.123 422.964 194.93C422.051 192.919 420.772 191.092 419.493 189.264L419.31 189.081L419.128 188.898C418.031 187.253 417.118 185.425 417.118 183.415C417.118 181.404 417.666 179.211 418.397 177.383L418.579 176.835L418.762 176.469C420.224 172.448 421.868 168.427 421.32 164.04C420.589 157.643 416.57 152.342 411.454 148.321C415.839 149.235 420.224 150.88 424.243 153.073C428.811 155.632 433.013 159.105 436.485 162.943C443.245 170.255 447.995 178.845 452.015 187.802C456.217 197.123 459.14 206.994 461.516 217.047C463.891 227.1 465.352 237.335 466.449 247.571C466.997 252.689 467.362 257.807 467.728 262.925C467.91 265.484 468.093 268.225 468.276 270.784C468.458 273.343 468.641 276.085 469.189 278.644C469.555 279.741 471.564 279.923 471.747 278.644C472.295 275.719 472.113 272.795 471.93 269.688V269.505C471.747 266.58 471.564 263.656 471.382 260.731C471.016 254.7 470.468 248.668 469.737 242.819C467.179 221.799 462.429 200.962 453.111 181.953C448.726 172.996 443.062 164.223 435.388 157.643C431.734 154.535 427.532 152.159 422.964 150.331C418.945 148.686 414.743 147.955 410.54 147.955C408.348 146.31 406.155 144.848 403.78 143.751C403.598 143.751 403.415 143.934 403.598 143.934L403.78 144.117C403.598 144.117 403.232 144.3 403.049 144.482C402.136 145.396 401.405 146.493 400.857 147.59C399.943 148.869 399.03 149.966 397.934 151.245C396.289 153.073 394.828 155.084 393.183 156.912C390.443 160.019 387.702 163.126 384.779 166.051L384.231 166.599C382.769 168.061 381.125 169.889 379.48 171.168H379.298C378.567 171.717 378.019 171.717 377.288 170.986C376.74 170.255 376.192 169.523 375.643 168.792L375.461 168.61C372.903 164.954 370.528 161.116 368.335 157.277C367.422 155.449 366.508 153.621 365.595 151.794L365.412 151.245C364.864 150.331 364.498 149.235 363.95 148.138C363.767 147.955 363.767 147.59 363.767 147.407C365.046 146.493 366.143 144.665 366.508 143.203C366.873 141.741 366.691 140.096 365.96 138.633C365.96 138.451 365.595 138.451 365.595 138.816ZM431.917 201.145C432.1 206.994 432.282 212.843 432.465 218.692L432.648 220.702C432.282 221.251 431.917 221.799 432.1 222.53C432.1 222.896 432.465 223.078 432.648 223.261V225.089C433.013 233.497 433.561 241.722 434.475 249.947C435.571 260.366 436.85 270.784 438.129 281.02C438.312 282.482 439.408 283.579 440.87 283.396C442.514 283.214 443.245 281.751 442.879 280.289C441.966 274.623 441.235 268.774 440.504 263.108L439.773 256.527C438.677 248.302 437.764 240.26 436.485 232.035C435.937 228.562 435.389 225.272 435.023 221.799L435.206 221.616C435.937 220.702 436.667 219.788 437.398 218.874C438.86 217.047 440.322 215.219 441.601 213.391C441.601 213.208 441.601 213.208 441.418 213.208C439.591 214.488 437.764 215.95 435.937 217.595L434.292 218.874C433.379 213.025 432.465 207.176 431.734 201.145C432.282 200.962 431.917 200.962 431.917 201.145ZM405.059 145.214C406.155 146.31 407.252 147.224 408.531 148.321L408.896 148.686L409.261 149.052C411.271 150.88 413.098 152.89 414.743 155.084C417.666 159.105 419.493 164.223 418.214 169.158C417.118 173.362 414.925 177.017 414.195 181.404C413.829 183.598 414.012 185.608 414.925 187.619C415.839 189.629 417.118 191.457 418.214 193.285C420.772 197.306 421.137 201.693 420.955 206.445C420.772 211.38 420.041 216.133 419.493 221.068C418.031 230.755 416.022 240.443 413.098 249.947C411.637 254.7 409.992 259.269 408.348 264.021C407.434 266.398 406.521 268.591 405.607 270.784C405.059 271.881 404.511 273.161 403.963 274.257C404.146 272.612 404.146 270.967 404.328 269.322C404.511 266.946 404.694 264.57 404.876 262.194C405.242 257.441 405.425 252.506 405.79 247.754C406.704 230.572 407.434 213.391 407.434 196.21C407.434 187.619 407.252 179.028 406.886 170.437C406.704 166.416 406.338 162.395 405.973 158.374V157.46C405.79 153.804 405.425 150.149 404.876 146.676C405.059 146.31 405.242 145.945 405.242 145.579V145.396C405.059 145.579 405.059 145.396 405.059 145.214ZM395.376 130.591C395.376 130.408 395.193 130.591 395.193 130.591C394.645 132.784 394.828 134.978 395.376 137.171C395.741 138.268 396.107 139.365 396.655 140.461L396.837 140.827C397.203 141.741 397.751 142.655 398.664 143.203C399.03 143.386 399.578 143.386 399.943 143.203L400.126 143.02C400.492 142.837 400.674 142.106 400.491 141.741C400.126 140.644 399.213 139.913 398.664 138.999C398.116 138.268 397.568 137.354 397.203 136.44C396.107 134.612 395.741 132.602 395.376 130.591Z" fill="#282828"/>
</g>
<mask id="mask10_2791_763" style="mask-type:luminance" maskUnits="userSpaceOnUse" x="0" y="0" width="486" height="279">
<path d="M486 0.267822H0V278.278H486V0.267822Z" fill="white"/>
</mask>
<g mask="url(#mask10_2791_763)">
<path fill-rule="evenodd" clip-rule="evenodd" d="M370.349 145.579C374.734 145.579 378.754 144.665 382.591 142.837C387.158 141.375 392.274 140.461 396.111 137.171C397.938 137.537 399.765 135.709 401.409 134.612C403.967 143.569 416.757 142.106 422.238 136.257C425.527 133.516 426.988 126.57 421.142 124.742C430.643 118.345 434.114 107.378 433.383 95.497C432.652 75.5738 417.122 54.7367 397.207 51.2639C393.188 50.5328 389.168 50.7156 385.331 51.4467C383.139 51.995 380.946 52.9089 378.754 52.7261C369.619 51.2639 359.57 51.4467 352.079 57.2957C340.02 65.1553 338.376 81.0573 339.837 93.852V94.0348C340.568 98.7871 341.664 102.991 343.857 105.916C344.04 109.937 345.501 118.71 345.501 122C345.136 137.902 354.271 145.031 370.349 145.579Z" fill="white"/>
</g>
<mask id="mask11_2791_763" style="mask-type:luminance" maskUnits="userSpaceOnUse" x="0" y="0" width="486" height="279">
<path d="M486 0.267822H0V278.278H486V0.267822Z" fill="white"/>
</mask>
<g mask="url(#mask11_2791_763)">
<path fill-rule="evenodd" clip-rule="evenodd" d="M423.146 124.559C452.014 99.5181 422.415 43.0387 384.96 50.5327C381.123 51.8122 377.287 52.1777 373.45 51.2638C353.717 48.1566 337.456 64.7897 338.37 83.9817C338.187 87.2718 338.187 90.5619 338.553 93.8519C338.918 98.0559 340.014 102.808 342.572 106.281C342.572 108.657 344.034 117.614 344.217 121.817V122.731C344.399 127.118 344.947 131.505 346.957 135.526C352.987 146.127 368.334 148.504 379.296 145.396L379.844 145.214C381.854 144.482 384.229 143.568 385.508 141.923C386.239 141.01 385.143 139.913 384.047 140.096C382.768 140.461 381.854 141.192 380.758 141.741C373.45 145.031 364.68 143.934 357.372 140.827L357.189 140.644C344.034 135.343 347.688 116.7 346.044 106.098C345.678 92.5725 357.006 83.4334 365.593 74.4771L365.776 74.1115C366.69 73.1976 367.603 72.2837 368.882 71.9181C369.247 73.0148 369.978 73.746 370.892 74.4771L372.536 76.3049C374.181 78.1327 376.008 79.9605 377.835 81.7883C386.422 90.3791 395.192 102.077 408.347 102.808C407.616 103.539 406.885 104.27 405.972 105.002C405.606 105.367 405.972 105.915 406.52 105.915C407.433 105.733 407.981 104.819 408.529 104.27C415.655 101.346 421.502 112.313 415.472 116.7C413.28 119.076 406.702 117.248 408.164 120.172C406.52 125.29 403.962 130.408 399.759 133.881C398.481 134.795 396.471 135.343 395.74 136.623C395.557 136.988 395.557 137.537 396.105 137.719C397.932 138.633 399.942 137.171 401.221 136.074C408.164 150.697 435.387 134.978 423.146 124.559ZM379.114 54.7367L379.844 54.5539C387.701 53.0917 392.999 51.4466 401.404 54.1883C420.04 60.4029 432.099 79.9605 431.55 98.9698C431.55 109.754 426.069 123.645 413.828 125.108C412.001 125.29 412.001 128.032 413.828 128.032C416.751 127.849 419.675 126.753 422.232 125.108C425.521 130.408 422.232 135.343 416.934 137.537C411.635 140.278 405.972 139.365 402.5 134.612C405.789 131.139 408.164 125.839 408.712 121.086C417.665 124.559 424.608 111.765 418.761 105.002C416.751 102.077 412.732 100.249 409.443 102.26C395.192 96.7764 385.326 85.444 375.825 74.1115L375.277 73.5632C373.632 71.7354 369.796 67.5314 369.43 66.983C368.882 66.4347 367.969 66.983 367.969 67.5314C367.969 68.0797 367.969 68.4453 367.969 68.9936C366.141 70.0903 364.68 71.9181 363.401 73.3804C353.535 81.0572 345.496 89.0996 342.938 101.163C341.476 99.3354 340.745 96.9592 340.197 94.7658C339.101 79.9605 342.024 62.4135 357.372 56.0162C364.863 52.5433 371.44 54.3711 379.114 54.7367ZM414.193 110.119C414.924 109.571 410.539 109.571 410.174 109.937H409.991C408.529 110.485 405.606 112.13 407.068 113.958C409.078 115.786 410.539 110.485 414.193 110.119Z" fill="#282828"/>
</g>
<mask id="mask12_2791_763" style="mask-type:luminance" maskUnits="userSpaceOnUse" x="0" y="0" width="486" height="279">
<path d="M486 0.267822H0V278.278H486V0.267822Z" fill="white"/>
</mask>
<g mask="url(#mask12_2791_763)">
<path fill-rule="evenodd" clip-rule="evenodd" d="M366.69 128.398C368.152 127.849 369.431 126.935 370.344 125.656C370.71 125.29 370.71 124.742 370.71 124.376C370.71 123.828 370.344 123.462 369.979 123.28C369.614 122.914 369.065 122.914 368.7 122.914C368.335 122.914 367.969 123.28 367.604 123.645C367.056 124.376 366.325 124.925 365.411 125.473C364.68 125.839 363.767 126.021 362.853 125.839C361.026 125.656 359.93 124.742 358.651 123.462C358.468 123.28 358.286 123.097 358.103 122.914C357.92 122.731 357.92 122.731 357.738 122.549C357.555 122.549 357.372 122.549 357.189 122.549C357.007 122.549 356.824 122.731 356.824 122.914C356.641 123.097 356.641 123.28 356.641 123.462C356.824 124.742 357.372 126.021 358.468 126.935C359.565 128.032 361.026 128.763 362.488 128.946C363.767 129.129 365.229 128.946 366.69 128.398ZM361.392 107.926C359.747 108.84 357.372 111.216 359.017 113.592C361.026 115.786 363.95 113.227 365.411 112.13C366.69 111.216 368.335 113.41 367.056 114.506C356.641 122.183 352.256 108.292 360.478 106.829C361.574 106.647 361.94 107.743 361.392 107.926ZM380.211 99.1526C380.028 96.9592 376.739 96.4108 376.374 98.6042C376.008 100.615 376.374 102.26 377.287 104.088C378.201 105.733 380.211 105.002 380.393 103.539C380.576 101.346 380.393 100.432 380.211 99.1526ZM354.632 98.0559C354.083 97.5075 353.535 96.9592 352.622 97.3247C350.064 98.0559 350.795 101.529 351.708 103.357C352.256 104.27 353.718 104.453 354.449 103.722C355.545 102.443 356.093 99.7009 354.632 98.4214C354.632 98.2387 354.632 98.2387 354.632 98.0559ZM377.287 89.4651H376.922C375.643 89.2824 374.181 89.0996 373.268 90.0135C372.72 90.5618 372.72 91.4757 373.268 92.0241C374.364 92.938 375.643 92.5724 376.922 92.5724C378.018 92.5724 379.114 92.7552 380.028 93.1208C382.403 93.8519 384.23 94.9486 386.24 96.2281C386.423 96.4108 386.788 96.0453 386.605 95.8625C385.509 93.6691 383.317 91.8413 381.124 90.7446C379.845 90.1963 378.566 89.6479 377.287 89.4651ZM356.824 88.5512H356.459C353.17 89.2824 348.785 90.5618 347.141 93.8519C347.141 94.4002 347.141 94.4002 347.141 94.4002C347.141 94.4002 347.141 94.583 347.506 94.583H347.689C348.42 94.4002 348.968 94.2175 349.516 93.8519L350.064 93.4863C350.795 93.1208 351.526 92.7552 352.256 92.5724C353.901 92.0241 355.545 91.6585 357.189 91.4757C357.555 91.4757 357.92 91.293 358.103 91.1102C358.286 90.9274 358.651 90.5618 358.651 90.1963C358.834 89.6479 358.651 89.4651 358.468 88.9168C358.286 88.5512 357.92 88.3685 357.738 88.1857C357.555 88.5512 357.19 88.3685 356.824 88.5512Z" fill="#282828"/>
</g>
<mask id="mask13_2791_763" style="mask-type:luminance" maskUnits="userSpaceOnUse" x="0" y="0" width="486" height="279">
<path d="M486 0.267822H0V278.278H486V0.267822Z" fill="white"/>
</mask>
<g mask="url(#mask13_2791_763)">
<path fill-rule="evenodd" clip-rule="evenodd" d="M45.8586 283.031C72.5338 287.052 99.7571 287.417 126.615 285.772C137.212 285.041 147.992 284.859 158.589 285.772C164.801 286.321 192.389 288.331 194.765 282.665C193.303 252.323 190.562 221.799 181.61 192.737C177.956 182.318 174.85 173.727 167.724 165.319C165.532 162.943 160.781 158.008 157.858 156.546C155.483 155.084 154.386 155.632 153.107 153.256C151.829 150.697 150.732 146.31 148.722 144.482C146.713 142.655 143.789 143.203 140.135 143.934C140.866 134.795 136.664 132.602 131 130.774C120.951 126.935 111.085 128.763 108.527 141.192C103.777 141.192 101.219 143.203 98.2954 145.213C97.1992 145.945 97.93 148.138 96.4684 148.686C93.9105 149.6 89.3428 149.417 86.9676 150.514C75.6398 155.632 65.7736 163.126 59.1962 174.093C44.7623 197.672 34.7135 246.84 36.3578 274.623C35.627 275.902 36.7232 277.547 36.9059 278.827C37.2714 279.923 38.3676 280.655 39.4638 280.655C41.1082 282.3 43.6661 282.665 45.8586 283.031Z" fill="white"/>
</g>
<mask id="mask14_2791_763" style="mask-type:luminance" maskUnits="userSpaceOnUse" x="0" y="0" width="486" height="279">
<path d="M486 0.267822H0V278.278H486V0.267822Z" fill="white"/>
</mask>
<g mask="url(#mask14_2791_763)">
<path fill-rule="evenodd" clip-rule="evenodd" d="M156.398 155.998C156.216 155.815 156.398 155.632 156.581 155.815C164.438 159.653 170.65 166.233 174.852 173.727C179.237 181.587 181.795 190.543 183.987 199.317V199.682C186.362 209.004 188.189 218.509 190.016 228.013C191.844 237.518 193.305 247.206 194.401 256.893C194.95 261.645 195.498 266.398 195.863 271.333C196.046 273.709 196.229 276.085 196.411 278.461C196.411 279.375 196.594 280.472 196.594 281.386V282.117C196.594 282.848 196.777 283.396 196.594 284.127C196.411 284.676 196.229 285.224 195.863 285.772C195.315 286.869 194.036 286.686 193.488 285.772L193.305 285.59C192.94 285.041 192.574 284.493 192.574 283.762C192.392 283.031 192.392 282.3 192.392 281.751C192.209 280.472 192.209 279.192 192.209 277.913C192.026 275.171 191.844 272.612 191.661 269.87C191.295 264.57 190.747 259.269 190.199 254.151C189.103 244.829 187.824 235.508 186.18 226.186C184.718 217.229 182.708 208.273 180.698 199.317L180.516 198.403C176.679 182.318 171.198 164.223 156.398 155.998ZM71.9879 217.047C71.9879 216.864 72.3533 216.864 72.3533 217.047C72.9014 219.423 72.9014 221.982 73.0842 224.358C73.0842 226.734 73.0842 229.293 73.0842 231.669C72.9014 240.625 72.7187 249.582 72.536 258.721C72.3533 263.29 72.3533 267.677 72.1706 272.247C72.1706 273.892 72.1706 275.537 72.1706 277.365V279.558C72.1706 280.472 72.1706 281.568 71.9879 282.482C71.9879 283.214 71.8052 283.762 71.4398 284.31C71.2571 284.676 70.8917 284.859 70.5263 285.224C70.1608 285.59 69.6127 285.59 69.2473 285.224L69.0646 285.041C68.6992 284.676 68.3338 284.493 67.9684 283.945C67.603 283.214 67.603 282.482 67.4202 281.568C67.2375 280.289 67.4202 279.192 67.4202 277.913C67.4202 275.537 67.4202 272.978 67.603 270.602C67.7857 261.645 68.1511 252.506 68.6992 243.55C68.8819 239.346 69.2473 235.142 69.7954 230.938L69.9781 230.207C70.1608 228.927 70.3436 227.648 70.3436 226.368C68.1511 224.723 66.1413 222.896 64.4969 220.702C64.3142 220.519 64.4969 220.337 64.6796 220.519C66.324 222.347 68.3338 223.81 70.5263 224.906C70.709 222.164 71.0744 219.606 71.9879 217.047ZM109.626 136.806C110.174 137.354 110.174 138.268 110.174 138.999C110.174 140.096 110.174 141.192 110.174 142.106V145.396C110.174 145.945 110.174 146.31 110.174 146.859V147.041C110.356 147.224 110.539 147.772 110.539 148.138C110.539 148.686 110.356 149.052 109.991 149.235L110.722 150.331L111.453 151.428C113.097 153.804 114.741 155.998 116.386 158.374C118.213 160.75 120.04 162.943 122.05 165.137C122.963 166.233 124.059 167.147 124.973 168.244C125.338 168.61 125.704 168.975 126.252 169.523L126.617 169.889C126.8 170.072 127.165 170.437 127.348 170.62C127.531 170.803 127.531 171.168 127.531 171.351C127.896 172.082 127.348 173.179 126.435 172.813C126.617 172.631 126.435 172.631 126.069 172.813C125.886 172.813 125.704 172.814 125.521 172.631C125.156 172.448 124.973 172.265 124.79 172.082C124.242 171.534 123.694 171.168 123.329 170.62C122.232 169.523 121.319 168.427 120.405 167.33C118.395 165.137 116.568 162.761 114.924 160.384C113.097 158.008 111.453 155.449 109.991 152.708C109.443 151.611 108.895 150.697 108.529 149.6C107.616 149.235 107.433 148.321 107.433 147.224C107.068 146.493 106.702 145.579 106.519 144.848C106.519 144.665 106.702 144.665 106.702 144.665C107.068 145.031 107.25 145.396 107.616 145.762C107.798 145.031 107.981 144.3 107.981 143.751L108.347 141.741C105.971 141.558 103.596 142.655 101.952 144.3C101.952 144.665 101.586 145.031 101.221 145.396C100.856 145.945 100.49 146.31 100.307 146.859C99.7593 148.138 100.125 149.783 99.0285 150.697C98.8458 150.88 98.8458 150.88 98.6631 150.88C99.2112 153.256 98.8458 155.998 98.8458 158.557V158.739C98.8458 161.481 98.8458 164.223 98.6631 166.964L98.4804 169.706C98.2977 173.362 98.2977 177.017 98.6631 180.673C100.307 179.211 101.952 177.931 103.596 176.652C104.692 175.738 105.789 175.007 107.068 174.093L107.981 173.362C109.077 172.631 110.356 171.717 111.453 171.168C113.097 170.437 114.559 170.62 116.203 171.351C117.847 172.082 119.309 172.996 120.771 173.727C122.415 174.459 123.877 175.372 125.521 176.104C126.617 176.652 128.079 177.2 128.81 178.114C128.81 177.931 128.992 177.749 128.992 177.383C128.992 177.017 128.992 176.652 129.175 176.286C131.733 171.534 134.108 166.599 136.483 161.847C137.762 159.47 138.859 156.912 139.955 154.535L141.051 152.159C141.234 151.794 141.416 151.428 141.599 150.88C141.965 150.331 142.147 149.783 142.513 149.052C142.695 148.869 142.878 148.504 142.878 148.321V148.138C142.878 148.138 143.244 147.224 142.878 147.407C142.695 147.407 142.695 147.407 142.695 147.224C143.061 146.859 143.426 147.224 143.609 147.59C144.157 148.504 143.244 150.149 142.878 151.063C141.782 153.987 140.686 157.094 139.407 160.019C137.032 165.685 134.474 171.168 132.098 176.835V177.017C132.647 176.652 133.195 176.286 133.743 175.921C135.022 175.007 136.301 174.093 137.58 173.179C139.955 171.534 142.33 170.072 144.705 168.61L145.253 168.244C146.532 167.513 147.629 166.964 149.09 167.147C150.369 167.33 151.648 168.061 152.927 168.61H153.11L156.764 170.437C156.398 168.792 155.85 167.147 155.485 165.685C154.571 162.578 153.658 159.47 152.562 156.363C151.648 153.439 150.552 150.697 149.456 147.955L149.09 147.041C148.542 145.945 148.177 144.665 146.898 144.3C145.619 143.934 144.157 144.482 142.878 143.751C142.695 143.751 142.695 143.568 142.878 143.386L143.609 143.203C145.071 142.837 146.532 142.472 147.994 142.837C149.456 143.203 150.552 144.482 151.283 145.762C152.013 147.224 152.562 148.686 153.11 150.149L153.292 150.331C154.023 151.976 154.571 153.804 155.302 155.449C156.581 158.922 157.677 162.395 158.591 165.868C159.139 167.513 159.504 169.158 160.053 170.986C160.235 171.534 160.418 172.082 160.601 172.631C160.783 172.814 160.966 172.996 161.149 173.362C161.514 173.727 161.149 174.276 160.783 174.459C160.783 174.824 160.601 175.19 160.418 175.555C159.504 176.835 157.312 176.469 157.312 174.824C157.312 174.459 157.495 174.276 157.677 174.093C157.312 173.91 156.947 173.727 156.398 173.545L152.379 171.534C151.283 170.986 150.004 170.072 148.725 169.889C147.629 169.706 146.35 170.62 145.253 171.168C142.878 172.448 140.32 173.727 137.945 175.007C136.849 175.738 135.57 176.286 134.474 177.017C133.56 177.566 132.464 178.297 131.368 178.663C130.819 179.028 130.271 179.028 129.906 178.663C130.089 179.942 130.089 181.221 130.089 182.684C130.089 184.512 130.271 186.157 130.271 187.984V188.715C130.271 192.554 130.454 196.575 130.454 200.413C130.454 214.305 130.271 228.196 130.271 242.088C130.271 249.033 130.089 255.979 129.906 263.108C129.906 266.032 129.723 268.957 129.541 272.064L129.358 273.709C129.175 277.182 128.992 280.472 128.444 283.945C128.444 284.31 127.713 284.31 127.531 283.945C126.983 280.289 126.983 276.633 126.8 272.978V272.247C126.617 268.408 126.617 264.387 126.617 260.549C126.617 246.657 126.983 232.766 127.348 218.874C127.531 211.929 127.531 204.983 127.896 197.855C128.079 194.382 128.079 190.909 128.262 187.436C128.262 185.791 128.444 184.329 128.444 182.684V181.953C128.444 181.587 128.444 181.039 128.444 180.673C126.983 181.221 125.704 180.308 124.607 179.576C123.146 178.845 121.684 178.114 120.223 177.383L118.761 176.652L115.838 175.19C114.559 174.459 113.462 173.91 112.183 174.641C107.25 177.566 102.5 181.221 98.4804 185.243C97.7496 185.974 95.9225 185.791 95.7398 184.512C94.8263 179.028 95.3744 173.545 95.9225 168.061L96.1052 166.051C96.2879 163.674 96.4706 161.298 96.836 158.739C97.0187 157.643 97.0187 156.546 97.2014 155.449L97.3841 154.718C97.5669 153.439 97.7496 152.159 98.115 150.88C97.9323 150.88 97.9323 150.697 97.7496 150.697C96.6533 149.6 97.2015 147.772 97.7496 146.493C98.2977 145.213 99.0285 144.117 99.942 143.203C100.125 143.02 100.49 142.837 100.673 142.837C103.048 141.192 105.606 140.461 108.347 141.375C108.347 141.01 108.529 140.644 108.529 140.278V139.913C108.712 138.816 108.895 137.354 109.626 136.806ZM133.743 279.375C134.474 279.192 135.204 279.375 135.753 279.923C136.301 280.472 136.483 281.203 136.301 281.934C136.118 282.3 135.935 282.665 135.753 282.848C135.57 283.031 135.204 283.214 134.839 283.396H134.656C134.291 283.579 133.926 283.579 133.56 283.396C133.195 283.214 132.829 283.031 132.647 282.848C132.464 282.665 132.281 282.3 132.098 281.934C131.916 281.568 131.916 281.203 132.098 280.837V280.655C132.281 280.289 132.464 279.923 132.647 279.741C133.195 279.558 133.56 279.375 133.743 279.375ZM177.227 205.714C177.41 205.531 177.592 205.714 177.41 205.897C176.313 208.09 175.035 210.466 173.756 212.66C173.938 213.208 173.938 213.939 174.121 214.488C174.669 217.047 175.217 219.423 175.583 221.982C177.044 231.121 177.775 240.26 178.323 249.582C178.871 258.904 179.054 268.043 179.054 277.365C179.054 278.096 178.506 279.01 177.592 279.192C177.227 279.192 176.862 279.192 176.496 279.192C175.583 279.01 175.035 278.096 175.035 277.365C174.852 272.247 174.486 266.946 174.121 261.828C173.39 252.689 173.025 243.55 172.477 234.411L172.294 231.121C172.111 227.648 171.929 224.175 171.929 220.702C171.929 218.326 171.929 216.133 171.929 213.757C171.929 211.563 171.563 209.37 172.111 207.176C172.111 207.176 172.294 206.994 172.294 207.176C172.842 208.273 173.025 209.37 173.39 210.466C174.669 208.821 175.948 207.176 177.227 205.714ZM95.9225 149.6C96.1052 149.6 96.1052 149.783 95.9225 149.783C93.5473 150.149 91.1721 151.063 88.7969 151.976H88.6142C86.239 152.89 84.0466 153.804 81.8541 155.084C77.6518 157.46 73.6323 160.384 70.1608 163.857C56.2751 177.383 50.0631 197.123 45.4954 215.584C42.9375 225.82 41.1105 236.239 39.8315 246.84C39.2834 251.958 38.918 257.259 38.5526 262.376C38.3699 265.118 38.3699 267.677 38.3699 270.419C38.3699 271.881 38.3699 273.161 38.3699 274.623C38.3699 275.171 38.5526 276.085 38.3699 276.633C38.1872 277.182 37.8217 277.73 37.4563 278.096C37.0909 278.644 36.3601 278.644 35.9947 278.096L35.812 277.913C35.4466 277.364 35.0811 276.816 34.8984 276.085C34.8984 275.354 34.8984 274.44 34.8984 273.709C34.8984 272.064 34.8984 270.602 34.8984 268.957C34.8984 266.032 35.0811 262.925 35.2638 260C35.6293 253.968 36.1774 247.754 37.0909 241.722C38.5526 230.938 40.7451 220.337 43.6684 209.918C46.409 200.048 49.6977 190.178 54.2654 181.221C58.6503 172.813 64.1315 164.954 71.6225 158.922C75.0939 156.18 78.9308 153.804 82.9503 152.159C84.9601 151.245 87.1526 150.514 89.3451 150.149C91.5375 149.783 93.73 149.783 95.9225 149.6ZM134.291 262.011C134.656 262.011 135.022 262.011 135.387 262.376L135.753 262.742C135.935 262.925 135.935 263.108 136.118 263.29C136.483 263.656 136.483 264.204 136.301 264.753C136.301 265.118 136.118 265.301 136.118 265.484L135.753 265.849C135.387 266.032 135.204 266.215 134.839 266.398C134.656 266.398 134.474 266.398 134.291 266.398H134.108C134.108 266.398 134.108 266.398 133.926 266.398C133.926 266.398 133.926 266.398 133.743 266.398C133.195 266.398 132.829 266.215 132.464 265.849C132.098 265.484 131.916 264.935 131.916 264.57V264.387C131.916 264.021 131.916 264.021 132.098 263.656C132.281 263.29 132.464 263.108 132.647 262.925C133.012 262.194 133.56 262.011 134.291 262.011ZM132.647 238.98C133.377 238.249 134.474 238.249 135.204 238.615C135.387 238.798 135.57 238.98 135.753 238.98C136.118 239.346 136.301 240.077 136.483 240.625C136.483 241.174 136.301 241.905 135.753 242.27H135.57C135.387 242.453 135.022 242.636 134.656 242.819C134.108 243.002 133.743 243.002 133.195 242.636C132.829 242.453 132.464 242.088 132.098 241.722C131.916 240.808 132.098 239.712 132.647 238.98ZM133.012 215.95C133.377 215.767 133.56 215.767 133.926 215.95C134.108 215.95 134.291 215.95 134.474 216.133C134.656 216.133 134.839 216.315 135.022 216.498C135.204 216.681 135.387 216.681 135.387 216.864C135.57 217.047 135.753 217.412 135.753 217.595V218.143V218.692L135.57 219.24L135.387 219.423C135.204 219.606 135.204 219.788 135.022 219.788C134.839 219.971 134.839 219.971 134.656 219.971C134.108 220.337 133.56 220.519 132.829 220.337C132.464 220.154 132.098 219.971 131.916 219.788C131.733 219.606 131.55 219.24 131.368 218.874V218.509C131.368 218.143 131.368 217.961 131.368 217.412C131.368 217.229 131.55 216.864 131.55 216.864C131.916 216.498 132.464 216.133 133.012 215.95ZM158.956 199.317C159.87 199.317 160.601 199.317 161.514 199.317H162.245C163.341 199.317 164.255 199.134 165.168 200.048C165.716 200.596 165.534 201.51 164.986 201.876C164.072 202.424 162.976 202.241 162.062 202.059C160.966 202.059 159.87 201.876 158.774 201.876C156.764 201.693 154.571 201.693 152.562 201.693C150.552 201.693 148.359 201.693 146.35 201.693C144.157 201.693 141.965 201.876 139.955 201.693C139.589 201.693 139.589 201.327 139.955 201.145C141.965 200.414 144.157 200.231 146.167 200.048C148.359 199.865 150.369 199.5 152.562 199.5C154.571 199.5 156.764 199.317 158.956 199.317ZM133.012 192.554C133.377 192.554 133.743 192.737 134.108 192.737L134.474 193.102C134.839 193.468 135.022 193.651 135.022 194.016V194.564C135.022 194.93 135.022 195.113 134.839 195.478C134.839 195.844 134.656 196.027 134.291 196.21C134.108 196.392 133.926 196.575 133.56 196.758C133.377 196.941 133.012 196.941 132.829 196.941C132.464 196.941 132.098 196.758 131.733 196.575L131.368 196.21C131.002 195.844 130.819 195.661 130.819 195.296V194.747C130.819 194.382 130.819 194.199 131.002 193.833C131.002 193.468 131.185 193.285 131.55 193.102C131.733 192.919 131.916 192.737 132.281 192.554C132.464 192.554 132.829 192.554 133.012 192.554ZM139.772 139.364C140.32 138.633 141.051 139.364 141.051 139.913C141.051 141.558 141.234 143.02 141.599 144.665C141.782 145.396 141.965 146.127 142.33 146.676L142.513 147.041C142.878 147.955 143.244 148.686 142.695 149.6C142.513 149.966 141.965 150.331 141.416 150.331C139.041 150.149 138.676 146.859 138.493 145.031C138.128 143.02 138.676 141.01 139.772 139.364Z" fill="#282828"/>
</g>
<mask id="mask15_2791_763" style="mask-type:luminance" maskUnits="userSpaceOnUse" x="0" y="0" width="486" height="279">
<path d="M486 0.267822H0V278.278H486V0.267822Z" fill="white"/>
</mask>
<g mask="url(#mask15_2791_763)">
<path fill-rule="evenodd" clip-rule="evenodd" d="M164.253 96.7764C163.522 83.9817 159.32 69.3592 147.261 63.1446C120.586 52.3605 85.3236 79.5949 83.4965 107.561C82.7657 117.065 88.0642 127.484 97.7476 130.225C99.9401 133.15 103.046 134.795 106.335 136.257C143.972 155.998 168.455 139.913 164.253 96.7764Z" fill="white"/>
</g>
<mask id="mask16_2791_763" style="mask-type:luminance" maskUnits="userSpaceOnUse" x="0" y="0" width="486" height="279">
<path d="M486 0.267822H0V278.278H486V0.267822Z" fill="white"/>
</mask>
<g mask="url(#mask16_2791_763)">
<path fill-rule="evenodd" clip-rule="evenodd" d="M172.842 88.734C171.563 84.8956 170.102 81.24 168.64 77.5844C167.178 73.9287 165.899 70.2731 164.072 66.8003C153.293 46.3287 133.743 46.3287 123.694 49.0705C118.396 46.8771 108.712 47.4254 103.231 49.436C94.461 52.7261 83.6813 65.8864 79.8444 71.7354C71.6226 84.7128 66.6895 102.077 71.988 117.065C72.7189 119.076 73.6324 120.904 74.5459 122.549C73.9978 123.463 73.0843 124.194 72.3534 125.108C69.9782 127.484 67.6031 129.86 65.4106 132.602C63.4008 135.343 61.5737 138.268 60.2948 141.375C57.9196 147.407 57.7369 154.17 61.0256 159.836C63.7662 164.771 68.6993 168.427 74.3632 168.792C74.7286 168.792 74.9113 168.792 75.2767 168.975C76.0076 170.255 76.9211 171.351 78.0173 172.265C81.1234 175.19 88.6143 176.835 92.8166 176.835C92.9993 177.017 93.182 177.2 93.5474 177.383C96.1053 179.394 98.8459 181.587 101.952 183.049C103.962 183.963 106.702 184.877 108.712 184.146C109.626 184.877 111.27 184.694 112.184 184.146C113.828 183.232 115.107 181.77 115.838 180.125C117.665 176.286 117.299 171.9 116.751 167.878C116.203 163.309 115.655 158.739 115.107 154.17C114.741 150.514 114.193 146.859 113.28 143.386C112.732 141.558 112.001 139.913 111.087 138.268C111.087 138.085 111.087 138.085 111.087 137.902C110.722 136.806 110.174 136.44 109.443 135.709C109.26 135.709 109.26 135.526 109.077 135.526C108.712 135.161 108.347 134.612 107.799 134.429C107.616 134.247 107.433 134.064 107.25 133.881C105.789 132.419 104.51 130.957 103.414 129.312C102.317 127.666 101.221 126.021 100.308 124.376C99.394 122.731 98.6632 120.721 97.7497 119.076C97.7497 118.893 97.3843 118.893 97.3843 119.076C97.0188 119.441 96.8361 119.807 96.8361 120.172H96.6534C96.6534 119.624 96.1053 119.076 95.3745 119.259C94.2783 119.441 93.5474 119.441 92.6339 119.076C92.8166 117.979 92.9993 116.882 92.9993 115.968C93.182 113.958 93.5474 112.13 93.7301 110.119C94.2782 110.302 94.6437 110.485 95.1918 110.668C95.9226 111.033 96.4707 111.399 97.2016 111.947C97.7497 112.496 98.1151 113.227 98.8459 113.592C99.5767 113.958 100.49 113.41 100.308 112.496C99.7595 110.668 97.2016 109.754 95.5572 109.388C95.0091 109.206 94.461 109.206 93.9128 109.206C94.0955 107.926 94.0955 106.647 94.2782 105.367C94.2782 104.819 94.2783 104.27 94.461 103.539C95.7399 103.174 97.0188 102.991 98.2978 103.174C98.6632 103.539 99.2113 103.905 99.5767 104.27C100.856 105.367 102.317 106.464 103.596 107.561C103.779 107.743 103.779 107.743 103.962 107.926C104.693 108.657 105.789 107.926 105.606 107.012C104.51 99.1526 109.26 92.938 114.924 88.1857C121.136 82.885 132.281 82.1539 139.59 73.0148C142.878 73.746 150.552 75.7566 153.658 80.6917C158.043 87.6373 157.495 94.0347 157.678 101.894C158.043 109.754 158.774 118.162 157.129 126.021C155.485 133.333 151.1 139.364 144.157 142.289C143.974 142.289 143.792 142.472 143.609 142.472C139.955 143.751 136.118 144.3 132.281 143.568C128.079 142.837 124.608 140.827 121.136 138.451C120.953 138.268 120.588 138.633 120.771 138.816C125.338 144.848 134.291 147.041 141.417 145.396C141.782 145.396 142.147 145.214 142.33 145.214C140.686 149.783 141.051 154.901 143.061 159.47C144.34 162.212 146.167 164.588 148.542 166.416C151.1 168.427 154.206 170.072 156.033 172.996C157.678 175.555 157.129 178.48 154.389 180.125C153.658 180.49 153.475 181.77 154.023 182.318C154.206 182.501 154.571 182.684 154.754 182.866C156.399 183.963 160.601 186.339 161.332 186.339C167.544 187.07 171.563 182.501 174.304 177.2C177.41 170.803 176.679 163.126 173.208 157.277C170.467 152.525 164.986 147.772 167.178 141.558C167.909 139.365 169.553 137.537 171.015 135.892C172.842 134.064 174.669 132.236 176.314 130.225C177.958 128.215 179.42 126.204 180.333 123.645C181.612 119.99 180.881 116.151 179.968 112.496C177.958 103.905 175.583 96.2281 172.842 88.734Z" fill="#282828"/>
</g>
<mask id="mask17_2791_763" style="mask-type:luminance" maskUnits="userSpaceOnUse" x="0" y="0" width="486" height="279">
<path d="M486 0.267822H0V278.278H486V0.267822Z" fill="white"/>
</mask>
<g mask="url(#mask17_2791_763)">
<path fill-rule="evenodd" clip-rule="evenodd" d="M138.492 129.129C137.03 128.58 135.934 127.666 135.02 126.387C134.655 126.021 134.655 125.473 134.655 125.108C134.655 124.742 135.02 124.194 135.386 124.011C135.751 123.645 136.117 123.645 136.665 123.645C137.03 123.645 137.396 123.828 137.761 124.376C138.309 125.108 139.04 125.656 139.771 126.021C140.502 126.387 141.415 126.57 142.329 126.387C143.973 126.204 145.252 125.29 146.348 124.011C146.531 123.828 146.714 123.645 146.896 123.462C147.079 123.28 147.079 123.28 147.262 123.097C147.444 123.097 147.627 123.097 147.81 123.097C147.993 123.097 148.175 123.28 148.175 123.462C148.358 123.645 148.358 123.828 148.358 124.011C148.175 125.29 147.627 126.387 146.714 127.301C145.617 128.215 144.338 128.946 142.877 129.311C141.232 129.86 139.771 129.677 138.492 129.129ZM143.425 109.206C144.887 110.119 147.262 112.313 145.617 114.689C143.608 116.7 140.867 114.323 139.405 113.227C138.126 112.313 136.665 114.506 137.944 115.42C147.993 122.914 152.012 109.206 144.156 107.926C143.242 107.926 142.877 108.84 143.425 109.206ZM125.337 100.432C125.52 98.2386 128.808 97.8731 128.991 99.8837C129.356 101.711 128.991 103.539 128.078 105.184C127.347 106.829 125.154 106.098 125.154 104.636C124.972 102.625 125.337 101.894 125.337 100.432ZM150.002 99.5181C150.368 98.9698 151.099 98.6042 151.829 98.787C154.205 99.5181 153.474 102.991 152.743 104.636C152.195 105.55 150.733 105.733 150.185 105.002C149.089 103.722 148.541 100.98 150.002 99.7009C149.82 99.7009 149.82 99.7009 150.002 99.5181ZM128.26 91.1102H128.626C129.722 90.9274 131.366 90.7446 132.097 91.6585C132.462 92.2068 132.645 93.1208 132.097 93.6691C131.001 94.583 129.905 94.2174 128.626 94.2174C127.529 94.2174 126.616 94.4002 125.52 94.7658C123.327 95.3141 121.5 96.5936 119.673 97.8731C119.49 98.0559 119.125 97.6903 119.308 97.5075C120.404 95.3141 122.414 93.6691 124.606 92.5724C125.702 91.8413 126.981 91.2929 128.26 91.1102ZM147.81 90.1963H148.175C151.281 90.9274 155.484 92.2068 156.945 95.3141C156.945 95.6797 156.945 95.8625 156.945 95.8625C156.945 95.8625 156.945 96.0453 156.762 96.0453H156.58C155.849 95.8625 155.301 95.6797 154.753 95.3141L154.205 94.9486C153.474 94.583 152.926 94.2174 152.195 94.0347C150.733 93.4863 149.089 93.1208 147.444 92.938C147.079 92.938 146.714 92.7552 146.531 92.5724C146.348 92.3896 146.165 92.2068 145.983 91.8413C145.8 91.4757 145.983 91.1102 146.165 90.5618C146.348 90.1963 146.531 90.0135 146.896 89.8307C147.079 90.1963 147.444 90.1963 147.81 90.1963Z" fill="#282828"/>
</g>
</g>
<defs>
<clipPath id="clip0_2791_763">
<rect width="486" height="276" fill="white" transform="translate(0 0.267822)"/>
</clipPath>
</defs>
</svg>
