<?xml version="1.0" encoding="UTF-8"?>
<svg id="Layer_1" data-name="Layer 1" xmlns="http://www.w3.org/2000/svg" xmlns:xlink="http://www.w3.org/1999/xlink" viewBox="0 0 188.35 248">
  <defs>
    <style>
      .cls-1 {
        mask: url(#mask-2);
      }

      .cls-2 {
        fill: #282828;
      }

      .cls-2, .cls-3, .cls-4, .cls-5 {
        stroke-width: 0px;
      }

      .cls-2, .cls-5 {
        fill-rule: evenodd;
      }

      .cls-6 {
        mask: url(#mask-3);
      }

      .cls-3 {
        fill: none;
      }

      .cls-7 {
        mask: url(#mask-5);
      }

      .cls-4, .cls-5 {
        fill: #fff;
      }

      .cls-8 {
        mask: url(#mask-4);
      }

      .cls-9 {
        clip-path: url(#clippath);
      }

      .cls-10 {
        mask: url(#mask-1);
      }

      .cls-11 {
        mask: url(#mask);
      }
    </style>
    <clipPath id="clippath">
      <rect class="cls-3" y=".03" width="188.35" height="247.94"/>
    </clipPath>
    <mask id="mask" x="-10.96" y="0" width="356.23" height="682" maskUnits="userSpaceOnUse">
      <g id="mask0_3718_399" data-name="mask0 3718 399">
        <path class="cls-4" d="m-10.74,0h356v248H-10.74V0Z"/>
      </g>
    </mask>
    <mask id="mask-1" x="-12.43" y="0" width="357.7" height="683.82" maskUnits="userSpaceOnUse">
      <g id="mask1_3718_399" data-name="mask1 3718 399">
        <path class="cls-4" d="m-10.74,0h356v248H-10.74V0Z"/>
      </g>
    </mask>
    <mask id="mask-2" x="-10.74" y="0" width="356" height="248" maskUnits="userSpaceOnUse">
      <g id="mask2_3718_399" data-name="mask2 3718 399">
        <path class="cls-4" d="m-10.74,0h356v248H-10.74V0Z"/>
      </g>
    </mask>
    <mask id="mask-3" x="-10.74" y="-.22" width="356" height="248.22" maskUnits="userSpaceOnUse">
      <g id="mask3_3718_399" data-name="mask3 3718 399">
        <path class="cls-4" d="m-10.74,0h356v248H-10.74V0Z"/>
      </g>
    </mask>
    <mask id="mask-4" x="-10.74" y="0" width="356" height="248" maskUnits="userSpaceOnUse">
      <g id="mask4_3718_399" data-name="mask4 3718 399">
        <path class="cls-4" d="m-10.74,0h356v248H-10.74V0Z"/>
      </g>
    </mask>
    <mask id="mask-5" x="-10.74" y="0" width="356" height="248" maskUnits="userSpaceOnUse">
      <g id="mask5_3718_399" data-name="mask5 3718 399">
        <path class="cls-4" d="m-10.74,0h356v248H-10.74V0Z"/>
      </g>
    </mask>
  </defs>
  <g class="cls-9">
    <g class="cls-11">
      <path class="cls-5" d="m146.46,336.22c.35,1.06.71,2.13.71,3.19-1.76,1.77-4.23,3.9-5.64,5.31,1.76-10.63-3.52-20.19-6.7-30.11,1.06-1.42,5.29-3.19,5.29-4.96-.35-6.38-.71-13.46-1.41-21.26-2.47-24.45-4.58-50.31.7-74.75.35-2.83,1.06-5.31,4.58-5.67,10.57,42.16,2.12,84.67,2.12,127.19l-.35.35.71.71Zm15.86,345.78c8.81,0,16.57-1.42,24.32-4.96,2.12-.71,4.93-1.77,5.29-3.19.71-4.25.35-8.5-.35-13.11-.7-7.79-.7-13.82-2.82-21.97-2.12-7.79-4.23-13.82-2.12-21.61,0-2.48-1.76-4.96-2.82-7.09-1.76-3.19-2.47-6.73-3.88-9.92,2.82-.35,5.64-1.06,8.11-1.77l.35,1.42c0,.35.35.35.71.35s1.06,0,1.06-.71c-.35-6.02-1.06-12.04-1.76-18.42-6.35-59.52-16.21-108.77-32.78-157.66-3.88-11.34-8.11-23.38-8.11-35.78,2.11-.35,4.58-.71,7.05-.35,16.21-3.9,13.04-38.26,12.34-48.54,1.06-.35,2.47-.71,3.52-1.42l.35.35c16.21-40.03,9.52-106.64,5.99-151.28-2.47-15.94,1.06-44.99-13.39-53.14-11.63-3.9-22.91-6.38-34.89-9.21-2.12-1.42-4.94-2.13-7.4-2.83l2.12-2.13c1.76-2.48,1.41-7.09-.71-8.5-1.41,0-3.17,1.42-4.58,2.13-1.76-3.9-3.53-7.8-4.93-12.4h-.35c-1.41-13.11-18.33-15.23-27.85-10.98-10.57,5.67-4.93,18.78-9.87,27.99l-1.76-2.12c-2.82,0-8.11,3.54-9.52,4.61-1.06.35-.35,3.54-.35,4.61-14.1,3.19-33.13,3.9-37.36,19.84-7.4,29.41-6.34,59.87-14.8,89.28-8.81,23.74-21.5,53.14-21.85,74.75-.35,4.25-.7,27.28,2.47,26.22l2.82,2.12c-3.17,4.96-.7,12.05.7,17.71,2.82,12.04,8.46,25.51,20.44,19.48,13.04,71.21,45.12,143.13,34.19,216.47,0,.35,0,1.06.71.71l.7-.35c1.41.35,3.17.71,4.58,1.06-1.41,4.61-1.76,9.21-2.47,14.53-.7.35-.35,1.77-.35,2.48-11.63-.71-18.33,11.69-26.79,18.42-5.64,4.96-11.98,9.57-18.68,14.17-5.64,3.19-10.57,7.09-9.52,13.11l-1.76-.36c-2.82,8.86,5.99,10.63,15.16,11.69,21.85,2.12,40.89-2.84,66.27-12.05,3.17.35,5.64-4.25,5.99-7.44.35-2.13-.7-4.25,0-6.38,3.17-6.38,4.58-23.74.35-31.53-1.41-1.77-3.52-3.54-3.17-6.38,0-3.19.35-6.02,0-9.21,5.29-.35,10.22-1.77,14.8-3.54.71.35,1.76,0,1.76-1.06.71-13.82,1.76-29.05,2.11-43.22,1.06-30.82-5.99-61.29-11.28-91.05-.35-9.57-2.11-18.78-2.82-28.7-.7-9.21-.7-18.07-1.06-27.28l3.17-.71c25.73,66.96,46.17,133.92,60.27,199.46-.35.35-1.06.71-1.06,1.06s0,.35.35.35c3.52.71,6.7,1.06,10.22,1.42-1.06,8.15,4.23,17.72-.35,25.16-1.06,1.77-1.41,2.12-.35,3.54-6.7,12.4-10.57,22.67-13.39,33.66l-1.76-1.42c-2.47,1.77-2.47,5.32-2.47,8.86,0,2.12-.71,4.25.71,6.02,2.12,4.96,15.16,6.73,22.56,6.73Z"/>
    </g>
    <g class="cls-10">
      <path class="cls-2" d="m114.39,98.14c-1.76,1.42,0,12.05,1.41,14.17-9.87,6.38-19.74,12.4-29.96,18.42l-1.06.71c-.35.35-1.06.35-1.41.35h-.35l-.35-.35c-2.82-2.48-4.93-7.09-7.4-10.63,3.88-3.54,1.76-9.92,1.76-14.52-.7,0-.71,2.12-1.06,2.83v.71c-.35,1.42-.71,3.19-1.06,4.25-1.76-2.13-10.22,2.83-11.63,4.61-1.76,1.06-1.06,3.19-1.06,4.61-15.86,3.19-36.3,5.32-38.42,25.51-2.47,10.63-3.88,21.61-5.29,32.59l-.35,1.77c-2.11,18.78-4.23,37.91-10.22,55.98l-2.47,5.67c-4.93,12.05-10.22,24.45-13.39,37.2-2.47,5.32-9.16,57.75.7,53.85-3.52,5.67-.7,13.11.35,19.13,2.47,9.92,7.4,26.22,20.8,21.26,10.22,53.85,29.96,105.93,34.9,160.49,1.76,17.71,1.76,35.78-1.06,53.5-.35,1.77,1.06,3.19,2.82,2.48.7.35,1.76.35,2.47.35-1.06,3.9-1.41,8.15-2.11,12.05v.35c-.35.35-.7,1.06-.7,1.77-5.99,0-11.28,3.9-15.16,8.15-7.05,7.44-14.45,14.53-22.91,20.2-5.99,4.96-16.57,7.79-16.92,17.01-3.17-.35-2.47,6.38-1.76,8.15.7,2.13,2.47,3.19,4.23,3.9,25.73,8.5,53.93.35,78.25-8.86,4.23.71,7.4-4.96,7.75-8.86.35-2.13-.7-3.9,0-6.02l.35-.71c.7-2.12,1.41-3.9,1.76-6.02v-.35c1.06-7.44,1.76-19.84-2.11-26.22-4.58-3.9-2.11-7.79-2.82-13.11,4.58-.35,9.16-1.42,13.39-3.19,1.76.35,3.17-1.06,3.17-2.48v-2.48c.71-13.46,1.76-27.28,2.12-40.74,1.06-30.82-5.99-60.94-11.28-91.41-.71-11.69-2.82-23.03-3.17-34.72-.35-7.08-.35-14.17-.7-20.9,25.03,64.48,45.47,130.38,59.92,198.05-1.41,1.06-1.41,3.54.35,3.9,2.82.71,5.99,1.06,8.81,1.42-.35,7.09,3.88,17.01,0,23.03v.35c-.71,1.06-1.41,2.48-.71,3.9-5.29,9.57-9.52,19.84-12.34,30.47-3.17-1.42-4.93,4.96-4.93,7.44.35,3.19-1.41,8.15,1.06,10.27,13.75,8.86,32.43,7.44,47.58,2.48,2.82-1.06,5.99-2.12,8.46-3.9,1.06-1.06,1.06-2.83,1.06-4.25v-.71c0-4.25,0-8.15-1.06-12.4.35-6.02-.71-11.69-1.76-17.36-.71-4.61-2.82-8.86-3.17-13.82-1.41-4.25,1.06-8.15.35-12.4-.71-2.48-2.47-4.61-3.53-7.09-1.06-2.12-1.76-4.25-2.47-6.73,1.76-.35,3.17-.71,4.93-1.06.71,2.83,5.29,2.13,4.93-.71-3.53-44.99-10.57-89.99-21.85-133.92-5.29-25.86-18.33-50.31-20.44-76.52,1.76-.36,3.52-.36,4.93-.36h.35c1.06,0,2.12.36,3.17-.35,13.75-8.5,12.34-34.72,11.28-48.89.71-.35,1.06-.36,1.76-.71.35.35,1.06.35,1.41-.35.71-1.77,1.76-3.19,2.12-4.96,15.86-54.91,5.64-112.66,2.47-168.64-1.41-11.34-1.41-27.28-12.69-33.3-3.88-1.77-8.11-2.48-12.34-3.54-9.52-2.83-19.03-3.9-28.2-7.79,2.11-2.83,1.76-7.09,0-10.27-1.41-2.13-4.23-.36-5.64.35-1.41-3.9-2.82-7.79-3.88-12.05Zm25.73,564.02v.35c-.35,2.13-.7,4.25-.7,6.38-5.99,5.67,21.5,6.38,24.32,6.38,7.05,0,27.14-2.48,28.2-10.63v.35c0,2.48.35,7.44-1.06,9.57-10.93,5.67-23.62,7.79-35.6,6.38h-.35c-4.93-.71-14.1-2.48-16.57-6.73.71-3.54-.71-9.21,1.76-12.05Zm19.74-37.55c6.7-7.09,17.62-2.13,24.67,2.12.35,3.19,2.47,4.25,2.47,7.79,1.41,10.27,4.93,21.61.71,31.53-13.04,7.09-28.55,6.38-42.65,3.54-.35-.35-.71-.71-1.41-.71-.35-2.83.35-6.02,1.06-8.86,1.41-6.02,3.17-12.04,4.94-18.07,2.82-1.77,3.88-6.02,5.64-8.86.35-.71.71-1.77,1.41-2.48,1.76-1.06,2.47-3.9,3.17-6.02Zm-77.9,20.19c.7,7.44-6.34,10.27-12.34,12.05-6.34,2.48-13.04,4.25-19.74,6.02-13.75,3.54-27.85,4.96-41.94,2.83h-.35c-3.88-.71-11.28-1.42-12.34-6.38,0-.71-.35-3.54,0-4.25h.35c1.06,3.9,5.29,6.02,9.52,6.73,2.11,2.12,5.64,1.06,8.11,1.42,16.92,0,33.49-5.31,49.7-10.27,5.64-2.48,15.86-3.9,19.03-8.15Zm-1.41-37.91c2.82-1.06,3.52,7.44,3.88,9.21,1.06,8.5,1.06,21.97-5.99,27.99-7.4,3.19-15.16,4.61-22.56,7.09l-1.76.35c-14.1,4.25-28.55,8.15-43.71,7.44-1.06-2.12-8.11-.35-10.93-4.25-3.52-6.38,5.64-10.63,9.87-13.11,8.46-5.31,16.21-11.69,23.26-18.78,3.17-3.19,6.34-7.08,10.22-9.57h.35c3.17-2.13,7.75-3.54,11.63-2.13,3.88,1.42,5.29,5.67,8.46,8.15,7.05,4.61,14.45-2.83,16.57-9.21v-.35q0-.36-.35-.36v-.35c1.06,0,1.06-1.06,1.06-2.13Zm101.16-5.67c-1.06,5.31,1.76,9.92,3.52,14.53.35,3.19-1.41,6.02-1.06,9.21-6.35-4.96-16.21-9.57-23.97-4.96,0-4.61-1.41-8.86-2.82-13.11l-.71-1.77c-.35-1.42-.7-2.48-1.41-3.9,9.16,1.42,17.98,1.42,26.43,0Zm-125.83-7.44c7.4,1.06,15.16,1.77,22.56,1.06l-.71,13.11c0,.71.35,1.06.35,1.06-1.06,4.25-4.58,8.15-9.16,8.86-6.7.71-7.75-8.15-13.39-9.57,1.06-2.48.35-5.67.35-8.5.35-2.13.35-4.25,0-6.02Zm24.67,11.69c0,.35.35.71.35.71q-.35,0-.7.35c.35-.35.35-.71.35-1.06Zm67.68-266.78c6.7,2.48,13.75,2.83,20.8,1.06-1.41,11.34-2.82,37.55-12.34,44.29-1.76-.35-3.17-.35-4.93-.35-1.06,0-1.76.35-2.82.35h-1.76c-3.17-.35-6.35-4.96-9.52-2.83-.35-.71-1.06-1.06-1.76-1.77-2.47-4.25,0-9.92-1.41-14.53.71-.71.35-2.12-.71-2.83-1.41-1.42-4.58-.35-5.64-2.48,6.7-5.67,13.39-11.69,17.62-19.49v-.35c1.06.71,2.47.35,2.47-1.06Zm-153.68-3.9c4.58,2.48,9.52,4.25,14.8,5.31,1.06,10.27,2.11,20.55,3.88,30.47h-.35c-2.47.35-4.58,1.06-6.7-.71-6.7-6.38-8.81-19.48-11.63-27.99v-.35c-.7-1.77-1.06-4.61,0-6.73ZM61.87,123.65c.7,3.54-3.17,41.1,3.88,34.72,4.58-7.44,10.22-14.17,14.8-21.61.7,2.48-1.41,5.67-.35,7.79-12.34,61.65-21.15,124-24.32,186.71-5.29,3.9-10.22,8.5-14.8,13.11-1.41,1.06-2.47,3.19-4.23,3.9-7.4-8.15-15.86-15.59-23.26-23.38,0-.71,0-1.06.35-1.77.35-2.13-2.47-3.54-3.52-2.13-2.47-6.02-2.47-12.75-2.11-19.13,1.06-10.63,5.29-20.9,8.11-31.18,8.11-31.53,13.75-64.48,11.28-97.43,0-.35-.35-.35-.35,0-2.11,34.36-5.64,69.08-16.21,102.39l-.35.71c-3.88,13.46-9.16,27.63-5.64,41.81-.35,1.77.7,3.9,2.11,4.96.7,1.42,1.41,2.83,2.11,4.25-.35,3.19,0,6.38,0,9.57-5.29-1.06-10.22-3.19-15.16-6.02-.35-1.77-.7-3.19-.7-4.96-3.52-30.11,7.4-59.17,18.68-86.45,10.57-31.89,8.46-66.25,17.62-98.14,5.64-11.69,21.15-12.75,32.08-17.71Zm60.63-2.13h.35c2.47,1.06,5.29,2.13,7.75,2.13,8.81,2.83,17.62,4.96,26.44,7.44l.71.35c3.88,1.06,7.4,2.13,10.22,5.31,2.47,3.19,3.52,7.09,4.23,10.63,3.88,32.59,5.99,65.54,7.75,98.14,1.06,27.28.35,54.91-6.7,81.49-1.06,3.54-2.12,7.44-2.47,10.98h-1.41c0-.36-.35-.36-.35,0-6.7,1.06-13.75.35-20.09-2.13,1.41-47.83,11.63-99.55-11.28-143.84h-.35l.71,1.77c1.76,5.31,3.52,10.63,4.93,15.94-1.76-.35-3.17,3.9-3.52,4.96-9.87,30.47-3.88,62.71-2.47,94.24-17.27,12.4-34.54,24.8-52.52,36.49-8.11-5.31-15.51-12.4-23.62-17.01,2.47-64.48,15.51-128.25,22.56-192.02,2.82,3.19,5.29,6.73,8.11,9.92,3.52,4.25,6.7,8.5,10.22,13.11.71,1.06,2.11.71,2.82-.35,6.35-12.4,10.57-25.86,17.98-37.55Zm20.44,88.93c9.87,41.1,1.76,83.26,1.76,124.71-.7.71-.35,1.77.35,2.48,0,.71.35,1.06.35,1.77-.71.71-1.41,1.42-2.11,2.13.7-8.86-3.88-17.36-6.7-25.51,1.76-1.77,5.29-2.83,4.93-5.67-.35-6.73-.71-13.46-1.41-20.19l-.35-3.9c-2.12-23.74-4.23-47.83,1.06-71.21v-.35c.71-1.42,1.06-3.9,2.12-4.25Zm-89.53,110.18c2.47-2.13-1.41-5.67-3.52-3.54-2.11,2.48,1.41,6.02,3.52,3.54Zm1.41-26.93c.35-1.42-1.06-3.54-2.47-2.48-1.41.71-1.06,2.48,0,3.54,1.06,1.06,2.11,0,2.47-1.06Zm2.47-30.82c3.88-5.31-4.23-7.44-3.17-1.06.35,1.42,2.82,3.19,3.17,1.06Zm5.64-29.41c2.11-2.48-2.47-4.96-3.52-1.77-.35,2.13,2.11,3.54,3.52,1.77Zm-21.15-64.48c-1.41.35-7.75-1.06-5.99,1.42-2.47,12.76-9.87,28.34.35,39.68,1.41,1.42,3.88,4.96,6.34,3.54,5.29-4.25,11.63-7.44,15.86-13.11,1.76-4.25.35-9.21.71-13.82.35-5.67,1.06-11.34,1.41-17.36,0-.35-.35-.35-.35-.35-6.34,0-12.34.35-18.33,0Zm17.98,1.06c-2.82,8.86-2.82,18.42-2.82,27.63,0,1.06-.35,1.77-.7,2.48-3.88,4.61-9.52,7.44-14.1,11.34-1.76-1.06-3.52-2.84-4.58-4.61-8.11-10.63-.71-24.09-.71-36.14h1.06c7.05.35,14.45.35,21.85-.71Zm5.99,32.95c-2.82,0-2.11,4.6.35,4.25,2.47-.71,2.11-4.25-.35-4.25Zm5.64-24.09c2.11-3.19-4.58-4.6-3.88-.71v.35c.35,1.42,3.52,2.48,3.88.35Zm4.23-27.63c-1.76-.35-3.17,2.13-1.41,3.19,2.11,1.77,4.23-2.48,1.41-3.19Zm43.71-38.62c2.47-2.48,4.23-3.54,4.93,1.06.35,2.12,0,4.96-2.12,6.02-9.87,9.56-13.39,23.38-19.74,35.07-5.64-6.73-10.93-14.17-16.57-20.9,7.4-4.61,15.16-9.21,22.56-13.82,3.88-2.48,7.75-4.61,10.93-7.44Zm-48.99,5.67c2.82,4.96,5.64,9.92,9.52,14.17.35.35,1.06.71,1.41,1.06-.71-.35-1.76.35-1.76,1.06-5.29,5.31-9.87,11.69-14.1,18.07-.7-10.63.71-21.26,0-31.89,1.41-1.06,3.17-1.77,4.93-2.48Z"/>
    </g>
    <g class="cls-1">
      <path class="cls-5" d="m47.43,29.76c0-2.83,4.23-3.9,5.29-1.06l.35.35c-.35-.35.35.35.35.35h.35c.71-7.09,3.17-14.53,9.87-18.07,9.16-4.61,19.74-5.31,29.61-4.96,4.93.35,10.93,1.06,15.51-1.42,1.41-.71,2.47-2.13,4.23-2.48,4.93-1.42,7.4,3.9,6.7,8.15,2.12,0,4.23,1.06,5.29,3.19.71,1.06.71,2.48,1.06,3.54,1.41,2.83,3.52,4.96,2.47,8.5,2.11,2.48.71,5.67-.71,8.15-.7,1.06-1.76,2.13-2.47,3.54-.71,1.42.35,2.83.71,3.9,3.52,8.5,3.52,18.07,1.41,26.93,3.88,1.77,4.93,7.09,2.47,10.27-.7,1.06-1.76,1.77-3.17,2.48-1.41.71-.35,4.25-.7,5.67-.71,3.9-4.23,6.38-7.75,3.9-2.11-.35-4.23,6.38-5.64,7.79-1.06,1.42-2.12,2.48-3.53,3.54-3.52,9.21-22.21,14.17-31.37,13.46-9.52-1.06-16.21-9.21-21.5-16.65-2.82-3.9-4.58-8.15-5.29-13.11-.7-4.61-.35-9.57,0-14.17,1.06-10.27,2.47-24.8,3.52-35.07-3.88,0-7.05-3.19-7.05-6.73Z"/>
    </g>
    <g class="cls-6">
      <path class="cls-2" d="m48.12,31.18c-1.06-1.06-2.82,0-2.47,1.42.35,1.77,2.11,2.83,3.88,3.54,1.41.71,3.17.71,4.58.71-.35,1.77-.7,3.9-1.06,5.67-.35,2.48-1.06,4.96-1.41,7.09-.35,2.48-1.06,4.61-1.41,7.09-.35,2.48-.7,4.61-1.06,7.09-.7,3.9-1.06,7.79-1.41,11.69l-.35,1.77c-.35,3.9-.71,7.79,0,11.69.7,3.54,2.82,7.09,4.93,10.27,2.11,2.83,4.58,6.02,7.05,8.5,4.93,4.96,10.93,9.21,18.33,9.92,3.17.35,6.34,0,9.16-1.06h.35c2.82-1.06,6.34-3.19,7.4-6.38.35-2.13-1.41-3.54-3.53-2.48-.71.35-1.41,1.06-2.11,1.42-.71.35-.71.71-1.41,1.06-1.41.71-2.47,1.06-3.88,1.77-2.82.71-5.64.71-8.46-.35-5.99-1.77-10.57-6.38-14.45-10.98-2.11-2.48-4.23-4.96-5.64-8.15-1.76-3.19-2.47-6.38-2.47-9.57,0-3.9.71-7.79,1.06-11.69.35-3.9.7-7.79,1.06-12.05.35-3.9.35-7.44.35-11.34v-6.73c0-2.13.35-3.9,0-6.02,0,0-.35-.35-.35,0s-.35.71-.35,1.06c-1.41-.35-2.47-1.42-3.52-2.48-1.41-.35-1.76-1.77-2.82-2.48ZM120.03,3.19c-.71-3.54-4.58-4.25-7.4-2.48-1.41.71-2.47,1.77-3.53,2.83-1.06,1.06-2.47,1.77-3.88,2.13-2.82,1.06-5.99,1.42-8.81,1.42-7.4,0-14.45-2.13-21.85-1.77-5.64.35-11.63,1.77-15.86,6.02-2.11,2.13-3.52,4.96-4.58,8.15-.35,1.42-.7,2.83-.7,4.25v.35c0,.71-.35,1.77-.35,2.48s.35,1.42.35,2.48c.35,1.77,2.82,1.42,3.17,0,.7-3.19.35-6.38,1.41-9.92.7-2.83,2.47-5.31,4.93-7.09,10.22-7.09,23.62-1.06,35.25-1.77,2.82,0,5.64-.71,8.11-1.42,1.41-.35,2.82-1.06,3.88-1.77,1.06-.71,2.11-1.42,3.17-2.48l.35-.35c.71-.71,1.76-1.42,2.82-.71.35.35.35,1.06.35,1.42v.35c0,2.13-.35,4.61.35,6.73.35,1.06,1.41,1.77,2.47,1.06,2.11-1.42,4.93,1.42,3.52,3.54-1.06,1.06-.35,3.19,1.41,3.19,2.82,0,4.23,3.54,1.76,5.31-2.11,1.42-.35,4.25,1.76,3.19-.35,0,0,0,.35.35,0,.35.35.35,0,.71,0,1.06-1.06,1.77-1.41,2.13-1.41,1.42-3.17,2.13-4.93,2.83-7.4,2.13-14.8-.35-22.21-2.13-7.4-1.77-15.86-2.48-22.56,2.48,4.58-2.83,10.57-2.48,15.51-1.42,6.7,1.42,13.39,4.25,20.44,4.96-1.76,3.54-2.82,7.44-2.11,11.34.35,2.83,1.41,4.96,2.82,7.44l.35.35c1.06,2.13,2.11,4.25,2.11,6.73s3.53,2.83,4.23.71c1.41-5.31-3.52-9.57-5.64-14.17-1.76-3.9-1.76-8.15-.35-12.05h4.94c1.41,0,2.82-.35,4.23-.71l.71,2.48c.7,3.19,1.41,6.38,1.76,9.57v7.44c-.35,2.13-.7,4.25-1.06,6.02-.35.35-.7,1.42-.35,1.77-2.47.71-4.23,2.48-4.93,5.31,0,0,0,.35.35,0,1.76-2.83,5.99-3.9,8.81-2.13,2.47,1.77,3.53,5.31,2.12,8.15-.71,1.42-1.76,2.48-3.52,3.19h-.35c-.71.35-1.41.71-2.12,1.42-.7,1.06-.7,2.13-.7,3.19v2.48s0,.35-.35.35l-.35.35h-.35q-.35-.35-.71-.71h-.35c-.71-.71-2.11-.35-2.47.35-.35.71-.71,1.06-.71,1.77h-.35l-.35.71c-2.12,2.48-3.88,4.96-5.99,7.09-1.06,1.42-2.47,2.48-3.88,3.54-1.06,1.06-3.53,1.77-3.53,3.54,0,.71.35,1.06.71,1.06,1.41.71,3.53-1.42,4.58-2.48,1.41-1.06,2.47-2.48,3.88-3.9,2.11-2.83,4.23-6.02,4.94-9.21,0,.71.35,1.06.71,1.77.7.71,1.41,1.42,2.47,1.42,2.12.35,4.23-.35,5.64-2.13,1.06-1.42,1.41-3.54,1.41-5.67v-1.42l.71-.35c.7-.35,1.76-1.06,2.47-1.77,2.82-2.48,4.23-7.09,2.82-10.63-.7-2.48-2.47-4.25-4.58-5.31.35-.71.35-1.77.71-2.83.35-1.42.35-2.83.35-4.61,0-2.83,0-5.67-.35-8.15-.71-4.61-2.11-9.21-4.93-12.75,2.12-.71,3.88-2.13,5.29-3.54,1.41-1.77,2.47-4.25,1.41-6.38-.35-.71-.71-1.06-1.06-1.42.71-1.42,1.06-3.19.71-4.96-.71-2.13-2.12-3.54-3.88-4.25.35-1.77,0-3.9-1.41-5.31-1.41-1.42-3.52-2.13-5.64-1.77-2.11-1.77-1.76-3.9-2.11-6.02Zm5.64,70.5c-1.76-1.06-3.88-.71-5.64,0-2.12,1.06-4.58,3.19-3.88,5.67.35,1.42,1.76,1.77,3.17,1.42,1.06-.35,1.41-1.42,1.76-2.48.35-.71.7-1.06,1.41-1.77,1.06-1.06,2.47-1.77,3.88-2.48-.7,0-.7-.35-.7-.35Zm-45.82-48.54c-4.58,1.06-8.81,3.9-11.63,8.15,0,.35-.35.71,0,1.06l.35.35c.35,0,.7,0,1.06-.35,2.47-4.25,5.99-7.44,10.22-9.21Zm-30.67.71c-.35-.71-1.41-.35-1.76.35q0,.35,0,0c-.35.35-.7,1.06-.7,1.77.7,3.54,4.93,6.38,8.46,6.02.35,0,.35-.35,0-.71-1.41-.71-2.47-1.42-3.52-2.48-1.06-1.06-1.41-2.48-1.76-3.54,0-.71-.35-1.06-.7-1.42Zm20.44-2.48c-1.76.35-3.52,1.06-4.93,2.48-1.41,1.42-2.82,3.54-2.82,5.31,0,1.42,1.76,2.13,2.47.71.35-.71.35-1.77.71-2.48.35-.71.7-1.42,1.06-2.13.7-1.42,2.11-2.48,3.17-3.54.35,0,.35-.35.35-.35Zm47.23-.35c.35-.35,0-1.06-.71-1.06-2.82.71-5.29,1.42-8.46,1.77-1.41,0-2.82,0-4.23-.35h-.7c-1.06,0-2.12-.35-3.17,0-.71,0-.71,1.06-.35,1.42,2.11,2.48,6.35,2.13,9.16,1.77,3.17-.35,5.99-1.42,8.46-3.54Zm-49.7-7.09c.35-.35,0-.71-.35-.71-2.82,1.06-5.64,3.9-6.34,6.73-.35.71.7,1.42,1.41.71,1.06-1.06,1.76-2.13,2.82-3.54.7-1.06,1.76-2.13,2.47-3.19Zm44.76,1.06c.35-.35,0-.71-.35-.71-1.76.71-3.53,1.06-5.29,1.42-1.76.35-3.88,0-5.64.35-.7,0-1.41,1.42-.35,1.77,3.53,1.77,8.81,0,11.63-2.83Zm-4.93-3.54c.35-.35,0-.71-.35-.71-1.76.71-3.53.71-5.29.71-.71,0-.71,1.06,0,1.06,2.11.35,4.23,0,5.64-1.06Z"/>
    </g>
    <g class="cls-8">
      <path class="cls-2" d="m69.63,94.95c1.41,0,3.17-.71,4.23-1.06h.35c1.06-.35,2.11-.71,2.82-1.42,0-.35.35-.71.35-1.06v-.35h-2.82c-.71,0-1.41.35-2.11.35h-1.41c-1.41,0-2.82-.35-3.88.71-.35,0-.35.35-.35.71s0,.71.35,1.06c.35.71,1.41,1.06,2.47,1.06Zm-8.11-12.4c.71,1.06,1.76,1.42,3.17,1.42,2.82,0,6.34-1.06,8.81-2.83.7-.35,1.06-1.06,1.06-1.77v-1.42l.7,1.06s0,.35.35.35c.35.35.35.71.71,1.06.7,1.06,1.41,2.48,2.11,3.54.35,1.06.71,1.77,1.06,2.83.7,1.77,1.06,3.19,2.11,4.61,0,.35.35.35.71.35s.35,0,.7-.35c1.06-2.83-.7-6.38-2.11-8.5v-.35c-1.41-2.13-3.52-4.96-6.34-5.31l-.35.35-.35-.35c-.71-.35-1.76-.35-2.47,0l-.7.35c-1.41.71-3.17,1.42-4.58,1.77h-.71v-1.06c0-.35.35-1.06.35-1.42.71-1.77,1.76-3.54,2.82-4.96v-.35c0-.35.35-.35.35-.71.71-1.06,1.76-2.48,1.76-3.9-1.06,0-2.11.71-2.82,1.42-1.06.71-2.11,1.77-3.17,2.83-1.76,1.77-3.52,4.25-4.23,7.09,0,1.42.35,3.19,1.06,4.25Zm28.55-14.53c0-1.42-.71-4.96-2.82-4.96-1.41,0-2.11,2.13-2.11,4.61,0,1.42.35,4.61,2.11,4.61,1.76.35,2.82-2.83,2.82-4.25Zm-31.37-.35c0-1.42.71-4.96,2.82-4.96,1.41,0,2.11,2.13,2.11,4.61v.35c0,1.42-.35,4.61-2.11,4.61-1.76-.35-2.82-3.19-2.82-4.61Zm23.97-9.57h.71c.7,0,1.76.35,2.47.35,1.41.35,3.17.71,4.58,1.42,1.41.35,2.82,1.06,4.23,1.42h.35c.35.35,1.06.35,1.41.71.71.35,1.41.71,2.11.71-2.11-2.83-4.93-4.96-8.11-6.38-1.76-.71-3.53-1.42-5.29-2.13l-1.06-.35c-1.41-.35-3.17-.71-4.58,0-.71.35-1.06.71-1.06,1.42s0,1.06.35,1.77c.35.35.71.71,1.06.71s1.06,0,1.41-.35c1.06.71,1.41.71,1.41.71Zm-21.85,0c1.06-.35,2.11-.35,2.82-.35h1.41c.7,0,1.41.35,2.11,0,.35,0,.71-.35,1.06-.71.35-.35.35-.71.7-1.06v-1.06c-.35-.35-.35-.71-1.06-1.06-1.06-.71-3.17-.71-4.58-.35-1.41,0-2.82.71-3.88,1.42-1.06.71-2.11,1.42-3.17,2.48-.7,1.06-1.06,2.13-1.41,3.19,1.41-1.06,3.88-1.77,5.99-2.48Z"/>
    </g>
    <g class="cls-7">
      <path class="cls-2" d="m58.7,83.61c1.41-.35,3.17-.35,4.58-.71,1.41-.35,2.82-1.42,4.23-1.77s2.82,0,3.52.71c1.06-.35,2.11-.35,3.17-.35,1.41.35,3.17.71,4.58,1.42,0,0,.35,0,.35.35,2.47,0,5.29,0,7.75.35,2.11.35,4.23,1.77,5.64,3.54,1.41,2.13,1.76,4.96,2.11,7.44,0,1.77-2.11,1.77-2.82.71-.71-1.06-1.76-2.48-2.47-3.54-1.06-1.06-2.47-1.42-4.23-1.77-3.52-.35-7.05,0-10.57-.35-2.11,0-4.23-.71-5.29-2.83-1.06,1.42-2.82,2.13-4.58,2.48-1.76,0-3.52-.35-5.29.35-1.76.35-3.52,1.42-3.17,3.54.35,1.06-1.41,1.77-1.76.71-3.17-3.54-.7-9.21,4.23-10.27Z"/>
    </g>
  </g>
</svg>