<svg width="178" height="272" viewBox="0 0 178 272" fill="none" xmlns="http://www.w3.org/2000/svg">
<path fill-rule="evenodd" clip-rule="evenodd" d="M176.175 252.281C175.807 245.438 175.355 238.601 174.814 231.769C173.736 218.161 172.325 204.543 169.976 191.091C167.658 177.818 164.414 164.912 159.741 152.265C157.573 146.397 155.225 141.392 151.819 136.117C148.599 131.13 144.488 127.751 139.369 124.74C134.755 122.028 129.396 117.322 124.972 114.284C123.125 113.016 119.324 113.1 118.058 111.225C116.399 108.768 117.474 105.009 115.803 102.561C113.891 99.762 111.213 97.5866 108.194 96.0078C104.898 93.7735 101.017 92.7617 97.1243 92.9005C91.3854 92.552 85.6062 94.3821 81.9207 99.0584C80.0823 101.393 79.0092 104.085 78.8607 107.068C78.8214 107.843 79.0704 108.455 79.4797 108.896C79.2374 109.222 78.995 109.547 78.7549 109.874C78.0016 108.756 76.2397 108.163 75.0661 109.006C71.2256 111.766 67.0751 113.961 62.694 115.57C61.6691 115.085 60.4283 115.308 59.5503 116.102C59.1939 116.423 58.8159 116.698 58.4208 116.932C56.7964 117.372 55.147 117.741 53.4731 118.026C52.9491 118.114 52.5051 118.413 52.1683 118.814C51.6695 118.347 50.9838 118.123 50.2181 118.415C41.3767 121.79 33.0273 127.032 26.6809 134.134C19.6498 142.002 15.957 151.789 13.1456 161.817C10.1021 172.672 8.15721 183.797 6.52364 194.941C4.86834 206.232 3.23794 217.568 2.09912 228.924C1.4582 235.314 1.21367 241.764 1.50383 248.183C1.64848 251.391 1.94115 254.589 2.40729 257.766C2.51591 258.509 2.62955 259.366 2.81274 260.22C2.2562 260.112 1.59335 260.583 1.70611 261.337C2.49168 266.588 8.83273 268.117 13.2059 268.723C20.3595 269.711 27.5502 270.26 34.7726 270.303C41.8698 270.343 48.966 269.887 56.0485 269.479C63.3098 269.06 70.5706 268.64 77.8324 268.214C106.924 266.506 136.017 264.817 165.109 263.108C167.767 262.952 170.802 262.741 173.079 261.197C176.199 259.081 176.36 255.719 176.175 252.281Z" fill="white"/>
<path fill-rule="evenodd" clip-rule="evenodd" d="M34.3542 193.546C34.2533 193.356 34.4875 193.186 34.643 193.323C38.1747 196.426 40.0237 201.409 40.4113 206.016C40.8221 210.901 40.2398 215.957 40.0173 220.84C39.7696 226.279 39.547 231.719 39.2446 237.156C38.9376 242.671 38.6069 248.184 38.3234 253.701L37.6858 266.109C37.618 267.432 37.7648 269.058 37.258 270.293C36.4724 272.206 34.139 271.91 33.6486 270.311L33.6333 270.258L33.5885 270.293C33.1559 268.852 33.4797 267.14 33.5531 265.65L34.2212 252.092C34.6932 242.509 35.1142 232.925 35.6212 223.344L35.7936 220.15C36.0307 215.851 36.2125 211.563 36.3584 207.264L36.4057 205.832C36.5443 201.516 36.4343 197.442 34.3542 193.546ZM119.968 113.991C121.936 113.803 123.422 114.456 125.208 115.145C125.986 115.444 126.723 115.79 127.468 116.149C128.404 116.598 129.004 117.391 129.58 118.229L129.888 118.681C132.285 122.197 133.896 126.253 135.716 130.08C137.844 134.558 139.992 139.025 142.075 143.524L143.102 145.741C143.616 146.848 144.128 147.957 144.633 149.07L145.505 151.006C146.381 152.969 147.167 155.046 145.918 157.072C144.757 158.955 142.699 160.413 141.07 161.869C139.71 163.084 138.35 164.299 136.99 165.514C139.802 168.333 141.689 171.882 142.799 175.687C144.374 175.031 146.299 174.904 147.927 174.62C150.209 174.221 150.488 177.679 148.336 177.638C146.745 177.606 144.881 177.769 143.25 177.433C143.532 178.684 143.739 179.954 143.87 181.227C144.554 187.899 143.056 194.61 141.495 201.066L141.367 201.596C139.67 208.584 138.062 215.59 136.622 222.635C135.18 229.696 133.883 236.786 132.731 243.9C131.56 251.141 130.73 258.422 129.839 265.702C129.704 266.803 129.011 267.747 127.796 267.747C126.783 267.747 125.625 266.801 125.752 265.702C126.672 257.775 127.976 249.889 129.272 242.016C131.504 228.459 134.314 215.019 137.546 201.666L138.11 199.341C139.564 193.311 140.884 187.097 140.155 180.877C139.56 175.812 137.445 170.411 133.264 167.266L133.137 167.171C132.16 166.454 131.785 165.083 132.747 164.139C133.359 163.538 133.972 162.937 134.585 162.337L138.265 158.74L139.006 158.014C139.625 157.408 140.246 156.807 140.887 156.225C141.275 155.873 142.325 155.201 142.401 154.621C142.452 154.243 142.004 153.579 141.823 153.23L140.992 151.551C140.52 150.594 140.064 149.63 139.603 148.668C138.648 146.674 137.681 144.685 136.747 142.681L131.138 130.647C129.556 127.252 128.145 123.668 126.077 120.529L125.669 119.918C125.329 119.402 125.028 118.906 124.812 118.276C124.606 117.671 124.346 117.005 123.963 116.487C123.068 115.274 121.355 114.585 119.922 114.331C119.714 114.294 119.79 114.007 119.968 113.991ZM76.8272 110.83C76.9516 110.83 76.9702 111.008 76.8555 111.042C75.1263 111.563 73.4746 112.402 72.1275 113.615C71.4824 114.195 70.8328 114.854 70.4344 115.634C70.2826 115.933 70.1986 116.249 70.1363 116.576L70.1167 116.686C70.0141 117.277 69.8667 117.606 69.5665 118.079L69.5152 118.16C67.8024 120.809 66.602 123.75 65.5044 126.696L63.1141 133.118L60.7254 139.541C59.9558 141.611 59.1857 143.68 58.4158 145.749C57.9906 146.892 57.5532 148.03 57.1162 149.168C56.9271 149.661 56.7237 150.15 56.5507 150.65C56.527 150.717 56.4513 151.128 56.3945 151.228L56.4139 151.261C56.8957 152.073 58.1806 152.752 58.9089 153.341L61.4169 155.371C63.2049 156.818 65.0389 158.226 66.7729 159.738C67.8624 160.687 67.1845 162.387 65.97 162.784C63.9339 163.448 61.9392 164.244 59.9336 164.994C59.1235 165.298 58.2799 165.562 57.4792 165.897L56.9918 166.108C56.8014 166.194 56.8929 166.193 56.9005 166.545C56.9082 166.913 57.0126 167.297 57.0726 167.66C57.7481 171.75 58.4642 175.833 59.22 179.908C61.8936 194.32 65.0876 208.627 68.7303 222.823C70.5708 229.993 72.5435 237.127 74.4244 244.286C76.2999 251.425 78.7681 258.462 81.124 265.455C81.7899 267.427 78.6666 268.276 78.0182 266.312C75.3021 258.089 72.8175 249.792 70.251 241.522C65.6928 226.826 62.1005 211.811 58.9232 196.76C57.3484 189.3 55.9081 181.812 54.6037 174.301C54.3566 172.878 54.1145 171.456 53.8773 170.031L53.5315 167.938C53.2945 166.444 53.1595 164.889 54.3184 163.708C55.4499 162.556 57.3925 162.147 58.8815 161.606L58.9897 161.566C59.9371 161.212 60.8914 160.871 61.8421 160.519C60.4417 159.415 59.0585 158.287 57.6616 157.184C56.5347 156.294 55.3901 155.422 54.2794 154.512C53.3635 153.761 52.6167 152.796 52.5213 151.576C52.4238 150.327 52.958 149.17 53.3889 148.025L53.4302 147.915C53.8531 146.772 54.2774 145.629 54.7123 144.491L57.4038 137.443C59.1142 132.965 60.7524 128.45 62.5513 124.008C63.2631 122.249 64.0387 120.518 64.9552 118.856C65.3971 118.054 65.8711 117.27 66.386 116.514C66.9629 115.665 67.4869 115.252 68.3809 114.784C69.811 114.036 70.9333 112.78 72.3688 112.009C73.7781 111.252 75.2279 110.847 76.8272 110.83ZM81.4678 102.84C81.5235 102.746 81.6676 102.789 81.6698 102.896C81.7069 105.121 81.1785 107.395 80.8543 109.595C80.5279 111.805 80.4231 114.135 79.9504 116.32C79.9406 116.422 79.9209 116.522 79.8936 116.621L79.8707 116.696C79.672 117.308 79.1535 117.827 78.5182 117.989C78.7179 119.099 78.9057 120.21 79.064 121.327C79.3369 123.247 79.5847 125.17 79.8292 127.093L80.1218 129.402C80.398 131.578 80.6666 133.755 80.9318 135.931C81.6065 136.214 82.2953 136.448 83.0016 136.649C84.626 137.116 86.2897 137.305 87.9665 137.47C91.3813 137.804 94.8222 137.96 98.2489 138.15L98.9836 138.192C102.836 138.413 106.709 138.452 110.552 138.056C112.457 137.86 114.348 137.531 116.206 137.064C117.15 136.827 118.068 136.472 119.01 136.24C119.322 136.164 119.602 135.986 119.915 135.797C120.055 135.621 120.249 135.488 120.504 135.436L120.572 135.424L120.641 135.414L120.664 135.404L120.663 135.411C120.855 135.385 121.039 135.385 121.211 135.409C121.28 133.711 121.354 132.014 121.448 130.317C121.699 125.76 122.391 121.006 121.466 116.489C121.436 116.337 121.642 116.283 121.696 116.425C123.509 121.207 123.305 126.437 123.397 131.47C123.486 136.393 123.432 141.319 123.407 146.243C123.76 146.393 124.073 146.596 124.322 146.882C124.82 147.453 124.963 148.444 124.322 148.994C124.038 149.238 123.725 149.408 123.392 149.525C123.375 153.803 123.344 158.08 123.302 162.358C124.114 162.986 124.189 164.478 123.271 165.098C123.117 178.951 122.866 192.804 122.658 206.654L122.221 235.712C122.163 239.584 122.067 243.455 122.032 247.327L122.059 247.337L122.156 247.382C122.319 247.459 122.561 247.582 122.612 247.709C122.625 247.743 122.628 247.765 122.626 247.782C122.892 247.819 123.156 247.946 123.386 248.162C123.95 248.7 123.835 249.508 123.386 250.055L123.266 250.201C122.985 250.542 122.453 250.673 122.019 250.603C122.023 253.02 122.039 255.437 122.031 257.853C122.028 258.59 122.017 259.329 122.005 260.066L121.974 261.836C121.953 262.846 121.864 264.128 120.831 264.583C119.666 265.094 118.621 264.675 118.149 263.49C118.021 263.169 118.048 262.87 118.095 262.553C118.081 262.075 118.006 261.524 118.016 261.081L118.054 259.236C118.061 258.952 118.071 258.668 118.08 258.382L118.046 258.387C113.905 258.588 109.735 258.49 105.587 258.487L103.743 258.49C102.204 258.491 100.662 258.483 99.1245 258.424L98.548 258.399C97.3974 258.345 96.1879 258.328 94.9947 258.225C95.1464 259.451 95.2883 260.678 95.415 261.906C95.535 263.071 94.3342 264.06 93.2644 264.06C91.9926 264.06 91.2645 263.059 91.1127 261.906C90.3944 256.466 90.0996 250.976 89.413 245.532C88.7984 240.657 88.2646 235.771 87.7231 230.887L87.5419 229.258C85.5583 211.483 83.6326 193.701 81.791 175.91L80.9329 167.595C80.0672 159.212 79.195 150.829 78.4603 142.434C78.04 137.635 77.6535 132.835 77.2889 128.031C77.0215 124.502 76.8534 120.991 76.7442 117.469C76.313 117.025 76.0968 116.376 76.2879 115.706C76.3992 115.316 76.5291 114.927 76.6667 114.539C76.658 114.158 76.6492 113.777 76.6416 113.395C76.635 113.035 77.0007 112.848 77.2944 112.908C77.8271 111.617 78.4134 110.336 78.9035 109.057C79.6961 106.986 80.3489 104.756 81.4678 102.84ZM37.2108 125.216C45.4949 120.019 55.3559 116.279 65.2323 116.681C65.457 116.691 65.5202 117.033 65.287 117.085C60.0189 118.263 54.6929 119.697 49.7054 121.784C44.7033 123.879 39.9473 126.699 35.7112 130.087C27.8955 136.338 21.8206 144.47 17.8205 153.636C15.4775 159.005 13.8352 164.673 12.401 170.344C10.8835 176.345 9.63278 182.411 8.59286 188.513C6.53878 200.568 5.34297 212.755 4.70663 224.963C4.05928 237.382 4.32608 249.809 3.86441 262.229C3.78461 264.381 0.712555 264.339 0.556337 262.229C-0.489807 248.108 0.0897593 233.762 1.0573 219.651C1.92725 206.965 3.44642 194.306 5.89284 181.826L6.10582 180.744C8.39287 169.196 11.1513 157.369 16.68 146.911C21.4002 137.983 28.6873 130.566 37.2108 125.216ZM152.248 180.406C152.292 180.282 152.455 180.284 152.498 180.406C153.443 183.053 153.476 186.04 153.727 188.829L153.747 189.043C153.988 191.589 154.17 194.137 154.338 196.687L154.401 197.643C155.077 208.046 155.923 218.437 157.197 228.785C158.466 239.095 160.184 249.332 162.039 259.549C162.247 260.687 161.744 261.845 160.551 262.173C159.501 262.462 158.153 261.814 157.931 260.683C156.779 254.818 155.846 248.947 155.016 243.032C153.552 232.615 152.459 222.151 151.757 211.656C151.404 206.385 151.187 201.115 151.101 195.833C151.062 193.382 151.125 190.925 151.256 188.477L151.286 187.912C151.431 185.409 151.416 182.793 152.248 180.406ZM62.7331 246.667C62.8438 246.606 62.9808 246.73 62.9107 246.845C61.3066 249.455 59.1366 251.705 57.0392 253.924C54.8466 256.242 52.7081 258.63 50.4713 260.904C48.8549 262.545 46.255 259.897 47.9608 258.39C50.3592 256.273 52.8658 254.259 55.3069 252.189L56.3745 251.283C58.3759 249.589 60.4367 247.912 62.7331 246.667ZM138.921 245.36C138.801 245.131 139.075 244.946 139.261 245.097C140.554 246.151 141.715 247.407 142.964 248.519C144.2 249.62 145.484 250.647 146.803 251.649C148.127 252.655 149.48 253.621 150.869 254.534C152.022 255.293 153.21 255.899 154.416 256.528C154.975 256.6 155.493 256.875 155.908 257.396C156.562 258.22 156.631 259.772 155.723 260.487L155.56 260.615C154.5 261.449 153.242 261.551 152.198 260.615C151.032 259.57 149.931 258.421 148.812 257.316L148.475 256.986C147.274 255.816 146.1 254.609 144.994 253.346L143.992 252.205C142.135 250.084 140.201 247.798 138.921 245.36ZM132.961 123.079C132.746 122.937 132.879 122.552 133.144 122.644L133.631 122.812C135.668 123.522 137.763 124.307 139.611 125.398C141.598 126.57 143.432 127.965 145.185 129.463C148.812 132.564 151.898 136.376 154.52 140.35C159.782 148.322 163.036 157.454 165.664 166.59C168.466 176.333 170.622 186.284 172.384 196.264C174.173 206.407 175.553 216.64 176.461 226.9C176.908 231.954 177.208 237.01 177.359 242.082C177.436 244.691 177.434 247.298 177.412 249.908C177.407 250.579 177.411 251.25 177.419 251.921L177.444 253.933C177.458 255.206 177.61 256.544 177.309 257.787C176.822 259.789 173.517 259.415 173.625 257.37C173.526 256.689 173.522 255.985 173.548 255.281C173.532 255.19 173.515 255.097 173.496 255.003C173.442 254.732 173.488 254.482 173.594 254.267C173.611 253.929 173.626 253.593 173.632 253.263C173.654 251.919 173.653 250.58 173.615 249.237C173.537 246.404 173.424 243.572 173.311 240.741C173.084 235.084 172.767 229.423 172.31 223.78C170.716 204.135 167.35 184.379 161.698 165.48C159.073 156.704 155.453 148.089 150.264 140.505C147.959 137.137 145.36 134.028 142.478 131.141C139.578 128.237 136.382 125.348 132.961 123.079ZM93.8484 249.716L94.2403 252.552C94.4357 253.972 94.6301 255.391 94.8135 256.81C96.0645 256.639 97.3428 256.568 98.548 256.461C100.657 256.274 102.78 256.183 104.896 256.096C109.27 255.914 113.667 255.602 118.045 255.624C118.091 255.624 118.134 255.627 118.175 255.63L118.392 250.033L115.316 250.028C112.709 250.024 110.103 250.001 107.496 249.979C105.149 249.959 102.801 249.955 100.453 249.907L99.4476 249.883C97.6682 249.835 95.7021 249.935 93.8484 249.716ZM118.651 241.591C118.526 241.606 118.398 241.619 118.261 241.624C117.652 241.65 117.039 241.632 116.428 241.637C115.13 241.648 113.831 241.657 112.533 241.657C109.936 241.657 107.339 241.672 104.743 241.704C102.07 241.737 99.3985 241.783 96.725 241.788C95.4303 241.79 94.1388 241.756 92.8441 241.719C93.0537 243.563 93.2731 245.402 93.5144 247.239C95.5252 246.967 97.6878 247.105 99.6528 247.086L99.9083 247.083C102.589 247.037 105.274 247.071 107.957 247.074C110.717 247.077 113.477 247.086 116.236 247.108L118.504 247.128L118.508 247.013C118.575 245.208 118.617 243.4 118.651 241.591ZM91.8474 232.779C92.0985 234.953 92.3343 237.132 92.5745 239.309C92.7349 239.284 92.8965 239.263 93.0613 239.246C94.3582 239.109 95.6529 238.993 96.9542 238.912C99.5491 238.752 102.144 238.667 104.743 238.597C107.416 238.525 110.089 238.47 112.763 238.432C114.062 238.414 115.359 238.415 116.658 238.425C117.267 238.428 117.883 238.41 118.491 238.45C118.564 238.456 118.633 238.463 118.701 238.471L118.747 235.201C118.755 234.657 118.764 234.112 118.772 233.567C116.765 233.691 114.723 233.644 112.718 233.644L112.255 233.645C109.734 233.657 107.214 233.622 104.693 233.57C102.093 233.516 99.4989 233.431 96.9029 233.264C95.8516 233.197 94.808 233.107 93.7622 232.992L93.2393 232.932C92.784 232.878 92.3157 232.834 91.8474 232.779ZM118.98 223.552C114.145 223.936 109.336 224.097 104.488 224.144L103.761 224.15C99.4771 224.183 95.1573 224.36 90.8638 224.247C91.1204 226.475 91.3769 228.703 91.6345 230.932C92.2491 230.904 92.867 230.903 93.4685 230.881C94.6912 230.837 95.9095 230.826 97.1322 230.823C99.6528 230.817 102.172 230.839 104.693 230.835C107.291 230.828 109.887 230.785 112.484 230.737C114.59 230.696 116.718 230.538 118.829 230.543L118.98 223.552ZM119.184 214.044C118.624 214.231 117.962 214.243 117.237 214.276L115.365 214.368C114.498 214.411 113.631 214.451 112.763 214.483C109.87 214.589 106.978 214.689 104.085 214.78C101.12 214.874 98.142 214.929 95.177 214.836C93.7251 214.79 92.2852 214.714 90.8365 214.592C90.4785 214.563 90.1138 214.543 89.7481 214.517C90.0854 217.47 90.4239 220.423 90.7634 223.375C95.0362 222.849 99.3428 222.522 103.611 221.979L107.47 221.486C111.328 220.993 115.182 220.509 119.054 220.101L119.184 214.044ZM119.39 204.431C118.568 204.635 117.631 204.625 116.841 204.674L116.696 204.685C115.199 204.798 113.7 204.854 112.202 204.891C109.263 204.965 106.323 205.001 103.383 205.018L101.616 205.029C99.2598 205.043 96.9051 205.05 94.5482 204.994C93.0362 204.959 91.5275 204.885 90.0178 204.809C89.5647 204.786 89.1019 204.771 88.6379 204.748C88.9534 207.543 89.2733 210.338 89.5909 213.134C90.0876 213.054 90.5865 212.994 91.0614 212.914C92.2786 212.708 93.4936 212.544 94.7207 212.396C97.3767 212.078 100.046 211.849 102.715 211.656C105.454 211.457 108.196 211.288 110.936 211.096L112.876 210.958C113.524 210.914 114.17 210.87 114.817 210.831C115.922 210.763 117.207 210.839 118.303 210.599C118.6 210.474 118.929 210.446 119.259 210.517L119.39 204.431ZM119.639 193.179C119.354 193.54 118.929 193.73 118.423 193.796C115.784 194.138 113.078 194.194 110.418 194.355L109.949 194.385C107.202 194.566 104.453 194.708 101.704 194.855C98.8799 195.004 96.0558 195.127 93.2295 195.225C92.0297 195.268 90.8245 195.272 89.6226 195.257L89.1073 195.249C88.6139 195.24 88.0975 195.242 87.579 195.225C87.8661 197.839 88.1554 200.453 88.449 203.066C88.9774 203.009 89.5047 202.965 90.0167 202.91C91.5265 202.751 93.0351 202.592 94.5482 202.473C97.4149 202.247 100.285 202.111 103.157 201.969C106.096 201.823 109.037 201.726 111.976 201.588C113.401 201.522 114.826 201.439 116.246 201.308C117.243 201.216 118.425 200.877 119.464 201.002C119.521 198.394 119.58 195.787 119.639 193.179ZM119.87 183.1C119.826 183.169 119.773 183.237 119.709 183.299C118.547 184.449 117.116 184.359 115.577 184.481L115.482 184.488C113.974 184.615 112.465 184.736 110.955 184.844C107.935 185.063 104.911 185.216 101.887 185.351C98.7937 185.491 95.6802 185.586 92.5832 185.524C90.5996 185.482 88.5233 185.49 86.5004 185.297C86.8105 188.176 87.1227 191.054 87.4382 193.933C88.0069 193.826 88.579 193.742 89.1215 193.657C90.4883 193.442 91.8561 193.226 93.2305 193.067C95.9761 192.75 98.7238 192.454 101.475 192.188C103.828 191.959 106.181 191.728 108.536 191.518L109.949 191.397C112.759 191.16 115.604 190.77 118.423 190.712C118.888 190.702 119.413 190.955 119.679 191.355C119.742 188.603 119.806 185.851 119.87 183.1ZM120.066 174.939C119.349 175.026 118.575 174.977 117.913 174.999C116.239 175.054 114.564 175.104 112.89 175.154L102.844 175.45C99.4225 175.552 95.9903 175.627 92.5679 175.579C91.0625 175.557 89.5516 175.555 88.0462 175.473L87.5451 175.443C86.9262 175.401 86.1664 175.396 85.424 175.32L86.2996 183.446C88.3126 183.154 90.3878 183.046 92.3834 182.874L92.8102 182.837C95.7534 182.569 98.7118 182.39 101.66 182.19C104.686 181.986 107.707 181.737 110.728 181.483C112.238 181.356 113.747 181.229 115.256 181.089L115.443 181.071C116.868 180.922 118.208 180.605 119.471 181.446C119.655 181.569 119.8 181.734 119.899 181.917C119.955 179.591 120.008 177.265 120.066 174.939ZM120.3 165.456C114.181 165.703 108.062 165.89 101.939 165.973C98.4924 166.019 95.0504 165.986 91.604 165.914C90.1095 165.882 88.603 165.811 87.1096 165.697L86.5506 165.652C85.84 165.592 85.0944 165.548 84.352 165.477C84.6588 168.271 84.9633 171.065 85.2657 173.859C85.9961 173.723 86.7591 173.661 87.3999 173.579L87.5451 173.559C89.1357 173.341 90.7415 173.213 92.3397 173.072C95.4521 172.797 98.5808 172.62 101.702 172.47C104.897 172.316 108.095 172.186 111.291 172.043L114.487 171.899C115.02 171.876 115.554 171.852 116.087 171.831C116.848 171.798 117.609 171.767 118.369 171.735C118.745 171.72 119.136 171.67 119.511 171.688L119.618 171.674C119.667 171.668 119.711 171.663 119.751 171.659C119.853 171.58 119.963 171.516 120.08 171.467L120.151 171.439L120.3 165.456ZM83.3488 156.47C83.6326 158.985 83.9143 161.501 84.1915 164.016C85.0638 163.917 85.9469 163.862 86.7799 163.787C88.46 163.636 90.1488 163.504 91.8332 163.426L95.2021 163.27C97.4466 163.165 99.6921 163.065 101.939 162.983C108.088 162.759 114.237 162.501 120.382 162.186C120.426 160.481 120.471 158.774 120.516 157.067C120.221 157.384 119.795 157.592 119.235 157.591C112.783 157.573 106.326 157.612 99.8755 157.504C96.6464 157.451 93.4205 157.373 90.1957 157.207C88.6172 157.126 87.0299 156.961 85.4644 156.744C84.7963 156.651 84.0649 156.584 83.3488 156.47ZM82.3161 147.508C82.6195 150.085 82.9176 152.662 83.2101 155.24C84.0114 155.096 84.8389 155.02 85.5867 154.918C87.1925 154.7 88.8082 154.525 90.4261 154.434C93.5733 154.255 96.7228 154.166 99.8755 154.099C106.326 153.961 112.783 153.962 119.235 153.911C119.841 153.907 120.291 154.147 120.587 154.505C120.631 152.896 120.678 151.288 120.727 149.678C120.104 149.613 119.486 149.52 118.914 149.479C117.158 149.357 115.399 149.244 113.64 149.143C109.971 148.933 106.298 148.753 102.625 148.592C98.952 148.433 95.2774 148.276 91.6029 148.14L89.9959 148.081C87.4403 147.986 84.8422 147.866 82.3161 147.508ZM81.1611 137.806C81.4766 140.415 81.7877 143.024 82.0977 145.635L82.1916 146.443C85.2647 145.844 88.5036 145.67 91.6029 145.537C95.2774 145.381 98.9465 145.3 102.625 145.311C106.3 145.323 109.969 145.409 113.64 145.561C115.475 145.638 117.309 145.725 119.143 145.825C119.648 145.852 120.238 145.838 120.846 145.847C120.861 145.437 120.872 145.026 120.886 144.616C120.941 142.956 120.996 141.294 121.053 139.633C119.813 140.271 118.2 140.528 116.954 140.8L116.812 140.831C114.754 141.294 112.652 141.594 110.552 141.777C106.427 142.137 102.259 142.003 98.1376 141.654L97.416 141.592C93.7971 141.277 90.0451 140.88 86.5364 139.983C84.8651 139.556 83.1381 138.959 81.6403 138.092C81.4842 138.002 81.3237 137.907 81.1611 137.806ZM116.006 106.799C116.042 106.657 116.253 106.626 116.323 106.758C116.809 107.684 116.992 108.797 117.329 109.79C117.694 110.858 118.033 111.934 118.435 112.989C119.274 115.193 120.265 117.31 121.445 119.352C122.614 121.374 119.341 122.816 118.481 120.603C117.592 118.32 116.862 115.958 116.421 113.545C116.205 112.367 116.013 111.173 115.95 109.977C115.897 108.95 115.753 107.801 116.006 106.799Z" fill="#282828"/>
<path fill-rule="evenodd" clip-rule="evenodd" d="M139.898 61.9601C139.807 56.787 139.705 51.5105 138.938 46.3878C138.187 41.3796 136.12 36.8526 132.57 33.2159C125.031 25.491 114.101 23.6041 103.927 21.8749L86.5333 18.9185C81.2256 18.0168 75.5642 16.5753 70.2031 17.8542C67.5612 18.4844 65.3178 19.9484 63.2672 21.6806C61.2906 23.35 59.1656 25.143 57.8263 27.3891C56.4846 29.6385 56.0232 32.268 55.5871 34.812C55.0951 37.6803 54.713 40.5709 54.4415 43.4685C53.8974 49.2739 53.8232 55.1227 54.2178 60.9401C54.4089 63.7618 54.7132 66.5755 55.1016 69.3758C55.2942 70.7656 55.5119 72.151 55.7577 73.531C55.8302 73.9385 55.8852 74.3897 55.9595 74.8443C55.4109 76.4067 55.099 78.0248 55.1242 79.6364C55.1982 84.3826 59.199 87.3698 63.2323 88.9748C65.5709 89.9046 68.0154 90.5361 70.3133 91.5751C72.7314 92.6688 74.3765 94.4399 76.0293 96.4612C79.1809 100.317 82.7387 103.782 86.7997 106.671C95.4107 112.801 106.319 115.7 116.767 113.499C119.273 112.971 121.803 112.152 124.057 110.916C126.436 109.613 128.225 107.723 129.727 105.488C132.516 101.341 134.518 96.671 136.031 91.9182C137.574 87.0704 138.67 82.2138 139.267 77.1584C139.863 72.1193 139.989 67.03 139.898 61.9601Z" fill="white"/>
<path fill-rule="evenodd" clip-rule="evenodd" d="M84.394 0.898412C91.5924 -0.0928976 101.528 3.12905 105.112 9.62582C122.227 5.58607 143.812 5.45376 157.918 18.9018C172.637 34.8542 154.149 55.8876 141.89 60.6297C142.783 64.9727 141.391 92.7945 131.544 105.205C123.729 115.72 105.531 120.574 97.1097 108.013L97.0442 107.911C96.1414 106.46 96.9186 106.507 97.8444 107.585C106.091 114.845 117.303 114.97 125.943 107.307C142.134 93.3026 140.465 58.9621 132.76 39.0958C110.82 36.6831 87.3295 43.3413 72.1749 59.8772L73.2 66.0533C73.3747 67.1066 73.5734 68.1576 73.724 69.2131C73.8212 69.8905 73.8321 70.5624 73.3638 71.1109C71.818 72.9192 69.2122 70.2019 67.0692 69.1213C66.4358 69.0317 65.8018 68.9978 65.1801 69.0415C54.8804 70.3701 56.9097 90.3744 68.2297 86.8683C69.1805 86.275 69.9982 86.4553 70.3671 87.3163C73.0646 89.791 74.8441 94.204 79.3275 98.4552C80.9083 100.049 82.3482 101.383 84.1276 102.663C85.1723 103.72 88.3251 104.8 87.3262 106.61C85.4354 110.731 74.2884 97.7888 72.3179 94.2094C66.1434 96.6503 59.3005 95.821 52.9016 95.2244C19.1437 93.4676 23.6502 57.8389 51.3208 35.3447C56.5294 31.5054 62.2761 28.3735 68.2493 25.9634C69.0648 25.6343 68.7089 24.2936 67.8814 24.6272C63.9292 26.2222 60.0761 28.1206 56.4031 30.3178L56.3975 29.0043C56.3921 26.7918 56.4268 24.4882 56.8106 22.4667C57.0024 21.066 57.3251 19.5699 57.8219 18.4444C58.4361 14.9937 68.0572 3.14937 84.394 0.898412ZM64.7292 73.6337C65.2505 73.1388 66.2235 73.7299 66.6876 73.7146C67.8738 73.8774 69.0015 74.3789 69.8803 74.9984C70.461 75.324 70.8682 75.6299 71.2077 75.9107L71.2175 75.9085C71.2143 75.9085 71.211 75.9107 71.2088 75.9118L71.2405 75.9336C71.7361 76.2854 73.5483 78.2685 72.4031 77.7353C72.3179 77.625 72.2306 77.5179 72.1422 77.413C72.1324 77.4272 72.1193 77.4414 72.104 77.4556L72.1684 77.5507C73.1411 79.0158 71.461 77.472 71.2023 77.0623C71.1903 77.0721 71.1772 77.0787 71.163 77.0863L71.4992 77.496C71.5461 77.5539 71.5833 77.6009 71.6138 77.6403L71.6859 77.7091C72.8103 78.8159 72.8452 79.8123 71.5385 78.1756C71.5898 78.2521 71.6313 78.3341 71.6367 78.4073L71.7143 78.5056C72.7404 79.8298 71.9064 79.36 71.3955 78.794L71.3529 78.7449L71.3616 78.7591C71.8365 79.49 70.8955 78.9765 70.7285 78.5854L70.7219 78.5679C70.5407 78.4193 70.4294 78.2532 70.3911 78.2117L70.3835 78.204C69.5014 77.2994 68.222 76.5335 67.1358 76.1849C66.9786 76.1554 66.8192 76.1314 66.6578 76.1139C66.0044 75.9686 65.3438 75.8681 64.6764 75.8145C64.5947 75.8047 64.512 75.7446 64.4502 75.667C63.4408 75.6332 63.7524 75.2191 64.1712 75.1415L64.1785 75.1404L64.0954 75.1339C63.4477 75.0705 63.0054 74.8378 63.6603 74.6946L63.7432 74.6782C63.7332 74.6619 63.7241 74.6466 63.7154 74.6302C63.1545 74.569 63.5205 74.0227 63.8319 74.1549C63.7009 73.7266 64.2995 73.9397 64.3743 73.8763C64.4313 73.8129 64.502 73.7572 64.5429 73.7539C64.7232 73.6272 64.6359 73.6381 64.7292 73.6337ZM68.162 66.6914L68.0299 66.7679C67.924 66.8301 67.8148 66.8717 67.7046 66.8957C67.8596 66.9623 68.0135 67.0334 68.1641 67.1098C68.162 67.017 68.1609 66.923 68.1609 66.8301L68.162 66.6914Z" fill="#282828"/>
<path fill-rule="evenodd" clip-rule="evenodd" d="M119.478 94.9742C117.779 95.467 115.956 95.5107 114.224 95.0015C112.653 94.5405 111.04 93.5244 109.884 92.1805C108.857 90.9863 108.192 89.5353 108.218 87.9871C108.22 87.8101 108.284 87.6626 108.381 87.5479C108.486 87.4244 108.632 87.3392 108.788 87.3032C108.95 87.2649 109.12 87.278 109.265 87.3447C109.396 87.4037 109.509 87.5053 109.579 87.6528C109.756 87.8866 109.933 88.1171 110.111 88.3411C111.539 90.1067 112.922 91.4266 115.071 91.9008C116.237 92.1575 117.4 92.0439 118.468 91.6517C119.612 91.2321 120.645 90.4946 121.455 89.5506C121.822 89.1234 122.253 88.9497 122.675 88.9464C123.154 88.9431 123.628 89.166 123.984 89.5222C124.335 89.8718 124.569 90.3471 124.591 90.8453C124.61 91.2813 124.467 91.738 124.089 92.1444C122.842 93.485 121.227 94.4673 119.478 94.9742ZM119.426 72.8536C121.168 73.9134 123.821 76.3849 121.948 79.0126C119.743 81.3299 116.567 78.6728 115.003 77.472C113.552 76.5411 111.921 78.935 113.268 80.0221C124.575 88.4034 129.163 73.1311 120.307 71.607C119.333 71.4398 118.97 72.5258 119.426 72.8536ZM103.134 68.1893C102.574 67.831 101.916 67.7086 101.187 68.0407C100.616 68.3008 99.616 69.1661 98.9206 70.3035C98.4435 71.0825 98.1062 71.9959 98.176 72.9465C98.1924 73.1683 98.1117 73.3311 97.9828 73.4513C97.8813 73.5463 97.7339 73.6162 97.5625 73.6381C97.4163 73.6567 97.2525 73.6403 97.1193 73.5977C96.8661 73.519 96.7318 73.354 96.6816 73.2207C96.1936 71.9238 96.4032 70.4783 96.9501 69.1738C97.687 67.4125 99.0254 65.9375 99.9031 65.4622C101.404 64.6482 103.175 64.6111 104.677 65.4404C105.956 66.1462 106.757 67.2858 107.552 68.4472C107.722 68.6941 107.89 68.9388 108.063 69.1792C108.41 69.6621 108.445 70.1407 108.311 70.5504C108.162 71.006 107.782 71.3895 107.306 71.5895C106.866 71.7752 106.356 71.8014 105.904 71.6113C105.523 71.4496 105.173 71.1361 104.951 70.6029C104.579 69.7058 103.956 68.716 103.134 68.1893ZM131.564 70.1855C131.179 70.3854 130.88 70.4466 130.454 70.3188C130.22 70.2478 129.987 70.1123 129.805 69.9298C129.625 69.7496 129.495 69.5245 129.444 69.2754C129.319 68.6613 128.984 68.0855 128.505 67.7108C128.095 67.3895 127.579 67.2202 127.006 67.3153C126.388 67.419 125.8 67.8157 125.393 68.2844C125.258 68.4406 125.151 68.6187 125.045 68.7957C124.844 69.1257 124.651 69.4327 124.375 69.6753C124.27 69.7681 124.113 69.8315 123.96 69.8315C123.899 69.8315 123.836 69.8217 123.776 69.8031C123.16 69.1847 123.042 68.7149 123.062 68.2505C123.082 67.7621 123.275 67.2683 123.586 66.8072C124.314 65.7266 125.696 64.8394 126.629 64.6384C127.908 64.3642 129.176 64.6941 130.194 65.4087C131.24 66.144 132.017 67.2858 132.258 68.5717C132.317 68.882 132.292 69.2164 132.174 69.5059C132.058 69.79 131.858 70.0325 131.564 70.1855ZM105.952 56.6627C105.186 57.4108 104.278 57.5267 103.359 57.6297C102.849 57.6875 102.442 57.7341 102.042 57.8247C100.94 58.0737 99.8507 58.4487 98.8573 58.9886C97.8191 59.5533 96.687 60.2341 95.8737 61.1063C95.6794 61.3139 95.4971 61.5316 95.3148 61.7498C95.1478 61.9489 94.9873 62.1405 94.8181 62.3253C94.6238 62.5375 94.4393 62.7598 94.2559 62.9817C94.1423 63.1689 94.1194 63.2149 94.0965 63.2628C94.0627 63.3348 94.0223 63.4154 93.9764 63.5019C93.9142 63.6202 93.841 63.7499 93.7646 63.8674C93.6369 64.0822 93.5681 64.1414 93.5092 64.1678C93.4109 64.2116 93.3171 64.2332 93.2275 64.2215C93.1424 64.2105 93.0627 64.1698 92.983 64.103C92.59 63.77 92.4732 63.2234 92.4852 62.6432C92.5038 61.7628 92.828 60.788 93.1271 60.1887C93.8225 58.7964 94.7864 57.349 95.9458 56.3097C97.2689 55.1235 98.7164 54.2255 100.378 53.6066C101.412 53.2219 102.607 52.8689 103.733 52.9135C104.544 52.9456 105.317 53.1866 105.955 53.7889C106.347 54.1585 106.536 54.6842 106.536 55.2096C106.536 55.7455 106.341 56.2844 105.952 56.6627ZM133.124 63.5129C133.074 63.593 133.007 63.6482 132.931 63.6813C132.853 63.716 132.766 63.726 132.68 63.7118C132.596 63.6976 132.517 63.6594 132.453 63.6012C132.393 63.5454 132.346 63.4714 132.326 63.3806C131.817 61.1418 130.828 59.476 128.719 58.4018C127.681 57.8734 126.486 57.5376 125.356 57.27C125.029 57.1922 124.682 57.1418 124.332 57.0907C123.237 56.9306 122.134 56.7473 121.421 55.8611C120.991 55.3272 120.81 54.6446 120.912 54.0202C121.008 53.4323 121.351 52.8933 121.974 52.5702C123.528 51.7664 125.457 52.5552 127.026 53.227C127.141 53.2769 127.256 53.3258 127.367 53.373C128.901 54.0211 130.299 54.8765 131.449 56.0999C132.361 57.0704 133.207 58.5051 133.546 59.9811C133.83 61.2091 133.763 62.4626 133.124 63.5129Z" fill="#282828"/>
<path fill-rule="evenodd" clip-rule="evenodd" d="M119.683 81.8511C117.118 80.6941 112.512 81.7036 110.841 82.1046C106.953 83.0377 103.042 85.0546 101.833 88.2155C100.472 91.7763 103.189 92.8983 103.589 92.7148C106.28 92.9049 109.485 91.2103 112.305 90.7732C114.594 90.416 117.009 90.1035 119.154 88.8853C120.719 89.7473 124.256 90.2138 127.111 90.9677C129.542 91.6102 130.595 93.0021 132.85 92.706C135.551 92.352 134.445 86.6629 131.434 84.3586C128.139 81.8369 122.567 80.8143 119.683 81.8511ZM124.762 106.172C122.517 106.72 122.366 101.795 122.115 100.056C121.919 98.6967 120.812 95.1917 118.003 95.3425C115.195 95.4943 114.14 98.4312 114.282 100.257C114.374 101.441 115.465 107.442 111.985 108.2C109.766 108.192 107.2 108.043 104.867 107.612C102.122 106.99 98.5518 104.81 97.6086 109.103C97.2691 110.648 109.364 115.237 114.73 115.653C120.172 116.757 126.54 115.058 130.415 110.89C131.297 109.942 133.78 106.005 133.957 105.04C134.328 103.015 133.468 101.71 130.963 102.425C129.195 103.371 126.205 105.82 124.762 106.172Z" fill="#282828"/>
<path fill-rule="evenodd" clip-rule="evenodd" d="M135.61 76.7859C132.148 78.4554 127.318 75.9927 124.991 73.4141C124.144 72.4756 123.491 69.7889 123.816 68.0856C124.699 63.4714 128.016 60.7023 131.517 59.7566C136.37 58.4455 141.255 61.767 140.686 65.6862C140.145 69.4011 139.328 74.7897 135.61 76.7859ZM112.049 67.9228C111.772 72.9509 107.739 77.3519 102.919 78.6564C95.1524 80.8263 91.3141 75.3601 89.5762 69.471C89.4026 68.8864 88.9965 67.1001 90.0871 65.5682C94.373 59.5424 104.801 60.5695 110.009 62.2238C111.533 63.6834 112.156 65.79 112.049 67.9228ZM139.37 59.2502C139.368 59.2533 139.365 59.2558 139.363 59.2588C139.345 59.2479 139.328 59.2369 139.309 59.2263C139.329 59.2346 139.351 59.2417 139.37 59.2502ZM145.868 59.8315C145.417 54.7119 129.373 56.6722 127.497 57.0918C122.379 58.5993 117.957 62.7004 112.234 60.8976C106.303 54.2787 86.3329 56.1769 82.1463 59.5485C81.3538 59.2372 80.3898 59.4043 79.3691 59.698C74.1258 59.5084 50.19 61.3181 55.0859 68.0178C55.829 68.5346 56.5714 68.0091 56.5919 66.946C82.1147 57.7215 79.6409 66.3615 82.667 65.353C83.1299 65.4863 83.6113 65.5704 84.0338 65.6589C86.3765 66.4139 87.1724 66.1801 87.4802 68.8132C89.6002 89.1464 116.644 82.1287 114.426 65.4502C116.622 65.33 118.542 64.3784 120.864 65.3071C122.477 81.0186 135.105 81.6523 138.905 76.2057C141.771 72.4264 140.635 66.7209 144.573 63.7475C146.128 65.0504 146.228 60.6532 145.868 59.8315Z" fill="#282828"/>
</svg>
