<svg width="151" height="225" viewBox="0 0 151 225" fill="none" xmlns="http://www.w3.org/2000/svg">
<mask id="mask0_2874_1042" style="mask-type:luminance" maskUnits="userSpaceOnUse" x="-9" y="0" width="160" height="225">
<path d="M150.315 0.0535583H-8.79688V224.854H150.315V0.0535583Z" fill="white"/>
</mask>
<g mask="url(#mask0_2874_1042)">
<path fill-rule="evenodd" clip-rule="evenodd" d="M147.693 549.608C148.143 547.79 147.412 545.432 146.99 543.068C146.335 539.395 144.787 534.071 141.839 532.406C141.317 531.02 126.813 519.921 119.248 514.34C115.362 511.476 112.179 506.07 111.392 506.134C109.894 502.441 109.701 498.796 108.781 494.519C112.2 494.071 118.038 494.879 120.731 492.929C121.213 492.961 121.206 487.677 121.276 486.932C119.248 481.421 114.26 346.612 119.248 282.401C119.776 275.253 121.151 267.256 119.793 259.883C122.019 259.393 123.352 257.082 123.359 256.99C128.683 246.516 120.519 210.903 115.4 201.044C119.464 200.938 124.817 200.384 127.332 196.982C128.525 196.589 129.276 195.906 129.854 194.805C130.52 193.758 131.137 192.659 131.694 191.532C134.402 185.894 136.071 179.634 135.169 173.422C135.342 173.368 136.227 173.362 136.272 173.113C136.358 171.586 136.079 170.241 135.621 168.799C130.972 152.554 125.373 136.559 117.973 121.265C114.266 113.079 106.595 110.093 98.6459 107.02C94.8219 105.513 90.9961 103.775 87.0057 102.79C86.9554 102.509 87.1937 101.658 86.6704 101.728C86.0246 101.863 86.152 102.903 85.9125 103.488C76.6844 95.9171 82.5365 92.0153 76.9721 87.8697C71.2143 84.8745 67.8011 84.7522 61.4528 85.4003C59.1109 85.4689 57.2369 86.5265 56.6846 88.8892C54.6715 93.7775 49.9543 97.3756 44.8082 98.4784C44.3829 97.7201 43.2138 95.544 42.5589 96.2312C35.1267 96.4854 20.7641 102.369 13.8076 104.415C6.82409 106.202 6.9126 108.108 5.08554 115.712C1.77043 129.263 2.39167 180.158 11.0427 190.884C11.0427 190.884 15.747 194.032 18.1093 194.805C18.0563 199.82 18.8941 207.289 18.1093 212.193C16.3425 221.086 14.1889 230.015 12.2208 238.956C12.212 239.953 4.33572 254.716 8.02764 251.983C8.78959 252.359 10.1291 253.936 10.9498 254.288C7.0275 263.246 7.74958 274.243 8.02764 285.31C8.09715 291.9 6.56067 299.124 5.08554 305.872C-5.82803 363.058 -13.231 427.989 -17.2834 485.272C-17.4486 487.616 -17.5571 489.407 -17.6353 491.075C-17.7159 491.646 -16.9457 491.636 -16.6599 491.345L-16.2655 490.96C-15.8261 491.086 -15.124 491.279 -14.6788 491.4C-14.6223 493.275 -14.8076 495.224 -15.0338 496.933C-15.2418 498.568 -17.892 505.707 -17.2834 507.302C-19.3037 507.193 -23.0962 510.516 -24.9057 514.112C-25.8336 514.944 -28.8019 516.312 -29.4826 517.591C-30.8605 518.921 -40.4309 524.481 -40.4309 524.481C-43.9546 527.307 -55.2903 538.525 -54.3654 540.803C-54.3654 540.803 -54.4694 541.515 -54.5044 541.751C-56.45 553.096 -53.2103 552.622 -42.7284 554.292C-27.4164 556.998 -12.934 548.787 0.00660706 541.829C4.30685 538.923 8.49561 539.695 8.02764 536.184C7.17887 531.85 7.02807 516.336 2.1197 516.687C2.92687 515.798 2.7246 507.656 2.1197 506.134C1.73548 502.215 5.27432 498.555 5.08554 494.519C7.14165 494.674 11.342 495.639 12.2208 493.342C12.1813 493.109 11.2103 493.115 11.0427 493.06L11.0604 492.929L10.9498 492.904C19.5099 462.666 40.3629 323.806 63.0051 313.148C63.1451 314.288 65.6363 312.937 67.1451 313.148C74.1485 367.907 82.1666 419.522 86.4439 478.09C86.8714 479.828 87.8608 491.942 88.2784 493.953C88.2784 493.953 89.59 495.037 90.3628 495.253C90.5967 501.433 89.8049 514.327 89.778 514.34L89.3682 515.345C86.9832 520.735 85.2064 527.949 88.2784 533.23C85.9986 533.065 85.0029 535.012 84.901 537.035C83.5573 545.909 119.082 553.783 127.332 554.292C130.045 554.765 149.37 551.311 147.693 549.608Z" fill="white"/>
<path fill-rule="evenodd" clip-rule="evenodd" d="M144.443 550.34C139.965 551.37 135.597 553.072 131.173 554.076C116.772 553.013 102.634 548.156 90.0007 542.162C86.3383 540.556 84.1911 537.706 85.8281 534.048C91.1868 540.687 111.024 545.304 120.105 548.165C125.753 549.406 132.167 552.215 137.868 549.594C141.483 548.975 145.596 547.238 146.987 543.976C147.084 545.367 146.941 546.749 146.819 548.135C146.961 549.834 146.133 550.064 144.443 550.34ZM90.9624 494.404C90.8437 494.122 90.4668 494.114 90.3248 494.371C90.051 494.35 89.759 494.322 89.4679 494.31C89.9661 492.729 90.0363 491.075 89.7885 489.444C89.4757 484.942 89.1179 480.445 88.7385 475.952C84.8275 432.873 80.3226 389.665 72.6409 347.063C72.7332 346.996 72.7938 346.895 72.7775 346.766C72.3923 343.747 71.5784 340.804 71.0102 337.816C70.437 334.804 69.9535 331.774 69.425 328.751C69.2671 327.85 69.1066 326.947 68.9391 326.045C69.0595 323.854 68.5315 321.548 68.2527 319.426C68.0569 317.935 67.7745 316.411 67.3856 314.921C67.5494 314.418 67.464 313.824 67.0617 313.446C67.0562 313.441 67.0503 313.436 67.045 313.432C67.075 313.331 67.1081 313.238 67.1434 313.148C67.42 312.465 68.0184 312.156 68.4512 311.67C69.6939 311.445 70.965 311.384 72.2182 311.582C72.4054 311.618 72.5444 311.359 72.3555 311.257C67.3195 308.305 61.0505 311.152 57.3363 315.001C45.922 331.258 41.7934 351.899 35.4862 370.551C24.0689 411.123 16.0599 452.623 6.88796 493.701C-0.367104 493.363 -7.60526 492.303 -14.8761 492.485C-15.1492 491.867 -15.6187 491.206 -16.1778 490.939C-11.6603 428.319 -3.89834 365.93 7.6583 304.217C8.94085 288.052 6.9343 271.572 11.7181 255.765C45.6695 269.158 83.6327 271.151 119.246 263.949C112.587 339.637 109.07 416.115 118.217 491.786C115.292 492.944 112.153 493.443 109.044 493.806C103.066 494.529 96.9722 494.621 90.9624 494.404ZM0.62582 512.243C0.08815 513.29 0.658482 514.38 1.78548 514.677C-1.58584 515.568 -2.21125 519.161 -4.86866 520.802C-5.11765 520.33 -5.82169 520.25 -6.2927 520.113C-7.71238 514.821 -9.35123 508.596 -16.0024 506.651C-15.5792 506.109 -15.6377 505.469 -15.6575 504.828C-15.1632 502.31 -13.3839 496.689 -14.4862 493.802C-8.37502 495.197 -2.10186 495.768 4.09458 496.675C2.83387 501.269 1.76555 508.206 0.62582 512.243ZM4.87669 534.619C5.07648 534.566 5.27628 534.509 5.47228 534.45C6.44735 538.736 -0.160084 540.135 -3.41898 541.656C-8.33039 543.694 -13.2359 545.742 -18.1299 547.805C-28.0391 552.788 -37.3459 554.191 -48.3617 550.64C-55.3719 549.294 -54.0383 547.95 -55.0659 542.531C-48.0371 552.004 -33.6386 547.939 -24.7002 543.842C-16.5763 540.725 -8.39344 537.729 0.0110397 535.107C1.69015 535.527 3.29026 535.088 4.87669 534.619ZM76.2388 188.288C72.0063 189.436 67.7147 190.032 63.4114 190.884C63.7865 188.115 64.3379 185.348 64.3477 182.543C68.1141 184.847 72.1171 186.729 76.2388 188.288ZM36.3037 160.287C45.3488 158.397 54.9258 159.087 63.4722 162.677C66.4067 163.655 70.3711 166.203 73.4185 165.024C71.158 172.213 74.0049 179.619 76.9491 186.162C70.1911 183.903 64.241 179.93 58.0878 176.447C60.3916 173.408 39.44 169.725 37.1657 169.805C36.5202 166.662 35.751 163.545 35.0766 160.407C35.4528 160.547 35.92 160.359 36.3037 160.287ZM83.0426 163.687C83.0908 163.723 83.1266 163.769 83.1431 163.83C91.9959 165.059 100.887 169.096 109.977 167.926C116.119 167.132 113.291 170.651 109.201 170.519C99.9715 171.446 91.4155 165.978 82.8294 164.114L83.0426 163.687ZM87.8747 104.269C87.8531 104.366 87.8314 104.463 87.8106 104.561C87.7196 104.561 87.6287 104.552 87.5334 104.525C87.4745 104.468 87.419 104.409 87.3618 104.351C87.5291 104.303 87.7032 104.273 87.8747 104.269ZM150.274 548.527C150.147 546.379 149.022 544.229 147.414 542.787C148.489 538.381 146.337 532.768 141.746 530.87C140.498 528.82 137.79 527.919 135.832 526.457C137.475 526.356 138.979 525.183 137.718 523.923C135.052 524.734 132.473 525.828 129.932 526.924C129.245 527.069 127.616 528.432 127.487 527.216C127.971 526.249 131.695 525.271 132.909 524.599C132.009 524.03 131.107 523.457 130.211 522.882C131.804 522.844 133.851 521.645 132.29 520.284C128.085 521.222 123.711 522.051 120.004 524.184C116.946 523.422 125.85 520.694 126.671 520.562C125.274 519.611 123.922 518.615 122.652 517.54C124.046 517.513 126.951 516.108 125.092 514.854C122.754 514.251 119.506 516.185 117.183 516.803C117.182 516.803 117.182 516.805 117.182 516.805C115.434 517.454 113.701 518.154 111.984 518.879C111.291 519.173 110.997 518.213 111.68 517.924C114.348 516.797 117.049 515.733 119.807 514.814C119.055 513.994 118.346 513.137 117.637 512.279C117.825 510.935 116.439 509.753 115.926 508.537C116.035 507.915 115.723 506.936 114.984 506.807C114.4 506.238 113.515 506.202 112.698 506.331C111.403 503.834 110.285 499.948 109.873 496.849C113.306 496.391 117.29 496.375 120.256 494.478C121.14 494.423 122.019 493.779 122.044 492.714C122.131 488.867 121.752 485.078 121.411 481.25C121.071 477.427 120.75 473.603 120.45 469.776C115.385 408.398 116.299 346.696 121.115 285.332C121.629 278.138 121.888 270.781 120.695 263.638C122.175 263.18 127.708 262.224 127.28 260.216C132.081 247.964 124.982 216.586 119.761 204.256C123.647 204.029 128.309 203.194 130.86 199.983C133.317 199.115 134.18 196.228 135.405 194.148C138.039 188.604 139.745 182.366 139.078 176.194C141.8 175.472 138.426 167.982 138.126 165.966C133.615 151.054 128.448 136.224 121.675 122.182C119.257 117.047 115.018 112.991 109.832 110.724C103.597 108 97.3318 105.18 90.8116 103.187C90.8515 102.074 89.6897 101.638 88.897 102.04C88.8468 102.024 88.7957 102.007 88.7437 101.995C87.9423 101.804 86.7285 102.117 86.0839 102.789C83.9704 99.6862 83.4234 95.7601 82.6436 92.1151C79.5002 95.4104 82.4026 106.442 87.2977 107.391C84.1094 130.442 57.3777 124.974 49.2433 108.177C47.4784 104.932 46.2881 101.741 44.5273 98.4385C49.6079 99.4814 54.8043 96.6702 56.6463 91.7862C57.0243 90.9949 57.3511 90.5533 58.0482 90.0579C58.9045 89.4488 58.6861 87.9 57.4763 87.94C52.705 89.0124 55.8388 96.626 44.2329 97.9604C43.813 97.3097 43.3176 96.6928 42.7952 96.3752C42.5746 96.1314 41.8775 96.0637 41.5017 96.3431C32.769 96.8689 24.251 99.0814 15.8755 101.464C8.68216 103.237 1.13937 107.088 -0.641922 114.932C-4.05104 127.407 1.38703 189.399 10.7742 197.066C12.322 198.567 14.1795 199.6 16.1908 200.327C14.2657 214.111 11.2649 227.811 8.71031 241.511C8.51922 243.874 4.42676 256.985 9.62137 254.828C9.76223 254.896 9.90509 254.961 10.0473 255.028C9.7404 255.654 9.45156 256.29 9.17216 256.932C8.27516 258.992 7.56124 261.076 7.23382 263.309C6.89329 265.63 6.82606 267.977 6.72293 270.318C6.68456 271.187 6.65303 272.043 6.64221 272.893C5.63884 281.109 5.65916 289.494 5.57806 297.749C1.03966 328.955 -5.47623 359.926 -9.18013 391.296C-13.6849 424.811 -17.2585 458.463 -19.3364 492.218C-19.4075 493.768 -17.6167 494.074 -16.7459 493.214C-16.6211 493.25 -16.4959 493.285 -16.3706 493.319C-16.3685 494.672 -16.4846 496.031 -16.6412 497.375C-16.9391 499.335 -19.179 504.268 -18.6149 506.048C-20.654 505.764 -23.9366 506.179 -24.5284 507.854C-26.8626 510.83 -26.7133 514.89 -29.4842 517.591C-26.8172 518.175 -24.1679 518.959 -21.5811 519.782C-21.0465 520.071 -21.3702 520.853 -22.0463 520.651C-23.4825 520.222 -24.9225 519.778 -26.3705 519.377C-27.7706 518.988 -29.1768 518.636 -30.6012 518.369C-30.6503 518.409 -30.6334 518.497 -30.5716 518.532C-31.5908 519.323 -32.7481 520.012 -33.9087 520.673C-33.1604 520.836 -23.2183 523.505 -26.1929 524.34C-29.077 523.141 -32.0829 521.995 -35.2011 521.402C-36.5503 522.169 -37.8703 522.966 -39.2026 523.752C-38.5596 523.887 -27.8418 526.219 -31.5563 526.894C-34.4372 525.844 -37.4234 525.14 -40.4325 524.481C-44.122 526.679 -47.8174 528.87 -51.4585 531.127C-52.9813 532.068 -54.6369 532.973 -55.6148 534.385C-56.9139 536.264 -56.9293 538.611 -56.0364 540.76C-58.6427 552.002 -54.0434 552.436 -43.323 554.798C-28.1265 558.694 -14.9471 549.347 -1.741 544.269C1.01744 542.975 4.06647 542.002 6.5387 540.297C8.87328 538.631 10.412 535.131 8.27402 532.731C9.75166 529.964 7.77833 523.179 7.30675 519.936C6.91759 517.889 6.65569 514.59 3.62205 514.483C4.43321 513.956 4.40739 512.962 4.1375 512.165C3.78234 508.237 5.00108 501.259 5.29394 496.823C7.61271 496.99 11.0515 497.672 12.2548 495.096C12.7196 494.352 12.1198 493.555 11.3599 493.454C11.3603 493.452 11.3608 493.45 11.3608 493.45C11.5233 493.462 11.4773 493.444 11.369 493.417C23.6622 442.574 31.5909 390.483 49.3307 341.112C53.3916 331.574 55.2007 319.275 64.2751 313.118C64.399 313.889 64.5295 314.776 65.0119 315.328C65.0381 315.428 65.0652 315.527 65.0905 315.626C65.4075 316.868 65.7644 318.095 66.0795 319.334C73.1791 374.08 81.3759 428.708 85.3148 483.82C85.9118 486.372 84.9408 495.456 88.5063 495.049C88.9481 495.299 89.5234 495.418 90.0025 495.536C89.2652 498.812 89.4714 503.758 89.4939 506.745C89.4428 509.728 88.9507 512.82 89.2825 515.773C89.6646 517.717 93.2903 516.546 92.6977 514.593C92.6145 508.994 92.2758 502.087 91.3167 495.871C96.8726 496.957 102.568 497.22 108.226 496.96C107.922 500.243 108.893 504.348 110.022 507.039C106.635 508.18 103.354 509.714 100.735 512.028C98.2553 514.285 95.9768 519.462 91.6052 517.751C90.3941 517.21 89.0659 516.274 88.6484 515.067C88.2438 514.765 88.4552 515.492 88.534 515.665L88.3694 515.722C87.3636 515.081 85.517 521.744 85.3627 522.576C84.5907 526.144 83.6962 530.21 85.5242 533.546C81.5962 535.181 82.0192 540.495 84.9316 542.721C96.494 550.224 115.775 556.349 130.125 557.377C132.664 557.554 135.337 556.808 137.752 556.007C140.592 555.247 143.441 554.435 146.248 553.54C148.72 552.971 150.582 550.847 150.274 548.527Z" fill="#282828"/>
<path fill-rule="evenodd" clip-rule="evenodd" d="M99.2339 33.3625C98.5009 28.9137 100.907 27.9909 99.2339 23.7621C95.5164 15.9265 85.3837 16.2642 77.9486 15.6617C69.6556 15.343 61.262 16.4411 53.6168 19.775C51.7907 20.5712 50.0342 21.5077 48.3505 22.5717C46.8947 23.4916 47.0948 25.2411 48.0128 26.1954C41.393 35.5979 45.1792 48.219 39.8972 58.1163C38.9216 59.8853 37.631 61.4717 36.7829 63.3125C35.4937 66.1107 35.4111 70.1201 38.3346 71.9782C42.4523 74.1952 44.75 69.806 46.7733 76.1686C56.8776 98.3534 77.1931 99.6029 96.4789 88.0362C98.1475 87.1053 99.8507 86.0537 101.11 84.5908C103.97 81.3625 103.633 76.8227 103.696 72.7913C103.732 70.4288 103.738 68.066 103.715 65.7029C103.625 56.1317 100.462 42.8547 99.2339 33.3625Z" fill="white"/>
<path fill-rule="evenodd" clip-rule="evenodd" d="M58.1587 6.75491C69.8032 1.45681 83.0104 -0.552366 95.7123 0.765494C101.982 1.41495 108.169 2.8083 114.056 5.07167L114.573 5.27166C116.026 5.83277 117.593 6.3898 118.697 7.53197C119.983 8.8593 120.343 10.8666 119.425 12.5063C118.711 13.7803 117.427 14.6943 116.059 15.182C116.541 15.5782 116.999 16.02 117.427 16.5132C118.151 17.3398 118.206 18.5184 117.427 19.3337C115.928 20.9049 113.981 22.0416 111.885 22.5865C112.121 23.7272 111.994 24.9899 111.489 26.1269C110.039 29.3904 105.957 29.7793 102.816 29.5855L102.72 29.5796L102.546 31.5849C102.453 32.6533 101.815 33.4817 100.733 33.6455C100.695 33.6512 100.657 33.655 100.618 33.6586C102.331 39.8711 103.366 46.2755 104.321 52.6422C104.82 55.9656 105.266 59.2967 105.694 62.63L105.836 63.7412C106.292 67.3349 106.861 70.9647 107.059 74.585C107.236 77.8701 106.611 81.0068 104.592 83.6581C102.781 86.0346 100.311 87.815 97.6547 89.1364C91.6535 92.1246 85.3363 94.3493 78.6986 95.3818L78.2558 95.4494C75.6936 95.8416 73.0536 96.1722 70.5191 95.4616C68.2922 94.8369 65.9567 93.2257 66.4597 90.6375C66.6288 89.7637 67.8477 89.7256 68.2654 90.4015L68.3616 90.5559C68.8627 91.3533 69.4117 92.0942 70.2858 92.5055C71.309 92.9897 72.4956 93.1241 73.614 93.138C76.7372 93.1745 79.9897 92.3936 82.9971 91.611C88.6135 90.1481 94.3816 87.7638 98.9819 84.1509C100.94 82.616 102.511 80.6963 103.066 78.2263C103.751 75.1811 103.121 71.8522 102.809 68.7918C102.169 62.4767 101.406 56.1734 100.601 49.8771L100.44 48.6181C99.7625 43.3543 99.0504 38.0885 98.7125 32.7942C98.5722 32.6019 98.4769 32.3829 98.4388 32.143L98.3859 31.7982C98.34 31.5031 98.3322 31.2326 98.3651 30.9831C98.3668 30.0271 98.3937 29.0768 98.4483 28.1205C98.4578 27.9494 98.4656 27.778 98.4708 27.6085C97.4797 27.8274 96.4817 28.0046 95.4793 28.1551C88.4307 29.2196 81.2731 29.4862 74.1683 28.9568C70.6235 28.6919 67.1055 28.237 63.5985 27.6675C61.8136 27.378 60.0347 27.0581 58.2613 26.7C56.9797 26.4429 55.7247 26.0944 54.464 25.7669C53.1635 27.6656 52.4609 30.0024 52.5977 32.2972C52.7514 34.9158 54.4906 37.2906 54.0027 39.9664C53.5447 42.4705 51.4056 43.2469 49.294 43.8669L48.3959 44.1273C47.7049 44.3296 47.2032 44.525 47.0782 45.3577C46.8637 46.788 47.1276 48.3972 47.1826 49.8351C47.2491 51.5357 47.3362 53.2364 47.3763 54.937C47.3972 55.8169 47.4312 56.7005 47.4295 57.5804C47.4276 58.205 47.3346 58.6316 47.0934 59.0352C47.2795 59.2696 47.4464 59.5229 47.5947 59.7914C47.6421 59.879 47.5244 59.9721 47.4544 59.8999C47.2662 59.7038 47.0666 59.5267 46.8561 59.3684C46.7498 59.5 46.6263 59.6334 46.4818 59.7762L46.4707 59.7609C46.0188 60.2123 45.3011 60.2561 44.7407 59.7762L44.5937 59.6484C44.1836 59.2877 43.9019 58.9876 43.7878 58.3917C43.7821 58.3612 43.7762 58.3307 43.7726 58.3003C42.7302 58.2641 41.6707 58.5114 40.7328 59.0316C39.2462 59.8562 38.2 61.0312 37.5812 62.4824C37.8279 62.7719 38.1165 63.0308 38.4525 63.2479C38.5 63.2803 38.4582 63.3508 38.4069 63.326C38.0634 63.1642 37.7557 62.9642 37.4804 62.7299C37.2583 63.3013 37.1026 63.9145 37.0076 64.5639C36.6735 66.8568 37.2697 69.6583 39.3354 70.9647C40.2297 71.5303 41.2512 71.8369 42.3106 71.8408C42.8269 71.8425 43.2732 71.755 43.7745 71.6312C44.1144 71.5475 44.4523 71.4256 44.8074 71.4256C45.1112 71.4256 45.3922 71.5018 45.6523 71.6541L45.5802 71.6604C45.4048 71.6769 45.4386 71.6844 45.6827 71.6844C46.4422 71.7169 46.8768 72.4902 46.5277 73.1624L46.4817 73.2662C46.4722 73.2871 46.4638 73.3045 46.4576 73.3184L46.4299 73.4967C46.4272 73.5136 46.4243 73.5311 46.4213 73.549L46.4107 73.585C46.4088 73.5909 46.4067 73.5966 46.4042 73.6023L47.5432 75.3445C48.9397 77.4758 50.3673 79.599 51.992 81.5457C53.1311 82.9112 54.3388 84.2498 55.6146 85.4897C56.7614 86.6038 58.136 87.1408 59.4347 88.0172C60.128 88.4814 60.3309 89.4549 59.7008 90.0813C57.8513 91.9233 55.233 90.4605 53.7159 88.9638C52.2806 87.5443 51.0407 85.8385 49.9718 84.1301C48.0751 81.0925 46.5656 77.8626 45.9048 74.3565C45.6295 74.6098 45.2783 74.7679 44.9232 74.8917C44.2112 75.1392 43.427 75.242 42.6752 75.2687C41.2341 75.3163 39.7911 74.9659 38.4943 74.345C33.218 71.8217 32.4433 64.2649 35.6691 59.8086C35.2341 58.5433 34.9912 57.1706 34.7273 55.9997L34.6072 55.4766C33.2731 49.6312 32.3776 43.4771 34.7426 37.7495C35.0464 37.0106 35.3881 36.2907 35.7925 35.6014C36.1172 35.0471 36.6754 34.4568 36.8292 33.8264C37.1709 32.4419 35.0615 30.9869 34.4464 29.8881C33.723 28.5988 33.6205 27.0771 34.6058 25.8982C34.7312 25.7498 34.8677 25.6124 35.016 25.4926C34.0818 23.7939 34.0381 21.6572 35.2685 19.9812C36.0773 18.8766 37.3115 18.1034 38.6595 17.8692C39.4836 17.7263 40.4746 17.7797 41.3803 18.0348C46.3395 13.4166 51.9977 9.55827 58.1587 6.75491ZM39.1151 64.5411C40.4386 63.3698 41.9006 62.7566 43.7043 62.9108C45.5175 63.0668 47.701 63.8193 48.766 65.379C49.6073 66.6112 47.8928 68.4185 46.6587 67.4929C45.5347 66.6493 44.7845 65.697 43.3891 65.2438C42.1359 64.8382 40.5847 64.5772 39.2727 64.8096C39.1284 64.8343 38.9843 64.6553 39.1151 64.5411Z" fill="#282828"/>
<path fill-rule="evenodd" clip-rule="evenodd" d="M84.4617 70.1888C85.1129 69.0401 87.0557 69.2268 87.3529 70.5666C87.9559 73.2827 84.716 75.7909 82.2556 75.8535C79.8104 75.9156 77.0669 73.835 77.4209 71.2069C77.5084 70.5567 78.3769 70.6357 78.6729 71.0433L78.7878 71.1996C79.592 72.2797 80.6531 73.3977 82.1456 73.1343C82.7642 73.0254 83.3259 72.6391 83.6998 72.1417C84.1508 71.5416 84.1013 70.8249 84.4617 70.1888ZM68.9139 50.318C69.2452 50.2267 69.5797 50.262 69.8734 50.3869C70.5288 50.507 71.0765 51.0534 71.2689 51.6773C71.284 51.7312 71.3009 51.7846 71.3197 51.8373L71.349 51.9163L71.2704 51.7163C71.3066 51.9132 71.467 52.1203 71.5247 52.3179C71.5957 52.561 71.613 52.8371 71.5891 53.1047C71.7974 53.1068 72.0059 53.1138 72.2139 53.1318L72.4149 53.1496C73.539 53.2542 74.7731 53.4459 75.4396 54.417C75.8139 54.9628 75.4626 55.9453 74.775 56.0504C73.7165 56.2123 72.8047 55.6267 71.7499 55.5094C70.7526 55.3984 69.7091 55.4619 68.7248 55.642C66.6927 56.0134 64.8254 56.8369 62.8451 57.3536L62.5755 57.4221C62.2361 57.5041 61.8512 57.0311 62.187 56.7551C63.7735 55.4521 65.8046 54.3961 67.8056 53.7531C67.5141 53.2895 67.424 52.6789 67.6233 52.1812C67.6541 52.0779 67.6924 51.9775 67.7329 51.8778L67.8171 51.672C67.8252 51.575 67.8438 51.4792 67.8708 51.3853L67.8751 51.3566L67.8776 51.3584C68.0266 50.8743 68.4156 50.4553 68.9139 50.318ZM89.1549 50.3927C89.5881 49.9588 90.198 50.0229 90.6511 50.3644L90.7109 50.4115C91.138 50.6011 91.4914 51.0153 91.7227 51.3992C91.9636 51.7978 92.1239 52.2039 92.1299 52.6428C93.1808 52.6462 94.1866 52.9612 94.9577 53.8091C95.2063 54.0826 95.377 54.5046 95.2401 54.8756L95.1578 55.0963C94.8988 55.7971 93.7353 56.2003 93.3394 55.3764L93.3212 55.3361C92.901 54.3577 91.287 54.4605 90.4293 54.5604C89.8315 54.6305 89.2407 54.779 88.6637 54.9454C88.4601 55.0041 88.2582 55.0678 88.0572 55.1327L87.8554 55.198C87.7479 55.2328 87.1892 55.5365 87.5366 55.4646C87.6301 55.4453 87.7012 55.5815 87.6059 55.6272C87.1909 55.8256 86.7482 55.4307 86.7759 54.9851C86.8235 54.2119 88.052 53.7878 88.6429 53.521L88.6784 53.5049C88.9054 53.4001 89.1428 53.2997 89.3879 53.2066C89.2502 53.0016 89.1358 52.7739 89.0414 52.5295C88.9513 52.2988 88.8915 52.0745 88.8586 51.8292C88.8265 51.7093 88.8265 51.5893 88.8586 51.4692L88.8638 51.4348C88.8473 51.3555 88.8395 51.2735 88.8404 51.191L88.8369 51.1589H88.8404C88.8517 50.87 88.9669 50.5804 89.1549 50.3927ZM82.2218 58.6289C83.8887 59.1439 86.639 60.5468 85.7702 62.712C84.5572 64.7006 81.3403 63.2392 79.7815 62.5967C78.3811 62.1329 77.6519 64.0951 79.0061 64.6866C90.1962 69.1125 90.1547 57.4316 82.6275 57.6031C81.7986 57.6219 81.7726 58.4577 82.2218 58.6289ZM67.4167 43.3981L67.7011 43.3151C69.1786 42.8872 70.6869 42.1483 71.9989 43.3012C72.5139 43.754 72.62 44.6948 72.2515 45.2595C71.4118 46.5462 70.1665 46.3496 68.8104 46.4593C67.778 46.5428 66.7609 46.846 65.7971 47.2249C65.0094 47.5348 64.2789 47.9711 63.5892 48.4576C62.9116 48.9359 62.4487 49.6837 61.7537 50.1143C61.499 50.2723 61.2048 50.1098 61.1134 49.8538C60.7892 48.9458 61.337 47.8147 61.8004 47.0411C62.3662 46.0972 63.2256 45.3254 64.1496 44.7413C65.1616 44.1016 66.2806 43.7323 67.4167 43.3981ZM88.9461 42.4211C91.4438 42.4203 93.847 43.8091 95.2445 45.845C95.7183 46.5366 95.3709 47.5613 94.6891 47.9595C93.925 48.4066 93.108 48.0847 92.6038 47.4442L92.5744 47.4053C91.773 46.3387 90.7403 45.4986 89.5162 44.9518C88.9192 44.6848 88.2582 44.4683 87.6128 44.3585L87.404 44.3227C87.1112 44.2737 86.7716 44.2268 86.5069 44.2727C86.3652 44.2913 86.2349 44.3382 86.115 44.4095C86.1727 44.5355 86.0237 44.6873 85.8861 44.6117C85.2655 44.271 85.3416 43.663 85.8542 43.1905C86.5794 42.522 88.0096 42.4213 88.9461 42.4211Z" fill="#282828"/>
</g>
</svg>
