<svg width="169" height="249" viewBox="0 0 169 249" fill="none" xmlns="http://www.w3.org/2000/svg">
<path fill-rule="evenodd" clip-rule="evenodd" d="M11.8435 155.335C12.5535 153.387 11.5174 151.444 10.9422 149.559C8.8999 143.024 6.66948 136.489 3.51523 130.394C2.31981 128.354 4.28615 125.854 6.56361 126.429C10.4642 126.975 14.4856 126.54 18.3926 126.299C19.8211 122.604 23.6351 121.071 26.6364 118.942C30.0419 116.818 33.3545 114.377 36.8969 112.514C37.0936 110.754 39.2289 110.318 40.5344 111.576C44.1206 109.346 48.4211 109.761 52.265 108.299C55.1862 103.58 55.4054 98.617 56.1784 94.0643C56.5163 92.0791 56.1581 90.1644 57.5139 88.395C62.0721 81.9875 80.0791 79.2084 86.7191 83.0057C90.2925 80.778 90.3791 84.8135 90.9458 87.3041C91.5777 88.55 91.9188 89.9614 91.8129 91.4476C95.6515 99.4632 104.434 103.086 112.3 106.023C113.287 105.073 114.697 105.193 115.636 105.979C122.453 107.46 129.07 110.065 134.782 114.131C141.271 116.029 145.842 121.305 149.147 126.962C149.511 127.558 149.597 128.166 149.49 128.725C159.653 143.617 164.503 161.446 165.185 179.451C171.72 183.373 162.078 218.596 159.834 225.908C159.832 225.907 159.829 225.906 159.827 225.905C158.371 228.482 156.718 235.836 153.074 235.267C150.574 238.093 146.59 237.537 143.198 237.754C143.75 239.873 143.479 242.297 142.821 244.39C142.044 246.882 138.227 246.967 137.686 244.249C103.904 250.811 69.2434 245.576 35.0824 246.561C25.2047 246.631 15.3292 246.937 5.47513 247.64C4.08833 247.739 2.68121 246.321 2.77637 244.941C4.89453 222.41 6.88332 192.771 9.25276 170.461C9.8141 165.373 10.2589 160.23 11.8435 155.335Z" fill="white"/>
<path fill-rule="evenodd" clip-rule="evenodd" d="M90.3865 84.3969C90.2892 84.1319 89.8946 84.1671 89.8871 84.4642C89.731 90.7991 91.3092 98.5401 96.3795 102.819C98.9831 105.016 102.424 106.021 105.585 107.176L105.941 107.308L111.525 109.387C113.006 109.938 114.603 110.787 115.911 110.008C114.853 112.632 113.964 115.328 112.675 117.857C111.07 121.006 109.13 123.885 106.755 126.505C97.3483 136.884 82.4591 140.05 69.0979 137.009C62.2174 135.443 55.5229 132.474 50.8289 127.062C47.2619 122.947 45.2122 117.425 44.7289 111.978C44.8701 112.001 45.0187 112 45.1705 111.966C46.861 111.598 48.5675 110.692 50.0548 109.804L50.1981 109.718C51.6298 108.856 53.1214 107.87 54.1489 106.531C55.169 105.202 56.2393 100.867 56.2393 100.867C56.5312 99.2378 56.8049 95.9918 56.7578 94.3453C56.7536 94.1904 56.0639 94.0985 55.9901 94.2598C55.3529 95.6574 55.1465 98.7303 54.6547 100.184L54.5563 100.475C54.0302 101.996 53.5801 103.845 52.4916 105.074C50.4461 107.381 47.3614 108.357 44.6081 109.513C44.4103 106.906 40.2445 106.967 40.298 109.686C40.3012 109.834 40.3076 109.981 40.313 110.128C39.9836 110.308 39.6682 110.514 39.3731 110.714L39.0844 110.91C37.9938 111.651 36.8946 112.356 35.7334 112.985C33.4859 114.204 31.1047 115.17 28.8015 116.274C26.4706 117.394 24.2915 118.727 22.2557 120.323C21.2998 121.072 20.3834 121.869 19.5141 122.717L19.2789 122.95C18.4513 123.774 17.3746 124.695 16.9031 125.777C16.7993 126.016 16.2786 126.571 15.9964 126.589C11.6189 126.877 7.25105 127.282 2.90245 127.889C1.77548 128.046 1.33067 128.626 1.74661 129.564C3.17726 132.789 8.77686 145.666 10.2663 149.121C10.092 151.66 10.3272 154.648 10.1701 157.188C9.94125 160.893 9.64079 164.598 9.28154 168.292C7.9931 181.511 6.04173 194.666 4.2775 207.828C3.39537 214.414 2.59023 221.01 1.79579 227.608C1.39482 230.943 1.05374 234.28 0.791779 237.628C0.682709 239.024 0.583282 240.42 0.496674 241.817L0.420746 243.056C0.317032 244.615 0.078598 246.103 1.04413 247.442C1.48145 248.049 2.48117 248.391 3.05643 247.701C3.77922 246.834 4.04868 246.187 4.11711 245.048C4.17058 244.176 4.1834 243.301 4.22296 242.428C4.3085 240.537 4.41649 238.645 4.54266 236.756C4.795 232.979 5.08371 229.203 5.41731 225.432C6.58598 212.209 8.80893 199.087 10.2877 185.896C11.0329 179.247 11.5633 172.586 11.8434 165.899C11.9835 162.56 12.0348 159.221 12.0017 155.88C11.9888 154.631 11.93 153.389 11.8445 152.149C14.06 157.18 16.3888 162.164 18.8245 167.08L19.4008 168.244C20.9448 171.353 22.5294 174.471 24.3835 177.401L24.7032 177.901C25.4538 179.091 26.4802 180.968 27.851 181.343C28.8048 181.604 29.9713 181.421 30.9496 181.401C31.9216 181.383 32.8935 181.379 33.8644 181.339C34.9529 181.296 35.9911 181.152 37.0432 180.869C37.2186 180.822 37.3833 180.771 37.534 180.706C38.5936 182.44 40.3953 183.761 42.2365 184.53C43.711 185.146 45.2571 185.568 46.8054 185.96L47.3518 186.097C49.0112 186.51 50.9102 186.706 51.8468 188.309L52.0639 188.681C52.76 189.863 53.4272 190.901 54.5798 191.748C55.8191 192.661 57.2882 193.235 58.752 193.681C60.25 194.139 61.7833 194.488 63.3048 194.863L63.7197 194.967C64.7237 195.218 65.7373 195.449 66.736 195.721C67.1615 195.839 67.5946 195.958 68.0126 196.101C68.5024 196.27 68.8573 196.532 69.2433 196.817C69.5908 198.029 71.0739 198.687 72.2928 198.603C72.9333 198.559 73.5075 198.342 74.0303 198.024C74.9435 198.799 75.9475 199.495 76.8777 200.214C78.18 201.221 79.4877 202.222 80.8018 203.212C83.5123 205.255 86.2442 207.27 89.0039 209.246C93.9021 212.753 98.9072 216.1 103.997 219.322C106.119 220.665 108.256 222.007 110.413 223.316L110.183 223.402L109.726 223.574C108.647 223.976 107.444 224.628 107.235 225.887C107.069 226.886 107.627 227.574 108.613 227.696C109.785 227.84 110.698 227.013 111.427 226.222C111.75 225.874 112.11 225.55 112.419 225.191C112.544 225.045 112.641 224.876 112.726 224.699C114.856 225.953 117.007 227.165 119.193 228.298L119.741 228.58C125.161 231.351 130.438 234.386 135.905 237.079C137.331 237.782 139.069 238.542 140.882 239.06C140.401 240.923 140.408 242.969 140.396 244.861C140.384 246.704 143.315 246.695 143.253 244.861L143.223 243.975C143.17 242.484 143.082 240.938 142.729 239.489C148.069 240.374 153.403 238.451 154.396 237.873C155.493 237.235 156.488 236.216 157.316 235.27C159.088 233.244 160.318 230.818 161.409 228.376C163.746 223.147 165.402 217.557 166.612 211.967C171.075 191.357 169.156 169.299 161.908 149.543C160.097 144.607 157.959 139.78 155.509 135.127L155.205 134.552C152.76 129.951 150.043 125.367 146.592 121.452C142.997 117.374 138.563 114.203 133.734 111.741C131.378 110.539 128.954 109.498 126.475 108.575C126.077 108.427 125.677 108.294 125.275 108.167C122.693 106.522 119.558 104.947 116.423 105.009C116.21 105.013 116.038 105.093 115.909 105.215C115.758 105.241 115.607 105.274 115.455 105.317C115.121 105.415 114.768 105.781 114.816 106.157L114.833 106.282C114.841 106.343 114.853 106.402 114.872 106.46C114.76 106.477 114.65 106.503 114.542 106.54C111.542 105.692 108.591 104.397 105.664 103.354L104.998 103.117C102.546 102.259 100.03 101.417 98.0187 99.7175C96.0181 98.0262 94.5137 95.8358 93.4263 93.4681C92.0866 90.5512 91.4867 87.3918 90.3865 84.3969ZM30.3295 238.252C29.7361 237.811 29.0336 238.323 28.8112 238.87C28.082 240.664 28.4423 243.451 29.4709 245.038C30.5359 246.681 33.0871 246.033 33.1491 244.042C33.2132 241.966 32.0061 239.5 30.3295 238.252ZM24.1942 188.71C24.1418 188.477 23.7793 188.479 23.7248 188.71C23.2308 190.816 23.2415 193.083 23.0972 195.241L23.08 195.481C22.9058 197.861 22.7593 200.248 22.6545 202.632C22.4503 207.323 22.2054 212.015 21.9306 216.703C21.7948 219.027 21.6483 221.352 21.4933 223.675C21.0057 223.404 20.5032 223.165 19.9825 222.955C19.203 222.64 18.4438 222.603 17.6056 222.612C16.5855 222.623 15.8178 223.52 15.9525 224.519C16.1001 225.607 17.0581 226.074 18.0536 225.919C19.1559 225.746 20.2626 225.479 21.3757 225.368C21.2517 227.165 21.1234 228.961 20.9886 230.756C20.8079 233.133 20.5737 235.506 20.408 237.885C20.3931 238.111 20.3759 238.338 20.3578 238.566C19.6948 238.221 18.9902 238.044 18.1915 237.827L17.983 237.768C16.8239 237.436 15.5826 236.975 14.509 237.754C13.7884 238.279 13.644 239.141 14.2417 239.832C15.1474 240.882 16.4882 240.679 17.7403 240.624L18.4139 240.6C19.049 240.575 19.6339 240.534 20.2209 240.374C20.1129 241.923 20.0563 243.478 20.2466 245.005C20.3492 245.83 21.4356 246.046 21.7232 245.204C22.4738 243.005 22.6299 240.633 22.9047 238.329C23.1613 236.178 23.3174 234.01 23.4853 231.85L23.5366 231.201C23.9141 226.448 24.2167 221.69 24.438 216.927C24.6593 212.162 24.7919 207.4 24.8443 202.632C24.8689 200.467 24.8325 198.294 24.7481 196.129L24.7213 195.481C24.623 193.254 24.6914 190.892 24.1942 188.71ZM123.458 238.603C123.429 238.299 123.186 237.921 122.823 237.968C122.489 238.012 122.145 237.99 121.814 238.046C121.378 238.118 121.027 238.376 120.621 238.537C119.962 238.801 119.243 238.937 118.567 239.153C117.297 239.558 116.606 240.893 117.131 242.141C117.684 243.452 119.073 243.75 120.273 243.2C121.219 242.766 121.924 242.073 122.56 241.271L122.741 241.042C123.015 240.697 123.326 240.312 123.441 239.895C123.553 239.488 123.498 239.017 123.458 238.603ZM61.7897 232.439C60.2083 232.215 58.8578 232.756 57.3951 233.266L57.2764 233.306C55.788 233.82 53.6154 234.176 52.8519 235.7C52.3921 236.617 52.7493 237.838 53.8324 238.11C55.5485 238.54 57.0872 237.286 58.5061 236.442L58.5798 236.398C59.9495 235.596 61.3631 234.922 62.2377 233.539C62.4708 233.171 62.2687 232.506 61.7897 232.439ZM116.98 106.749C117.614 106.89 118.247 107.016 118.88 107.136C121.287 108.425 123.623 109.764 126.108 110.913C128.745 112.132 131.372 113.392 133.876 114.866C138.936 117.846 143.107 121.72 146.554 126.469C152.507 134.672 156.936 144.131 160.106 153.73C160.92 156.196 161.649 158.69 162.293 161.204C161.154 160.151 159.804 159.502 158.291 158.948C157.65 158.713 156.851 159.111 156.526 159.666C156.38 159.915 156.298 160.161 156.313 160.454C156.346 161.1 156.766 161.833 157.46 161.961C159.077 162.259 160.649 162.838 162.208 163.349C162.444 163.426 162.647 163.397 162.809 163.306C164.357 169.859 165.325 176.546 165.668 183.274C165.958 188.97 165.779 194.711 165.148 200.4C164.663 200.182 164.188 199.978 163.657 199.854C162.967 199.694 162.289 199.498 161.616 199.278C159.675 198.641 158.789 201.845 160.773 202.334C161.512 202.515 162.255 202.666 163.007 202.777C163.663 202.873 164.243 202.831 164.861 202.73C164.389 206.278 163.744 209.801 162.922 213.275L162.741 214.034C161.673 218.47 160.429 222.946 158.63 227.139C157.747 229.195 156.579 231.148 155.136 232.862C154.427 233.705 153.64 234.428 152.782 235.113C152.068 235.683 149.64 236.919 146.765 236.919C143.889 236.919 143.11 236.647 141.66 236.148C138.791 235.161 136.067 233.585 133.376 232.181L133.098 232.037C131.908 231.421 130.723 230.796 129.54 230.167C129.69 228.962 129.428 227.95 128.8 226.838C128.122 225.634 126.44 226.233 126.315 227.465L126.311 227.512C126.292 227.789 126.245 228.072 126.187 228.354C118.283 224.026 110.546 219.394 102.932 214.568C98.0283 211.459 93.1761 208.257 88.3945 204.962C86.0037 203.315 83.6342 201.637 81.2883 199.928C80.0598 199.032 78.8365 198.129 77.6187 197.218C77.1119 196.839 76.6147 196.44 76.1068 196.059C76.2298 195.905 76.3506 195.751 76.4671 195.598C78.365 193.114 79.5957 190.153 80.2095 187.098C80.5805 185.255 80.759 183.342 80.8136 181.462L80.8371 180.645C80.8745 179.269 80.8852 177.827 80.6307 176.494C80.9761 176.683 81.3289 176.87 81.6807 177.069C82.9435 177.784 84.2063 178.496 85.4712 179.207C88.0053 180.627 90.5458 182.032 93.1194 183.379C97.7161 185.786 102.358 188.076 107.125 190.129L109.444 191.128C113.47 192.86 117.529 194.558 121.714 195.846C124.075 196.571 126.454 197.191 128.849 197.745L127.88 198.879C127.223 199.648 127.212 200.751 128.051 201.399C128.876 202.035 129.983 201.77 130.533 200.924L131.534 199.385C131.749 199.055 131.87 198.747 131.939 198.422C133.042 198.653 134.148 198.874 135.257 199.088L137.354 199.488C140.347 200.065 143.25 201.21 145.925 202.673C146.856 203.182 147.115 202.194 146.129 201.505C143.247 199.491 139.886 198.352 136.417 197.394L136.247 197.348C134.975 197 133.704 196.637 132.437 196.261C132.576 195.756 132.657 195.233 132.641 194.657C132.605 193.371 132.491 192.083 132.423 190.799C132.28 188.104 132.097 185.418 131.883 182.728C131.801 181.693 131.709 180.654 131.603 179.616C132.283 179.252 132.869 178.768 133.627 178.529L133.755 178.493C134.565 178.274 134.292 177.23 133.572 177.14C132.92 177.06 132.271 177.098 131.628 177.236C131.528 177.257 131.434 177.281 131.344 177.308C131.226 176.347 131.095 175.388 130.946 174.434C130.552 171.915 130.274 169.259 129.454 166.838C129.393 166.66 129.127 166.596 129.028 166.783C127.836 169.05 127.795 171.832 127.66 174.357L127.644 174.658C127.485 177.413 127.476 180.194 127.527 182.953C127.58 185.795 127.677 188.631 127.805 191.471C127.856 192.615 127.854 193.801 128.049 194.895C120.954 192.589 113.984 189.829 107.304 186.561C102.592 184.256 97.9203 181.859 93.3012 179.371C90.9874 178.126 88.6628 176.9 86.3512 175.649C85.5407 175.211 84.7313 174.771 83.9229 174.33L82.7093 173.669C81.5738 173.049 80.6265 172.433 79.3038 172.39C78.9103 172.377 78.5564 172.561 78.3051 172.841C77.5952 172.337 76.7729 172.028 75.9111 172.035C74.6141 170.244 73.2968 168.467 71.9261 166.728L70.9146 165.441C69.1632 163.22 67.308 160.966 65.0744 159.276C64.0768 158.522 62.9808 157.956 61.8367 157.489C62.1062 157.423 62.3692 157.291 62.6044 157.074C63.6961 156.061 63.8469 154.18 64.0682 152.768C64.2992 151.303 64.2104 149.992 63.9827 148.531C63.8939 147.964 62.9541 147.846 62.7242 148.368C62.2409 149.466 61.7287 150.52 61.2893 151.631L61.1588 151.966C60.6862 153.218 59.6801 154.533 59.7474 155.89C59.7645 156.263 59.8897 156.586 60.0821 156.847C59.1219 156.529 58.1489 156.245 57.1898 155.947C54.1724 155.016 51.1443 154.11 48.0681 153.387C47.2502 153.195 46.4269 153.016 45.6014 152.852C45.1684 150.799 44.5375 148.782 43.7944 146.803C44.498 146.441 44.9535 145.837 45.5597 145.299C46.1275 144.796 46.5178 144.183 47.0021 143.605C47.4426 143.079 47.1946 142.128 46.4023 142.159L46.1788 142.169C45.3576 142.207 44.5632 142.291 43.819 142.674L43.5538 142.811C43.1903 143 42.7925 143.216 42.4386 143.471C41.9746 142.406 41.4934 141.35 41.0058 140.305L40.375 138.955C38.7358 135.437 37.102 131.787 35.0459 128.513C34.1317 127.057 32.9138 126.148 31.1678 126.008C29.3693 125.863 27.4992 126.05 25.6986 126.114C23.6104 126.189 21.5232 126.277 19.4372 126.387C19.9718 125.828 20.4594 125.205 20.9961 124.667C21.8878 123.776 22.8298 122.931 23.82 122.151C25.7788 120.606 27.9333 119.333 30.1702 118.237C32.4081 117.141 34.7123 116.185 36.8133 114.83C38.1424 113.973 39.3303 112.895 40.4146 111.728C41.0967 119.087 44.6519 125.925 49.9928 131.062C55.54 136.397 63.2054 139.328 70.7039 140.574C78.3532 141.846 86.3362 141.379 93.653 138.722C97.4253 137.351 101.044 135.393 104.271 132.937C104.306 133.151 104.349 133.362 104.433 133.561C104.545 133.827 104.682 134.055 104.84 134.289L105.122 134.7C105.299 134.959 105.48 135.215 105.681 135.454C106.169 136.036 106.86 136.29 107.604 136.287C109.03 136.282 110.109 134.885 109.725 133.503C109.484 132.636 108.969 132.113 108.164 131.772C107.909 131.666 107.65 131.576 107.389 131.487L107.193 131.421C106.93 131.33 106.668 131.245 106.397 131.194C107.925 129.846 109.342 128.38 110.612 126.798C114.594 121.837 118.521 114.888 117.19 108.298C117.167 108.186 117.065 108.115 116.955 108.096C116.878 107.634 116.632 107.187 116.294 106.886C116.521 106.826 116.75 106.78 116.98 106.749ZM75.632 220.674C74.844 220.235 74.0293 221.276 74.6697 221.92L75.6267 222.877C76.5152 223.769 77.3792 224.671 78.1394 225.687L78.3233 225.936C79.3498 227.331 80.4436 228.948 82.1245 229.469C84.1581 230.101 86.1127 227.624 84.9355 225.815C83.9058 224.235 81.9256 223.639 80.218 222.985C78.6024 222.366 77.1429 221.513 75.632 220.674ZM141.233 213.378C140.769 212.773 139.561 213.092 139.878 213.95C140.906 216.735 141.325 220.535 143.921 222.387C144.759 222.983 146.075 222.709 146.765 222.019C147.548 221.236 147.579 220.133 147.131 219.177C146.585 218.011 145.24 217.166 144.298 216.278L144.213 216.197C143.2 215.213 142.103 214.517 141.233 213.378ZM32.716 216.586C31.8884 216.229 29.7328 215.537 29.0945 216.356C29.0646 216.386 29.0389 216.419 29.0186 216.456C28.8625 216.728 28.839 217.112 29.0186 217.381C29.7628 218.499 30.538 219.334 31.5965 220.13L31.7152 220.219C32.8668 221.065 33.9499 222.06 35.3528 222.441C37.2988 222.971 38.6578 220.535 37.2913 219.114C36.19 217.967 34.5102 217.373 33.0507 216.734L32.716 216.586ZM110.849 200.666C111.174 200.077 110.51 199.356 109.907 199.723C108.189 200.774 106.188 201.561 104.259 202.126C103.477 202.355 102.773 203.147 102.831 204L102.84 204.13C102.863 204.431 102.905 204.731 103.096 204.981C103.769 205.861 104.73 206.199 105.757 205.679C108.045 204.52 109.611 202.902 110.849 200.666ZM60.6381 198.885C60.6798 198.637 60.4991 198.447 60.2468 198.494C58.7958 198.769 57.4539 199.47 56.2083 200.276C55.5389 200.709 54.8942 201.183 54.227 201.619C53.4026 202.158 53.0946 202.603 52.9727 203.592C52.8926 204.245 53.502 204.841 54.0612 205.021C55.5849 205.512 57.331 203.901 58.3628 202.853L58.4098 202.806C59.4897 201.705 60.3815 200.403 60.6381 198.885ZM17.0324 197.174C17.3639 196.281 16.223 195.539 15.4778 195.978C14.7753 196.392 14.0129 196.734 13.3511 197.207C12.7416 197.643 12.1867 198.158 11.6029 198.63L11.3142 198.858C10.2439 199.719 8.47639 201.846 10.0076 203.082C11.4639 204.256 13.396 202.756 14.3743 201.658L14.4427 201.581C15.0052 200.931 15.6991 200.226 16.1065 199.466C16.4914 198.752 16.7523 197.933 17.0324 197.174ZM31.4019 128.017C33.2271 128.372 33.9713 130.623 34.739 132.091C36.5535 135.555 38.2215 139.083 39.896 142.615C40.4124 143.701 40.9139 144.796 41.4207 145.889C41.4517 145.974 41.4913 146.059 41.5383 146.142C42.5765 148.376 43.6458 150.596 44.8946 152.715C43.7516 152.502 42.6022 152.319 41.4485 152.176C41.5062 151.09 40.7631 149.637 40.3953 148.723L40.3643 148.646C39.9056 147.474 39.4244 145.628 38.244 145.02C37.8505 144.818 37.4292 145.072 37.3993 145.505C37.3095 146.794 38.5712 148.271 39.1881 149.365C39.5613 150.027 39.9238 150.692 40.2788 151.364C40.4113 151.616 40.5225 151.863 40.6583 152.085C40.0638 152.02 39.4683 151.963 38.8706 151.922L38.4814 151.895C36.267 151.748 33.9157 151.707 31.9152 152.799C30.059 153.811 29.1095 155.972 30.1295 157.94C31.3998 160.392 34.1969 160.717 36.6572 160.916C39.7302 161.163 42.8096 161.61 45.8602 162.046C49.0166 162.498 51.988 163.661 55.0962 164.259C55.386 164.315 55.5657 163.936 55.3005 163.775C52.8487 162.282 49.8677 161.462 47.1262 160.625L46.9038 160.557C45.4164 160.101 43.9633 159.579 42.4247 159.32C40.9321 159.068 39.4287 158.865 37.9232 158.711L37.7767 158.697C36.1183 158.558 31.8874 158.605 32.0659 156.15C32.1846 154.525 34.8256 154.245 36.0317 154.226C41.5608 154.138 47.1283 155.604 52.3825 157.176L53.5555 157.528C55.7068 158.175 57.8613 158.841 59.973 159.599C62.3649 160.459 64.25 161.798 65.9918 163.633C67.9239 165.667 69.7951 167.746 71.7988 169.712C73.0627 170.951 74.3425 172.168 75.632 173.375C75.924 173.752 76.157 174.163 76.3185 174.695C76.5912 175.594 76.5281 176.43 76.4254 177.353C76.1656 179.685 76.1078 182.043 75.7828 184.367C75.4813 186.522 75.0589 188.756 74.164 190.754C73.8101 191.544 73.3492 192.322 72.8232 193.017L72.3997 193.568C72.2148 193.807 72.0084 194.069 71.7914 194.315C71.4727 193.927 71.0119 193.674 70.4762 193.738C69.3385 193.871 68.4436 193.839 67.3273 193.578C66.4623 193.376 65.6047 193.138 64.7451 192.919C63.0546 192.489 61.3502 192.097 59.6779 191.602L59.3903 191.516C58.1436 191.133 56.8969 190.654 55.8597 189.85C54.6547 188.916 54.2836 187.568 53.3908 186.401C51.4854 183.911 47.3657 183.964 44.5771 183.282C42.2066 182.703 39.9259 181.788 38.2857 180.069L38.1905 179.966C38.2632 179.66 38.1456 179.314 37.8601 179.154L37.7981 179.12C37.6869 179.058 37.5672 179.033 37.4495 179.035C37.2977 178.811 37.1502 178.581 37.0165 178.335C36.9074 178.132 36.6326 178.282 36.669 178.481C36.6904 178.601 36.7203 178.717 36.7481 178.834C35.1592 178.426 33.4142 178.504 31.8018 178.505L29.7083 178.497C29.3458 178.493 28.8058 178.475 28.7577 178.452L28.7085 178.431C28.5781 178.374 28.763 178.467 28.6722 178.347C28.5717 178.213 28.4733 178.079 28.376 177.942C28.0285 177.457 27.7002 176.957 27.3795 176.452C30.8844 177.346 34.5166 177.901 38.0954 178.364C41.9361 178.862 45.827 179.207 49.7009 179.21C50.7691 179.211 50.7594 177.599 49.7009 177.559C45.5982 177.402 41.5169 177.185 37.4421 176.66C35.3346 176.387 33.2357 176.046 31.1496 175.647C30.3434 175.493 29.5404 175.329 28.7384 175.157L28.1375 175.026C27.7601 174.943 26.6951 174.823 26.1755 174.475C26.0729 174.299 25.9713 174.124 25.8697 173.949C25.9199 173.333 27.4843 173.416 27.851 173.415C28.8914 173.413 29.9317 173.421 30.9732 173.424C33.0539 173.43 35.1336 173.411 37.2154 173.395C41.3726 173.361 45.5458 173.216 49.6998 173.393C50.7081 173.437 51.2374 171.821 50.2408 171.395C45.8409 169.517 40.9566 169.109 36.2584 168.532C33.7874 168.228 31.3153 167.878 28.901 167.264L28.3033 167.112C26.786 166.723 25.1105 166.249 23.8328 165.322C25.7531 164.545 28.1407 164.634 30.1306 164.524L30.2835 164.515C33.071 164.345 35.8628 164.257 38.6557 164.253C44.3697 164.245 50.0847 164.447 55.7923 164.718C55.9356 164.725 55.9655 164.498 55.8255 164.468C49.9596 163.19 43.9976 162.573 37.9938 162.478C35.1988 162.433 32.4006 162.473 29.6077 162.597L28.5824 162.644C26.2012 162.746 23.558 162.774 21.5649 164.212C21.2613 164.431 21.1009 164.711 21.0763 165.007C18.4032 159.682 15.9354 154.244 13.4569 148.843C11.5301 144.644 9.675 140.41 7.67874 136.243L7.03185 134.896C6.16577 133.096 5.27937 131.298 4.2946 129.564C7.97707 129.072 11.6798 128.731 15.3847 128.469C18.7614 128.231 29.7767 127.703 31.4019 128.017ZM33.0325 185.736C32.6134 185.502 31.9697 185.692 31.866 186.211C31.789 186.595 31.6575 187.024 31.6575 187.418C31.6575 187.89 31.8264 188.403 31.9162 188.866C32.1237 189.929 32.3792 190.792 32.9192 191.739C33.2571 192.331 33.9403 192.732 34.6268 192.718C35.1699 192.705 35.6522 192.559 36.0243 192.138C36.4712 191.634 36.7781 190.894 36.5332 190.215C35.8917 188.438 34.7112 186.668 33.0325 185.736ZM122.103 183.963C121.12 182.242 118.791 180.705 116.758 180.857C113.706 181.085 113.083 185.193 116.038 186.173C117.804 186.76 120.234 186.158 121.78 185.193C122.196 184.934 122.349 184.394 122.103 183.963ZM153.47 178.085C153.693 177.76 153.325 177.39 152.992 177.463C152.255 177.624 151.459 177.696 150.737 177.915C149.997 178.14 149.281 178.513 148.548 178.77C147.013 179.307 145.373 179.578 143.888 180.226C143.294 180.486 142.827 181.346 142.881 181.979L142.895 182.128C142.928 182.442 142.983 182.717 143.159 183.004C143.632 183.777 144.569 184.175 145.453 183.937C147.093 183.497 148.696 182.365 150.094 181.425L150.353 181.254C150.964 180.851 151.621 180.43 152.113 179.913C152.627 179.371 153.049 178.697 153.47 178.085ZM97.0874 171.827C97.2766 171.147 96.4298 170.699 95.9369 171.158C94.9521 172.076 93.9214 172.926 92.9558 173.868L92.8917 173.932C92.201 174.626 91.1948 175.964 92.094 176.862C93.2456 178.013 94.8495 176.305 95.4675 175.415C96.2502 174.285 96.7206 173.148 97.0874 171.827ZM21.6826 166.208C23.1442 167.755 25.396 168.467 27.3795 169.056C29.7307 169.755 32.1525 170.172 34.5776 170.516C36.9213 170.847 39.2459 171.143 41.5522 171.524C39.8083 171.546 38.0633 171.559 36.3236 171.59C34.3167 171.626 32.3108 171.67 30.3038 171.728C28.8422 171.77 27.1282 171.569 25.7392 172.112C25.489 172.211 25.256 172.346 25.0517 172.511C23.8841 170.436 22.7646 168.332 21.6826 166.208ZM111.847 151.733C110.321 151.249 108.886 150.606 107.269 150.774C106.839 150.818 106.531 151.236 106.766 151.649C107.532 152.997 108.779 153.759 110.005 154.661L110.114 154.741C111.457 155.739 112.898 156.649 114.359 157.469C116.873 158.879 119.127 154.842 116.587 153.658C115.059 152.944 113.454 152.244 111.847 151.733ZM84.3773 148.229C82.0432 148.383 79.7101 148.486 77.3738 148.582C74.6665 148.69 75.5764 152.855 77.8379 152.012C80.0715 151.18 82.3062 150.357 84.5602 149.581C85.2466 149.344 85.191 148.217 84.4212 148.227L84.3773 148.229ZM144.246 140.82C143.641 140.779 143.031 140.91 142.425 140.969L141.78 141.032C140.451 141.163 139.205 141.327 137.938 141.867C135.6 142.865 136.855 146.623 139.203 146.536C140.938 146.472 142.422 145.728 143.887 144.861C145.168 144.103 145.953 143.154 146.818 141.963C147.104 141.569 146.705 141.128 146.315 141.088C145.628 141.018 144.933 140.868 144.246 140.82ZM27.0245 133.147C27.4115 135.56 28.3728 137.822 29.8195 139.792C30.5465 140.782 31.8243 140.819 32.545 139.792C33.565 138.339 32.9363 136.673 32.1675 135.278L31.9398 134.87C31.5965 134.257 31.0683 133.362 30.4642 132.746L30.4546 132.683C30.1306 130.155 26.6256 130.659 27.0245 133.147ZM121.434 117.656C120.852 117.131 119.781 117.289 119.592 118.142C119.328 119.336 119.167 120.682 119.34 121.893C119.434 122.551 119.469 123.288 119.727 123.9C120.005 124.558 120.54 125.065 121.043 125.56C122.048 126.548 124.167 126.222 124.437 124.664L124.471 124.474C124.606 123.737 124.78 122.949 124.579 122.219C124.428 121.668 124.089 121.106 123.809 120.595L123.75 120.486C123.19 119.442 122.316 118.449 121.434 117.656ZM39.6393 120.196L39.4287 120.198C37.8045 120.23 34.8353 120.625 34.8192 122.632C34.816 123.105 35.1656 123.594 35.6361 123.703C36.607 123.929 37.2346 123.355 37.9264 122.776C38.4921 122.302 39.1518 121.923 39.8372 121.652C40.5771 121.357 40.5279 120.195 39.6393 120.196Z" fill="#282828"/>
<path fill-rule="evenodd" clip-rule="evenodd" d="M34.4986 61.3214C35.9153 51.1042 39.1551 41.1844 39.6202 30.8143C39.8971 26.3768 40.1741 21.939 40.4499 17.5009C40.5547 14.7292 44.157 13.7941 45.5331 16.2496C48.6596 12.7829 54.2592 13.2935 58.5308 13.3986C83.6793 14.2895 107.578 31.287 116.211 54.9865C116.418 55.5517 116.356 56.1532 116.121 56.6907C120.145 70.1052 105.914 78.7416 96.2086 84.7228C92.2717 88.8824 87.644 92.3378 82.4186 94.7044C76.4074 97.5305 69.7161 99.1075 63.074 99.2582C61.6166 99.2913 60.7409 98.1128 60.635 96.8937C58.5158 96.4001 54.89 96.9696 53.7694 94.7995C40.9921 89.251 32.6659 75.189 34.4986 61.3214Z" fill="white"/>
<path fill-rule="evenodd" clip-rule="evenodd" d="M40.4822 25.0884C40.5186 24.7571 40.0407 24.7469 39.9412 25.0152C39.1318 27.2208 38.2925 29.4113 37.6509 31.6726C37.0318 33.852 36.587 36.0809 36.1358 38.3002C35.3873 41.9834 34.7436 45.6936 34.2122 49.4157C33.0746 48.5278 31.5873 48.4469 30.1866 49.138C29.529 49.4621 29.2766 50.319 29.4349 50.9839C29.5611 51.5171 29.7161 52.0482 29.9021 52.5674C29.5044 52.919 29.1676 53.3517 28.9227 53.8496C28.278 55.1595 28.4854 56.5336 29.0639 57.7837C29.02 57.8574 28.9762 57.9333 28.9355 58.0123C28.0983 59.6375 28.5463 61.0938 29.1579 62.6804C29.6156 63.8664 29.36 65.2031 30.348 66.0995C30.6923 67.2022 31.2077 68.229 31.9583 69.1553C32.1283 69.4673 32.3838 69.7184 32.6864 69.9032C32.7623 71.6438 32.9463 73.38 33.2927 75.1002C34.6357 81.7792 38.8976 87.7305 44.1733 91.9285C49.3366 96.0357 55.4003 98.4899 61.9429 99.2838C65.1207 99.6695 68.3017 99.5477 71.4527 98.9975L71.8451 98.928C74.7535 98.4002 78.2713 97.5272 80.2825 95.3348C81.34 94.1819 80.7209 91.6443 78.8519 91.8836C77.8618 92.0108 77 92.1689 76.0676 92.5343C75.3405 92.8196 74.6113 93.0942 73.8649 93.3271C72.4354 93.7716 70.9566 94.1189 69.4714 94.3112C66.3781 94.7108 63.164 94.605 60.106 94.0013C54.5459 92.9051 49.1441 90.376 44.9249 86.568C40.0193 82.1414 37.1441 76.4112 36.7217 69.8039C36.2502 62.4443 37.1003 54.9084 37.806 47.5868C38.1727 43.7784 38.6389 39.9776 39.2002 36.1928C39.7487 32.4948 40.077 28.802 40.4822 25.0884ZM83.8901 1.32432L83.6517 1.28778C74.2092 -0.148661 64.2749 -0.0467291 55.3992 3.84867C53.698 4.59585 52.0332 5.49688 50.4657 6.54248C49.343 6.42527 48.2129 6.33017 47.104 6.31457C45.7087 6.2963 44.3465 7.02115 44.1743 8.43258C42.8667 8.5951 41.6627 9.07612 40.8918 10.0384C40.5913 10.413 40.3903 10.8466 40.2887 11.2982C39.4846 11.4881 38.6966 11.7792 37.9492 12.1631C37.0404 12.6306 36.5164 13.9312 36.8372 14.8935C36.911 15.1119 36.9955 15.3247 37.0896 15.5328L37.1623 15.6881L37.1195 15.7468C36.3945 16.9121 36.8982 18.4409 38.0102 19.1364C38.8431 19.6581 39.7744 20.0736 40.7314 20.2746C40.6523 20.6585 40.5806 21.0446 40.5218 21.4352C40.4994 21.5936 40.7025 21.7064 40.7923 21.5504C40.7923 21.5504 40.4491 22.6186 39.9316 23.7953C39.7284 24.258 40.3796 24.6689 40.6277 24.2016C41.2874 22.955 41.6958 21.6769 42.2946 20.392C42.8485 20.3559 43.3991 20.2294 43.9305 19.9878C44.2781 19.8297 44.5422 19.5632 44.7325 19.2448C44.7432 19.2584 44.7506 19.2742 44.7613 19.29C46.5438 21.582 50.0273 22.3859 52.7197 23.1108C55.6109 23.8901 58.5706 24.3709 61.5409 24.7255C66.7278 25.342 71.9553 25.4571 77.1657 25.6967C77.511 25.7123 77.8553 25.7297 78.2007 25.7464C80.3167 27.6026 83.0433 28.7561 85.8404 29.1068C87.2572 29.2843 88.9337 29.2392 90.5226 28.8774C91.0979 29.4645 91.8239 29.8994 92.6172 30.1228C92.7605 33.0807 94.4104 35.8814 96.9049 37.5139L96.86 37.6896C96.2409 40.2156 96.2484 42.9766 98.4703 44.7322C98.7718 44.9697 99.1 45.1735 99.4454 45.3423L99.3695 45.5168C98.2222 48.1983 97.8554 51.1602 100.013 53.3848C100.888 54.2866 102.423 54.0729 103.08 53.0386L103.112 52.9863C103.148 52.9243 103.188 52.8655 103.225 52.8046C103.284 52.9243 103.373 53.0247 103.505 53.0814C104.325 53.434 104.654 53.1743 105.401 52.811C106.093 52.4723 106.822 52.2191 107.567 52.0225C108.175 51.8644 108.78 51.7511 109.39 51.686C113.244 53.1583 115.734 57.6747 115.142 61.9133C114.821 64.2211 113.553 66.5066 111.344 67.4639C110.378 67.8838 109.241 68.0601 108.195 67.918C106.779 67.7257 105.69 66.8346 104.224 67.3443C103.645 67.5451 103.284 67.9992 103.253 68.62C103.201 69.5955 103.547 70.3274 104.13 70.8691C103.101 71.7271 102.272 72.9195 101.38 73.8704C100.264 75.0607 99.1321 76.251 97.926 77.3483C96.7873 78.389 95.5769 79.3559 94.2938 80.2139L94.1591 80.3026C92.5509 81.3497 90.5258 82.2782 90.4488 84.4664C90.4242 85.1256 90.8241 85.7304 91.3662 86.0669C93.3924 87.3224 95.5972 85.6737 97.185 84.4664C97.8244 83.9802 98.4457 83.477 99.0444 82.9556C99.4443 82.9865 99.8806 82.9214 100.334 82.7205C100.626 82.5944 100.91 82.4448 101.19 82.2867C102.1 82.5154 102.959 82.3145 103.666 81.838C104.685 82.088 105.765 82.1179 106.682 81.917C107.52 81.7311 108.268 81.3358 108.884 80.8058C110.172 81.2161 111.602 81.1402 112.871 80.3603C113.633 79.8933 114.227 79.2266 114.55 78.4477C114.714 78.1902 114.82 77.89 114.827 77.5598L114.828 77.4338C115.935 77.4594 117.044 77.079 117.9 76.2039C118.686 75.3994 119.07 74.3972 119.113 73.3779C120.227 73.0627 121.245 72.4141 122.02 71.414C123.303 69.7558 123.475 67.7076 122.815 65.8783C122.858 65.7822 122.897 65.6828 122.931 65.5834C123.954 64.14 124.629 62.3994 124.575 60.6536C124.568 60.3822 124.532 60.1161 124.478 59.8522C125.485 59.3169 126.226 58.3767 126.305 57.1821C126.366 56.2451 126.03 55.3283 125.422 54.6349C125.718 53.9287 125.849 53.1604 125.759 52.3933C125.666 51.6048 125.388 50.9205 124.981 50.3494C124.991 50.1417 124.979 49.9314 124.946 49.7169C124.986 49.5069 125.02 49.2901 125.038 49.0691C125.23 46.6481 123.559 44.5298 121.523 43.412C120.988 43.1185 120.41 42.8791 119.831 42.6758C119.411 42.5268 118.779 42.4771 118.408 42.2039C118.424 42.1926 118.27 41.9942 118.243 41.8877C118.214 41.7567 118.182 41.6281 118.166 41.4949C118.105 40.9348 118.151 40.359 118.162 39.7966C118.212 37.2448 118.133 34.6818 117.864 32.1436C117.365 27.4375 116.133 22.8331 113.734 18.7209C111.722 15.2749 108.966 12.3641 105.805 9.95002C99.5106 5.14397 91.6549 2.53083 83.8901 1.32432ZM113.061 59.849C113.881 57.8809 110.023 57.8617 109.003 57.9546L108.973 57.9578C106.677 58.1865 103.088 59.2902 102.148 61.6056C101.76 62.564 102.911 63.6036 103.832 63.2884C104.734 62.9796 105.24 62.3172 105.962 61.737C106.152 61.5853 106.35 61.4432 106.552 61.3064C106.446 61.644 106.276 61.956 106.04 62.1889L105.985 62.2413C104.874 63.2392 106.86 64.8067 107.598 63.486C107.99 62.783 108.148 62.0116 108.025 61.2134C107.989 60.9773 107.926 60.7625 107.834 60.5563C107.907 60.52 107.979 60.4805 108.053 60.4452L108.185 60.3832C109.069 59.9826 112.842 58.4076 112.812 59.8159C112.808 59.9719 113.011 59.9719 113.061 59.849Z" fill="#282828"/>
<path fill-rule="evenodd" clip-rule="evenodd" d="M59.9845 81.4918C61.5028 80.8721 62.8575 79.8389 63.8487 78.5193C64.193 78.061 64.2817 77.577 64.2101 77.1335C64.1288 76.6356 63.8337 76.1837 63.4317 75.8813C63.0286 75.5768 62.5239 75.4272 62.0363 75.5041C61.6118 75.5704 61.1905 75.8022 60.8559 76.283L60.7864 76.3792C60.1972 77.1763 59.4306 77.8291 58.5559 78.2501C57.7134 78.6561 56.7703 78.8463 55.7952 78.7362C53.9368 78.5257 52.657 77.5214 51.2958 76.158C51.1269 75.986 50.9579 75.8076 50.789 75.6281C50.6821 75.4635 50.5335 75.3588 50.3677 75.3033C50.1849 75.2424 49.9775 75.2456 49.7871 75.3118C49.6043 75.3759 49.4407 75.4967 49.3306 75.658C49.2268 75.8119 49.167 76.001 49.1862 76.2179C49.3113 77.6314 50.0502 78.8933 51.1001 79.8838C52.2667 80.9832 53.8128 81.745 55.268 82.0111C56.8708 82.306 58.5046 82.0955 59.9845 81.4918ZM54.511 59.6866C52.8056 60.723 50.2063 63.1399 52.0411 65.7095C54.202 67.9757 57.3114 65.3773 58.8436 64.203C60.2657 63.2927 61.862 65.6337 60.5437 66.6968C49.4696 74.893 44.9745 59.958 53.6481 58.4675C54.604 58.304 54.958 59.3661 54.511 59.6866ZM74.3561 50.1523C74.1679 47.8137 70.6052 47.2826 70.2502 49.5968C69.9337 51.6699 70.3069 53.5739 71.2414 55.4405C72.1331 57.2238 74.3764 56.3915 74.5464 54.7685C74.7742 52.592 74.4737 51.6069 74.3561 50.1523ZM47.2348 49.117C46.7377 48.4666 46.0213 48.0226 45.1616 48.2735C42.4767 49.0578 43.268 52.8677 44.211 54.7225C44.7232 55.7301 46.3795 55.9855 47.1279 55.0986C48.3479 53.6519 48.9317 50.7643 47.3813 49.3398C47.3386 49.2662 47.2926 49.192 47.2348 49.117ZM71.2788 39.9191L70.8543 39.845C69.5424 39.6181 67.9118 39.4002 66.9837 40.4545C66.4908 41.0136 66.3218 42.0529 66.9837 42.5881C68.147 43.5298 69.4344 43.1649 70.8287 43.2446C71.9781 43.3105 73.0826 43.5006 74.1893 43.817C76.6186 44.5109 78.5978 45.7778 80.6721 47.1688C80.9437 47.3513 81.2217 47.0033 81.0923 46.7488C79.8947 44.4041 77.5745 42.4781 75.25 41.3041C74.0086 40.6774 72.6517 40.1576 71.2788 39.9191ZM49.6823 38.8688L49.3573 38.9352C45.8245 39.6734 41.2353 41.1477 39.5631 44.6163C39.4989 45.1067 39.5663 45.2118 39.6208 45.2804L39.639 45.3033C39.685 45.362 39.7202 45.4428 39.933 45.5096C39.9918 45.4955 40.0517 45.4807 40.1127 45.4649C40.8793 45.264 41.4855 44.9873 42.0726 44.7002L42.7098 44.3865C43.4487 44.0244 44.1939 43.6754 44.9841 43.4178C46.6692 42.8682 48.4035 42.481 50.1635 42.2742C50.5452 42.2294 50.913 42.1007 51.2028 41.8801C51.4776 41.6706 51.6882 41.3807 51.7845 40.9952C51.9085 40.4963 51.8732 40.1186 51.6048 39.6686C51.4038 39.3306 51.1151 39.0964 50.7847 38.9619C50.4479 38.8247 50.0641 38.7924 49.6823 38.8688Z" fill="#282828"/>
<path fill-rule="evenodd" clip-rule="evenodd" d="M34.3004 61.0617C37.043 63.8953 41.6215 64.7084 45.2708 63.189C54.6405 59.2752 50.0546 47.0698 42.8287 43.792C41.9262 43.567 40.7201 43.0335 39.6209 42.9124C39.5215 42.8637 39.3045 43.0048 39.0425 42.8714C31.0756 43.7606 29.2611 56.1244 34.3004 61.0617ZM64.5214 61.7872C67.5965 65.8655 73.3159 67.1242 77.9884 65.2277C87.2181 61.5938 83.9452 50.7705 77.6292 46.5273C64.2883 41.5161 58.7796 54.2674 64.5214 61.7872ZM84.5311 52.7502C84.5397 52.7459 84.5482 52.7437 84.5568 52.7405C84.5087 52.7192 84.4595 52.6967 84.4114 52.6754C84.4263 52.717 84.4434 52.7576 84.4595 52.7993C84.483 52.7822 84.5044 52.763 84.5311 52.7502ZM27.9513 48.3415C28.704 48.3431 29.7914 48.4668 30.4159 48.9892C31.9524 43.806 37.6279 39.0089 42.5635 42.5068C46.4502 43.7563 49.3339 46.5272 50.9731 50.2113C53.9284 48.454 58.5753 49.2044 61.1383 51.5278C62.817 45.9842 66.9475 44.0428 71.8638 43.7563C77.2303 42.8776 82.5787 48.0875 84.2478 52.2672C85.6356 52.1091 87.7089 51.6678 89.0144 52.5236C97.4871 50.3025 112.3 49.078 114.023 50.312C115.25 50.7828 115.924 53.6797 114.209 53.8357C112.715 53.6231 114.384 51.7137 112.878 51.5043C104.853 51.0075 97.0637 52.623 89.1235 53.3015C88.4146 54.2545 86.1243 54.573 84.9021 54.1904C86.8268 61.2797 82.6728 66.1038 76.4477 67.5484C66.8095 69.7611 58.4246 61.1419 60.9448 52.1775C58.0247 50.7253 54.6662 50.7876 51.4863 51.5524C56.8004 71.1063 25.2985 70.2291 30.2181 49.6592C26.9441 51.2874 26.233 48.6701 27.9513 48.3415Z" fill="#282828"/>
</svg>
