<?xml version="1.0" encoding="UTF-8"?>
<svg id="Layer_1" data-name="Layer 1" xmlns="http://www.w3.org/2000/svg" xmlns:xlink="http://www.w3.org/1999/xlink" viewBox="0 0 201.36 247.94">
  <defs>
    <style>
      .cls-1 {
        mask: url(#mask-2);
      }

      .cls-2 {
        fill: #282828;
      }

      .cls-2, .cls-3, .cls-4, .cls-5 {
        stroke-width: 0px;
      }

      .cls-2, .cls-5 {
        fill-rule: evenodd;
      }

      .cls-6 {
        mask: url(#mask-3);
      }

      .cls-3 {
        fill: none;
      }

      .cls-7 {
        mask: url(#mask-5);
      }

      .cls-4, .cls-5 {
        fill: #fff;
      }

      .cls-8 {
        mask: url(#mask-4);
      }

      .cls-9 {
        clip-path: url(#clippath);
      }

      .cls-10 {
        mask: url(#mask-1);
      }

      .cls-11 {
        mask: url(#mask);
      }
    </style>
    <clipPath id="clippath">
      <rect class="cls-3" width="201.36" height="247.94"/>
    </clipPath>
    <mask id="mask" x="-158.06" y="-.06" width="356" height="691.21" maskUnits="userSpaceOnUse">
      <g id="mask6_3718_399" data-name="mask6 3718 399">
        <path class="cls-4" d="m-158.06-.06H197.94v248H-158.06V-.06Z"/>
      </g>
    </mask>
    <mask id="mask-1" x="-158.06" y="-.06" width="356.47" height="690.28" maskUnits="userSpaceOnUse">
      <g id="mask7_3718_399" data-name="mask7 3718 399">
        <path class="cls-4" d="m-158.06-.06H197.94v248H-158.06V-.06Z"/>
      </g>
    </mask>
    <mask id="mask-2" x="-158.06" y="-.06" width="356" height="248" maskUnits="userSpaceOnUse">
      <g id="mask8_3718_399" data-name="mask8 3718 399">
        <path class="cls-4" d="m-158.06-.06H197.94v248H-158.06V-.06Z"/>
      </g>
    </mask>
    <mask id="mask-3" x="-158.06" y="-.06" width="356" height="248" maskUnits="userSpaceOnUse">
      <g id="mask9_3718_399" data-name="mask9 3718 399">
        <path class="cls-4" d="m-158.06-.06H197.94v248H-158.06V-.06Z"/>
      </g>
    </mask>
    <mask id="mask-4" x="-158.06" y="-.06" width="356" height="248" maskUnits="userSpaceOnUse">
      <g id="mask10_3718_399" data-name="mask10 3718 399">
        <path class="cls-4" d="m-158.06-.06H197.94v248H-158.06V-.06Z"/>
      </g>
    </mask>
    <mask id="mask-5" x="-158.06" y="-.06" width="356" height="248" maskUnits="userSpaceOnUse">
      <g id="mask11_3718_399" data-name="mask11 3718 399">
        <path class="cls-4" d="m-158.06-.06H197.94v248H-158.06V-.06Z"/>
      </g>
    </mask>
  </defs>
  <g class="cls-9">
    <g class="cls-11">
      <path class="cls-5" d="m142.61,230.93l.35,3.9.35-.35c0,8.15,1.41,16.3,2.47,24.45,3.52-2.83,6.35-5.32,5.64-10.28-2.12-7.08-4.58-13.82-7.05-20.55l-.35,1.77-1.41.35v.71Zm-247.44,429.39c.7-2.83,1.41-5.67,2.11-8.5,0-.35.71-.35.71-.35,3.52-8.5,6.34-10.27,13.04-11.69,10.93-2.13,21.5-6.38,31.72-12.4-.35-1.06-1.06-2.48-1.41-4.25h.7c.7,1.77,1.41,3.19,1.76,3.54,1.41-.71,2.82-1.77,3.88-2.48,1.06-.71,2.47-1.77,3.52-2.48.35-1.06,1.76-1.42,2.82-2.12,1.76-1.06,2.47-1.77,4.23-.35,3.17-4.25,5.99-8.86,8.46-14.88,1.76-3.54,2.47-7.44,4.58-10.27l-1.41-.35C-5.08,538.1-1.2,476.1,4.08,416.58c1.06-13.46,2.47-26.57,4.58-39.68.35-2.13.7-3.9,1.76-5.31-14.1-11.69-14.1-34.37-7.4-51.02-15.51-42.51,15.16-87.51,12.69-130.73-1.41-29.41,3.88-63.42,37.01-70.5,4.23-2.48,9.16-2.83,13.04-2.83,3.52-1.77,4.23-5.67,5.29-8.86h1.06c.35-1.42.7-3.19,1.06-4.61.35-1.06.35-2.13,1.76-1.77,3.17-4.96,29.96-7.09,29.96.35,1.06.71,1.06,1.77,1.41,3.19,1.41,9.57,11.63,17.01,20.8,15.59,39.12-1.77,54.63,25.86,62.04,63.77,5.99,29.41,9.87,61.29,4.93,90.7-4.58,13.46-18.33,19.84-28.9,27.99,1.06,3.19,1.41,6.38,1.41,9.92,0,3.9.35,7.79.71,11.69.7,4.96,2.11,13.46-4.58,14.17-2.47,58.1-7.75,115.85.35,173.95,6.7,32.24,4.23,71.21-4.23,102.74-.35,1.42-1.76,2.83-3.17,2.48-.7.35-1.41.71-2.11.35-.35.71-.71,1.42-1.41,2.13,0,8.5-1.06,17.01-.7,25.86.7,0,2.11-.71,2.82-.35v.71l.71.36c1.06,3.19,1.76,6.38,2.47,9.21,2.12,4.61,5.29,12.75,3.53,18.07,0,0,.35.71.7.71q.35.35.7.71c1.06.35,1.06,1.77,1.41,2.83.7,3.19-.35,6.02-.71,9.21l-1.06,1.06c-11.63.71-23.26,1.06-34.89,1.42-.7-1.77-1.06-3.9-1.76-5.67-13.75,10.27-37.72,6.38-54.99,3.9-7.05-1.06-13.75-2.13-19.74-2.48-.35,0-.35-.35-.35-.35,0-2.48-.35-4.61-.35-7.09-1.06-1.06-.71-3.19,0-5.31,3.17-6.73,11.28-7.44,18.33-8.5,12.69-2.48,22.91-7.09,31.37-14.17-.7-.35-1.06-1.06-1.41-1.42.35,0,.35-.35.7-.35.35-.35.7-.35,1.41-.71h.7c.71-.35,1.41-1.06,2.47-1.77,0,.35.35.35.35.71.7-.71,1.76-1.77,2.47-2.48,0-.35,0-.71.35-.71,2.11.35,4.58,1.06,6.7,1.77,2.47-8.5,3.88-17.36,3.88-25.86-2.47,0-4.58,0-6.35-1.06-.35,0-1.06.35-1.41-.35-.71-3.19-1.06-6.73-1.06-9.92-3.88-63.06-9.52-114.08-29.26-167.58-1.76,7.44-4.93,15.24-7.75,22.68-13.04,30.82-22.21,64.12-30.31,96.72-3.17,12.05-6.7,25.51-9.87,37.55-1.41,5.67-3.88,7.79-9.52,7.79-4.23.35-8.46,0-13.04,0-5.99,5.31-8.46,12.76-9.87,19.13,1.41,1.06,3.88.71,5.29,1.06,1.41,2.48,1.06,5.67,1.06,8.5-.35,3.9,0,7.79-1.06,11.34-.35,3.9-.35,8.15-.35,12.76,3.17,1.77,2.47,6.02,1.41,9.92-.35,1.06-17.62.71-21.85.71-4.93-.35-11.98,1.06-13.75-4.6-11.99,6.73-29.96,4.25-43.71,2.48-10.22-1.06-19.03-2.48-28.9-4.61-1.76-1.06-1.76-1.42-1.76-1.77Z"/>
    </g>
    <g class="cls-10">
      <path class="cls-2" d="m105.59,99.49c-.7,0-1.41,0-1.76.35v3.19s.35,0,.35.35c1.06,6.73,5.64,12.76,11.63,15.59.35.71,1.06.71,1.76.71l.7.35c2.47.71,4.93,1.42,7.4,1.42-6.34,18.07-31.37,27.63-48.99,29.05-15.16.71-23.62-12.04-19.74-26.22,8.81-1.06,17.62-10.63,14.45-19.84v-.35c0,1.06-.71,2.13-1.06,2.83v.35c-.71,2.48-1.76,5.32-3.88,6.73h-.35c-4.23,0-8.81.71-12.69,2.83-4.23.71-8.11,2.48-11.98,4.61-29.61,16.3-25.03,50.66-25.73,79.36-2.82,39.33-26.79,78.65-12.69,118.33-6.35,16.3-7.05,38.62,7.05,51.02,0,.36-.35.36-.35.71-.7,1.77-.7,3.54-1.06,5.31v.35c-.71,4.25-1.41,8.15-1.76,12.4-1.06,8.15-1.76,16.65-2.47,24.8v1.06c-1.76,20.9-3.53,41.45-5.64,62.35l-.35,3.19c-3.17,22.32-6.7,44.29-11.98,66.25,0,.71-.35,1.06-.35,1.77-1.76,7.09-4.23,13.82-6.34,20.9-.71,2.13-1.41,4.25-2.12,6.38l-1.06,2.48c0,.35-.35.71-.35,1.06-1.76,4.25-3.53,8.5-5.64,12.75-.35.71,0,1.42.71,1.77-1.76,2.83-2.47,6.02-3.88,9.21-2.12,4.61-4.58,9.57-7.75,13.46-1.76-1.42-3.53.35-4.93,1.42-1.06.71-2.11,1.06-2.47,2.13-.7.35-1.41.71-2.11,1.42v-.35c-.71-2.48-2.47-6.02-4.93-7.09-2.82-1.06-5.29,1.06-4.23,4.25.71,2.48,1.41,4.96,2.11,7.44-8.81,5.31-18.68,9.57-28.9,11.69h-.35c-2.47.35-4.93.71-7.4,2.13-3.88,2.12-6.34,6.02-7.75,9.92-.35,0-1.06.71-1.06,1.06l-1.06,4.25c-.35,1.42-.7,2.83-1.06,4.25-.35.71.35,1.77,1.06,2.13,5.99,1.06,11.98,2.13,17.98,3.19,16.92,1.42,38.77,7.08,54.63-.71,2.47,5.31,9.52,3.9,14.45,4.25,2.82-.35,23.26,1.06,22.91-1.42v-.35c1.06-3.54,1.76-8.15-1.41-10.63.35-3.9.35-7.79.35-11.69,1.06-3.54,1.06-7.79,1.06-11.69,0-2.84.71-6.02-1.06-8.86,0-1.77-3.88-.71-5.29-1.42v-.35c1.76-6.38,4.23-12.4,8.81-17.01,4.23.35,8.46.35,12.69,0,6.35,0,9.16-2.83,10.57-8.86,1.06-3.54,2.11-7.09,2.82-10.63,7.4-27.99,14.1-55.98,22.56-83.61,3.17-9.21,6.7-18.42,10.22-27.63,2.47-6.02,4.93-12.4,7.05-18.42,1.06-3.19,2.47-6.38,3.52-9.57.35-1.06.71-2.12,1.06-2.83,18.33,51.73,24.32,106.29,27.49,160.85.35,4.25.35,8.86,1.41,13.11.35,1.42,1.41,1.77,2.47,1.42,1.76,1.06,3.17,1.06,5.29,1.06v.71c0,5.31-.35,10.63-1.76,15.94-.35,2.12-1.41,4.25-1.76,6.38-1.76-.71-3.88-1.06-5.64-1.42-1.06,0-1.41.71-1.76,1.42-.35.35-.71.71-1.06,1.06l-.35-.35c-1.76-2.12-3.88-5.31-7.05-5.67-1.41,0-2.82.71-2.82,2.13-.35,3.19,2.47,6.73,4.58,9.21-8.46,7.09-19.03,10.98-29.61,13.11h-.35c-7.05,1.06-15.51,2.12-18.68,9.21-.71,1.77-1.41,4.25-.35,6.02,0,2.13.35,4.25.35,6.73,0,1.06.71,1.42,1.41,1.42,21.85,1.06,55.34,11.34,74.02-.71.35,1.42.7,2.83,1.06,3.9,0,.71.7,1.06,1.41,1.06,11.63-.35,23.26-.71,34.9-1.42.35,0,.7,0,.7-.35.35.35,1.06.35,1.06-.35s0-1.77.35-2.48c0-1.06.35-1.77.35-2.83.35-1.77,0-3.54,0-5.31v-.35c0-1.06-.35-2.48-1.41-3.19,0-.35-.35-.71-.7-1.06.7-1.42.35-2.83.35-4.25-.35-4.96-1.76-9.57-3.88-13.82-.71-3.19-1.41-6.73-2.47-9.57,0,0,0-.35-.35-.35-.35-.71-.71-1.06-1.41-1.06h-1.41c-.35-8.5.71-16.65.71-25.15.7.35,1.76,0,2.47-.35,2.11.35,3.52-1.42,4.23-3.54l.35-1.42c3.17-13.82,5.64-27.99,7.4-42.16,2.11-19.84-.35-39.68-3.52-59.17-8.11-51.73-2.12-103.81-1.76-155.89.35-5.67.71-11.34,1.41-17.01,2.47-.35,3.88-2.48,4.93-4.61,1.06-3.19.35-7.09,0-10.27-.35-3.9-.71-7.44-.71-11.34v-1.06c0-2.83-.35-6.02-1.06-8.5,10.22-7.79,23.97-14.17,28.2-27.63,2.12-1.77,1.41-10.27,1.76-13.11.7-26.22-1.76-52.79-7.4-78.65-7.05-35.07-21.5-66.61-62.39-65.19-.35,0-.71,0-1.06.35-7.05,1.06-13.75-3.19-16.92-9.21-.7-1.42-1.41-3.19-1.76-4.61-.7-2.13-.7-4.61-3.17-4.96Zm52.87,574.65c1.06.71,2.11.71,2.82,1.42.7,3.54.7,7.09-.35,10.63-10.93,0-21.85.71-32.78,1.06-.35-1.77-.71-3.54-1.41-4.96h-3.53c-16.57,12.05-51.46,1.77-71.55.71l-.35-3.54c.35,0,.35.35.71.35-.35-.35,0-1.06.71-1.06,1.06.36,2.11.71,3.17.71h.35c9.52.71,19.03.71,28.55.71s19.03.35,28.2.35c3.88,0,7.76,0,11.63-.35,11.98-1.77,22.91-4.25,33.84-6.02Zm-259.07-20.55c.35.35,1.06.35,1.76.35s1.06,0,1.76.36c1.41,1.06,4.58.71,5.99,1.06,31.37,3.19,62.74-.71,94.11,1.77,1.41,2.13,1.06,4.96.35,7.09-8.81.35-17.62.35-26.08,0h-.71c-1.06,0-2.11,0-3.17-.71-1.06-.35-2.12-1.42-1.76-2.48.35-1.42-1.06-2.83-2.47-1.77-11.98,8.15-28.2,3.9-41.59,3.19-9.87-1.06-19.39-2.48-28.9-4.25-.35-1.42.35-3.19.71-4.61Zm218.53-35.43c1.06,0,2.11.35,3.17.35,3.88.35,8.11.71,11.98.71h1.76c3.88,0,7.4.35,11.28,0,1.76,0,3.88-.35,5.64-.71-1.76,8.5-2.47,17.36-2.47,25.86-.35.35-.35,1.06-.35,1.77v.35c-.35.71-.71,1.77-.71,2.84-11.63,7.09-21.5,0-32.07-5.32,1.76-4.6,2.11-9.57,2.47-14.53.35-3.9,0-7.79-.7-11.34Zm-21.5,22.32c.35,0,1.06.36,1.41.71,1.76,1.06,3.17,2.48,4.23,3.9-.35.35-1.06,1.06-1.41,1.42-1.76-1.42-3.53-3.54-4.23-6.02Zm-124.07-44.28l1.41.71c9.87,3.19,19.74,6.38,29.96,7.44-.71.71-1.06,1.06-1.41,1.77-.35.35-.71.71-.71,1.06-.35.71-.71,1.42-1.06,2.12-1.76,3.9-3.53,7.8-4.94,11.69-.35,1.77-2.11,3.9-1.41,5.67-10.93,4.96-24.67,2.83-33.13-6.02l.35-.35c5.29-7.44,9.52-15.23,10.93-24.09Zm-29.96,20.55c.7-.71,1.76,1.06,2.11,1.42,1.06,1.42,1.76,3.19,2.47,4.61-.71.35-1.41,1.06-2.11,1.42-.7-1.06-3.17-6.73-2.47-7.44Zm209.72-.35c-.71,0-1.06.35-1.76.35-1.41,0-2.82.36-4.23.36,2.11-.36,3.88-.71,5.99-.71Zm-15.51-280.95h1.06c8.11-1.06,16.21-2.48,24.32-1.06-1.06,5.31-1.06,10.63-1.41,15.94-1.76,51.37-8.11,103.1-1.06,154.47l.35,1.42c2.47,18.07,5.64,36.49,4.23,54.91-1.06,17.01-4.23,33.3-7.75,49.96-.71.35-1.76.35-2.47.71,0-.35,0,0-.35,0-9.87,2.83-20.44,2.83-30.67,2.13-2.11,0-3.88-.35-5.99-.35-1.41-.71-3.17-1.06-4.58-1.42-3.52-52.43-7.75-105.22-23.97-155.53-10.22-31.89-22.91-63.06-30.66-95.66-.35-1.06-1.76-.71-1.41.35l.35,1.42c1.76,10.27,3.52,20.55,6.7,30.47-2.11-2.48-4.93-4.61-7.05-7.44-.71-.71-1.41-1.77-1.76-2.48-.35-1.06-1.41-2.13-2.47-2.48-.71-.35-1.06.35-1.41.71-.35,1.42-.35,2.12.35,3.54l.35.36c3.52,4.96,8.81,7.79,13.04,11.69,3.88,12.4,8.11,24.8,12.34,37.2,0,2.48-.35,4.96-1.06,7.09-.71,2.48-1.41,4.96-2.82,7.09-17.27,36.49-26.08,76.17-36.66,115.14-2.82,10.27-5.64,20.55-8.46,31.18v.35c-.71,2.83-1.76,3.9-4.93,3.9-15.86.71-32.08-1.77-46.53-8.15,8.11-21.26,13.39-43.22,17.62-65.9,2.11-10.63,3.88-21.26,5.29-31.89,2.11-13.82,3.88-27.28,5.64-41.1,3.88-26.57,3.53-53.85,8.46-80.42,1.76,0,3.17-1.77,2.12-3.19.35-1.42,0-3.19-.35-4.25v-.35c5.64,4.96,13.04,5.67,9.16-3.9l-.35-.71c-2.82-7.09-6.35-14.53-4.94-22.32,16.21,8.86,36.31,7.44,53.58,3.54-1.41,4.96,2.47,8.15,6.34,4.61.71-.71,1.41-1.06,2.12-1.77-1.06,4.25-.35,8.5.35,12.75v.35c.35,2.48,1.06,5.67,2.82,7.44,1.41,1.42,3.52.71,4.23-1.06.35-6.02,2.12-11.69,4.93-17.01-.35,3.9-.35,7.79.71,11.34.35,1.42.71,2.83,1.06,4.25v.36c-.35,2.48,0,4.96,3.17,4.96,7.4-1.42,2.82-19.13,7.4-24.45,1.41,6.73-.35,15.59,6.35,20.19,1.76,1.06,3.88.36,4.23-1.77v-1.77c-.71-10.63-.71-13.82,5.99-23.74,4.93,1.42,9.87,1.06,14.45.35ZM4.08,606.83q0,.35-.35.35l.35-.35Zm6.35-235.6l.35.36c-.35,1.06-.35,2.48-.71,3.54v-.71c0-.71,0-2.13.35-3.19Zm4.94-108.06c2.47-10.63,4.58-15.23,1.76.35l-.35,1.77c-1.41,6.73-2.47,14.17-3.88,22.32l-.35,1.77c-1.41,8.5-3.17,20.9-3.52,30.82,0,11.34,5.64,14.53,7.75,15.94.35,1.42,0,2.13-.35,3.54-.35,1.77-.71,3.9-.35,5.67.35,6.73,3.88,12.76,5.64,19.13-2.12-.71-4.23-2.48-6.34-3.9-3.17-2.48-5.64-6.38-6.35-10.27-.35-1.77,0-4.25-1.41-5.67-.35-.35-1.06-.35-1.76,0-1.06,1.06-1.06,2.48-.7,3.9.7,4.96,2.82,9.92,6.34,13.46,0,1.77.71,3.54,1.06,5.31,0,.35-.35.71-.35,1.06-2.47-2.13-4.23-4.61-5.99-7.09-6.7-12.05-4.58-25.86-2.82-38.97.35.71,1.06,1.06,2.11,1.06.35,1.06,1.76.35,1.76-1.06.35-9.21,1.41-21.97,3.88-35.43,1.06-8.5,2.47-16.3,4.23-23.74Zm85.65,41.45c3.52,10.63,16.57,12.4,24.32,19.13-3.88,10.27-14.8,21.26-11.63,34.72,0,.35.35,2.13,0,2.13s-1.41-1.06-1.76-1.42c-4.58-5.67-2.11-13.46-4.58-19.84-.35-.71-1.41-1.42-2.11-.71-3.17,3.54-4.23,8.15-4.58,12.75-.35,3.54-.35,7.44-1.41,10.63-.35.71-.7,1.77-1.06,1.77-1.41.35-.7-1.77-.7-2.48,0-2.48-1.06-4.61-1.41-7.08-.71-4.96,0-10.28,1.76-15.24.35-1.42-1.41-2.12-2.47-1.06-3.17,4.25-5.99,9.21-7.75,14.53-.71,2.13-1.06,4.25-1.41,6.38-2.82-8.86-2.82-18.42,3.88-25.86,1.41-1.77-1.06-4.61-2.82-2.83-1.76,2.13-3.53,4.25-5.29,6.38-1.76,1.77-3.88,4.25-5.99,5.67.35-8.5,9.52-12.4,14.45-18.42,4.93-4.96,7.4-12.4,10.57-19.13Zm44.06-72.63c1.76,5.31,3.88,10.98,5.64,16.3.35,3.9-.7,5.32-3.52,7.79-1.06-6.73-1.76-13.82-2.47-20.55.35-1.42.35-2.48.35-3.54Zm-109.62-71.21l-.71,4.61c-2.47,16.65-4.93,33.3-8.81,49.6-.35,1.06-1.41-.35-1.06-2.12,2.47-18.07,10.57-52.08,10.57-52.08Zm21.15-36.14c0,.36-.35.36-.35.71v-.71h.35Z"/>
    </g>
    <g class="cls-1">
      <path class="cls-5" d="m71.76,30.4c27.49-1.06,53.58,17.36,62.39,43.58.71,2.13-1.41,3.9-3.52,3.54,2.11,10.27-2.47,24.45-14.1,25.86-2.47.36-4.93,0-7.05.36-2.12.35-13.75,6.73-18.33,8.5-9.16,3.19-32.43,2.48-41.59,0-.35.71-7.4-28.7-9.16-37.91-.71-3.9,4.93-6.73,4.58-10.98-.35-5.31-6.7-11.69-4.58-16.65,4.93-12.75,19.39-16.3,31.37-16.3Z"/>
    </g>
    <g class="cls-6">
      <path class="cls-2" d="m85.5,7.38c-1.06,0-2.47.35-3.52.35-3.52-.71-7.4,0-11.28,1.06-8.46,2.83-16.57,7.44-22.91,13.82-3.17,3.19-5.99,6.73-7.4,11.34-.7,2.13-1.41,4.61-1.41,6.73v2.83c-.35,1.77-.71,3.54-.71,5.67v2.48c0,1.06.35,2.13.71,3.19v.71c0,.35.35,1.06.35,1.42.35,1.06.71,2.13,1.06,3.19v.35c.35.71.35,1.77.71,2.48,0,.71-.35,1.42-.35,2.13-.71,3.9-1.41,7.44-2.47,11.34-1.76,7.44-4.58,15.23-5.29,23.03-.71,6.02.35,12.75,4.23,17.71,3.17,4.25,8.11,6.73,13.39,7.44,2.47.35,4.94,0,7.4-.36h.35c1.06-.35,2.82-.71,3.88-1.77,1.41-.35,2.47-1.42,3.17-2.13,1.06-1.06,2.12-2.83,1.76-4.61h4.23c3.52,0,7.05-.35,10.22-1.42,2.82-1.06,6.34-2.48,8.11-5.31,0,0,0-.35-.35-.35-1.41.35-2.82,1.06-4.23,1.42-1.41.35-2.82.71-4.23,1.06-2.82.35-5.99.35-8.81,0h-1.06c-3.17,0-6.34-.36-9.16-1.42-1.06-.36-2.12-1.06-3.17-1.77-.35-.35-1.06-.71-1.76-1.06,0,0,0-.35-.35-.35-1.41-1.77-2.47-3.19-3.88-4.96-2.12-3.54-3.17-6.73-3.17-10.98s0-8.5-.35-12.75v-1.42c0-4.96,0-9.57-.35-14.53,0-2.13-.35-4.61-.71-6.73v-.35l-.71-3.54c0-.71-.35-1.77-.35-2.48.35-.35.35-.71.71-1.06.35-.35.35-.71.71-.71h.35c.35-.35.71-.71,1.06-1.42.35-.35.7-1.06,1.06-1.42,0,0,0-.35.35-.35.35-.35.35-.71.71-.71,1.06,1.77,2.12,3.54,4.23,4.61.71.35,1.41,0,1.76-.71.71-1.77,1.41-3.9,2.47-5.31,1.76,3.19,4.93,5.67,8.46,6.73,1.06.35,1.76-.71,1.41-1.42-.71-2.48-.71-5.31-.35-7.79,1.41,1.06,2.82,1.77,4.23,2.83,3.17,2.48,6.7,4.61,10.22,6.38.7.35,2.11-.35,1.76-1.42-.35-1.06-.71-1.77-.71-2.83v-.35c8.46,11.69,29.26,23.38,31.02,23.38-1.06,1.06-1.76,2.13-2.47,3.54-.7,1.42,1.76,2.13,2.12.71,1.06-2.48,3.17-3.9,5.64-4.25,1.41.35,2.82,1.06,3.88,2.13,1.76,2.13,1.76,4.61.7,7.09l-.35.35c-.7,1.42-1.41,2.48-1.76,3.9-.35,1.77,0,3.54-.35,5.31,0,.71-.35,1.77-1.41,1.42h-.35c-.35,0-.35.35-.7.35-.7.35-1.41,0-2.11,0s-1.41-.35-2.12-.71v.35c0,1.06.35,1.77,1.06,2.13-1.06,1.06-1.76,2.48-2.47,3.54-1.41,1.77-2.47,3.19-3.88,4.96s-2.82,3.19-4.58,4.61c-1.06,1.06-2.82,2.13-3.52,3.54-.71.35-1.41.71-1.76,1.77-.35,1.77-.71,6.02-.35,8.15.35,1.77,1.76,3.19,3.17,3.9.7.35,1.06.35,1.41.35.35.35.71.71,1.06,1.06,1.76,1.06,3.52,1.42,5.29,1.42,2.47.71,5.29,1.06,7.75.35.71,0,1.76.36,2.47.36,8.81.71,17.98,0,26.43-2.13,3.88-1.06,7.76-2.83,11.28-4.96,6.35-3.9,9.17-14.88,5.64-25.51l-.35-.71c-1.41-4.61-3.17-9.57-5.64-13.82l-.35-.35c-2.11-3.9-4.23-8.15-7.4-11.34-1.41-1.77-3.17-3.19-5.29-4.25-.71-.35-1.76-.71-2.47-1.06v-.71c0-.71,0-1.42-.35-2.13-.35-2.48-.71-5.31-1.41-7.79-.71-2.48-1.41-4.96-2.47-7.44-1.76-3.9-3.88-7.79-6.34-11.34-.35-.35-.35-.71-.7-1.06-2.47-4.25-4.93-8.5-8.81-11.34-4.23-3.54-9.16-5.67-14.1-7.44-5.29-1.77-10.93-2.83-16.57-3.19-2.82,0-5.64,0-8.46.35Zm38.77,66.96c-2.82-1.77-6.34-.71-7.75,2.48-1.06,2.13,2.11,3.19,2.82,1.06.7-2.13,2.82-3.54,4.93-3.54,0,.35.35.35,0,0Z"/>
    </g>
    <g class="cls-8">
      <path class="cls-2" d="m70,97.72c1.76-.71,3.17-1.77,4.23-3.19.35-.35.35-1.06.35-1.42s-.35-1.06-.7-1.42c-.35-.35-1.06-.35-1.41-.35s-1.06.35-1.41.71c-.71.71-1.41,1.42-2.47,2.13-1.06.35-1.76.71-2.82.35-2.12-.35-3.17-1.42-4.58-2.83q-.35-.35-.71-.71l-.35-.35h-.71c-.35,0-.35.35-.35.35v.71c0,1.42,1.06,2.83,2.11,3.9,1.06,1.06,2.82,2.13,4.23,2.13,1.41.71,2.82.71,4.58,0Zm-5.64-23.03c-1.76,1.06-4.58,3.54-2.47,6.38,2.12,2.48,5.64-.35,7.05-1.77,1.41-1.06,3.17,1.42,1.76,2.48-11.63,8.86-16.57-7.09-7.4-8.86,1.06.35,1.41,1.42,1.06,1.77Zm20.8-10.27c-.35-2.48-3.88-3.19-4.23-.71-.35,2.13,0,4.25,1.06,6.02,1.06,1.77,3.17,1.06,3.52-.71,0-1.77-.35-2.83-.35-4.61Zm-28.55-1.06c-.35-.71-1.41-1.06-2.11-1.06-2.82.71-2.12,4.96-1.06,6.73.71,1.06,2.12,1.42,3.17.35,1.06-1.06,1.76-4.25,0-6.02Zm25.38-9.57h-.35c-1.41-.35-3.17-.35-4.23.71-.35.71-.71,1.77,0,2.13,1.06,1.06,2.47.71,3.88.71,1.06,0,2.47.35,3.52.71,2.47.71,4.58,2.13,6.7,3.54.35.35.71,0,.35-.35-1.41-2.48-3.88-4.61-5.99-5.67-1.06-1.06-2.47-1.77-3.88-1.77Zm-22.91-1.06c-4.23.71-8.81,2.48-10.57,6.02v.71s0,0,.35.35h.35c.71-.35,1.41-.35,2.11-.71l.71-.35c.71-.35,1.41-.71,2.47-1.06,1.76-.71,3.52-1.06,5.29-1.06.35,0,.71-.35,1.06-.35q.35-.35.7-1.06c0-.35,0-1.06-.35-1.42-.35-.35-.35-.71-.71-.71-.71-.71-1.06-.71-1.41-.35Z"/>
    </g>
    <g class="cls-7">
      <path class="cls-2" d="m44.27,76.82c1.76,2.13,4.58,2.83,7.4,2.48,5.99-.71,7.75-7.44,8.11-12.4-3.88,1.06.35-6.73-13.04-7.79-4.93-.35-3.52,2.48-5.64,4.61-.35,4.61.35,9.21,3.17,13.11Zm27.85-5.31c3.52,16.3,22.56,12.4,24.67-2.13-1.76-1.42-1.41-4.61-3.52-5.67-3.52-2.48-8.11-2.13-12.34-2.13-5.29.35-6.7,2.48-9.52,4.96,0,1.42.35,3.54.71,4.96Zm-35.6-15.23h.71s.35,0,.71-.35c.35,0,1.06-.35,1.41-.35,6.7-1.42,22.56.71,23.26,6.38,2.12.71,3.88,0,6.7,0,1.76-8.15,34.89-6.73,36.66-2.13,1.41-.35,3.88-.35,5.64-.35,3.88,0,7.4.35,10.93,1.06,6.7,1.06,16.21,2.48,11.28,10.98-.7.71-2.11,0-2.11-1.06,1.76-3.9-2.11-4.61-4.93-5.67-7.05-2.48-14.1-2.83-21.15-2.13-.7.71-1.41,1.06-2.11,1.42-4.93.71-2.11,4.25-5.29,4.96.7,12.4-14.45,19.13-23.26,10.98-3.52-3.54-4.23-8.5-4.93-13.11-.35,0-.71-.35-.71-.71-1.06-1.06-1.76-2.13-3.52-2.13-2.11-.35-3.52.35-3.88.35,0,0,0,.35-.35.35l-.35.35c2.11,12.4-7.4,20.19-17.27,13.82-4.23-3.9-4.93-9.92-5.29-15.59-.71-.35-1.06-1.06-.71-1.77.35-1.06-.35-2.13-1.41-2.83-1.76.35-1.41-2.13,0-2.48Z"/>
    </g>
  </g>
</svg>